<?xml version="1.0" standalone="no"?>
<!DOCTYPE svg PUBLIC "-//W3C//DTD SVG 1.1//EN" "http://www.w3.org/Graphics/SVG/1.1/DTD/svg11.dtd" >
<svg xmlns="http://www.w3.org/2000/svg" xmlns:xlink="http://www.w3.org/1999/xlink" version="1.1">
<metadata>
Created by FontForge 20161013 at Sun Jul 25 21:00:12 2010
 By ,,,
Copyright (c) 2009 by Dino dos Santos _DSType. All rights reserved.
</metadata>
<defs>
<font id="VelinoText-ThinItalic" horiz-adv-x="510" >
  <font-face 
    font-family="Velino Text Thin Italic"
    font-weight="100"
    font-style="italic"
    font-stretch="normal"
    units-per-em="1000"
    panose-1="2 0 5 3 0 0 0 2 0 4"
    ascent="750"
    descent="-250"
    x-height="500"
    cap-height="680"
    bbox="-94.1364 -262 1099 926.267"
    underline-thickness="50"
    underline-position="-200"
    unicode-range="U+0020-FB04"
  />
<missing-glyph horiz-adv-x="436" 
d="M118 227q0 79 59 136l-54 90l8 8l54 -90q43 36 90 36q46 0 79 -36l80 90l6 -8l-79 -89q29 -39 29 -95q0 -76 -60 -134l52 -86l-8 -9l-54 87q-41 -35 -89 -35t-80 35l-76 -87l-7 9l77 86q-27 37 -27 92zM128 230q0 -52 30 -89t75 -37q56 0 101 49.5t45 114.5
q0 52 -30.5 89.5t-74.5 37.5q-56 0 -101 -50t-45 -115z" />
    <glyph glyph-name="ff" unicode="ff" horiz-adv-x="580" 
d="M474 478h-252l-73 -514q-10 -70 -50.5 -117t-109.5 -47q-23 0 -40 8.5t-17 24.5q0 18 19 18q13 0 36 -12.5t38 -12.5q65 0 80 104l79 548h-75l2 14l76 8l7 46q10 70 51 117t110 47q22 0 39.5 -8t17.5 -22q0 -21 -21 -21q-13 0 -35.5 12t-37.5 13q-32 1 -53 -25.5
t-28 -78.5l-12 -80h252l7 46q10 70 51 117t110 47q22 0 39.5 -8t17.5 -22q0 -21 -21 -21q-13 0 -35.5 12t-37.5 13q-32 1 -53 -25.5t-28 -78.5l-12 -80h117l-3 -22h-117l-73 -514q-10 -70 -50.5 -117t-109.5 -47q-23 0 -40 8.5t-17 24.5q0 18 19 18q13 0 36 -12.5t38 -12.5
q65 0 80 104z" />
    <glyph glyph-name="fi" unicode="fi" horiz-adv-x="530" 
d="M395 26l62 432q3 20 -15 20h-220l-73 -514q-10 -70 -50.5 -117t-109.5 -47q-23 0 -40 8.5t-17 24.5q0 18 19 18q13 0 36 -12.5t38 -12.5q65 0 80 104l79 548h-75l2 14l76 8l7 50q11 73 55.5 126.5t128.5 53.5q49 0 83 -25.5t34 -47.5q0 -9 -6.5 -15.5t-16.5 -6.5
q-9 0 -19 11t-19.5 24.5t-30.5 24.5t-48 11q-101 0 -121 -146l-9 -60h159l118 10l5 -8q-9 -22 -18 -82l-53 -374q-3 -25 14 -25h70l-2 -16q-11 -2 -32 -6t-36.5 -6.5t-27.5 -2.5q-32 0 -27 36z" />
    <glyph glyph-name="fl" unicode="fl" horiz-adv-x="530" 
d="M395 26l86 609q-30 40 -60 56q-31 15 -66 15q-101 0 -121 -146l-9 -60h117l-3 -22h-117l-73 -514q-10 -70 -50.5 -117t-109.5 -47q-23 0 -40 8.5t-17 24.5q0 18 19 18q13 0 36 -12.5t38 -12.5q65 0 80 104l79 548h-75l2 14l76 8l7 50q5 33 16.5 62.5t31 57.5t53 44
t75.5 16t76 -16t46 -30l38 26l5 -8q-10 -27 -18 -82l-81 -574q-3 -25 14 -25h70l-2 -16q-11 -2 -32 -6t-36.5 -6.5t-27.5 -2.5q-32 0 -27 36z" />
    <glyph glyph-name="ffi" unicode="ffi" horiz-adv-x="820" 
d="M685 26l62 432q3 20 -15 20h-220l-73 -514q-10 -70 -50.5 -117t-109.5 -47q-23 0 -40 8.5t-17 24.5q0 18 19 18q13 0 36 -12.5t38 -12.5q65 0 80 104l79 548h-252l-73 -514q-10 -70 -50.5 -117t-109.5 -47q-23 0 -40 8.5t-17 24.5q0 18 19 18q13 0 36 -12.5t38 -12.5
q65 0 80 104l79 548h-75l2 14l76 8l7 46q10 70 51 117t110 47q22 0 39.5 -8t17.5 -22q0 -21 -21 -21q-13 0 -35.5 12t-37.5 13q-32 1 -53 -25.5t-28 -78.5l-12 -80h252l7 50q11 73 55.5 126.5t128.5 53.5q49 0 83 -25.5t34 -47.5q0 -9 -6.5 -15.5t-16.5 -6.5q-9 0 -19 11
t-19.5 24.5t-30.5 24.5t-48 11q-101 0 -121 -146l-9 -60h159l118 10l5 -8q-9 -22 -18 -82l-53 -374q-3 -25 14 -25h70l-2 -16q-11 -2 -32 -6t-36.5 -6.5t-27.5 -2.5q-32 0 -27 36z" />
    <glyph glyph-name="ffl" unicode="ffl" horiz-adv-x="820" 
d="M685 26l86 609q-30 40 -60 56q-31 15 -66 15q-101 0 -121 -146l-9 -60h117l-3 -22h-117l-73 -514q-10 -70 -50.5 -117t-109.5 -47q-23 0 -40 8.5t-17 24.5q0 18 19 18q13 0 36 -12.5t38 -12.5q65 0 80 104l79 548h-252l-73 -514q-10 -70 -50.5 -117t-109.5 -47
q-23 0 -40 8.5t-17 24.5q0 18 19 18q13 0 36 -12.5t38 -12.5q65 0 80 104l79 548h-75l2 14l76 8l7 46q10 70 51 117t110 47q22 0 39.5 -8t17.5 -22q0 -21 -21 -21q-13 0 -35.5 12t-37.5 13q-32 1 -53 -25.5t-28 -78.5l-12 -80h252l7 50q5 33 16.5 62.5t31 57.5t53 44
t75.5 16t76 -16t46 -30l38 26l5 -8q-10 -27 -18 -82l-81 -574q-3 -25 14 -25h70l-2 -16q-11 -2 -32 -6t-36.5 -6.5t-27.5 -2.5q-32 0 -27 36z" />
    <glyph glyph-name="T_h" unicode="Th" horiz-adv-x="911" 
d="M501 0l90 639q3 20 -14 20h-210l-86 -613q-3 -24 14 -25l69 -5l-2 -16h-215l2 16l72 5q17 1 20 25l86 613h-151q-23 0 -28 -20l-35 -109h-14l21 150h430l89 30l6 -8q-12 -28 -18 -82l-36 -257h1q71 147 180 147q47 0 74 -36.5t16 -113.5l-44 -314q-3 -25 14 -25h70
l-2 -16q-19 -2 -50.5 -8.5t-45.5 -6.5q-32 0 -27 36l45 324q19 130 -73 130q-45 0 -83.5 -38.5t-60.5 -89.5t-30 -102l-35 -250h-39z" />
    <glyph glyph-name="T_h.caron" unicode="&#x164;h" horiz-adv-x="912" 
d="M501 0l90 639q3 20 -14 20h-210l-86 -613q-3 -24 14 -25l69 -5l-2 -16h-215l2 16l72 5q17 1 20 25l86 613h-151q-23 0 -28 -20l-35 -109h-14l21 150h430l89 30l6 -8q-12 -28 -18 -82l-36 -257h1q71 147 180 147q47 0 74 -36.5t16 -113.5l-44 -314q-3 -25 14 -25h70
l-2 -16q-19 -2 -50.5 -8.5t-45.5 -6.5q-32 0 -27 36l45 324q19 130 -73 130q-45 0 -83.5 -38.5t-60.5 -89.5t-30 -102l-35 -250h-39zM280 890l83 -115l114 115h17l-134 -160h-7l-90 160h17z" />
    <glyph glyph-name="T_h.commaaccent" unicode="&#x162;h" horiz-adv-x="912" 
d="M501 0l90 639q3 20 -14 20h-210l-86 -613q-3 -24 14 -25l69 -5l-2 -16h-215l2 16l72 5q17 1 20 25l86 613h-151q-23 0 -28 -20l-35 -109h-14l21 150h430l89 30l6 -8q-12 -28 -18 -82l-36 -257h1q71 147 180 147q47 0 74 -36.5t16 -113.5l-44 -314q-3 -25 14 -25h70
l-2 -16q-19 -2 -50.5 -8.5t-45.5 -6.5q-32 0 -27 36l45 324q19 130 -73 130q-45 0 -83.5 -38.5t-60.5 -89.5t-30 -102l-35 -250h-39zM231 -110q-14 0 -22 9t-8 23q0 17 12 30t29 13q25 0 35 -21.5t10 -46.5q0 -56 -34 -95.5t-74 -59.5l-5 13q33 18 57 46t24 59q0 30 -24 30z
" />
    <glyph glyph-name="f_f_j" unicode="ffj" horiz-adv-x="799" 
d="M184 478h-75l2 14l76 8l7 46q10 70 51 117t110 47q22 0 39.5 -8t17.5 -22q0 -21 -21 -21q-13 0 -35.5 12t-37.5 13q-32 1 -53 -25.5t-28 -78.5l-12 -80h252l7 50q11 73 55.5 126.5t128.5 53.5q49 0 83 -25.5t34 -47.5q0 -9 -6.5 -15.5t-16.5 -6.5q-9 0 -19 11t-19.5 24.5
t-30.5 24.5t-48 11q-101 0 -121 -146l-9 -60h159l118 10l5 -8q-9 -22 -18 -82l-56 -400q-25 -170 -146 -220l-4 12q89 47 109 188l65 458q1 20 -15 20h-220l-73 -514q-10 -70 -50.5 -117t-109.5 -47q-23 0 -40 8.5t-17 24.5q0 18 19 18q13 0 36 -12.5t38 -12.5q65 0 80 104
l79 548h-252l-73 -514q-10 -70 -50.5 -117t-109.5 -47q-23 0 -40 8.5t-17 24.5q0 18 19 18q13 0 36 -12.5t38 -12.5q65 0 80 104z" />
    <glyph glyph-name="f_j" unicode="fj" horiz-adv-x="509" 
d="M222 478l-73 -514q-10 -70 -50.5 -117t-109.5 -47q-23 0 -40 8.5t-17 24.5q0 18 19 18q13 0 36 -12.5t38 -12.5q65 0 80 104l79 548h-75l2 14l76 8l7 50q11 73 55.5 126.5t128.5 53.5q49 0 83 -25.5t34 -47.5q0 -9 -6.5 -15.5t-16.5 -6.5q-9 0 -19 11t-19.5 24.5
t-30.5 24.5t-48 11q-101 0 -121 -146l-9 -60h159l118 10l5 -8q-9 -22 -18 -82l-56 -400q-25 -170 -146 -220l-4 12q89 47 109 188l65 458q1 20 -15 20h-220z" />
    <glyph glyph-name=".notdef" horiz-adv-x="436" 
d="M118 227q0 79 59 136l-54 90l8 8l54 -90q43 36 90 36q46 0 79 -36l80 90l6 -8l-79 -89q29 -39 29 -95q0 -76 -60 -134l52 -86l-8 -9l-54 87q-41 -35 -89 -35t-80 35l-76 -87l-7 9l77 86q-27 37 -27 92zM128 230q0 -52 30 -89t75 -37q56 0 101 49.5t45 114.5
q0 52 -30.5 89.5t-74.5 37.5q-56 0 -101 -50t-45 -115z" />
    <glyph glyph-name=".null" horiz-adv-x="0" 
 />
    <glyph glyph-name="nonmarkingreturn" horiz-adv-x="333" 
 />
    <glyph glyph-name="space" unicode=" " horiz-adv-x="205" 
 />
    <glyph glyph-name="exclam" unicode="!" horiz-adv-x="232" 
d="M87 21q0 16 11.5 28t25.5 12q12 0 19.5 -9t7.5 -22q0 -16 -11.5 -28t-25.5 -12q-12 0 -19.5 9t-7.5 22zM144 150h-13l49 505q4 35 33 35t23 -35z" />
    <glyph glyph-name="quotedbl" unicode="&#x22;" horiz-adv-x="377" 
d="M173 450h-13l19 230h39zM343 450h-13l19 230h39z" />
    <glyph glyph-name="numbersign" unicode="#" horiz-adv-x="552" 
d="M114 206h119l17 118h-119l3 22h119l21 145h22l-21 -145h98l21 145h22l-21 -145h121l-3 -22h-121l-17 -118h121l-3 -22h-121l-20 -146h-22l20 146h-98l-20 -146h-22l20 146h-119zM272 324l-17 -118h98l17 118h-98z" />
    <glyph glyph-name="dollar" unicode="$" horiz-adv-x="500" 
d="M223 -70l10 61q-72 3 -141 49l3 160h15q4 -101 36.5 -144t89.5 -47l54 331q-32 20 -49 32t-39 33t-32 46.5t-10 56.5q0 71 49.5 125.5t137.5 56.5l10 60h20l-10 -60q65 -3 138 -50l-21 -150h-15q14 171 -105 180l-48 -297q33 -20 43 -27t35.5 -27t35.5 -34.5t19.5 -38
t9.5 -50.5q0 -83 -57.5 -143.5t-148.5 -62.5l-9 -60h-21zM417 175q0 52 -28 86t-81 67l-52 -319q69 2 115 46.5t46 119.5zM201 523q0 -46 24.5 -77t71.5 -61l47 286q-64 -1 -103.5 -46.5t-39.5 -101.5z" />
    <glyph glyph-name="percent" unicode="%" horiz-adv-x="820" 
d="M585 700h20l-279 -720h-21zM296 675q-47 0 -82.5 -46t-35.5 -131q0 -56 22 -84.5t56 -28.5q47 0 82.5 46.5t35.5 130.5q0 56 -22 84.5t-56 28.5zM254 374q-46 0 -72 38t-26 93q0 69 40.5 125t101.5 56q46 0 72 -38.5t26 -93.5q0 -69 -40.5 -124.5t-101.5 -55.5zM659 291
q-48 0 -83 -45.5t-35 -131.5q0 -56 22 -84.5t56 -28.5q46 0 81.5 46.5t35.5 130.5q0 56 -22 84.5t-55 28.5zM617 -10q-47 0 -72.5 38t-25.5 93q0 70 40.5 125.5t101.5 55.5q46 0 72 -38.5t26 -93.5q0 -69 -40.5 -124.5t-101.5 -55.5z" />
    <glyph glyph-name="ampersand" unicode="&#x26;" horiz-adv-x="597" 
d="M522 348q11 27 -21 31l-48 5l3 16h171l-3 -16l-41 -5q-32 -3 -43 -34q-43 -131 -113 -224l37 -67q15 -29 50 -33l53 -5l-2 -16q-60 -5 -84 -5q-37 0 -53 30l-32 59q-89 -94 -190 -94q-64 0 -100 40t-36 106q0 63 35.5 121.5t134.5 115.5q-51 99 -51 157q0 67 44 113.5
t106 46.5q52 0 82 -27t30 -77q0 -119 -165 -209l131 -238q61 83 105 209zM224 20q85 0 162 82l-137 254q-76 -46 -107 -95.5t-31 -114.5q0 -57 29 -91.5t84 -34.5zM277 393q76 44 107 85.5t31 105.5q0 36 -19 61.5t-59 25.5q-50 0 -81.5 -38t-31.5 -84q0 -62 53 -156z" />
    <glyph glyph-name="quotesingle" unicode="'" horiz-adv-x="207" 
d="M173 450h-13l19 230h39z" />
    <glyph glyph-name="parenleft" unicode="(" horiz-adv-x="320" 
d="M164 242q0 294 193 518h20q-128 -157 -165 -420q-36 -265 47 -420h-20q-75 130 -75 322z" />
    <glyph glyph-name="parenright" unicode=")" horiz-adv-x="321" 
d="M243 340q-36 -250 -185 -420h-19q127 155 164 420q37 264 -46 420h19q102 -173 67 -420z" />
    <glyph glyph-name="asterisk" unicode="*" horiz-adv-x="375" 
d="M194 648q16 18 30 1q2 -4 18 -46t19 -48v104q0 14 7 22.5t17 8.5q18 0 18 -20q0 -6 -16 -57t-17 -58q3 4 18.5 27.5t29.5 43t18 23.5q15 17 29 0q11 -18 -5 -35q-4 -4 -22 -16.5t-40 -27.5t-26 -18q10 0 51 10.5t44 10.5q18 0 18 -21q0 -12 -7.5 -20t-17.5 -8
q-3 0 -41.5 9t-46.5 9q2 -2 33.5 -28t34.5 -30q13 -19 -5 -35q-7 -7 -16 -7t-14 7q-2 3 -10 22t-16.5 41.5t-10.5 26.5q-1 -12 -0.5 -29t1.5 -42t1 -31q0 -12 -7 -20.5t-17 -8.5q-18 0 -18 21q0 5 15 53.5t16 57.5q-3 -5 -18.5 -27.5t-28.5 -41.5t-16 -22q-7 -7 -16 -7
t-14 7q-12 17 5 35q8 8 86 58q-9 0 -50.5 -9t-44.5 -9q-17 0 -17 20q0 12 7 20.5t17 8.5q4 0 43 -10.5t47 -10.5q-10 8 -38.5 32.5t-31.5 29.5q-12 17 5 34z" />
    <glyph glyph-name="plus" unicode="+" horiz-adv-x="467" 
d="M235 90l23 164h-137l3 22h137l23 164h22l-23 -164h138l-3 -22h-138l-23 -164h-22z" />
    <glyph glyph-name="comma" unicode="," horiz-adv-x="259" 
d="M122 10q-14 0 -22 9t-8 23q0 17 12 30t29 13q25 0 35 -21.5t10 -46.5q0 -56 -34 -95.5t-74 -59.5l-5 13q33 18 57 46t24 59q0 30 -24 30z" />
    <glyph glyph-name="hyphen" unicode="-" horiz-adv-x="467" 
d="M124 276h297l-3 -22h-297z" />
    <glyph glyph-name="period" unicode="." horiz-adv-x="230" 
d="M86 21q0 16 11.5 28t25.5 12q12 0 20 -9t8 -22q0 -16 -11.5 -28t-26.5 -12q-11 0 -19 9t-8 22z" />
    <glyph glyph-name="slash" unicode="/" horiz-adv-x="374" 
d="M364 700h20l-279 -720h-21z" />
    <glyph glyph-name="zero" unicode="0" 
d="M350 671q-92 0 -147 -126t-55 -313q0 -106 27.5 -164.5t80.5 -58.5q61 0 107.5 59.5t70.5 158.5t24 220q0 106 -27.5 165t-80.5 59zM352 690q71 0 110 -72.5t39 -191.5q0 -181 -70 -308.5t-177 -127.5q-72 0 -110.5 72t-38.5 190q0 182 70 310t177 128z" />
    <glyph glyph-name="one" unicode="1" horiz-adv-x="365" 
d="M298 685l-89 -639q-3 -24 13 -25l102 -5l-2 -16h-280l2 16l104 5q18 1 21 25l81 583q3 24 -14 20l-102 -22l-1 16l153 42h12z" />
    <glyph glyph-name="two" unicode="2" horiz-adv-x="457" 
d="M395 0h-355l2 13q109 79 182 149.5t111.5 133.5t53.5 116t15 113q0 64 -26.5 105t-78.5 41q-61 0 -125 -54q-8 -8 -18.5 -5t-10.5 17q0 23 50 42t108 19q74 0 109.5 -52.5t35.5 -122.5q0 -214 -349 -483v-2h255q22 0 29 20l25 80h15z" />
    <glyph glyph-name="three" unicode="3" horiz-adv-x="450" 
d="M307 690q60 0 97.5 -38.5t37.5 -97.5q0 -65 -42 -116t-107 -72v-2q53 -11 87 -50t34 -103q0 -105 -66.5 -163t-153.5 -58q-53 0 -95 17.5t-42 38.5q0 16 12.5 21t20.5 -4q50 -54 114 -54q75 0 119.5 60t44.5 141q0 62 -32 102t-97 40h-24l3 20h19q66 0 112.5 52.5
t46.5 130.5q0 54 -26.5 84t-75.5 30q-68 0 -136 -64l-9 17q76 68 158 68z" />
    <glyph glyph-name="four" unicode="4" horiz-adv-x="467" 
d="M308 46l15 108h-277l2 13l372 518h18l-72 -509h93l-3 -22h-93l-15 -108q-3 -24 14 -25l70 -5l-2 -16h-215l2 16l71 5q17 1 20 25zM387 605h-1l-308 -429h248z" />
    <glyph glyph-name="five" unicode="5" horiz-adv-x="450" 
d="M162 422l32 -3q117 -12 168.5 -66t51.5 -133q0 -108 -66.5 -169t-153.5 -61q-53 0 -95 17.5t-42 38.5q0 16 12.5 21t20.5 -4q52 -54 115 -54q74 0 119 63t45 146q0 69 -42.5 120t-143.5 60l-46 4l48 278h269l-4 -30h-250z" />
    <glyph glyph-name="six" unicode="6" horiz-adv-x="482" 
d="M160 351v-1q72 68 147 68q61 0 102.5 -44.5t41.5 -122.5q0 -112 -62.5 -186.5t-151.5 -74.5q-73 0 -107 57t-34 151q0 190 95.5 328t257.5 174l2 -18q-106 -29 -179 -104t-112 -227zM405 248q0 66 -28.5 106t-83.5 40q-72 0 -138 -71q-65 -314 86 -314q72 0 118 69
t46 170z" />
    <glyph glyph-name="seven" unicode="7" horiz-adv-x="407" 
d="M445 648v2h-258q-24 0 -28 -20l-23 -100h-15l22 150h343l-2 -7q-105 -137 -191 -311.5t-136 -361.5h-48q123 359 336 648z" />
    <glyph glyph-name="eight" unicode="8" horiz-adv-x="497" 
d="M444 552q0 52 -28.5 85.5t-74.5 33.5q-58 0 -97.5 -46.5t-39.5 -111.5q0 -53 28 -86t94 -69q61 41 89.5 87t28.5 107zM417 181q0 55 -35.5 91t-113.5 76q-60 -29 -96 -76.5t-43 -99.5q-10 -71 23.5 -117t98.5 -46q73 0 119.5 48.5t46.5 123.5zM458 188q0 -92 -65.5 -145
t-147.5 -53q-67 0 -113 40t-46 110q0 59 42 121.5t121 97.5q-85 53 -85 143q0 86 55.5 137t128.5 51q57 0 95 -38.5t38 -102.5q0 -118 -140 -200q117 -61 117 -161z" />
    <glyph glyph-name="nine" unicode="9" horiz-adv-x="483" 
d="M421 329l-1 1q-72 -68 -149 -68q-61 0 -102.5 44.5t-41.5 122.5q0 112 62.5 186.5t150.5 74.5q73 0 107.5 -57.5t34.5 -150.5q0 -190 -95.5 -328t-258.5 -174q0 3 -0.5 9t-0.5 9q107 29 180.5 104t113.5 227zM173 470q-12 -82 17 -133t94 -51q75 0 141 71q32 157 9 235.5
t-97 78.5q-62 0 -106.5 -55.5t-57.5 -145.5z" />
    <glyph glyph-name="colon" unicode=":" horiz-adv-x="230" 
d="M133 355q0 16 11.5 28t25.5 12q12 0 20 -9t8 -22q0 -16 -11.5 -28t-26.5 -12q-11 0 -19 9t-8 22zM86 21q0 16 11.5 28t25.5 12q12 0 20 -9t8 -22q0 -16 -11.5 -28t-26.5 -12q-11 0 -19 9t-8 22z" />
    <glyph glyph-name="semicolon" unicode=";" horiz-adv-x="259" 
d="M141 355q0 16 11.5 28t26.5 12q11 0 18.5 -9t7.5 -22q0 -16 -11 -28t-25 -12q-12 0 -20 9t-8 22zM122 10q-14 0 -22 9t-8 23q0 17 12 30t29 13q25 0 35 -21.5t10 -46.5q0 -56 -34 -95.5t-74 -59.5l-5 13q33 18 57 46t24 59q0 30 -24 30z" />
    <glyph glyph-name="less" unicode="&#x3c;" horiz-adv-x="408" 
d="M384 440l-232 -170l185 -170l-4 -25l-211 190l1 10l265 190z" />
    <glyph glyph-name="equal" unicode="=" horiz-adv-x="467" 
d="M114 206h297l-3 -22h-297zM134 346h297l-3 -22h-297z" />
    <glyph glyph-name="greater" unicode="&#x3e;" horiz-adv-x="408" 
d="M332 270l-185 170l4 25l211 -190l-1 -10l-265 -190l4 25z" />
    <glyph glyph-name="question" unicode="?" horiz-adv-x="409" 
d="M294 671q-64 0 -126 -54q-9 -8 -19.5 -5t-10.5 17q0 23 50 42t109 19q68 0 102 -44t34 -108q0 -30 -7.5 -58t-26.5 -60.5t-60 -58.5t-100 -39l-29 -172h-16l24 184q173 39 173 207q0 57 -24.5 93.5t-72.5 36.5zM152 21q0 16 11 28t26 12q11 0 19 -9t8 -22
q0 -16 -11.5 -28t-25.5 -12q-12 0 -19.5 9t-7.5 22z" />
    <glyph glyph-name="at" unicode="@" horiz-adv-x="712" 
d="M427 156l45 150q16 56 0.5 77t-41.5 21q-76 0 -135 -167q-12 -34 -17.5 -69t-4 -64.5t13 -48.5t33.5 -19q34 0 62.5 33.5t43.5 86.5zM495 351l37 54h10l-85 -284q-12 -31 -3 -58t38 -27q60 0 121.5 90.5t61.5 218.5q0 118 -58.5 176t-144.5 58q-145 0 -246 -123
t-101 -291q0 -130 66.5 -200t173.5 -70q51 0 109 24.5t106 65.5l4 -10q-114 -96 -241 -96q-110 0 -179.5 76.5t-69.5 209.5q0 108 50.5 207t139.5 161t192 62q97 0 155.5 -66t58.5 -183q0 -124 -65 -225t-144 -101q-33 0 -49.5 22t-14.5 54q-18 -35 -45 -55.5t-57 -20.5
q-43 0 -62.5 36t-15.5 88t25 108q28 73 75 120.5t102 47.5q23 0 40.5 -17t12.5 -52h3z" />
    <glyph glyph-name="A" unicode="A" horiz-adv-x="610" 
d="M442 242h-235l-79 -195q-10 -23 12 -26l57 -5l-2 -16h-180l2 16l54 5q24 3 33 25l264 639h39l113 -639q4 -23 25 -25l52 -5l-2 -16h-200l2 16l57 5q25 2 22 27zM216 263h222l-64 378h-2z" />
    <glyph glyph-name="B" unicode="B" horiz-adv-x="525" 
d="M213 344l-45 -323h116q96 0 140.5 51t44.5 131q0 60 -38 100.5t-125 40.5h-93zM355 659h-98l-40 -294h91q181 0 181 174q0 120 -134 120zM288 0h-251l2 16l72 5q18 1 21 25l82 588q3 24 -14 25l-70 5l3 16h233q83 0 125.5 -38.5t42.5 -103.5q0 -68 -42.5 -117.5
t-118.5 -64.5v-2q69 -6 105.5 -51.5t36.5 -101.5q0 -89 -61 -145t-166 -56z" />
    <glyph glyph-name="C" unicode="C" horiz-adv-x="552" 
d="M538 200l17 -4q-38 -112 -102.5 -159t-138.5 -47q-99 0 -160 81.5t-61 209.5q0 172 98.5 290.5t228.5 118.5q105 0 181 -50l-21 -150h-15q8 105 -29.5 143t-116.5 38q-113 0 -197.5 -107.5t-84.5 -293.5q0 -125 51.5 -192.5t129.5 -67.5q68 0 127 46t93 144z" />
    <glyph glyph-name="D" unicode="D" horiz-adv-x="630" 
d="M168 21h124q92 0 161.5 59t102 143.5t32.5 177.5q0 116 -54 187t-162 71h-115zM290 0h-253l2 16l72 5q18 1 21 25l82 588q3 24 -14 25l-70 5l3 16h253q118 0 182.5 -73t64.5 -204q0 -176 -94.5 -289.5t-248.5 -113.5z" />
    <glyph glyph-name="E" unicode="E" 
d="M257 659l-42 -304h142q23 0 28 20l23 85h14l-33 -230h-14l2 84q0 20 -23 20h-142l-44 -313h248q19 0 28 20l47 109h15l-38 -150h-431l2 16l72 5q18 1 21 25l82 588q3 24 -14 25l-70 5l3 16h423l-22 -150h-15l-3 109q0 20 -23 20h-236z" />
    <glyph glyph-name="F" unicode="F" horiz-adv-x="485" 
d="M210 324l-38 -278q-3 -24 13 -25l87 -5l-2 -16h-233l2 16l72 5q18 1 21 25l82 588q3 24 -14 25l-70 5l3 16h423l-22 -150h-15l-3 109q0 20 -23 20h-236l-43 -314h142q23 0 28 20l22 85h14l-32 -230h-14l1 84q0 20 -22 20h-143z" />
    <glyph glyph-name="G" unicode="G" horiz-adv-x="612" 
d="M98 340q21 151 114 250.5t208 99.5q103 0 181 -50l-21 -150h-15q8 105 -30 143t-117 38q-53 0 -102.5 -26t-89.5 -74.5t-64.5 -125.5t-24.5 -171q0 -127 54 -196t133 -69q89 0 164 50l27 195q5 24 -13 25l-70 5l2 16h195l-2 -16l-51 -5q-17 -1 -21 -25l-35 -254h-12
l-20 36q-80 -46 -167 -46q-115 0 -180 99.5t-43 250.5z" />
    <glyph glyph-name="H" unicode="H" horiz-adv-x="662" 
d="M212 334l-40 -288q-4 -24 13 -25l69 -5l-2 -16h-215l2 16l72 5q18 1 21 25l82 588q3 24 -14 25l-70 5l3 16h215l-3 -16l-71 -5q-17 -1 -20 -25l-39 -279h332l39 279q3 24 -14 25l-69 5l3 16h215l-3 -16l-72 -5q-17 -1 -20 -25l-82 -588q-4 -24 13 -25l70 -5l-2 -16h-215
l2 16l71 5q18 1 21 25l40 288h-332z" />
    <glyph glyph-name="I" unicode="I" horiz-adv-x="290" 
d="M254 634l-82 -588q-4 -24 13 -25l69 -5l-2 -16h-215l2 16l72 5q18 1 21 25l82 588q3 24 -14 25l-70 5l3 16h215l-3 -16l-71 -5q-17 -1 -20 -25z" />
    <glyph glyph-name="J" unicode="J" horiz-adv-x="275" 
d="M246 634l-86 -611q-24 -171 -149 -223l-4 14q55 28 78 74.5t32 111.5l89 634q3 24 -13 25l-70 5l2 16h215l-2 -16l-71 -5q-18 -1 -21 -25z" />
    <glyph glyph-name="K" unicode="K" horiz-adv-x="622" 
d="M289 374l-83 -81l-34 -247q-4 -24 13 -25l69 -5l-2 -16h-215l2 16l72 5q18 1 21 25l82 588q3 24 -14 25l-70 5l3 16h215l-3 -16l-71 -5q-17 -1 -20 -25l-43 -309l314 303q6 6 8.5 13t-0.5 12.5t-11 5.5l-62 5l3 16h205l-3 -16l-46 -4q-39 -4 -72 -36l-226 -220l181 -353
q14 -29 51 -31l54 -4l-2 -16h-230l2 16l53 5q15 1 20.5 10t0.5 20z" />
    <glyph glyph-name="L" unicode="L" horiz-adv-x="492" 
d="M254 634l-86 -613h240q19 0 28 20l48 109h14l-38 -150h-423l2 16l72 5q18 1 21 25l82 588q3 24 -14 25l-70 5l3 16h215l-3 -16l-71 -5q-17 -1 -20 -25z" />
    <glyph glyph-name="M" unicode="M" horiz-adv-x="745" 
d="M668 625l-304 -630h-8l-130 631l-81 -580q-4 -24 14 -25l65 -5l-2 -16h-190l2 16l68 5q18 1 21 25l82 588q3 24 -14 25l-66 5l3 16h130l125 -602l289 602h131l-3 -16l-71 -5q-17 -1 -20 -25l-82 -588q-4 -24 13 -25l69 -5l-2 -16h-215l2 16l72 5q18 1 21 25z" />
    <glyph glyph-name="N" unicode="N" horiz-adv-x="622" 
d="M498 -5l-271 639l-82 -588q-4 -24 14 -25l65 -5l-2 -16h-190l2 16l68 5q18 1 21 25l82 588q3 24 -14 25l-66 5l3 16h129l250 -594l77 548q3 24 -14 25l-67 5l3 16h187l-3 -16l-64 -5q-18 -1 -21 -25l-90 -639h-17z" />
    <glyph glyph-name="O" unicode="O" horiz-adv-x="665" 
d="M93 285q0 170 100 287.5t236 117.5q106 0 172.5 -83t66.5 -213q0 -170 -100.5 -287t-236.5 -117q-105 0 -171.5 82.5t-66.5 212.5zM138 281q0 -125 56 -198.5t139 -73.5q52 0 103 27.5t93 76t68 123.5t26 162q0 125 -57 199t-140 74q-111 0 -199.5 -109t-88.5 -281z" />
    <glyph glyph-name="P" unicode="P" horiz-adv-x="520" 
d="M257 659l-47 -338h107q101 0 148.5 58.5t47.5 137.5q0 61 -35.5 101.5t-113.5 40.5h-107zM324 300h-117l-35 -254q-3 -24 13 -25l87 -5l-2 -16h-233l2 16l72 5q18 1 21 25l82 588q3 24 -14 25l-70 5l3 16h245q87 0 133.5 -46t46.5 -119q0 -91 -63.5 -153t-170.5 -62z" />
    <glyph glyph-name="Q" unicode="Q" horiz-adv-x="665" 
d="M93 285q0 170 100 287.5t236 117.5q106 0 172.5 -83t66.5 -213q0 -164 -93.5 -279t-224.5 -124q-11 -94 51 -124t155 20l2 -18q-56 -39 -133 -39q-57 0 -91 38.5t-24 122.5q-97 8 -157 89t-60 205zM138 281q0 -125 56 -198.5t139 -73.5q52 0 103 27.5t93 76t68 123.5
t26 162q0 125 -57 199t-140 74q-111 0 -199.5 -109t-88.5 -281z" />
    <glyph glyph-name="R" unicode="R" horiz-adv-x="580" 
d="M212 331h107q101 0 148 56t47 134q0 60 -35.5 99t-114.5 39h-107zM356 313v-2q19 -7 29 -22.5t26 -63.5l56 -177q9 -26 35 -27l62 -5l-2 -16q-57 -5 -91 -5q-36 0 -44 30l-71 232q-9 30 -22 41.5t-43 11.5h-82l-37 -264q-4 -24 13 -25l87 -5l-2 -16h-233l2 16l72 5
q18 1 21 25l82 588q3 24 -14 25l-70 5l3 16h245q87 0 134 -44t47 -116q0 -88 -58 -145t-145 -62z" />
    <glyph glyph-name="S" unicode="S" horiz-adv-x="465" 
d="M232 -10q-81 0 -157 50l3 160h14q6 -108 42 -149.5t100 -41.5q71 0 118 45t47 121q0 35 -12 63t-37 49.5t-41 31.5t-46 26q-120 63 -120 165q0 71 51 125.5t141 54.5q34 0 64 -8t47 -17t41 -25l-21 -150h-14q8 100 -25 140.5t-97 40.5q-66 0 -106 -45.5t-40 -102.5
q0 -92 121 -151q137 -68 137 -178q0 -83 -59 -143.5t-151 -60.5z" />
    <glyph glyph-name="T" unicode="T" 
d="M327 659h-151q-23 0 -28 -20l-35 -109h-14l21 150h460l-21 -150h-15l-3 109q0 20 -23 20h-151l-86 -613q-3 -24 14 -25l69 -5l-2 -16h-215l2 16l72 5q17 1 20 25z" />
    <glyph glyph-name="U" unicode="U" horiz-adv-x="647" 
d="M549 255l53 379q3 24 -14 25l-67 5l2 16h195l-3 -16l-70 -5q-18 -1 -21 -25l-53 -378q-18 -128 -83.5 -197t-169.5 -69q-202 0 -165 267l53 377q3 24 -14 25l-69 5l3 16h215l-3 -16l-72 -5q-17 -1 -20 -25l-55 -392q-17 -117 18 -172.5t126 -55.5q82 0 139.5 59.5
t74.5 181.5z" />
    <glyph glyph-name="V" unicode="V" horiz-adv-x="612" 
d="M230 632l101 -593h2l247 594q10 23 -12 26l-58 5l3 16h180l-3 -16l-53 -5q-24 -3 -33 -25l-268 -639h-38l-113 639q-5 23 -25 25l-52 5l3 16h200l-3 -16l-57 -5q-26 -2 -21 -27z" />
    <glyph glyph-name="W" unicode="W" horiz-adv-x="892" 
d="M312 47l222 520l-9 65q-4 25 -26 27l-51 5l3 16h200l-3 -16l-55 -5q-26 -2 -24 -28l60 -584h2l229 586q9 23 -15 26l-57 5l3 16h182l-3 -16l-53 -5q-27 -4 -35 -26l-250 -638h-36l-57 532l-227 -532h-35l-92 637q-4 25 -27 27l-50 5l3 16h200l-3 -16l-55 -5
q-28 -3 -23 -28l81 -584h1z" />
    <glyph glyph-name="X" unicode="X" horiz-adv-x="607" 
d="M365 384l183 240q9 11 5 22.5t-19 12.5l-50 5l3 16h181l-3 -16l-46 -5q-22 -2 -48 -35l-198 -261l133 -316q11 -24 35 -27l51 -4l-2 -16h-200l2 16l41 5q35 5 23 30l-115 275l-198 -270q-9 -11 -6 -22.5t18 -12.5l47 -5l-2 -16h-183l2 16l52 5q25 3 48 35l213 292
l-113 282q-12 26 -37 29l-52 5l3 16h200l-3 -16l-38 -5q-34 -5 -24 -30z" />
    <glyph glyph-name="Y" unicode="Y" horiz-adv-x="595" 
d="M580 629l-227 -374l-30 -209q-3 -24 14 -25l70 -5l-2 -16h-215l2 16l71 5q17 1 20 25l29 199l-122 384q-10 29 -28 30l-54 5l3 16h200l-3 -16l-53 -5q-12 -1 -17.5 -11t-2.5 -20l111 -348h2l212 349q7 12 3.5 20.5t-14.5 9.5l-56 5l3 16h180l-3 -16l-54 -5
q-21 -1 -39 -30z" />
    <glyph glyph-name="Z" unicode="Z" horiz-adv-x="495" 
d="M26 7l469 650v2h-301q-21 0 -28 -20l-34 -109h-15l22 150h414l-2 -7l-470 -652h319q19 0 28 20l48 109h15l-39 -150h-427z" />
    <glyph glyph-name="bracketleft" unicode="[" horiz-adv-x="316" 
d="M255 -80h-141l118 840h141l-3 -22h-101l-112 -796h101z" />
    <glyph glyph-name="backslash" unicode="\" horiz-adv-x="374" 
d="M185 700h21l77 -720h-20z" />
    <glyph glyph-name="bracketright" unicode="]" horiz-adv-x="316" 
d="M179 -80h-140l3 22h101l112 796h-101l3 22h140z" />
    <glyph glyph-name="asciicircum" unicode="^" horiz-adv-x="399" 
d="M265 465l-115 -115h-17l134 160h7l90 -160h-17z" />
    <glyph glyph-name="underscore" unicode="_" horiz-adv-x="552" 
d="M79 -44h382l-3 -22h-382z" />
    <glyph glyph-name="grave" unicode="`" horiz-adv-x="324" 
d="M213 648l106 -88l-7 -10l-127 61q-13 6 -12 21q1 14 14 20t26 -4z" />
    <glyph glyph-name="a" unicode="a" horiz-adv-x="497" 
d="M364 26l9 64h-3q-49 -100 -149 -100q-71 0 -110 54.5t-39 149.5q0 135 68.5 225.5t168.5 90.5q67 0 115 -38h2l37 38h6l-65 -464q-3 -24 13 -25l70 -5l-2 -16q-84 -10 -94 -10q-32 0 -27 36zM387 195l35 252q-52 42 -114 42q-78 0 -136 -78.5t-58 -225.5q0 -88 29.5 -131
t82.5 -43q62 0 106 52.5t55 131.5z" />
    <glyph glyph-name="b" unicode="b" horiz-adv-x="516" 
d="M115 -10l94 671q3 20 -14 20h-71l3 16l126 13l6 -8q-10 -28 -18 -81l-30 -214h2q20 40 50.5 64.5t53.5 31.5t46 7q71 0 110 -54.5t39 -150.5q0 -134 -68.5 -224.5t-168.5 -90.5q-67 0 -115 38h-2l-36 -38h-7zM196 305l-35 -252q55 -42 115 -42q78 0 136 78.5t58 225.5
q0 88 -30 131t-82 43q-62 0 -106 -52.5t-56 -131.5z" />
    <glyph glyph-name="c" unicode="c" horiz-adv-x="425" 
d="M241 -10q-63 0 -104.5 36t-55.5 95t-3 131q17 121 87.5 189.5t153.5 68.5q53 0 93 -17t40 -38q0 -16 -13 -21.5t-20 3.5q-17 18 -26.5 27t-30.5 18t-46 9q-89 0 -143.5 -83.5t-54.5 -196.5q0 -97 38 -146t104 -49q64 0 134 64l7 -14q-65 -76 -160 -76z" />
    <glyph glyph-name="d" unicode="d" horiz-adv-x="497" 
d="M484 620l-80 -574q-5 -24 13 -25l70 -5l-2 -16q-84 -10 -94 -10q-32 0 -27 36l9 66h-3q-29 -58 -70 -80t-79 -22q-71 0 -110 54.5t-39 149.5q0 135 68.5 225.5t168.5 90.5q67 0 115 -38h2l27 189q3 20 -14 20h-71l2 16l127 13l6 -8q-12 -31 -19 -82zM387 195l35 252
q-52 42 -114 42q-78 0 -136 -78.5t-58 -225.5q0 -88 29.5 -131t82.5 -43q62 0 106 52.5t55 131.5z" />
    <glyph glyph-name="e" unicode="e" horiz-adv-x="406" 
d="M312 491q-66 0 -122.5 -63.5t-69.5 -174.5q33 8 69 21.5t77 36t67 55.5t26 70q0 24 -13 39.5t-34 15.5zM118 233q-8 -89 27.5 -153t116.5 -64q65 0 133 64l8 -14q-67 -76 -161 -76q-81 0 -124.5 57t-43.5 148q0 69 26 139t83.5 123t132.5 53q38 0 62 -22t24 -57
q0 -54 -69.5 -109.5t-214.5 -88.5z" />
    <glyph glyph-name="f" unicode="f" horiz-adv-x="290" 
d="M105 -70l79 548h-75l2 14l76 8l7 46q10 70 51 117t110 47q22 0 39.5 -8t17.5 -22q0 -21 -21 -21q-13 0 -35.5 12t-37.5 13q-32 1 -53 -25.5t-28 -78.5l-12 -80h117l-3 -22h-117l-73 -514q-10 -70 -50.5 -117t-109.5 -47q-23 0 -40 8.5t-17 24.5q0 18 19 18q13 0 36 -12.5
t38 -12.5q65 0 80 104z" />
    <glyph glyph-name="g" unicode="g" horiz-adv-x="485" 
d="M365 40l8 50h-3q-49 -100 -149 -100q-71 0 -110 54.5t-39 149.5q0 135 68.5 225.5t168.5 90.5q67 0 115 -38h2l37 38h6l-64 -452q-17 -121 -88 -189.5t-154 -68.5q-55 0 -95.5 18t-37.5 39q2 16 14.5 20t19.5 -4q15 -17 25.5 -26.5t31 -18.5t45.5 -9q77 0 131.5 66
t67.5 155zM387 195l35 252q-52 42 -114 42q-78 0 -136 -78.5t-58 -225.5q0 -88 29.5 -131t82.5 -43q62 0 106 52.5t55 131.5z" />
    <glyph glyph-name="h" unicode="h" horiz-adv-x="527" 
d="M478 360l-44 -314q-3 -25 14 -25h70l-2 -16q-19 -2 -50.5 -8.5t-45.5 -6.5q-32 0 -27 36l45 324q19 130 -73 130q-45 0 -83.5 -38.5t-60.5 -89.5t-30 -102l-35 -250h-39l93 661q3 20 -15 20h-70l2 16l128 13l6 -8q-12 -33 -18 -82l-36 -257h1q71 147 180 147
q47 0 74 -36.5t16 -113.5z" />
    <glyph glyph-name="i" unicode="i" horiz-adv-x="255" 
d="M197 645q2 14 12 23t23 9q12 0 19 -9.5t5 -22.5q-2 -14 -11.5 -23.5t-21.5 -9.5q-13 0 -20.5 9.5t-5.5 23.5zM121 26l60 435q3 20 -15 20h-70l3 16l128 13l6 -8q-12 -33 -18 -82l-53 -374q-3 -25 13 -25h70l-1 -16q-11 -2 -32 -6t-36.5 -6.5t-27.5 -2.5q-32 0 -27 36z
" />
    <glyph glyph-name="j" unicode="j" horiz-adv-x="227" 
d="M194 640q0 16 10.5 26.5t24.5 10.5q12 0 19 -8t7 -20q0 -16 -10.5 -26.5t-24.5 -10.5q-11 0 -18.5 8t-7.5 20zM213 420l-56 -400q-25 -170 -145 -220l-5 12q90 47 110 188l65 461q3 20 -14 20h-71l2 16l127 13l6 -8q-12 -31 -19 -82z" />
    <glyph glyph-name="k" unicode="k" horiz-adv-x="520" 
d="M283 313l145 -277q7 -15 23 -15h66l-2 -16q-66 -15 -81 -15q-31 0 -46 30l-136 267l-64 -54l-34 -233h-39l94 661q3 20 -15 20h-70l2 16l128 13l6 -8q-12 -33 -18 -82l-51 -358l226 188q11 9 11.5 18t-12.5 11l-41 5l2 16h179l-3 -16l-45 -7q-34 -6 -74 -39z" />
    <glyph glyph-name="l" unicode="l" horiz-adv-x="255" 
d="M120 26l89 635q3 20 -15 20h-70l2 16l128 13l6 -8q-12 -33 -18 -82l-81 -574q-3 -25 14 -25h70l-2 -16q-11 -2 -32 -6t-36.5 -6.5t-27.5 -2.5q-32 0 -27 36z" />
    <glyph glyph-name="m" unicode="m" horiz-adv-x="800" 
d="M664 26l45 324q19 130 -73 130q-45 0 -83.5 -38.5t-60.5 -89.5t-30 -102l-36 -250h-39l50 350q19 130 -73 130q-45 0 -83.5 -38.5t-60.5 -89.5t-30 -102l-36 -250h-39l65 461q3 20 -14 20h-70l2 16l128 13l6 -8q-12 -33 -18 -82l-8 -57h1q71 147 180 147q48 0 74 -35
t16 -112h2q71 147 180 147q47 0 74 -36.5t16 -113.5l-44 -314q-3 -25 14 -25h70l-2 -16q-11 -2 -32 -6t-36.5 -6.5t-27.5 -2.5q-32 0 -27 36z" />
    <glyph glyph-name="n" unicode="n" horiz-adv-x="527" 
d="M392 26l45 324q19 130 -73 130q-45 0 -83.5 -38.5t-60.5 -89.5t-30 -102l-35 -250h-39l64 461q3 20 -14 20h-70l2 16l128 13l6 -8q-12 -33 -18 -82l-8 -57h1q71 147 180 147q47 0 74 -36.5t16 -113.5l-44 -314q-3 -25 14 -25h70l-2 -16q-11 -2 -32 -6t-36.5 -6.5
t-27.5 -2.5q-32 0 -27 36z" />
    <glyph glyph-name="o" unicode="o" horiz-adv-x="477" 
d="M307 491q-80 0 -136 -76.5t-56 -221.5q0 -92 34.5 -138t89.5 -46q78 0 135.5 78t57.5 219q0 92 -35 138.5t-90 46.5zM236 -10q-77 0 -120 64t-43 155q0 115 67.5 208t168.5 93q78 0 121 -64t43 -155q0 -115 -68 -208t-169 -93z" />
    <glyph glyph-name="p" unicode="p" horiz-adv-x="515" 
d="M95 -154l86 615q3 20 -14 20h-71l2 16l127 13l6 -8q-12 -32 -19 -81l-1 -14h2q20 40 50.5 64.5t53.5 31.5t46 7q71 0 109.5 -54.5t38.5 -150.5q0 -134 -68.5 -224.5t-167.5 -90.5q-66 0 -116 38h-2l-25 -182q-5 -24 13 -25l87 -5l-2 -16h-230l2 16l72 5q18 1 21 25z
M196 305l-35 -252q55 -42 115 -42q77 0 135.5 79t58.5 225q0 88 -30 131t-82 43q-62 0 -106.5 -52.5t-55.5 -131.5z" />
    <glyph glyph-name="q" unicode="q" horiz-adv-x="485" 
d="M338 -154l35 244h-3q-49 -100 -149 -100q-71 0 -110 54.5t-39 149.5q0 135 68.5 225.5t168.5 90.5q67 0 115 -38h2l37 38h6l-94 -664q-3 -24 14 -25l70 -5l-2 -16h-230l2 16l89 5q17 1 20 25zM387 195l35 252q-52 42 -114 42q-78 0 -136 -78.5t-58 -225.5
q0 -88 29.5 -131t82.5 -43q62 0 106 52.5t55 131.5z" />
    <glyph glyph-name="r" unicode="r" horiz-adv-x="332" 
d="M205 356h1q30 71 73.5 112.5t76.5 41.5q32 0 32 -24q0 -12 -7.5 -19.5t-19.5 -8.5q-5 0 -15 4.5t-17 4.5q-41 0 -84.5 -68t-54.5 -149l-35 -250h-39l64 461q3 20 -14 20h-70l2 16l128 13l6 -8q-12 -33 -18 -82z" />
    <glyph glyph-name="s" unicode="s" horiz-adv-x="380" 
d="M259 491q-51 0 -82.5 -30.5t-31.5 -75.5q0 -33 21.5 -56t52.5 -38t62 -30.5t52.5 -43.5t21.5 -68q0 -72 -49.5 -115.5t-124.5 -43.5q-50 0 -90.5 17t-40.5 38q0 9 6 16t16 7q6 0 15.5 -9t20 -20.5t31.5 -20.5t47 -9q56 0 91.5 32.5t35.5 90.5q0 36 -21.5 61t-52 39.5
t-61 30t-52 42.5t-21.5 66q0 61 46 100t110 39q52 0 91 -16.5t39 -37.5q0 -10 -6 -17t-14 -7t-17.5 9t-19 20.5t-29.5 20.5t-46 9z" />
    <glyph glyph-name="t" unicode="t" horiz-adv-x="287" 
d="M100 492l72 10q18 3 26 28l32 90h11l-17 -120h130l-3 -22h-130l-55 -392q-6 -42 6 -56t44 -14q33 0 75 24l3 -15q-49 -35 -99 -35q-39 0 -57 18.5t-11 71.5l56 398h-85z" />
    <glyph glyph-name="u" unicode="u" horiz-adv-x="527" 
d="M137 140l45 321q3 20 -14 20h-71l2 16l127 13l7 -8q-12 -29 -20 -82l-38 -270q-8 -62 7.5 -96t66.5 -34q66 0 115 74t60 156l30 211q3 20 -14 20h-87l2 16l143 13l7 -8q-12 -31 -19 -82l-52 -374q-3 -24 14 -25l69 -5l-3 -16q-82 -10 -93 -10q-32 0 -28 36l16 111h-1
q-72 -147 -182 -147q-48 0 -74 36.5t-15 113.5z" />
    <glyph glyph-name="v" unicode="v" horiz-adv-x="502" 
d="M361 172l-79 -177h-34l-92 469q-4 15 -24 15h-56l2 16q48 15 78 15q32 0 39 -30l84 -443h1l39 84q45 100 69.5 175.5t29 109.5t5.5 74q0 30 24 30q23 0 23 -29q0 -68 -109 -309z" />
    <glyph glyph-name="w" unicode="w" horiz-adv-x="742" 
d="M425 358l-19 106q-4 15 -24 15h-56l2 16q48 15 78 15q32 0 39 -30l84 -443h1l39 84q45 100 69.5 175.5t29 109.5t5.5 74q0 30 24 30q23 0 23 -29q0 -68 -109 -309l-79 -177h-34l-67 330l-149 -330h-34l-92 469q-4 15 -24 15h-56l2 16q48 15 78 15q32 0 39 -30l84 -443h1z
" />
    <glyph glyph-name="x" unicode="x" horiz-adv-x="475" 
d="M253 256l-81 208q-7 15 -24 15h-55l2 16q54 15 74 15q18 0 26.5 -7t14.5 -23l72 -195l117 159q9 11 5 21.5t-19 13.5l-42 8l2 13h173l-3 -16l-45 -5q-24 -3 -48 -35l-132 -181l90 -227q5 -15 23 -15h55l-2 -16q-60 -15 -74 -15q-19 0 -27.5 6.5t-14.5 23.5l-78 213
l-129 -177q-9 -11 -6.5 -22t16.5 -13l44 -5l-2 -16h-164l2 16l39 5q22 2 46 35z" />
    <glyph glyph-name="y" unicode="y" horiz-adv-x="502" 
d="M253 -26l-97 490q-4 15 -24 15h-56l2 16q48 15 78 15q32 0 39 -30l84 -443h1l39 84q45 100 69.5 175.5t29 109.5t5.5 74q0 30 24 30q23 0 23 -29q0 -68 -109 -309l-82 -187q-44 -97 -72 -130q-46 -55 -107 -55q-23 0 -41 8.5t-16 24.5q1 12 11.5 16.5t21.5 -1.5
q58 -29 99 0t78 126z" />
    <glyph glyph-name="z" unicode="z" horiz-adv-x="420" 
d="M30 0l-4 7l368 451v2h-243q-16 0 -25 -20l-27 -55h-13l26 115h337v-7l-382 -468l1 -2q68 23 140 23q32 0 73.5 -6.5t53.5 -6.5q29 2 45 31l31 51h13l-30 -75q-20 -50 -82 -50q-21 0 -83 11t-102 11q-52 0 -97 -12z" />
    <glyph glyph-name="braceleft" unicode="{" horiz-adv-x="321" 
d="M170 342v-2q47 -19 47 -85q0 -35 -27.5 -109.5t-27.5 -117.5q0 -89 98 -89l-2 -19q-135 0 -135 110q0 43 28 123.5t28 112.5q0 64 -49 64l3 19q73 0 73 114q0 13 -1.5 54.5t-1.5 62.5q0 180 173 180l-3 -19q-68 0 -99.5 -37t-31.5 -115q0 -20 2 -60.5t2 -56.5
q0 -103 -76 -130z" />
    <glyph glyph-name="bar" unicode="|" horiz-adv-x="180" 
d="M77 -20l101 720h20l-101 -720h-20z" />
    <glyph glyph-name="braceright" unicode="}" horiz-adv-x="321" 
d="M246 340v2q-47 19 -47 82q0 36 28 110t28 118q0 89 -98 89l2 19q62 0 98.5 -26.5t36.5 -83.5q0 -44 -28.5 -124t-28.5 -111q0 -66 50 -66l-4 -19q-73 0 -73 -111q0 -14 2 -57t2 -65q0 -94 -47.5 -135.5t-125.5 -41.5l3 19q68 0 99 36.5t31 113.5q0 21 -2 62.5t-2 57.5
q0 42 17.5 79t58.5 52z" />
    <glyph glyph-name="asciitilde" unicode="~" horiz-adv-x="443" 
d="M149 374l-12 6q37 67 59 85q18 15 37 15t60 -28.5t58 -28.5q28 0 62 54l11 -7q-14 -27 -22.5 -41.5t-24 -28t-32.5 -13.5q-22 0 -63.5 28.5t-56.5 28.5q-27 0 -67 -58z" />
    <glyph glyph-name="exclamdown" unicode="&#xa1;" horiz-adv-x="232" 
d="M151 470q0 16 11 28t26 12q11 0 18.5 -9t7.5 -22q0 -16 -11 -28t-25 -12q-12 0 -19.5 9t-7.5 22zM160 350h13l-50 -505q-4 -35 -33 -35q-30 0 -23 35z" />
    <glyph glyph-name="cent" unicode="&#xa2;" 
d="M266 -56l6 48q-82 1 -131.5 66t-49.5 168q0 133 77.5 226.5t182.5 98.5l7 49h18l-7 -48q78 -2 141 -41l-17 -121h-13q2 79 -29 111t-84 34l-74 -525q52 4 96 41t70 111l15 -4q-53 -155 -183 -165l-7 -49h-18zM134 218q0 -98 39.5 -152t101.5 -56l73 525
q-87 -6 -150.5 -90.5t-63.5 -226.5z" />
    <glyph glyph-name="sterling" unicode="&#xa3;" horiz-adv-x="495" 
d="M98 336h81q-1 21 -3 59.5t-2 56.5q-3 63 13.5 111.5t45.5 74.5t59.5 39t60.5 13q34 0 64 -8.5t45.5 -16.5t41.5 -25l-21 -150h-14q8 100 -24.5 140.5t-96.5 40.5q-57 0 -96.5 -47.5t-37.5 -133.5q3 -152 3 -154h163l-3 -22h-161q-11 -179 -132 -290v-2h276q22 0 29 20
l45 108h14l-38 -150h-360l2 16q74 61 100.5 135t26.5 163h-84z" />
    <glyph glyph-name="currency" unicode="&#xa4;" horiz-adv-x="436" 
d="M118 227q0 79 59 136l-54 90l8 8l54 -90q43 36 90 36q46 0 79 -36l80 90l6 -8l-79 -89q29 -39 29 -95q0 -76 -60 -134l52 -86l-8 -9l-54 87q-41 -35 -89 -35t-80 35l-76 -87l-7 9l77 86q-27 37 -27 92zM128 230q0 -52 30 -89t75 -37q56 0 101 49.5t45 114.5
q0 52 -30.5 89.5t-74.5 37.5q-56 0 -101 -50t-45 -115z" />
    <glyph glyph-name="yen" unicode="&#xa5;" horiz-adv-x="595" 
d="M580 629l-227 -374l-5 -29h128l-4 -22h-127l-22 -158q-3 -24 14 -25l70 -5l-2 -16h-215l2 16l71 5q17 1 20 25l23 158h-134l4 22h133l3 19l-122 384q-10 29 -28 30l-54 5l3 16h200l-3 -16l-53 -5q-12 -1 -17.5 -11t-2.5 -20l111 -348h2l212 349q7 12 3.5 20.5t-14.5 9.5
l-56 5l3 16h180l-3 -16l-54 -5q-21 -1 -39 -30z" />
    <glyph glyph-name="brokenbar" unicode="&#xa6;" horiz-adv-x="180" 
d="M77 -20l45 320h20l-45 -320h-20zM133 380l45 320h20l-45 -320h-20z" />
    <glyph glyph-name="section" unicode="&#xa7;" horiz-adv-x="434" 
d="M284 295l-9 9q47 29 67 56.5t15 51.5t-22.5 47t-44.5 47.5t-51 49t-41.5 56t-17.5 63.5q0 59 44 97t111 38q45 0 107 -30l-12 -115h-15q0 126 -87 126q-45 0 -79 -29.5t-34 -73.5q0 -27 18 -56t43 -53.5t52 -51t43.5 -53t18.5 -54t-24 -60t-82 -65.5zM262 505l9 -9
q-47 -29 -66.5 -56.5t-14.5 -51.5t22.5 -47t44.5 -47.5t51 -49t41.5 -56t17.5 -63.5q0 -59 -44.5 -97t-110.5 -38q-46 0 -108 30l12 115h15q0 -126 87 -126q45 0 79 29.5t34 73.5q0 27 -18 56t-43 53.5t-52 51t-43 53t-18.5 54t23.5 60t82 65.5z" />
    <glyph glyph-name="dieresis" unicode="&#xa8;" horiz-adv-x="397" 
d="M171 620q0 16 10 26.5t24 10.5q11 0 18.5 -8t7.5 -20q0 -16 -10.5 -26.5t-24.5 -10.5q-11 0 -18 8t-7 20zM341 620q0 16 10 26.5t24 10.5q11 0 18.5 -8t7.5 -20q0 -16 -10.5 -26.5t-24.5 -10.5q-11 0 -18 8t-7 20z" />
    <glyph glyph-name="copyright" unicode="&#xa9;" horiz-adv-x="680" 
d="M478 269l10 -2q-36 -102 -121 -102q-49 0 -79.5 40.5t-30.5 104.5q0 86 49 145.5t115 59.5q50 0 90 -25l-10 -75h-7q1 52 -18.5 71t-56.5 19q-56 0 -99 -53t-43 -146q0 -63 26.5 -97t65.5 -34q77 0 109 94zM95 294q0 155 103.5 270.5t237.5 115.5q107 0 176 -84.5
t69 -209.5q0 -155 -104 -270.5t-237 -115.5q-107 0 -176 84.5t-69 209.5zM111 296q0 -119 65.5 -199.5t166.5 -80.5q126 0 224 110t98 258q0 118 -65.5 199t-166.5 81q-127 0 -224.5 -110t-97.5 -258z" />
    <glyph glyph-name="ordfeminine" unicode="&#xaa;" horiz-adv-x="297" 
d="M247 396l6 38h-2q-29 -60 -89 -60q-51 0 -74 42t-12 114q9 68 48 112t91 44q39 0 69 -23h1l22 23h4l-39 -278q-2 -15 8 -15h42l-2 -10l-57 -9q-20 0 -16 22zM261 497l22 151q-32 25 -69 25q-39 0 -72 -36.5t-43 -106.5q-10 -72 8.5 -107.5t57.5 -35.5q37 0 63.5 31.5
t32.5 78.5zM77 316h231l-2 -16h-231z" />
    <glyph glyph-name="guillemotleft" unicode="&#xab;" horiz-adv-x="534" 
d="M341 450l-180 -180l130 -180l-13 -15l-156 187l2 16l209 187zM512 450l-179 -180l129 -180l-12 -15l-156 187l2 16l209 187z" />
    <glyph glyph-name="logicalnot" unicode="&#xac;" horiz-adv-x="497" 
d="M453 290l-28 -197h-19l25 178h-308l3 19h327z" />
    <glyph glyph-name="uni00AD" unicode="&#xad;" horiz-adv-x="467" 
d="M124 276h297l-3 -22h-297z" />
    <glyph glyph-name="registered" unicode="&#xae;" horiz-adv-x="680" 
d="M323 334h54q50 0 74 28t24 67q0 30 -18 49.5t-57 19.5h-54zM395 326v-1q10 -5 15 -12.5t13 -31.5l28 -88q5 -14 18 -14l31 -2l-1 -8q-25 -3 -45 -3q-19 0 -23 15l-36 116q-5 15 -11 21t-21 6h-41l-19 -132q-2 -13 8 -13l42 -2l-1 -8h-116l1 8l37 2q7 0 9 13l41 294
q2 11 -6 12l-36 3l2 8h123q44 0 67 -22t23 -58q0 -44 -29 -72.5t-73 -30.5zM95 294q0 155 103.5 270.5t237.5 115.5q107 0 176 -84.5t69 -209.5q0 -155 -104 -270.5t-237 -115.5q-107 0 -176 84.5t-69 209.5zM111 296q0 -119 65.5 -199.5t166.5 -80.5q126 0 224 110t98 258
q0 118 -65.5 199t-166.5 81q-127 0 -224.5 -110t-97.5 -258z" />
    <glyph glyph-name="macron" unicode="&#xaf;" horiz-adv-x="399" 
d="M171 616h229l-3 -22h-229z" />
    <glyph glyph-name="degree" unicode="&#xb0;" horiz-adv-x="310" 
d="M172 614q0 42 23 69t59 27q28 0 44 -19t16 -50q0 -41 -23.5 -68.5t-59.5 -27.5q-27 0 -43 19t-16 50zM190 615q0 -52 43 -52q32 0 47.5 24t15.5 52q0 53 -45 53q-32 0 -46.5 -24t-14.5 -53z" />
    <glyph glyph-name="plusminus" unicode="&#xb1;" horiz-adv-x="467" 
d="M234 90l23 164h-137l4 22h136l24 164h22l-24 -164h139l-4 -22h-138l-23 -164h-22zM93 64h297l-2 -22h-297z" />
    <glyph glyph-name="twosuperior" unicode="&#xb2;" horiz-adv-x="269" 
d="M295 515h-181l1 8q72 52 113 99t53.5 81t12.5 73q0 56 -30 67q-12 6 -28 4q-20 -2 -52 -27q-5 -5 -11.5 -2.5t-6.5 9.5q0 12 25 22.5t55 10.5q38 0 56 -26t18 -61q0 -108 -170 -239h124q11 0 14 10l13 39h8z" />
    <glyph glyph-name="threesuperior" unicode="&#xb3;" horiz-adv-x="255" 
d="M244 860q31 0 50 -19t19 -49q0 -34 -21 -59.5t-55 -34.5q63 -15 63 -78q0 -52 -33.5 -81t-78.5 -29q-28 0 -49 9t-21 21q0 9 8 12.5t13 -2.5q24 -30 54 -30q35 0 57.5 30t22.5 69q0 31 -16 51t-47 20h-12l2 11h9q32 0 55 25.5t23 63.5q0 57 -50 57q-33 0 -68 -31l-4 9
q35 35 79 35z" />
    <glyph glyph-name="acute" unicode="&#xb4;" horiz-adv-x="323" 
d="M161 560l131 88q15 8 25.5 4t10.5 -15q0 -17 -18 -26l-145 -61z" />
    <glyph glyph-name="mu" unicode="&#xb5;" 
d="M105 0l65 461q3 20 -14 20h-71l2 16l127 13l6 -8q-11 -25 -19 -82l-38 -270q-8 -62 7.5 -96t66.5 -34q65 0 114 73.5t61 156.5l30 211q3 20 -14 20h-87l2 16l143 13l6 -8q-10 -27 -18 -82l-52 -374q-3 -24 13 -25l69 -5l-2 -16q-84 -10 -93 -10q-33 0 -28 36l16 111h-1
q-72 -147 -183 -147q-42 0 -67 28q-25 -167 -146 -218l-4 13q89 46 109 187z" />
    <glyph glyph-name="paragraph" unicode="&#xb6;" horiz-adv-x="573" 
d="M461 680l-96 -680h-17q-120 0 -187.5 76.5t-67.5 206.5q0 184 96 290.5t255 106.5h17zM536 634l-82 -588q-3 -24 13 -25l71 -5l-3 -16h-119l96 680h119l-3 -16l-71 -5q-18 -2 -21 -25z" />
    <glyph glyph-name="periodcentered" unicode="&#xb7;" horiz-adv-x="227" 
d="M121 260q0 16 10.5 26.5t24.5 10.5q11 0 18 -8t7 -20q0 -15 -10.5 -26t-23.5 -11q-12 0 -19 8t-7 20z" />
    <glyph glyph-name="cedilla" unicode="&#xb8;" horiz-adv-x="306" 
d="M124 -50l7 50h14l-5 -42q24 -3 45 -21t21 -50q0 -39 -26 -63t-66 -24q-30 0 -56 12l5 13q25 -9 43 -9q32 0 48 23t16 51q0 52 -46 60z" />
    <glyph glyph-name="onesuperior" unicode="&#xb9;" horiz-adv-x="251" 
d="M258 857l-44 -318q-2 -13 7 -13l62 -2l-2 -9h-167l2 9l62 2q9 0 11 13l39 287q1 5 -1 8t-6 2l-59 -11v10l89 22h7z" />
    <glyph glyph-name="ordmasculine" unicode="&#xba;" horiz-adv-x="299" 
d="M79 316h231l-2 -16h-231zM243 675q-47 0 -81 -46t-34 -132q0 -56 21 -84t54 -28q47 0 81.5 47t34.5 131q0 56 -21 84t-55 28zM201 374q-46 0 -71 37.5t-25 92.5q0 70 40 126t100 56q47 0 72.5 -38t25.5 -93q0 -70 -40 -125.5t-102 -55.5z" />
    <glyph glyph-name="guillemotright" unicode="&#xbb;" horiz-adv-x="534" 
d="M277 270l-129 180l12 15l157 -187l-2 -16l-210 -187l-7 15zM449 270l-129 180l12 15l156 -187l-2 -16l-209 -187l-8 15z" />
    <glyph glyph-name="onequarter" unicode="&#xbc;" horiz-adv-x="680" 
d="M572 24l7 53h-138l1 8l187 257h12l-35 -253h44l-2 -12h-44l-7 -53q-2 -13 7 -13l33 -2l-2 -9h-109l2 9l33 2q9 0 11 13zM535 700h18l-280 -720h-18zM610 298l-151 -208v-1h122zM234 682l-44 -318q-2 -13 7 -13l62 -2l-2 -9h-167l2 9l62 2q9 0 11 13l39 287q1 5 -1 8t-6 2
l-59 -11v10l89 22h7z" />
    <glyph glyph-name="onehalf" unicode="&#xbd;" horiz-adv-x="681" 
d="M519 700h18l-281 -720h-18zM633 0h-180l1 8q104 76 141.5 135t37.5 119q0 31 -13 51.5t-37 20.5q-27 0 -60 -29q-6 -5 -12 -3t-6 10q0 12 25 22.5t56 10.5q38 0 56 -26t18 -61q0 -108 -172 -239h125q10 0 13 10l13 39h8zM234 682l-44 -318q-2 -13 7 -13l62 -2l-2 -9h-167
l2 9l62 2q9 0 11 13l39 287q1 5 -1 8t-6 2l-59 -11v10l89 22h7z" />
    <glyph glyph-name="threequarters" unicode="&#xbe;" horiz-adv-x="680" 
d="M571 24l7 53h-138l2 8l187 257h12l-35 -253h44l-3 -12h-44l-7 -53q-2 -13 8 -13l32 -2l-1 -9h-109l1 9l34 2q8 0 10 13zM536 700h19l-280 -720h-19zM610 298l-151 -208v-1h122zM219 685q31 0 50 -19t19 -49q0 -34 -21 -59.5t-55 -34.5q63 -15 63 -78q0 -52 -33.5 -81
t-78.5 -29q-28 0 -49 9t-21 21q0 9 8 12t13 -2q24 -30 54 -30q35 0 57.5 30t22.5 69q0 31 -16 51t-47 20h-12l2 11h9q32 0 55 25.5t23 63.5q0 57 -50 57q-33 0 -68 -31l-4 9q35 35 79 35z" />
    <glyph glyph-name="questiondown" unicode="&#xbf;" horiz-adv-x="409" 
d="M185 -171q63 0 127 54q8 8 18.5 5t10.5 -17q0 -23 -50.5 -42t-109.5 -19q-68 0 -101.5 44t-33.5 108q0 30 7.5 58t26.5 60.5t60 58.5t100 39l29 172h16l-24 -184q-173 -39 -173 -207q0 -57 24.5 -93.5t72.5 -36.5zM327 479q0 -16 -11.5 -28t-25.5 -12q-12 0 -19.5 9
t-7.5 22q0 16 11.5 28t25.5 12q12 0 19.5 -9t7.5 -22z" />
    <glyph glyph-name="Agrave" unicode="&#xc0;" horiz-adv-x="610" 
d="M442 242h-235l-79 -195q-10 -23 12 -26l57 -5l-2 -16h-180l2 16l54 5q24 3 33 25l264 639h39l113 -639q4 -23 25 -25l52 -5l-2 -16h-200l2 16l57 5q25 2 22 27zM216 263h222l-64 378h-2zM310 828l106 -88l-7 -10l-127 61q-13 6 -12 21q1 14 14 20t26 -4z" />
    <glyph glyph-name="Aacute" unicode="&#xc1;" horiz-adv-x="610" 
d="M442 242h-235l-79 -195q-10 -23 12 -26l57 -5l-2 -16h-180l2 16l54 5q24 3 33 25l264 639h39l113 -639q4 -23 25 -25l52 -5l-2 -16h-200l2 16l57 5q25 2 22 27zM216 263h222l-64 378h-2zM383 740l131 88q15 9 25.5 4.5t10.5 -15.5q0 -17 -18 -26l-145 -61z" />
    <glyph glyph-name="Acircumflex" unicode="&#xc2;" horiz-adv-x="610" 
d="M442 242h-235l-79 -195q-10 -23 12 -26l57 -5l-2 -16h-180l2 16l54 5q24 3 33 25l264 639h39l113 -639q4 -23 25 -25l52 -5l-2 -16h-200l2 16l57 5q25 2 22 27zM216 263h222l-64 378h-2zM420 845l-115 -115h-17l134 160h7l90 -160h-17z" />
    <glyph glyph-name="Atilde" unicode="&#xc3;" horiz-adv-x="610" 
d="M442 242h-235l-79 -195q-10 -23 12 -26l57 -5l-2 -16h-180l2 16l54 5q24 3 33 25l264 639h39l113 -639q4 -23 25 -25l52 -5l-2 -16h-200l2 16l57 5q25 2 22 27zM216 263h222l-64 378h-2zM287 754l-12 6q37 67 59 85q18 15 37 15t60 -28.5t58 -28.5q28 0 62 54l11 -7
q-14 -27 -22.5 -41.5t-24 -28t-32.5 -13.5q-22 0 -63.5 28.5t-56.5 28.5q-27 0 -67 -58q-2 -2 -3 -3.5t-3 -4t-3 -4.5z" />
    <glyph glyph-name="Adieresis" unicode="&#xc4;" horiz-adv-x="610" 
d="M442 242h-235l-79 -195q-10 -23 12 -26l57 -5l-2 -16h-180l2 16l54 5q24 3 33 25l264 639h39l113 -639q4 -23 25 -25l52 -5l-2 -16h-200l2 16l57 5q25 2 22 27zM216 263h222l-64 378h-2zM300 800q0 16 10 26.5t24 10.5q11 0 18.5 -8t7.5 -20q0 -16 -10.5 -26.5
t-24.5 -10.5q-11 0 -18 8t-7 20zM470 800q0 16 10 26.5t24 10.5q11 0 18.5 -8t7.5 -20q0 -16 -10.5 -26.5t-24.5 -10.5q-11 0 -18 8t-7 20z" />
    <glyph glyph-name="Aring" unicode="&#xc5;" horiz-adv-x="610" 
d="M442 242h-235l-79 -195q-10 -23 12 -26l57 -5l-2 -16h-180l2 16l54 5q24 3 33 25l264 639h39l113 -639q4 -23 25 -25l52 -5l-2 -16h-200l2 16l57 5q25 2 22 27zM216 263h222l-64 378h-2zM336 794q0 42 25 71.5t63 29.5q29 0 46 -21t17 -54q0 -42 -25 -71t-63 -29
q-29 0 -46 21t-17 53zM359 792q0 -25 11 -40.5t31 -15.5q28 0 44.5 24.5t16.5 62.5q0 56 -41 56q-28 0 -45 -24.5t-17 -62.5z" />
    <glyph glyph-name="AE" unicode="&#xc6;" horiz-adv-x="807" 
d="M428 46l27 196h-204l-123 -195q-15 -23 11 -26l58 -5l-2 -16h-180l2 16l53 5q19 1 33 25l401 634h348l-22 -150h-15l-3 109q0 20 -23 20h-236l-42 -304h143q23 0 28 20l23 85h14l-33 -230h-14l2 84q0 20 -23 20h-143l-44 -313h249q20 0 29 20l47 109h14l-38 -150h-432
l2 16l72 5q18 1 21 25zM265 264h193l55 394h-1z" />
    <glyph glyph-name="Ccedilla" unicode="&#xc7;" horiz-adv-x="552" 
d="M538 200l17 -4q-37 -109 -99.5 -156t-134.5 -50l-4 -32q24 -3 44.5 -21t20.5 -50q0 -39 -26 -63t-66 -24q-29 0 -55 12l5 13q25 -9 43 -9q31 0 47.5 23t16.5 51q0 52 -46 60l6 40q-96 3 -155 84t-59 207q0 172 98.5 290.5t228.5 118.5q105 0 181 -50l-21 -150h-15
q8 105 -29.5 143t-116.5 38q-113 0 -197.5 -107.5t-84.5 -293.5q0 -125 51.5 -192.5t129.5 -67.5q68 0 127 46t93 144z" />
    <glyph glyph-name="Egrave" unicode="&#xc8;" 
d="M257 659l-42 -304h142q23 0 28 20l23 85h14l-33 -230h-14l2 84q0 20 -23 20h-142l-44 -313h248q19 0 28 20l47 109h15l-38 -150h-431l2 16l72 5q18 1 21 25l82 588q3 24 -14 25l-70 5l3 16h423l-22 -150h-15l-3 109q0 20 -23 20h-236zM316 828l106 -88l-7 -10l-127 61
q-13 6 -12 21q1 14 14 20t26 -4z" />
    <glyph glyph-name="Eacute" unicode="&#xc9;" 
d="M257 659l-42 -304h142q23 0 28 20l23 85h14l-33 -230h-14l2 84q0 20 -23 20h-142l-44 -313h248q19 0 28 20l47 109h15l-38 -150h-431l2 16l72 5q18 1 21 25l82 588q3 24 -14 25l-70 5l3 16h423l-22 -150h-15l-3 109q0 20 -23 20h-236zM361 740l131 88q15 9 25.5 4.5
t10.5 -15.5q0 -17 -18 -26l-145 -61z" />
    <glyph glyph-name="Ecircumflex" unicode="&#xca;" 
d="M257 659l-42 -304h142q23 0 28 20l23 85h14l-33 -230h-14l2 84q0 20 -23 20h-142l-44 -313h248q19 0 28 20l47 109h15l-38 -150h-431l2 16l72 5q18 1 21 25l82 588q3 24 -14 25l-70 5l3 16h423l-22 -150h-15l-3 109q0 20 -23 20h-236zM399 845l-115 -115h-17l134 160h7
l90 -160h-17z" />
    <glyph glyph-name="Edieresis" unicode="&#xcb;" 
d="M257 659l-42 -304h142q23 0 28 20l23 85h14l-33 -230h-14l2 84q0 20 -23 20h-142l-44 -313h248q19 0 28 20l47 109h15l-38 -150h-431l2 16l72 5q18 1 21 25l82 588q3 24 -14 25l-70 5l3 16h423l-22 -150h-15l-3 109q0 20 -23 20h-236zM280 800q0 16 10 26.5t24 10.5
q11 0 18.5 -8t7.5 -20q0 -16 -10.5 -26.5t-24.5 -10.5q-11 0 -18 8t-7 20zM450 800q0 16 10 26.5t24 10.5q11 0 18.5 -8t7.5 -20q0 -16 -10.5 -26.5t-24.5 -10.5q-11 0 -18 8t-7 20z" />
    <glyph glyph-name="Igrave" unicode="&#xcc;" horiz-adv-x="290" 
d="M254 634l-82 -588q-4 -24 13 -25l69 -5l-2 -16h-215l2 16l72 5q18 1 21 25l82 588q3 24 -14 25l-70 5l3 16h215l-3 -16l-71 -5q-17 -1 -20 -25zM154 828l106 -88l-7 -10l-127 61q-13 6 -12 21q1 14 14 20t26 -4z" />
    <glyph glyph-name="Iacute" unicode="&#xcd;" horiz-adv-x="290" 
d="M254 634l-82 -588q-4 -24 13 -25l69 -5l-2 -16h-215l2 16l72 5q18 1 21 25l82 588q3 24 -14 25l-70 5l3 16h215l-3 -16l-71 -5q-17 -1 -20 -25zM237 740l131 88q15 9 25.5 4.5t10.5 -15.5q0 -17 -18 -26l-145 -61z" />
    <glyph glyph-name="Icircumflex" unicode="&#xce;" horiz-adv-x="290" 
d="M254 634l-82 -588q-4 -24 13 -25l69 -5l-2 -16h-215l2 16l72 5q18 1 21 25l82 588q3 24 -14 25l-70 5l3 16h215l-3 -16l-71 -5q-17 -1 -20 -25zM264 845l-115 -115h-17l134 160h7l90 -160h-17z" />
    <glyph glyph-name="Idieresis" unicode="&#xcf;" horiz-adv-x="290" 
d="M254 634l-82 -588q-4 -24 13 -25l69 -5l-2 -16h-215l2 16l72 5q18 1 21 25l82 588q3 24 -14 25l-70 5l3 16h215l-3 -16l-71 -5q-17 -1 -20 -25zM144 800q0 16 10 26.5t24 10.5q11 0 18.5 -8t7.5 -20q0 -16 -10.5 -26.5t-24.5 -10.5q-11 0 -18 8t-7 20zM314 800
q0 16 10 26.5t24 10.5q11 0 18.5 -8t7.5 -20q0 -16 -10.5 -26.5t-24.5 -10.5q-11 0 -18 8t-7 20z" />
    <glyph glyph-name="Eth" unicode="&#xd0;" horiz-adv-x="630" 
d="M290 0h-253l2 16l72 5q18 1 21 25l39 278h-85l4 22h84l40 288q3 24 -14 25l-70 5l3 16h253q118 0 182.5 -73t64.5 -204q0 -176 -94.5 -289.5t-248.5 -113.5zM168 21h124q92 0 161.5 59t102 143.5t32.5 177.5q0 116 -54 187t-162 71h-115l-44 -313h94l-4 -22h-93z" />
    <glyph glyph-name="Ntilde" unicode="&#xd1;" horiz-adv-x="622" 
d="M498 -5l-271 639l-82 -588q-4 -24 14 -25l65 -5l-2 -16h-190l2 16l68 5q18 1 21 25l82 588q3 24 -14 25l-66 5l3 16h129l250 -594l77 548q3 24 -14 25l-67 5l3 16h187l-3 -16l-64 -5q-18 -1 -21 -25l-90 -639h-17zM292 754l-12 6q37 67 59 85q18 15 37 15t60 -28.5
t58 -28.5q28 0 62 54l11 -7q-14 -27 -22.5 -41.5t-24 -28t-32.5 -13.5q-22 0 -63.5 28.5t-56.5 28.5q-27 0 -67 -58q-2 -2 -3 -3.5t-3 -4t-3 -4.5z" />
    <glyph glyph-name="Ograve" unicode="&#xd2;" horiz-adv-x="665" 
d="M93 285q0 170 100 287.5t236 117.5q106 0 172.5 -83t66.5 -213q0 -170 -100.5 -287t-236.5 -117q-105 0 -171.5 82.5t-66.5 212.5zM138 281q0 -125 56 -198.5t139 -73.5q52 0 103 27.5t93 76t68 123.5t26 162q0 125 -57 199t-140 74q-111 0 -199.5 -109t-88.5 -281z
M342 828l106 -88l-7 -10l-127 61q-13 6 -12 21q1 14 14 20t26 -4z" />
    <glyph glyph-name="Oacute" unicode="&#xd3;" horiz-adv-x="665" 
d="M93 285q0 170 100 287.5t236 117.5q106 0 172.5 -83t66.5 -213q0 -170 -100.5 -287t-236.5 -117q-105 0 -171.5 82.5t-66.5 212.5zM138 281q0 -125 56 -198.5t139 -73.5q52 0 103 27.5t93 76t68 123.5t26 162q0 125 -57 199t-140 74q-111 0 -199.5 -109t-88.5 -281z
M415 740l131 88q15 9 25.5 4.5t10.5 -15.5q0 -17 -18 -26l-145 -61z" />
    <glyph glyph-name="Ocircumflex" unicode="&#xd4;" horiz-adv-x="665" 
d="M93 285q0 170 100 287.5t236 117.5q106 0 172.5 -83t66.5 -213q0 -170 -100.5 -287t-236.5 -117q-105 0 -171.5 82.5t-66.5 212.5zM138 281q0 -125 56 -198.5t139 -73.5q52 0 103 27.5t93 76t68 123.5t26 162q0 125 -57 199t-140 74q-111 0 -199.5 -109t-88.5 -281z
M451 845l-115 -115h-17l134 160h7l90 -160h-17z" />
    <glyph glyph-name="Otilde" unicode="&#xd5;" horiz-adv-x="665" 
d="M93 285q0 170 100 287.5t236 117.5q106 0 172.5 -83t66.5 -213q0 -170 -100.5 -287t-236.5 -117q-105 0 -171.5 82.5t-66.5 212.5zM138 281q0 -125 56 -198.5t139 -73.5q52 0 103 27.5t93 76t68 123.5t26 162q0 125 -57 199t-140 74q-111 0 -199.5 -109t-88.5 -281z
M313 754l-12 6q37 67 59 85q18 15 37 15t60 -28.5t58 -28.5q28 0 62 54l11 -7q-14 -27 -22.5 -41.5t-24 -28t-32.5 -13.5q-22 0 -63.5 28.5t-56.5 28.5q-27 0 -67 -58q-2 -2 -3 -3.5t-3 -4t-3 -4.5z" />
    <glyph glyph-name="Odieresis" unicode="&#xd6;" horiz-adv-x="665" 
d="M93 285q0 170 100 287.5t236 117.5q106 0 172.5 -83t66.5 -213q0 -170 -100.5 -287t-236.5 -117q-105 0 -171.5 82.5t-66.5 212.5zM138 281q0 -125 56 -198.5t139 -73.5q52 0 103 27.5t93 76t68 123.5t26 162q0 125 -57 199t-140 74q-111 0 -199.5 -109t-88.5 -281z
M331 800q0 16 10 26.5t24 10.5q11 0 18.5 -8t7.5 -20q0 -16 -10.5 -26.5t-24.5 -10.5q-11 0 -18 8t-7 20zM501 800q0 16 10 26.5t24 10.5q11 0 18.5 -8t7.5 -20q0 -16 -10.5 -26.5t-24.5 -10.5q-11 0 -18 8t-7 20z" />
    <glyph glyph-name="multiply" unicode="&#xd7;" horiz-adv-x="436" 
d="M349 112l-97 136l-135 -136l-12 16l135 137l-96 137l16 16l97 -137l135 137l13 -16l-136 -137l97 -137z" />
    <glyph glyph-name="Oslash" unicode="&#xd8;" horiz-adv-x="665" 
d="M93 285q0 170 100 287.5t236 117.5q82 0 142 -52l47 71l15 -11l-48 -73q83 -85 83 -231q0 -170 -100.5 -287t-236.5 -117q-75 0 -133 44l-41 -63l-15 11l42 64q-91 83 -91 239zM137 281q0 -132 64 -209l353 539q-52 60 -128 60q-111 0 -200 -109t-89 -281zM623 398
q0 123 -57 198l-352 -538q51 -49 119 -49q52 0 103 27.5t93 76t68 123.5t26 162z" />
    <glyph glyph-name="Ugrave" unicode="&#xd9;" horiz-adv-x="647" 
d="M549 255l53 379q3 24 -14 25l-67 5l2 16h195l-3 -16l-70 -5q-18 -1 -21 -25l-53 -378q-18 -128 -83.5 -197t-169.5 -69q-202 0 -165 267l53 377q3 24 -14 25l-69 5l3 16h215l-3 -16l-72 -5q-17 -1 -20 -25l-55 -392q-17 -117 18 -172.5t126 -55.5q82 0 139.5 59.5
t74.5 181.5zM359 828l106 -88l-7 -10l-127 61q-13 6 -12 21q1 14 14 20t26 -4z" />
    <glyph glyph-name="Uacute" unicode="&#xda;" horiz-adv-x="647" 
d="M549 255l53 379q3 24 -14 25l-67 5l2 16h195l-3 -16l-70 -5q-18 -1 -21 -25l-53 -378q-18 -128 -83.5 -197t-169.5 -69q-202 0 -165 267l53 377q3 24 -14 25l-69 5l3 16h215l-3 -16l-72 -5q-17 -1 -20 -25l-55 -392q-17 -117 18 -172.5t126 -55.5q82 0 139.5 59.5
t74.5 181.5zM432 740l131 88q15 9 25.5 4.5t10.5 -15.5q0 -17 -18 -26l-145 -61z" />
    <glyph glyph-name="Ucircumflex" unicode="&#xdb;" horiz-adv-x="647" 
d="M549 255l53 379q3 24 -14 25l-67 5l2 16h195l-3 -16l-70 -5q-18 -1 -21 -25l-53 -378q-18 -128 -83.5 -197t-169.5 -69q-202 0 -165 267l53 377q3 24 -14 25l-69 5l3 16h215l-3 -16l-72 -5q-17 -1 -20 -25l-55 -392q-17 -117 18 -172.5t126 -55.5q82 0 139.5 59.5
t74.5 181.5zM457 845l-115 -115h-17l134 160h7l90 -160h-17z" />
    <glyph glyph-name="Udieresis" unicode="&#xdc;" horiz-adv-x="647" 
d="M549 255l53 379q3 24 -14 25l-67 5l2 16h195l-3 -16l-70 -5q-18 -1 -21 -25l-53 -378q-18 -128 -83.5 -197t-169.5 -69q-202 0 -165 267l53 377q3 24 -14 25l-69 5l3 16h215l-3 -16l-72 -5q-17 -1 -20 -25l-55 -392q-17 -117 18 -172.5t126 -55.5q82 0 139.5 59.5
t74.5 181.5zM337 800q0 16 10 26.5t24 10.5q11 0 18.5 -8t7.5 -20q0 -16 -10.5 -26.5t-24.5 -10.5q-11 0 -18 8t-7 20zM507 800q0 16 10 26.5t24 10.5q11 0 18.5 -8t7.5 -20q0 -16 -10.5 -26.5t-24.5 -10.5q-11 0 -18 8t-7 20z" />
    <glyph glyph-name="Yacute" unicode="&#xdd;" horiz-adv-x="595" 
d="M580 629l-227 -374l-30 -209q-3 -24 14 -25l70 -5l-2 -16h-215l2 16l71 5q17 1 20 25l29 199l-122 384q-10 29 -28 30l-54 5l3 16h200l-3 -16l-53 -5q-12 -1 -17.5 -11t-2.5 -20l111 -348h2l212 349q7 12 3.5 20.5t-14.5 9.5l-56 5l3 16h180l-3 -16l-54 -5
q-21 -1 -39 -30zM401 740l131 88q15 9 25.5 4.5t10.5 -15.5q0 -17 -18 -26l-145 -61z" />
    <glyph glyph-name="Thorn" unicode="&#xde;" horiz-adv-x="520" 
d="M236 509l-47 -338h107q53 0 93 17.5t61.5 47t32 62t10.5 68.5q0 62 -35.5 102.5t-114.5 40.5h-107zM254 634l-15 -104h117q87 0 134 -46t47 -119q0 -91 -63.5 -153t-170.5 -62h-117l-14 -104q-3 -24 13 -25l69 -5l-2 -16h-215l2 16l72 5q18 1 21 25l82 588q3 24 -14 25
l-70 5l3 16h215l-3 -16l-71 -5q-17 -1 -20 -25z" />
    <glyph glyph-name="germandbls" unicode="&#xdf;" horiz-adv-x="520" 
d="M234 562l-85 -598q-10 -70 -50.5 -117t-109.5 -47q-23 0 -40 8.5t-17 24.5q0 18 19 18q13 0 36 -12.5t38 -12.5q65 0 80 104l79 547h-75l2 15l76 8l6 40q11 73 53.5 121.5t112.5 48.5q60 0 88 -27.5t28 -67.5q0 -38 -18.5 -69t-40 -48.5t-40 -41.5t-18.5 -51
q0 -29 26 -65l57 -72q53 -66 53 -122q0 -67 -44 -111.5t-111 -44.5t-114 30l-4 120h14q5 -70 36 -100.5t71 -30.5q49 0 81.5 34t32.5 86t-47 110l-56 70q-27 34 -29 64.5t11 53t45 58.5q57 68 57 133q0 34 -21.5 53.5t-62.5 19.5t-76 -33t-43 -96z" />
    <glyph glyph-name="agrave" unicode="&#xe0;" horiz-adv-x="497" 
d="M364 26l9 64h-3q-49 -100 -149 -100q-71 0 -110 54.5t-39 149.5q0 135 68.5 225.5t168.5 90.5q67 0 115 -38h2l37 38h6l-65 -464q-3 -24 13 -25l70 -5l-2 -16q-84 -10 -94 -10q-32 0 -27 36zM387 195l35 252q-52 42 -114 42q-78 0 -136 -78.5t-58 -225.5q0 -88 29.5 -131
t82.5 -43q62 0 106 52.5t55 131.5zM274 648l106 -88l-7 -10l-127 61q-13 6 -12 21q1 14 14 20t26 -4z" />
    <glyph glyph-name="aacute" unicode="&#xe1;" horiz-adv-x="497" 
d="M364 26l9 64h-3q-49 -100 -149 -100q-71 0 -110 54.5t-39 149.5q0 135 68.5 225.5t168.5 90.5q67 0 115 -38h2l37 38h6l-65 -464q-3 -24 13 -25l70 -5l-2 -16q-84 -10 -94 -10q-32 0 -27 36zM387 195l35 252q-52 42 -114 42q-78 0 -136 -78.5t-58 -225.5q0 -88 29.5 -131
t82.5 -43q62 0 106 52.5t55 131.5zM312 560l131 88q15 8 25.5 4t10.5 -15q0 -17 -18 -26l-145 -61z" />
    <glyph glyph-name="acircumflex" unicode="&#xe2;" horiz-adv-x="497" 
d="M364 26l9 64h-3q-49 -100 -149 -100q-71 0 -110 54.5t-39 149.5q0 135 68.5 225.5t168.5 90.5q67 0 115 -38h2l37 38h6l-65 -464q-3 -24 13 -25l70 -5l-2 -16q-84 -10 -94 -10q-32 0 -27 36zM387 195l35 252q-52 42 -114 42q-78 0 -136 -78.5t-58 -225.5q0 -88 29.5 -131
t82.5 -43q62 0 106 52.5t55 131.5zM343 665l-115 -115h-17l134 160h7l90 -160h-17z" />
    <glyph glyph-name="atilde" unicode="&#xe3;" horiz-adv-x="497" 
d="M364 26l9 64h-3q-49 -100 -149 -100q-71 0 -110 54.5t-39 149.5q0 135 68.5 225.5t168.5 90.5q67 0 115 -38h2l37 38h6l-65 -464q-3 -24 13 -25l70 -5l-2 -16q-84 -10 -94 -10q-32 0 -27 36zM387 195l35 252q-52 42 -114 42q-78 0 -136 -78.5t-58 -225.5q0 -88 29.5 -131
t82.5 -43q62 0 106 52.5t55 131.5zM218 574l-12 6q37 67 59 85q18 15 37 15t60 -28.5t58 -28.5q28 0 62 54l11 -7q-14 -27 -22.5 -41.5t-24 -28t-32.5 -13.5q-22 0 -63.5 28.5t-56.5 28.5q-27 0 -67 -58z" />
    <glyph glyph-name="adieresis" unicode="&#xe4;" horiz-adv-x="497" 
d="M364 26l9 64h-3q-49 -100 -149 -100q-71 0 -110 54.5t-39 149.5q0 135 68.5 225.5t168.5 90.5q67 0 115 -38h2l37 38h6l-65 -464q-3 -24 13 -25l70 -5l-2 -16q-84 -10 -94 -10q-32 0 -27 36zM387 195l35 252q-52 42 -114 42q-78 0 -136 -78.5t-58 -225.5q0 -88 29.5 -131
t82.5 -43q62 0 106 52.5t55 131.5zM234 620q0 16 10 26.5t24 10.5q11 0 18.5 -8t7.5 -20q0 -16 -10.5 -26.5t-24.5 -10.5q-11 0 -18 8t-7 20zM404 620q0 16 10 26.5t24 10.5q11 0 18.5 -8t7.5 -20q0 -16 -10.5 -26.5t-24.5 -10.5q-11 0 -18 8t-7 20z" />
    <glyph glyph-name="aring" unicode="&#xe5;" horiz-adv-x="497" 
d="M364 26l9 64h-3q-49 -100 -149 -100q-71 0 -110 54.5t-39 149.5q0 135 68.5 225.5t168.5 90.5q67 0 115 -38h2l37 38h6l-65 -464q-3 -24 13 -25l70 -5l-2 -16q-84 -10 -94 -10q-32 0 -27 36zM387 195l35 252q-52 42 -114 42q-78 0 -136 -78.5t-58 -225.5q0 -88 29.5 -131
t82.5 -43q62 0 106 52.5t55 131.5zM265 614q0 42 25 71.5t63 29.5q29 0 46 -21t17 -54q0 -42 -25 -71t-63 -29q-29 0 -46 21t-17 53zM288 612q0 -25 11 -40.5t31 -15.5q28 0 44.5 24.5t16.5 62.5q0 56 -41 56q-28 0 -45 -24.5t-17 -62.5z" />
    <glyph glyph-name="ae" unicode="&#xe6;" horiz-adv-x="670" 
d="M382 233q-8 -89 27.5 -153t116.5 -64q65 0 133 64l8 -14q-67 -76 -161 -76q-71 0 -113 43.5t-52 117.5q-30 -89 -79.5 -125t-103.5 -36q-48 0 -75 29t-27 72q0 58 37 96.5t132 66.5l121 36l12 85q16 110 -82 110q-58 0 -136 -52l-6 12q12 11 31 24t56 27t73 14
q56 0 83 -29.5t22 -78.5q71 108 181 108q38 0 62 -22t24 -57q0 -54 -69.5 -109.5t-214.5 -88.5zM334 200l10 71l-132 -42q-117 -37 -117 -135q0 -39 21 -60t59 -21q57 0 102.5 54.5t56.5 132.5zM576 491q-66 0 -122.5 -63.5t-69.5 -174.5q33 8 69 21.5t77 36t67 55.5t26 70
q0 24 -13 39.5t-34 15.5z" />
    <glyph glyph-name="ccedilla" unicode="&#xe7;" horiz-adv-x="425" 
d="M228 -50l5 40q-77 3 -118.5 63.5t-41.5 151.5q0 140 75 222.5t170 82.5q54 0 94 -17t40 -38q0 -16 -13 -21.5t-20 3.5q-17 18 -26.5 27t-30.5 18t-46 9q-90 0 -144.5 -83.5t-54.5 -196.5q0 -97 38.5 -146t104.5 -49q64 0 134 64l7 -14q-63 -73 -154 -76l-4 -32
q24 -3 45 -21t21 -50q0 -39 -26 -63t-66 -24q-31 0 -55 12l5 13q22 -9 43 -9q31 0 47 23t16 51q0 52 -45 60z" />
    <glyph glyph-name="egrave" unicode="&#xe8;" horiz-adv-x="406" 
d="M312 491q-66 0 -122.5 -63.5t-69.5 -174.5q33 8 69 21.5t77 36t67 55.5t26 70q0 24 -13 39.5t-34 15.5zM118 233q-8 -89 27.5 -153t116.5 -64q65 0 133 64l8 -14q-67 -76 -161 -76q-81 0 -124.5 57t-43.5 148q0 69 26 139t83.5 123t132.5 53q38 0 62 -22t24 -57
q0 -54 -69.5 -109.5t-214.5 -88.5zM259 648l106 -88l-7 -10l-127 61q-13 6 -12 21q1 14 14 20t26 -4z" />
    <glyph glyph-name="eacute" unicode="&#xe9;" horiz-adv-x="406" 
d="M312 491q-66 0 -122.5 -63.5t-69.5 -174.5q33 8 69 21.5t77 36t67 55.5t26 70q0 24 -13 39.5t-34 15.5zM118 233q-8 -89 27.5 -153t116.5 -64q65 0 133 64l8 -14q-67 -76 -161 -76q-81 0 -124.5 57t-43.5 148q0 69 26 139t83.5 123t132.5 53q38 0 62 -22t24 -57
q0 -54 -69.5 -109.5t-214.5 -88.5zM292 560l131 88q15 8 25.5 4t10.5 -15q0 -17 -18 -26l-145 -61z" />
    <glyph glyph-name="ecircumflex" unicode="&#xea;" horiz-adv-x="406" 
d="M312 491q-66 0 -122.5 -63.5t-69.5 -174.5q33 8 69 21.5t77 36t67 55.5t26 70q0 24 -13 39.5t-34 15.5zM118 233q-8 -89 27.5 -153t116.5 -64q65 0 133 64l8 -14q-67 -76 -161 -76q-81 0 -124.5 57t-43.5 148q0 69 26 139t83.5 123t132.5 53q38 0 62 -22t24 -57
q0 -54 -69.5 -109.5t-214.5 -88.5zM318 665l-115 -115h-17l134 160h7l90 -160h-17z" />
    <glyph glyph-name="edieresis" unicode="&#xeb;" horiz-adv-x="406" 
d="M312 491q-66 0 -122.5 -63.5t-69.5 -174.5q33 8 69 21.5t77 36t67 55.5t26 70q0 24 -13 39.5t-34 15.5zM118 233q-8 -89 27.5 -153t116.5 -64q65 0 133 64l8 -14q-67 -76 -161 -76q-81 0 -124.5 57t-43.5 148q0 69 26 139t83.5 123t132.5 53q38 0 62 -22t24 -57
q0 -54 -69.5 -109.5t-214.5 -88.5zM199 620q0 16 10 26.5t24 10.5q11 0 18.5 -8t7.5 -20q0 -16 -10.5 -26.5t-24.5 -10.5q-11 0 -18 8t-7 20zM369 620q0 16 10 26.5t24 10.5q11 0 18.5 -8t7.5 -20q0 -16 -10.5 -26.5t-24.5 -10.5q-11 0 -18 8t-7 20z" />
    <glyph glyph-name="igrave" unicode="&#xec;" horiz-adv-x="255" 
d="M124 648l106 -88l-7 -10l-127 61q-13 6 -12 21q1 14 14 20t26 -4zM121 26l60 435q3 20 -15 20h-70l3 16l128 13l6 -8q-12 -33 -18 -82l-53 -374q-3 -25 13 -25h70l-1 -16q-11 -2 -32 -6t-36.5 -6.5t-27.5 -2.5q-32 0 -27 36z" />
    <glyph glyph-name="iacute" unicode="&#xed;" horiz-adv-x="255" 
d="M172 560l131 88q15 8 25.5 4t10.5 -15q0 -17 -18 -26l-145 -61zM121 26l60 435q3 20 -15 20h-70l3 16l128 13l6 -8q-12 -33 -18 -82l-53 -374q-3 -25 13 -25h70l-1 -16q-11 -2 -32 -6t-36.5 -6.5t-27.5 -2.5q-32 0 -27 36z" />
    <glyph glyph-name="icircumflex" unicode="&#xee;" horiz-adv-x="255" 
d="M121 26l60 435q3 20 -15 20h-70l3 16l128 13l6 -8q-12 -33 -18 -82l-53 -374q-3 -25 13 -25h70l-1 -16q-11 -2 -32 -6t-36.5 -6.5t-27.5 -2.5q-32 0 -27 36zM218 665l-115 -115h-17l134 160h7l90 -160h-17z" />
    <glyph glyph-name="idieresis" unicode="&#xef;" horiz-adv-x="255" 
d="M104 620q0 16 10 26.5t24 10.5q11 0 18.5 -8t7.5 -20q0 -16 -10.5 -26.5t-24.5 -10.5q-11 0 -18 8t-7 20zM274 620q0 16 10 26.5t24 10.5q11 0 18.5 -8t7.5 -20q0 -16 -10.5 -26.5t-24.5 -10.5q-11 0 -18 8t-7 20zM120 26l60 435q3 20 -15 20h-70l3 16l128 13l6 -8
q-12 -33 -18 -82l-53 -374q-3 -25 13 -25h70l-1 -16q-11 -2 -32 -6t-36.5 -6.5t-27.5 -2.5q-32 0 -27 36z" />
    <glyph glyph-name="eth" unicode="&#xf0;" horiz-adv-x="477" 
d="M424 452l2 1q-19 95 -70 155l-111 -74l-5 19l103 70q-48 48 -119 69l6 18q75 -18 132 -75l85 58l6 -19l-78 -53q101 -113 101 -302q0 -134 -68.5 -231.5t-171.5 -97.5q-77 0 -120 64t-43 155q0 115 67.5 208t168.5 93q71 0 115 -58zM307 491q-80 0 -136 -76.5t-56 -221.5
q0 -92 34.5 -138t89.5 -46q78 0 135.5 78t57.5 219q0 92 -35 138.5t-90 46.5z" />
    <glyph glyph-name="ntilde" unicode="&#xf1;" horiz-adv-x="527" 
d="M392 26l45 324q19 130 -73 130q-45 0 -83.5 -38.5t-60.5 -89.5t-30 -102l-35 -250h-39l64 461q3 20 -14 20h-70l2 16l128 13l6 -8q-12 -33 -18 -82l-8 -57h1q71 147 180 147q47 0 74 -36.5t16 -113.5l-44 -314q-3 -25 14 -25h70l-2 -16q-11 -2 -32 -6t-36.5 -6.5
t-27.5 -2.5q-32 0 -27 36zM228 574l-12 6q37 67 59 85q18 15 37 15t60 -28.5t58 -28.5q28 0 62 54l11 -7q-14 -27 -22.5 -41.5t-24 -28t-32.5 -13.5q-22 0 -63.5 28.5t-56.5 28.5q-27 0 -67 -58z" />
    <glyph glyph-name="ograve" unicode="&#xf2;" horiz-adv-x="477" 
d="M307 491q-80 0 -136 -76.5t-56 -221.5q0 -92 34.5 -138t89.5 -46q78 0 135.5 78t57.5 219q0 92 -35 138.5t-90 46.5zM236 -10q-77 0 -120 64t-43 155q0 115 67.5 208t168.5 93q78 0 121 -64t43 -155q0 -115 -68 -208t-169 -93zM254 648l106 -88l-7 -10l-127 61
q-13 6 -12 21q1 14 14 20t26 -4z" />
    <glyph glyph-name="oacute" unicode="&#xf3;" horiz-adv-x="477" 
d="M307 491q-80 0 -136 -76.5t-56 -221.5q0 -92 34.5 -138t89.5 -46q78 0 135.5 78t57.5 219q0 92 -35 138.5t-90 46.5zM236 -10q-77 0 -120 64t-43 155q0 115 67.5 208t168.5 93q78 0 121 -64t43 -155q0 -115 -68 -208t-169 -93zM296 560l131 88q15 8 25.5 4t10.5 -15
q0 -17 -18 -26l-145 -61z" />
    <glyph glyph-name="ocircumflex" unicode="&#xf4;" horiz-adv-x="477" 
d="M307 491q-80 0 -136 -76.5t-56 -221.5q0 -92 34.5 -138t89.5 -46q78 0 135.5 78t57.5 219q0 92 -35 138.5t-90 46.5zM236 -10q-77 0 -120 64t-43 155q0 115 67.5 208t168.5 93q78 0 121 -64t43 -155q0 -115 -68 -208t-169 -93zM331 665l-115 -115h-17l134 160h7l90 -160
h-17z" />
    <glyph glyph-name="otilde" unicode="&#xf5;" horiz-adv-x="477" 
d="M307 491q-80 0 -136 -76.5t-56 -221.5q0 -92 34.5 -138t89.5 -46q78 0 135.5 78t57.5 219q0 92 -35 138.5t-90 46.5zM236 -10q-77 0 -120 64t-43 155q0 115 67.5 208t168.5 93q78 0 121 -64t43 -155q0 -115 -68 -208t-169 -93zM194 574l-12 6q37 67 59 85q18 15 37 15
t60 -28.5t58 -28.5q28 0 62 54l11 -7q-14 -27 -22.5 -41.5t-24 -28t-32.5 -13.5q-22 0 -63.5 28.5t-56.5 28.5q-27 0 -67 -58z" />
    <glyph glyph-name="odieresis" unicode="&#xf6;" horiz-adv-x="477" 
d="M307 491q-80 0 -136 -76.5t-56 -221.5q0 -92 34.5 -138t89.5 -46q78 0 135.5 78t57.5 219q0 92 -35 138.5t-90 46.5zM236 -10q-77 0 -120 64t-43 155q0 115 67.5 208t168.5 93q78 0 121 -64t43 -155q0 -115 -68 -208t-169 -93zM211 620q0 16 10 26.5t24 10.5
q11 0 18.5 -8t7.5 -20q0 -16 -10.5 -26.5t-24.5 -10.5q-11 0 -18 8t-7 20zM381 620q0 16 10 26.5t24 10.5q11 0 18.5 -8t7.5 -20q0 -16 -10.5 -26.5t-24.5 -10.5q-11 0 -18 8t-7 20z" />
    <glyph glyph-name="divide" unicode="&#xf7;" horiz-adv-x="484" 
d="M124 276h314l-3 -22h-314zM268 401q0 16 11 28t26 12q11 0 18.5 -9t7.5 -22q0 -16 -11 -28t-25 -12q-12 0 -19.5 9t-7.5 22zM228 120q0 16 11.5 28t25.5 12q12 0 19.5 -9t7.5 -22q0 -16 -11.5 -28t-25.5 -12q-12 0 -19.5 9t-7.5 22z" />
    <glyph glyph-name="oslash" unicode="&#xf8;" horiz-adv-x="477" 
d="M236 -10q-55 0 -94 34l-35 -53l-17 11l37 57q-54 61 -54 170q0 115 67.5 208t168.5 93q60 0 100 -40l39 59l16 -11l-41 -63q50 -64 50 -164q0 -115 -68 -208t-169 -93zM307 491q-80 0 -136 -76.5t-56 -221.5q0 -83 28 -130l252 385q-34 43 -88 43zM432 306q0 75 -26 124
l-250 -384q31 -37 83 -37q78 0 135.5 78t57.5 219z" />
    <glyph glyph-name="ugrave" unicode="&#xf9;" horiz-adv-x="527" 
d="M137 140l45 321q3 20 -14 20h-71l2 16l127 13l7 -8q-12 -29 -20 -82l-38 -270q-8 -62 7.5 -96t66.5 -34q66 0 115 74t60 156l30 211q3 20 -14 20h-87l2 16l143 13l7 -8q-12 -31 -19 -82l-52 -374q-3 -24 14 -25l69 -5l-3 -16q-82 -10 -93 -10q-32 0 -28 36l16 111h-1
q-72 -147 -182 -147q-48 0 -74 36.5t-15 113.5zM226 648l106 -88l-7 -10l-127 61q-13 6 -12 21q1 14 14 20t26 -4z" />
    <glyph glyph-name="uacute" unicode="&#xfa;" horiz-adv-x="527" 
d="M137 140l45 321q3 20 -14 20h-71l2 16l127 13l7 -8q-12 -29 -20 -82l-38 -270q-8 -62 7.5 -96t66.5 -34q66 0 115 74t60 156l30 211q3 20 -14 20h-87l2 16l143 13l7 -8q-12 -31 -19 -82l-52 -374q-3 -24 14 -25l69 -5l-3 -16q-82 -10 -93 -10q-32 0 -28 36l16 111h-1
q-72 -147 -182 -147q-48 0 -74 36.5t-15 113.5zM289 560l131 88q15 8 25.5 4t10.5 -15q0 -17 -18 -26l-145 -61z" />
    <glyph glyph-name="ucircumflex" unicode="&#xfb;" horiz-adv-x="527" 
d="M137 140l45 321q3 20 -14 20h-71l2 16l127 13l7 -8q-12 -29 -20 -82l-38 -270q-8 -62 7.5 -96t66.5 -34q66 0 115 74t60 156l30 211q3 20 -14 20h-87l2 16l143 13l7 -8q-12 -31 -19 -82l-52 -374q-3 -24 14 -25l69 -5l-3 -16q-82 -10 -93 -10q-32 0 -28 36l16 111h-1
q-72 -147 -182 -147q-48 0 -74 36.5t-15 113.5zM351 665l-115 -115h-17l134 160h7l90 -160h-17z" />
    <glyph glyph-name="udieresis" unicode="&#xfc;" horiz-adv-x="527" 
d="M137 140l45 321q3 20 -14 20h-71l2 16l127 13l7 -8q-12 -29 -20 -82l-38 -270q-8 -62 7.5 -96t66.5 -34q66 0 115 74t60 156l30 211q3 20 -14 20h-87l2 16l143 13l7 -8q-12 -31 -19 -82l-52 -374q-3 -24 14 -25l69 -5l-3 -16q-82 -10 -93 -10q-32 0 -28 36l16 111h-1
q-72 -147 -182 -147q-48 0 -74 36.5t-15 113.5zM230 620q0 16 10 26.5t24 10.5q11 0 18.5 -8t7.5 -20q0 -16 -10.5 -26.5t-24.5 -10.5q-11 0 -18 8t-7 20zM400 620q0 16 10 26.5t24 10.5q11 0 18.5 -8t7.5 -20q0 -16 -10.5 -26.5t-24.5 -10.5q-11 0 -18 8t-7 20z" />
    <glyph glyph-name="yacute" unicode="&#xfd;" horiz-adv-x="502" 
d="M253 -26l-97 490q-4 15 -24 15h-56l2 16q48 15 78 15q32 0 39 -30l84 -443h1l39 84q45 100 69.5 175.5t29 109.5t5.5 74q0 30 24 30q23 0 23 -29q0 -68 -109 -309l-82 -187q-44 -97 -72 -130q-46 -55 -107 -55q-23 0 -41 8.5t-16 24.5q1 12 11.5 16.5t21.5 -1.5
q58 -29 99 0t78 126zM342 560l131 88q15 8 25.5 4t10.5 -15q0 -17 -18 -26l-145 -61z" />
    <glyph glyph-name="thorn" unicode="&#xfe;" horiz-adv-x="513" 
d="M94 -154l114 815q3 20 -14 20h-71l2 16l127 13l5 -8q-11 -36 -18 -81l-30 -214h3q29 58 70.5 80.5t79.5 22.5q71 0 109.5 -54.5t38.5 -150.5q0 -134 -68 -224.5t-168 -90.5q-66 0 -116 38h-2l-25 -182q-5 -24 13 -25l87 -5l-2 -16h-230l2 16l72 5q18 1 21 25zM195 305
l-35 -252q53 -42 115 -42q77 0 135 79t58 225q0 88 -29.5 131t-82.5 43q-62 0 -106 -52.5t-55 -131.5z" />
    <glyph glyph-name="ydieresis" unicode="&#xff;" horiz-adv-x="502" 
d="M253 -26l-97 490q-4 15 -24 15h-56l2 16q48 15 78 15q32 0 39 -30l84 -443h1l39 84q45 100 69.5 175.5t29 109.5t5.5 74q0 30 24 30q23 0 23 -29q0 -68 -109 -309l-82 -187q-44 -97 -72 -130q-46 -55 -107 -55q-23 0 -41 8.5t-16 24.5q1 12 11.5 16.5t21.5 -1.5
q58 -29 99 0t78 126zM249 620q0 16 10 26.5t24 10.5q11 0 18.5 -8t7.5 -20q0 -16 -10.5 -26.5t-24.5 -10.5q-11 0 -18 8t-7 20zM419 620q0 16 10 26.5t24 10.5q11 0 18.5 -8t7.5 -20q0 -16 -10.5 -26.5t-24.5 -10.5q-11 0 -18 8t-7 20z" />
    <glyph glyph-name="Amacron" unicode="&#x100;" horiz-adv-x="610" 
d="M442 242h-235l-79 -195q-10 -23 12 -26l57 -5l-2 -16h-180l2 16l54 5q24 3 33 25l264 639h39l113 -639q4 -23 25 -25l52 -5l-2 -16h-200l2 16l57 5q25 2 22 27zM216 263h222l-64 378h-2zM293 796h229l-3 -22h-229z" />
    <glyph glyph-name="amacron" unicode="&#x101;" horiz-adv-x="497" 
d="M364 26l9 64h-3q-49 -100 -149 -100q-71 0 -110 54.5t-39 149.5q0 135 68.5 225.5t168.5 90.5q67 0 115 -38h2l37 38h6l-65 -464q-3 -24 13 -25l70 -5l-2 -16q-84 -10 -94 -10q-32 0 -27 36zM387 195l35 252q-52 42 -114 42q-78 0 -136 -78.5t-58 -225.5q0 -88 29.5 -131
t82.5 -43q62 0 106 52.5t55 131.5zM231 616h229l-3 -22h-229z" />
    <glyph glyph-name="Abreve" unicode="&#x102;" horiz-adv-x="610" 
d="M442 242h-235l-79 -195q-10 -23 12 -26l57 -5l-2 -16h-180l2 16l54 5q24 3 33 25l264 639h39l113 -639q4 -23 25 -25l52 -5l-2 -16h-200l2 16l57 5q25 2 22 27zM216 263h222l-64 378h-2zM399 740q-53 0 -71.5 43.5t-9.5 106.5h14q-2 -49 15.5 -79.5t57.5 -30.5
q39 0 65.5 30.5t37.5 79.5h14q-9 -62 -39.5 -106t-83.5 -44z" />
    <glyph glyph-name="abreve" unicode="&#x103;" horiz-adv-x="497" 
d="M364 26l9 64h-3q-49 -100 -149 -100q-71 0 -110 54.5t-39 149.5q0 135 68.5 225.5t168.5 90.5q67 0 115 -38h2l37 38h6l-65 -464q-3 -24 13 -25l70 -5l-2 -16q-84 -10 -94 -10q-32 0 -27 36zM387 195l35 252q-52 42 -114 42q-78 0 -136 -78.5t-58 -225.5q0 -88 29.5 -131
t82.5 -43q62 0 106 52.5t55 131.5zM341 560q-53 0 -71.5 43.5t-9.5 106.5h14q-2 -49 15.5 -79.5t57.5 -30.5q39 0 65.5 30.5t37.5 79.5h14q-9 -62 -39.5 -106t-83.5 -44z" />
    <glyph glyph-name="Aogonek" unicode="&#x104;" horiz-adv-x="610" 
d="M442 242h-235l-79 -195q-10 -23 12 -26l57 -5l-2 -16h-180l2 16l54 5q24 3 33 25l264 639h39l113 -639q4 -23 25 -25l52 -5l-2 -16h-83q-59 -54 -65 -116q-6 -47 26 -54q22 -4 57 19l5 -9q-35 -40 -71 -40q-33 0 -49 27.5t3 76t80 96.5h-103l2 16l57 5q25 2 22 27z
M216 263h222l-64 378h-2z" />
    <glyph glyph-name="aogonek" unicode="&#x105;" horiz-adv-x="497" 
d="M391 -10q-32 0 -27 36l9 64h-3q-49 -100 -149 -100q-71 0 -110 54.5t-39 149.5q0 135 68.5 225.5t168.5 90.5q67 0 115 -38h2l37 38h6l-65 -464q-3 -24 13 -25l70 -5l-2 -16q-62 -5 -95 -66q-27 -49 -13 -84q16 -39 71 -7l10 6l2 -9q-31 -40 -70 -40q-41 0 -52 40
q-14 50 31 104q24 28 61 49q-24 -3 -39 -3zM387 195l35 252q-52 42 -114 42q-78 0 -136 -78.5t-58 -225.5q0 -88 29.5 -131t82.5 -43q62 0 106 52.5t55 131.5z" />
    <glyph glyph-name="Cacute" unicode="&#x106;" horiz-adv-x="552" 
d="M538 200l17 -4q-38 -112 -102.5 -159t-138.5 -47q-99 0 -160 81.5t-61 209.5q0 172 98.5 290.5t228.5 118.5q105 0 181 -50l-21 -150h-15q8 105 -29.5 143t-116.5 38q-113 0 -197.5 -107.5t-84.5 -293.5q0 -125 51.5 -192.5t129.5 -67.5q68 0 127 46t93 144zM404 740
l131 88q15 9 25.5 4.5t10.5 -15.5q0 -17 -18 -26l-145 -61z" />
    <glyph glyph-name="cacute" unicode="&#x107;" horiz-adv-x="425" 
d="M241 -10q-63 0 -104.5 36t-55.5 95t-3 131q17 121 87.5 189.5t153.5 68.5q53 0 93 -17t40 -38q0 -16 -13 -21.5t-20 3.5q-17 18 -26.5 27t-30.5 18t-46 9q-89 0 -143.5 -83.5t-54.5 -196.5q0 -97 38 -146t104 -49q64 0 134 64l7 -14q-65 -76 -160 -76zM299 560l131 88
q15 8 25.5 4t10.5 -15q0 -17 -18 -26l-145 -61z" />
    <glyph glyph-name="Ccircumflex" unicode="&#x108;" horiz-adv-x="552" 
d="M538 200l17 -4q-38 -112 -102.5 -159t-138.5 -47q-99 0 -160 81.5t-61 209.5q0 172 98.5 290.5t228.5 118.5q105 0 181 -50l-21 -150h-15q8 105 -29.5 143t-116.5 38q-113 0 -197.5 -107.5t-84.5 -293.5q0 -125 51.5 -192.5t129.5 -67.5q68 0 127 46t93 144zM439 845
l-115 -115h-17l134 160h7l90 -160h-17z" />
    <glyph glyph-name="ccircumflex" unicode="&#x109;" horiz-adv-x="425" 
d="M241 -10q-63 0 -104.5 36t-55.5 95t-3 131q17 121 87.5 189.5t153.5 68.5q53 0 93 -17t40 -38q0 -16 -13 -21.5t-20 3.5q-17 18 -26.5 27t-30.5 18t-46 9q-89 0 -143.5 -83.5t-54.5 -196.5q0 -97 38 -146t104 -49q64 0 134 64l7 -14q-65 -76 -160 -76zM343 665l-115 -115
h-17l134 160h7l90 -160h-17z" />
    <glyph glyph-name="Cdotaccent" unicode="&#x10a;" horiz-adv-x="552" 
d="M538 200l17 -4q-38 -112 -102.5 -159t-138.5 -47q-99 0 -160 81.5t-61 209.5q0 172 98.5 290.5t228.5 118.5q105 0 181 -50l-21 -150h-15q8 105 -29.5 143t-116.5 38q-113 0 -197.5 -107.5t-84.5 -293.5q0 -125 51.5 -192.5t129.5 -67.5q68 0 127 46t93 144zM400 800
q0 16 10.5 26.5t24.5 10.5q11 0 18 -8t7 -20q0 -15 -10.5 -26t-23.5 -11q-12 0 -19 8t-7 20z" />
    <glyph glyph-name="cdotaccent" unicode="&#x10b;" horiz-adv-x="425" 
d="M241 -10q-63 0 -104.5 36t-55.5 95t-3 131q17 121 87.5 189.5t153.5 68.5q53 0 93 -17t40 -38q0 -16 -13 -21.5t-20 3.5q-17 18 -26.5 27t-30.5 18t-46 9q-89 0 -143.5 -83.5t-54.5 -196.5q0 -97 38 -146t104 -49q64 0 134 64l7 -14q-65 -76 -160 -76zM304 620
q0 16 10.5 26.5t24.5 10.5q11 0 18 -8t7 -20q0 -15 -10.5 -26t-23.5 -11q-12 0 -19 8t-7 20z" />
    <glyph glyph-name="Ccaron" unicode="&#x10c;" horiz-adv-x="552" 
d="M538 200l17 -4q-38 -112 -102.5 -159t-138.5 -47q-99 0 -160 81.5t-61 209.5q0 172 98.5 290.5t228.5 118.5q105 0 181 -50l-21 -150h-15q8 105 -29.5 143t-116.5 38q-113 0 -197.5 -107.5t-84.5 -293.5q0 -125 51.5 -192.5t129.5 -67.5q68 0 127 46t93 144zM346 890
l83 -115l114 115h17l-134 -160h-7l-90 160h17z" />
    <glyph glyph-name="ccaron" unicode="&#x10d;" horiz-adv-x="425" 
d="M241 -10q-63 0 -104.5 36t-55.5 95t-3 131q17 121 87.5 189.5t153.5 68.5q53 0 93 -17t40 -38q0 -16 -13 -21.5t-20 3.5q-17 18 -26.5 27t-30.5 18t-46 9q-89 0 -143.5 -83.5t-54.5 -196.5q0 -97 38 -146t104 -49q64 0 134 64l7 -14q-65 -76 -160 -76zM251 710l83 -115
l114 115h17l-134 -160h-7l-90 160h17z" />
    <glyph glyph-name="Dcaron" unicode="&#x10e;" horiz-adv-x="630" 
d="M168 21h124q92 0 161.5 59t102 143.5t32.5 177.5q0 116 -54 187t-162 71h-115zM290 0h-253l2 16l72 5q18 1 21 25l82 588q3 24 -14 25l-70 5l3 16h253q118 0 182.5 -73t64.5 -204q0 -176 -94.5 -289.5t-248.5 -113.5zM321 890l83 -115l114 115h17l-134 -160h-7l-90 160
h17z" />
    <glyph glyph-name="dcaron" unicode="&#x10f;" horiz-adv-x="545" 
d="M489 620l-80 -574q-5 -24 13 -25l70 -5l-2 -16q-84 -10 -94 -10q-32 0 -27 36l9 66h-3q-29 -58 -70 -80t-79 -22q-71 0 -110 54.5t-39 149.5q0 135 68.5 225.5t168.5 90.5q67 0 115 -38h2l27 189q3 20 -14 20h-71l2 16l127 13l6 -8q-12 -31 -19 -82zM392 195l35 252
q-52 42 -114 42q-78 0 -136 -78.5t-58 -225.5q0 -88 29.5 -131t82.5 -43q62 0 106 52.5t55 131.5zM569 645q-14 0 -22 9t-8 23q0 17 12 30t29 13q25 0 35 -21.5t10 -46.5q0 -56 -34 -95.5t-74 -59.5l-5 13q33 18 57 46t24 59q0 30 -24 30z" />
    <glyph glyph-name="Dcroat" unicode="&#x110;" horiz-adv-x="630" 
d="M290 0h-253l2 16l72 5q18 1 21 25l39 278h-85l4 22h84l40 288q3 24 -14 25l-70 5l3 16h253q118 0 182.5 -73t64.5 -204q0 -176 -94.5 -289.5t-248.5 -113.5zM168 21h124q92 0 161.5 59t102 143.5t32.5 177.5q0 116 -54 187t-162 71h-115l-44 -313h94l-4 -22h-93z" />
    <glyph glyph-name="dcroat" unicode="&#x111;" horiz-adv-x="497" 
d="M484 620l-9 -64h76l-3 -22h-76l-68 -488q-5 -24 13 -25l70 -5l-2 -16q-84 -10 -94 -10q-32 0 -27 36l9 66h-3q-29 -58 -70 -80t-79 -22q-71 0 -110 54.5t-39 149.5q0 135 68.5 225.5t168.5 90.5q67 0 115 -38h2l9 62h-76l3 22h76l15 105q3 20 -14 20h-71l2 16l127 13
l6 -8q-12 -31 -19 -82zM387 195l35 252q-52 42 -114 42q-78 0 -136 -78.5t-58 -225.5q0 -88 29.5 -131t82.5 -43q62 0 106 52.5t55 131.5z" />
    <glyph glyph-name="Emacron" unicode="&#x112;" 
d="M257 659l-42 -304h142q23 0 28 20l23 85h14l-33 -230h-14l2 84q0 20 -23 20h-142l-44 -313h248q19 0 28 20l47 109h15l-38 -150h-431l2 16l72 5q18 1 21 25l82 588q3 24 -14 25l-70 5l3 16h423l-22 -150h-15l-3 109q0 20 -23 20h-236zM264 796h229l-3 -22h-229z" />
    <glyph glyph-name="emacron" unicode="&#x113;" horiz-adv-x="406" 
d="M312 491q-66 0 -122.5 -63.5t-69.5 -174.5q33 8 69 21.5t77 36t67 55.5t26 70q0 24 -13 39.5t-34 15.5zM118 233q-8 -89 27.5 -153t116.5 -64q65 0 133 64l8 -14q-67 -76 -161 -76q-81 0 -124.5 57t-43.5 148q0 69 26 139t83.5 123t132.5 53q38 0 62 -22t24 -57
q0 -54 -69.5 -109.5t-214.5 -88.5zM216 616h229l-3 -22h-229z" />
    <glyph glyph-name="Ebreve" unicode="&#x114;" 
d="M257 659l-42 -304h142q23 0 28 20l23 85h14l-33 -230h-14l2 84q0 20 -23 20h-142l-44 -313h248q19 0 28 20l47 109h15l-38 -150h-431l2 16l72 5q18 1 21 25l82 588q3 24 -14 25l-70 5l3 16h423l-22 -150h-15l-3 109q0 20 -23 20h-236zM386 740q-53 0 -71.5 43.5
t-9.5 106.5h14q-2 -49 15.5 -79.5t57.5 -30.5q39 0 65.5 30.5t37.5 79.5h14q-9 -62 -39.5 -106t-83.5 -44z" />
    <glyph glyph-name="ebreve" unicode="&#x115;" horiz-adv-x="406" 
d="M312 491q-66 0 -122.5 -63.5t-69.5 -174.5q33 8 69 21.5t77 36t67 55.5t26 70q0 24 -13 39.5t-34 15.5zM118 233q-8 -89 27.5 -153t116.5 -64q65 0 133 64l8 -14q-67 -76 -161 -76q-81 0 -124.5 57t-43.5 148q0 69 26 139t83.5 123t132.5 53q38 0 62 -22t24 -57
q0 -54 -69.5 -109.5t-214.5 -88.5zM326 560q-53 0 -71.5 43.5t-9.5 106.5h14q-2 -49 15.5 -79.5t57.5 -30.5q39 0 65.5 30.5t37.5 79.5h14q-9 -62 -39.5 -106t-83.5 -44z" />
    <glyph glyph-name="Edotaccent" unicode="&#x116;" 
d="M257 659l-42 -304h142q23 0 28 20l23 85h14l-33 -230h-14l2 84q0 20 -23 20h-142l-44 -313h248q19 0 28 20l47 109h15l-38 -150h-431l2 16l72 5q18 1 21 25l82 588q3 24 -14 25l-70 5l3 16h423l-22 -150h-15l-3 109q0 20 -23 20h-236zM365 800q0 16 10.5 26.5t24.5 10.5
q11 0 18 -8t7 -20q0 -15 -10.5 -26t-23.5 -11q-12 0 -19 8t-7 20z" />
    <glyph glyph-name="edotaccent" unicode="&#x117;" horiz-adv-x="406" 
d="M312 491q-66 0 -122.5 -63.5t-69.5 -174.5q33 8 69 21.5t77 36t67 55.5t26 70q0 24 -13 39.5t-34 15.5zM118 233q-8 -89 27.5 -153t116.5 -64q65 0 133 64l8 -14q-67 -76 -161 -76q-81 0 -124.5 57t-43.5 148q0 69 26 139t83.5 123t132.5 53q38 0 62 -22t24 -57
q0 -54 -69.5 -109.5t-214.5 -88.5zM329 620q0 16 10.5 26.5t24.5 10.5q11 0 18 -8t7 -20q0 -15 -10.5 -26t-23.5 -11q-12 0 -19 8t-7 20z" />
    <glyph glyph-name="Eogonek" unicode="&#x118;" 
d="M257 659l-42 -304h142q23 0 28 20l23 85h14l-33 -230h-14l2 84q0 20 -23 20h-142l-44 -313h248q19 0 28 20l47 109h15l-38 -150q-59 -55 -65 -117q-5 -46 26 -53q23 -4 57 19l4 -9q-33 -40 -70 -40q-33 0 -49 27.5t3 76t80 96.5h-417l2 16l72 5q18 1 21 25l82 588
q3 24 -14 25l-70 5l3 16h423l-22 -150h-15l-3 109q0 20 -23 20h-236z" />
    <glyph glyph-name="eogonek" unicode="&#x119;" horiz-adv-x="406" 
d="M260 16q64 0 134 64l7 -14q-23 -24 -50 -45q-76 -59 -89 -128q-9 -50 21 -61q24 -9 62 17l4 -9q-31 -40 -70 -40q-11 0 -22 6.5t-17.5 22.5t-5 38t20.5 57.5t55 77.5q-34 -12 -68 -12q-81 0 -124.5 57t-43.5 148q0 69 26 139t83.5 123t132.5 53q38 0 62 -22t24 -57
q0 -54 -69.5 -109.5t-214.5 -88.5q-5 -56 6.5 -103.5t46.5 -80.5t89 -33zM312 491q-66 0 -122.5 -63.5t-69.5 -174.5q33 8 69 21.5t77 36t67 55.5t26 70q0 24 -13 39.5t-34 15.5z" />
    <glyph glyph-name="Ecaron" unicode="&#x11a;" 
d="M257 659l-42 -304h142q23 0 28 20l23 85h14l-33 -230h-14l2 84q0 20 -23 20h-142l-44 -313h248q19 0 28 20l47 109h15l-38 -150h-431l2 16l72 5q18 1 21 25l82 588q3 24 -14 25l-70 5l3 16h423l-22 -150h-15l-3 109q0 20 -23 20h-236zM309 890l83 -115l114 115h17
l-134 -160h-7l-90 160h17z" />
    <glyph glyph-name="ecaron" unicode="&#x11b;" horiz-adv-x="406" 
d="M312 491q-66 0 -122.5 -63.5t-69.5 -174.5q33 8 69 21.5t77 36t67 55.5t26 70q0 24 -13 39.5t-34 15.5zM118 233q-8 -89 27.5 -153t116.5 -64q65 0 133 64l8 -14q-67 -76 -161 -76q-81 0 -124.5 57t-43.5 148q0 69 26 139t83.5 123t132.5 53q38 0 62 -22t24 -57
q0 -54 -69.5 -109.5t-214.5 -88.5zM241 710l83 -115l114 115h17l-134 -160h-7l-90 160h17z" />
    <glyph glyph-name="Gcircumflex" unicode="&#x11c;" horiz-adv-x="612" 
d="M98 340q21 151 114 250.5t208 99.5q103 0 181 -50l-21 -150h-15q8 105 -30 143t-117 38q-53 0 -102.5 -26t-89.5 -74.5t-64.5 -125.5t-24.5 -171q0 -127 54 -196t133 -69q89 0 164 50l27 195q5 24 -13 25l-70 5l2 16h195l-2 -16l-51 -5q-17 -1 -21 -25l-35 -254h-12
l-20 36q-80 -46 -167 -46q-115 0 -180 99.5t-43 250.5zM444 845l-115 -115h-17l134 160h7l90 -160h-17z" />
    <glyph glyph-name="gcircumflex" unicode="&#x11d;" horiz-adv-x="485" 
d="M365 40l8 50h-3q-49 -100 -149 -100q-71 0 -110 54.5t-39 149.5q0 135 68.5 225.5t168.5 90.5q67 0 115 -38h2l37 38h6l-64 -452q-17 -121 -88 -189.5t-154 -68.5q-55 0 -95.5 18t-37.5 39q2 16 14.5 20t19.5 -4q15 -17 25.5 -26.5t31 -18.5t45.5 -9q77 0 131.5 66
t67.5 155zM387 195l35 252q-52 42 -114 42q-78 0 -136 -78.5t-58 -225.5q0 -88 29.5 -131t82.5 -43q62 0 106 52.5t55 131.5zM350 665l-115 -115h-17l134 160h7l90 -160h-17z" />
    <glyph glyph-name="Gbreve" unicode="&#x11e;" horiz-adv-x="612" 
d="M98 340q21 151 114 250.5t208 99.5q103 0 181 -50l-21 -150h-15q8 105 -30 143t-117 38q-53 0 -102.5 -26t-89.5 -74.5t-64.5 -125.5t-24.5 -171q0 -127 54 -196t133 -69q89 0 164 50l27 195q5 24 -13 25l-70 5l2 16h195l-2 -16l-51 -5q-17 -1 -21 -25l-35 -254h-12
l-20 36q-80 -46 -167 -46q-115 0 -180 99.5t-43 250.5zM431 740q-53 0 -71.5 43.5t-9.5 106.5h14q-2 -49 15.5 -79.5t57.5 -30.5q39 0 65.5 30.5t37.5 79.5h14q-9 -62 -39.5 -106t-83.5 -44z" />
    <glyph glyph-name="gbreve" unicode="&#x11f;" horiz-adv-x="485" 
d="M365 40l8 50h-3q-49 -100 -149 -100q-71 0 -110 54.5t-39 149.5q0 135 68.5 225.5t168.5 90.5q67 0 115 -38h2l37 38h6l-64 -452q-17 -121 -88 -189.5t-154 -68.5q-55 0 -95.5 18t-37.5 39q2 16 14.5 20t19.5 -4q15 -17 25.5 -26.5t31 -18.5t45.5 -9q77 0 131.5 66
t67.5 155zM387 195l35 252q-52 42 -114 42q-78 0 -136 -78.5t-58 -225.5q0 -88 29.5 -131t82.5 -43q62 0 106 52.5t55 131.5zM335 560q-53 0 -71.5 43.5t-9.5 106.5h14q-2 -49 15.5 -79.5t57.5 -30.5q39 0 65.5 30.5t37.5 79.5h14q-9 -62 -39.5 -106t-83.5 -44z" />
    <glyph glyph-name="Gdotaccent" unicode="&#x120;" horiz-adv-x="612" 
d="M98 340q21 151 114 250.5t208 99.5q103 0 181 -50l-21 -150h-15q8 105 -30 143t-117 38q-53 0 -102.5 -26t-89.5 -74.5t-64.5 -125.5t-24.5 -171q0 -127 54 -196t133 -69q89 0 164 50l27 195q5 24 -13 25l-70 5l2 16h195l-2 -16l-51 -5q-17 -1 -21 -25l-35 -254h-12
l-20 36q-80 -46 -167 -46q-115 0 -180 99.5t-43 250.5zM405 800q0 16 10.5 26.5t24.5 10.5q11 0 18 -8t7 -20q0 -15 -10.5 -26t-23.5 -11q-12 0 -19 8t-7 20z" />
    <glyph glyph-name="gdotaccent" unicode="&#x121;" horiz-adv-x="485" 
d="M365 40l8 50h-3q-49 -100 -149 -100q-71 0 -110 54.5t-39 149.5q0 135 68.5 225.5t168.5 90.5q67 0 115 -38h2l37 38h6l-64 -452q-17 -121 -88 -189.5t-154 -68.5q-55 0 -95.5 18t-37.5 39q2 16 14.5 20t19.5 -4q15 -17 25.5 -26.5t31 -18.5t45.5 -9q77 0 131.5 66
t67.5 155zM387 195l35 252q-52 42 -114 42q-78 0 -136 -78.5t-58 -225.5q0 -88 29.5 -131t82.5 -43q62 0 106 52.5t55 131.5zM320 620q0 16 10.5 26.5t24.5 10.5q11 0 18 -8t7 -20q0 -15 -10.5 -26t-23.5 -11q-12 0 -19 8t-7 20z" />
    <glyph glyph-name="Gcommaaccent" unicode="&#x122;" horiz-adv-x="612" 
d="M98 340q21 151 114 250.5t208 99.5q103 0 181 -50l-21 -150h-15q8 105 -30 143t-117 38q-53 0 -102.5 -26t-89.5 -74.5t-64.5 -125.5t-24.5 -171q0 -127 54 -196t133 -69q89 0 164 50l27 195q5 24 -13 25l-70 5l2 16h195l-2 -16l-51 -5q-17 -1 -21 -25l-35 -254h-12
l-20 36q-80 -46 -167 -46q-115 0 -180 99.5t-43 250.5zM299 -110q-14 0 -22 9t-8 23q0 17 12 30t29 13q25 0 35 -21.5t10 -46.5q0 -56 -34 -95.5t-74 -59.5l-5 13q33 18 57 46t24 59q0 30 -24 30z" />
    <glyph glyph-name="gcommaaccent" unicode="&#x123;" horiz-adv-x="485" 
d="M365 40l8 50h-3q-49 -100 -149 -100q-71 0 -110 54.5t-39 149.5q0 135 68.5 225.5t168.5 90.5q67 0 115 -38h2l37 38h6l-64 -452q-17 -121 -88 -189.5t-154 -68.5q-55 0 -95.5 18t-37.5 39q2 16 14.5 20t19.5 -4q15 -17 25.5 -26.5t31 -18.5t45.5 -9q77 0 131.5 66
t67.5 155zM387 195l35 252q-52 42 -114 42q-78 0 -136 -78.5t-58 -225.5q0 -88 29.5 -131t82.5 -43q62 0 106 52.5t55 131.5zM335 641q30 0 30 -32q0 -17 -11.5 -30t-28.5 -13q-25 0 -35.5 21.5t-10.5 46.5q0 56 34 95.5t74 59.5l5 -13q-33 -18 -57 -46t-24 -59
q0 -30 24 -30z" />
    <glyph glyph-name="Hcircumflex" unicode="&#x124;" horiz-adv-x="662" 
d="M212 334l-40 -288q-4 -24 13 -25l69 -5l-2 -16h-215l2 16l72 5q18 1 21 25l82 588q3 24 -14 25l-70 5l3 16h215l-3 -16l-71 -5q-17 -1 -20 -25l-39 -279h332l39 279q3 24 -14 25l-69 5l3 16h215l-3 -16l-72 -5q-17 -1 -20 -25l-82 -588q-4 -24 13 -25l70 -5l-2 -16h-215
l2 16l71 5q18 1 21 25l40 288h-332zM451 845l-115 -115h-17l134 160h7l90 -160h-17z" />
    <glyph glyph-name="hcircumflex" unicode="&#x125;" horiz-adv-x="527" 
d="M478 360l-44 -314q-3 -25 14 -25h70l-2 -16q-19 -2 -50.5 -8.5t-45.5 -6.5q-32 0 -27 36l45 324q19 130 -73 130q-45 0 -83.5 -38.5t-60.5 -89.5t-30 -102l-35 -250h-39l93 661q3 20 -15 20h-70l2 16l128 13l6 -8q-12 -33 -18 -82l-36 -257h1q71 147 180 147
q47 0 74 -36.5t16 -113.5zM245 865l-115 -115h-17l134 160h7l90 -160h-17z" />
    <glyph glyph-name="Hbar" unicode="&#x126;" horiz-adv-x="662" 
d="M212 334l-40 -288q-4 -24 13 -25l69 -5l-2 -16h-215l2 16l72 5q18 1 21 25l64 458h-84l3 22h84l15 108q3 24 -14 25l-70 5l3 16h215l-3 -16l-71 -5q-17 -1 -20 -25l-15 -108h332l15 108q3 24 -14 25l-69 5l3 16h215l-3 -16l-72 -5q-17 -1 -20 -25l-15 -108h85l-3 -22h-85
l-64 -458q-4 -24 13 -25l70 -5l-2 -16h-215l2 16l71 5q18 1 21 25l40 288h-332zM215 355h332l21 149h-332z" />
    <glyph glyph-name="hbar" unicode="&#x127;" horiz-adv-x="527" 
d="M478 360l-44 -314q-3 -25 14 -25h70l-2 -16q-19 -2 -50.5 -8.5t-45.5 -6.5q-32 0 -27 36l45 324q19 130 -73 130q-45 0 -83.5 -38.5t-60.5 -89.5t-30 -102l-35 -250h-39l75 534h-76l3 22h76l15 105q3 20 -15 20h-70l2 16l128 13l6 -8q-12 -33 -18 -82l-9 -64h75l-3 -22
h-75l-24 -171h1q71 147 180 147q47 0 74 -36.5t16 -113.5z" />
    <glyph glyph-name="Itilde" unicode="&#x128;" horiz-adv-x="290" 
d="M254 634l-82 -588q-4 -24 13 -25l69 -5l-2 -16h-215l2 16l72 5q18 1 21 25l82 588q3 24 -14 25l-70 5l3 16h215l-3 -16l-71 -5q-17 -1 -20 -25zM126 754l-12 6q37 67 59 85q18 15 37 15t60 -28.5t58 -28.5q28 0 62 54l11 -7q-14 -27 -22.5 -41.5t-24 -28t-32.5 -13.5
q-22 0 -63.5 28.5t-56.5 28.5q-27 0 -67 -58z" />
    <glyph glyph-name="itilde" unicode="&#x129;" horiz-adv-x="255" 
d="M88 574l-12 6q37 67 59 85q18 15 37 15t60 -28.5t58 -28.5q28 0 62 54l11 -7q-14 -27 -22.5 -41.5t-24 -28t-32.5 -13.5q-22 0 -63.5 28.5t-56.5 28.5q-27 0 -67 -58q-2 -2 -3 -3.5t-3 -4t-3 -4.5zM121 26l60 435q3 20 -15 20h-70l3 16l128 13l6 -8q-12 -33 -18 -82
l-53 -374q-3 -25 13 -25h70l-1 -16q-11 -2 -32 -6t-36.5 -6.5t-27.5 -2.5q-32 0 -27 36z" />
    <glyph glyph-name="Imacron" unicode="&#x12a;" horiz-adv-x="290" 
d="M254 634l-82 -588q-4 -24 13 -25l69 -5l-2 -16h-215l2 16l72 5q18 1 21 25l82 588q3 24 -14 25l-70 5l3 16h215l-3 -16l-71 -5q-17 -1 -20 -25zM142 796h229l-3 -22h-229z" />
    <glyph glyph-name="imacron" unicode="&#x12b;" horiz-adv-x="255" 
d="M101 616h229l-3 -22h-229zM121 26l60 435q3 20 -15 20h-70l3 16l128 13l6 -8q-12 -33 -18 -82l-53 -374q-3 -25 13 -25h70l-1 -16q-11 -2 -32 -6t-36.5 -6.5t-27.5 -2.5q-32 0 -27 36z" />
    <glyph glyph-name="Ibreve" unicode="&#x12c;" horiz-adv-x="290" 
d="M254 634l-82 -588q-4 -24 13 -25l69 -5l-2 -16h-215l2 16l72 5q18 1 21 25l82 588q3 24 -14 25l-70 5l3 16h215l-3 -16l-71 -5q-17 -1 -20 -25zM249 740q-53 0 -71.5 43.5t-9.5 106.5h14q-2 -49 15.5 -79.5t57.5 -30.5q39 0 65.5 30.5t37.5 79.5h14q-9 -62 -39.5 -106
t-83.5 -44z" />
    <glyph glyph-name="ibreve" unicode="&#x12d;" horiz-adv-x="255" 
d="M211 560q-53 0 -71.5 43.5t-9.5 106.5h14q-2 -49 15.5 -79.5t57.5 -30.5q39 0 65.5 30.5t37.5 79.5h14q-9 -62 -39.5 -106t-83.5 -44zM121 26l60 435q3 20 -15 20h-70l3 16l128 13l6 -8q-12 -33 -18 -82l-53 -374q-3 -25 13 -25h70l-1 -16q-11 -2 -32 -6t-36.5 -6.5
t-27.5 -2.5q-32 0 -27 36z" />
    <glyph glyph-name="Iogonek" unicode="&#x12e;" horiz-adv-x="290" 
d="M254 634l-82 -588q-4 -24 13 -25l69 -5l-2 -16h-95q-59 -54 -65 -116q-6 -47 26 -54q22 -4 57 19q1 -3 5 -9q-35 -40 -71 -40q-33 0 -49 27.5t3 76t80 96.5h-106l2 16l72 5q18 1 21 25l82 588q3 24 -14 25l-70 5l3 16h215l-3 -16l-71 -5q-17 -1 -20 -25z" />
    <glyph glyph-name="iogonek" unicode="&#x12f;" horiz-adv-x="255" 
d="M121 26l60 435q3 20 -15 20h-70l3 16l128 13l6 -8q-12 -33 -18 -82l-53 -374q-3 -25 13 -25h70l-1 -16q-11 -2 -30 -6t-34 -6.5t-27 -2.5q-54 -56 -55 -114q-1 -43 32 -46q23 -1 53 19l3 -9q-33 -40 -70 -40q-31 0 -47.5 26t-0.5 72.5t70 92.5q-22 4 -17 35zM197 645
q2 14 12 23t23 9q12 0 19 -9.5t5 -22.5q-2 -14 -11.5 -23.5t-21.5 -9.5q-13 0 -20.5 9.5t-5.5 23.5z" />
    <glyph glyph-name="Idotaccent" unicode="&#x130;" horiz-adv-x="290" 
d="M254 634l-82 -588q-4 -24 13 -25l69 -5l-2 -16h-215l2 16l72 5q18 1 21 25l82 588q3 24 -14 25l-70 5l3 16h215l-3 -16l-71 -5q-17 -1 -20 -25zM228 800q0 16 10.5 26.5t24.5 10.5q11 0 18 -8t7 -20q0 -15 -10.5 -26t-23.5 -11q-12 0 -19 8t-7 20z" />
    <glyph glyph-name="dotlessi" unicode="&#x131;" horiz-adv-x="255" 
d="M121 26l60 435q3 20 -15 20h-70l3 16l128 13l6 -8q-12 -33 -18 -82l-53 -374q-3 -25 13 -25h70l-1 -16q-11 -2 -32 -6t-36.5 -6.5t-27.5 -2.5q-32 0 -27 36z" />
    <glyph glyph-name="IJ" unicode="&#x132;" horiz-adv-x="550" 
d="M254 634l-82 -588q-4 -24 13 -25l69 -5l-2 -16h-215l2 16l72 5q18 1 21 25l82 588q3 24 -14 25l-70 5l3 16h215l-3 -16l-71 -5q-17 -1 -20 -25zM521 634l-85 -611q-26 -172 -149 -223l-5 14q55 28 78 74.5t32 111.5l89 634q3 24 -14 25l-69 5l3 16h215l-3 -16l-72 -5
q-17 -1 -20 -25z" />
    <glyph glyph-name="ij" unicode="&#x133;" horiz-adv-x="482" 
d="M437 640q0 16 10.5 26.5t24.5 10.5q12 0 19 -8t7 -20q0 -16 -10.5 -26.5t-24.5 -10.5q-11 0 -18.5 8t-7.5 20zM456 420l-56 -400q-25 -170 -145 -220l-5 12q90 47 110 188l65 461q3 20 -14 20h-71l2 16l127 13l5 -8q-10 -27 -18 -82zM197 645q2 14 12 23t23 9
q12 0 19 -9.5t5 -22.5q-2 -14 -11.5 -23.5t-21.5 -9.5q-13 0 -20.5 9.5t-5.5 23.5zM121 26l60 435q3 20 -15 20h-70l3 16l128 13l6 -8q-12 -33 -18 -82l-53 -374q-3 -25 13 -25h70l-1 -16q-11 -2 -32 -6t-36.5 -6.5t-27.5 -2.5q-32 0 -27 36z" />
    <glyph glyph-name="Jcircumflex" unicode="&#x134;" horiz-adv-x="275" 
d="M246 634l-86 -611q-24 -171 -149 -223l-4 14q55 28 78 74.5t32 111.5l89 634q3 24 -13 25l-70 5l2 16h215l-2 -16l-71 -5q-18 -1 -21 -25zM256 845l-115 -115h-17l134 160h7l90 -160h-17z" />
    <glyph glyph-name="jcircumflex" unicode="&#x135;" horiz-adv-x="227" 
d="M201 420l-56 -400q-25 -170 -145 -220l-5 12q90 47 110 188l65 461q3 20 -14 20h-71l2 16l127 13l5 -8q-10 -27 -18 -82zM208 665l-115 -115h-17l134 160h7l90 -160h-17z" />
    <glyph glyph-name="Kcommaaccent" unicode="&#x136;" horiz-adv-x="622" 
d="M289 374l-83 -81l-34 -247q-4 -24 13 -25l69 -5l-2 -16h-215l2 16l72 5q18 1 21 25l82 588q3 24 -14 25l-70 5l3 16h215l-3 -16l-71 -5q-17 -1 -20 -25l-43 -309l314 303q6 6 8.5 13t-0.5 12.5t-11 5.5l-62 5l3 16h205l-3 -16l-46 -4q-39 -4 -72 -36l-226 -220l181 -353
q14 -29 51 -31l54 -4l-2 -16h-230l2 16l53 5q15 1 20.5 10t0.5 20zM291 -114q-14 0 -22 9t-8 23q0 17 12 30t29 13q25 0 35 -21.5t10 -46.5q0 -56 -34 -95.5t-74 -59.5l-5 13q33 18 57 46t24 59q0 30 -24 30z" />
    <glyph glyph-name="kcommaaccent" unicode="&#x137;" horiz-adv-x="520" 
d="M283 313l145 -277q7 -15 23 -15h66l-2 -16q-66 -15 -81 -15q-31 0 -46 30l-136 267l-64 -54l-34 -233h-39l94 661q3 20 -15 20h-70l2 16l128 13l6 -8q-12 -33 -18 -82l-51 -358l226 188q11 9 11.5 18t-12.5 11l-41 5l2 16h179l-3 -16l-45 -7q-34 -6 -74 -39zM253 -110
q-14 0 -22 9t-8 23q0 17 12 30t29 13q25 0 35 -21.5t10 -46.5q0 -56 -34 -95.5t-74 -59.5l-5 13q33 18 57 46t24 59q0 30 -24 30z" />
    <glyph glyph-name="kgreenlandic" unicode="&#x138;" horiz-adv-x="520" 
d="M283 313l145 -277q7 -15 23 -15h66l-2 -16q-66 -15 -81 -15q-31 0 -46 30l-136 267l-64 -54l-34 -233h-39l67 461q3 20 -15 20h-70l3 16l127 13l7 -8q-11 -25 -19 -82l-24 -158l226 188q11 9 11.5 18t-12.5 11l-41 5l2 16h179l-3 -16l-45 -7q-34 -6 -74 -39z" />
    <glyph glyph-name="Lacute" unicode="&#x139;" horiz-adv-x="492" 
d="M254 634l-86 -613h240q19 0 28 20l48 109h14l-38 -150h-423l2 16l72 5q18 1 21 25l82 588q3 24 -14 25l-70 5l3 16h215l-3 -16l-71 -5q-17 -1 -20 -25zM240 740l131 88q15 9 25.5 4.5t10.5 -15.5q0 -17 -18 -26l-145 -61z" />
    <glyph glyph-name="lacute" unicode="&#x13a;" horiz-adv-x="255" 
d="M120 26l89 635q3 20 -15 20h-70l2 16l128 13l6 -8q-12 -33 -18 -82l-81 -574q-3 -25 14 -25h70l-2 -16q-11 -2 -32 -6t-36.5 -6.5t-27.5 -2.5q-32 0 -27 36zM203 780l131 88q15 8 25.5 4t10.5 -15q0 -17 -18 -26l-145 -61z" />
    <glyph glyph-name="Lcommaaccent" unicode="&#x13b;" horiz-adv-x="492" 
d="M254 634l-86 -613h240q19 0 28 20l48 109h14l-38 -150h-423l2 16l72 5q18 1 21 25l82 588q3 24 -14 25l-70 5l3 16h215l-3 -16l-71 -5q-17 -1 -20 -25zM242 -114q-14 0 -22 9t-8 23q0 17 12 30t29 13q25 0 35 -21.5t10 -46.5q0 -56 -34 -95.5t-74 -59.5l-5 13
q33 18 57 46t24 59q0 30 -24 30z" />
    <glyph glyph-name="lcommaaccent" unicode="&#x13c;" horiz-adv-x="255" 
d="M120 26l89 635q3 20 -15 20h-70l2 16l128 13l6 -8q-12 -33 -18 -82l-81 -574q-3 -25 14 -25h70l-2 -16q-11 -2 -32 -6t-36.5 -6.5t-27.5 -2.5q-32 0 -27 36zM114 -110q-14 0 -22 9t-8 23q0 17 12 30t29 13q25 0 35 -21.5t10 -46.5q0 -56 -34 -95.5t-74 -59.5l-5 13
q33 18 57 46t24 59q0 30 -24 30z" />
    <glyph glyph-name="Lcaron" unicode="&#x13d;" horiz-adv-x="492" 
d="M254 634l-86 -613h240q19 0 28 20l48 109h14l-38 -150h-423l2 16l72 5q18 1 21 25l82 588q3 24 -14 25l-70 5l3 16h215l-3 -16l-71 -5q-17 -1 -20 -25zM417 620q-14 0 -22 9t-8 23q0 17 12 30t29 13q25 0 35 -21.5t10 -46.5q0 -56 -34 -95.5t-74 -59.5l-5 13q33 18 57 46
t24 59q0 30 -24 30z" />
    <glyph glyph-name="lcaron" unicode="&#x13e;" horiz-adv-x="300" 
d="M120 26l89 635q3 20 -15 20h-70l2 16l128 13l6 -8q-12 -33 -18 -82l-81 -574q-3 -25 14 -25h70l-2 -16q-11 -2 -32 -6t-36.5 -6.5t-27.5 -2.5q-32 0 -27 36zM324 645q-14 0 -22 9t-8 23q0 17 12 30t29 13q25 0 35 -21.5t10 -46.5q0 -56 -34 -95.5t-74 -59.5l-5 13
q33 18 57 46t24 59q0 30 -24 30z" />
    <glyph glyph-name="Ldot" unicode="&#x13f;" horiz-adv-x="492" 
d="M254 634l-86 -613h240q19 0 28 20l48 109h14l-38 -150h-423l2 16l72 5q18 1 21 25l82 588q3 24 -14 25l-70 5l3 16h215l-3 -16l-71 -5q-17 -1 -20 -25zM302 350q0 16 10.5 26.5t24.5 10.5q11 0 18 -8t7 -20q0 -15 -10.5 -26t-23.5 -11q-12 0 -19 8t-7 20z" />
    <glyph glyph-name="ldot" unicode="&#x140;" horiz-adv-x="270" 
d="M120 26l89 635q3 20 -15 20h-70l2 16l128 13l6 -8q-12 -33 -18 -82l-81 -574q-3 -25 14 -25h70l-2 -16q-11 -2 -32 -6t-36.5 -6.5t-27.5 -2.5q-32 0 -27 36zM236 340q0 16 10.5 26.5t24.5 10.5q11 0 18 -8t7 -20q0 -15 -10.5 -26t-23.5 -11q-12 0 -19 8t-7 20z" />
    <glyph glyph-name="Lslash" unicode="&#x141;" horiz-adv-x="492" 
d="M254 634l-37 -261l100 43l-4 -22l-99 -43l-46 -330h240q19 0 28 20l48 109h14l-38 -150h-423l2 16l72 5q18 1 21 25l40 287l-90 -39l4 22l89 38l39 280q3 24 -14 25l-70 5l3 16h215l-3 -16l-71 -5q-17 -1 -20 -25z" />
    <glyph glyph-name="lslash" unicode="&#x142;" horiz-adv-x="255" 
d="M120 26l43 308l-90 -40l4 22l89 40l43 305q3 20 -15 20h-70l2 16l128 13l6 -8q-12 -33 -18 -82l-35 -246l92 42l-4 -22l-91 -41l-43 -307q-3 -25 14 -25h70l-2 -16q-11 -2 -32 -6t-36.5 -6.5t-27.5 -2.5q-32 0 -27 36z" />
    <glyph glyph-name="Nacute" unicode="&#x143;" horiz-adv-x="622" 
d="M498 -5l-271 639l-82 -588q-4 -24 14 -25l65 -5l-2 -16h-190l2 16l68 5q18 1 21 25l82 588q3 24 -14 25l-66 5l3 16h129l250 -594l77 548q3 24 -14 25l-67 5l3 16h187l-3 -16l-64 -5q-18 -1 -21 -25l-90 -639h-17zM400 740l131 88q15 9 25.5 4.5t10.5 -15.5
q0 -17 -18 -26l-145 -61z" />
    <glyph glyph-name="nacute" unicode="&#x144;" horiz-adv-x="527" 
d="M392 26l45 324q19 130 -73 130q-45 0 -83.5 -38.5t-60.5 -89.5t-30 -102l-35 -250h-39l64 461q3 20 -14 20h-70l2 16l128 13l6 -8q-12 -33 -18 -82l-8 -57h1q71 147 180 147q47 0 74 -36.5t16 -113.5l-44 -314q-3 -25 14 -25h70l-2 -16q-11 -2 -32 -6t-36.5 -6.5
t-27.5 -2.5q-32 0 -27 36zM322 560l131 88q15 8 25.5 4t10.5 -15q0 -17 -18 -26l-145 -61z" />
    <glyph glyph-name="Ncommaaccent" unicode="&#x145;" horiz-adv-x="622" 
d="M498 -5l-271 639l-82 -588q-4 -24 14 -25l65 -5l-2 -16h-190l2 16l68 5q18 1 21 25l82 588q3 24 -14 25l-66 5l3 16h129l250 -594l77 548q3 24 -14 25l-67 5l3 16h187l-3 -16l-64 -5q-18 -1 -21 -25l-90 -639h-17zM287 -110q-14 0 -22 9t-8 23q0 17 12 30t29 13
q25 0 35 -21.5t10 -46.5q0 -56 -34 -95.5t-74 -59.5l-5 13q33 18 57 46t24 59q0 30 -24 30z" />
    <glyph glyph-name="ncommaaccent" unicode="&#x146;" horiz-adv-x="527" 
d="M392 26l45 324q19 130 -73 130q-45 0 -83.5 -38.5t-60.5 -89.5t-30 -102l-35 -250h-39l64 461q3 20 -14 20h-70l2 16l128 13l6 -8q-12 -33 -18 -82l-8 -57h1q71 147 180 147q47 0 74 -36.5t16 -113.5l-44 -314q-3 -25 14 -25h70l-2 -16q-11 -2 -32 -6t-36.5 -6.5
t-27.5 -2.5q-32 0 -27 36zM293 -110q-14 0 -22 9t-8 23q0 17 12 30t29 13q25 0 35 -21.5t10 -46.5q0 -56 -34 -95.5t-74 -59.5l-5 13q33 18 57 46t24 59q0 30 -24 30z" />
    <glyph glyph-name="Ncaron" unicode="&#x147;" horiz-adv-x="622" 
d="M498 -5l-271 639l-82 -588q-4 -24 14 -25l65 -5l-2 -16h-190l2 16l68 5q18 1 21 25l82 588q3 24 -14 25l-66 5l3 16h129l250 -594l77 548q3 24 -14 25l-67 5l3 16h187l-3 -16l-64 -5q-18 -1 -21 -25l-90 -639h-17zM337 890l83 -115l114 115h17l-134 -160h-7l-90 160h17z
" />
    <glyph glyph-name="ncaron" unicode="&#x148;" horiz-adv-x="527" 
d="M392 26l45 324q19 130 -73 130q-45 0 -83.5 -38.5t-60.5 -89.5t-30 -102l-35 -250h-39l64 461q3 20 -14 20h-70l2 16l128 13l6 -8q-12 -33 -18 -82l-8 -57h1q71 147 180 147q47 0 74 -36.5t16 -113.5l-44 -314q-3 -25 14 -25h70l-2 -16q-11 -2 -32 -6t-36.5 -6.5
t-27.5 -2.5q-32 0 -27 36zM272 710l83 -115l114 115h17l-134 -160h-7l-90 160h17z" />
    <glyph glyph-name="napostrophe" unicode="&#x149;" horiz-adv-x="527" 
d="M392 26l45 324q19 130 -73 130q-45 0 -83.5 -38.5t-60.5 -89.5t-30 -102l-35 -250h-39l64 461q3 20 -14 20h-70l2 16l128 13l6 -8q-12 -33 -18 -82l-8 -57h1q71 147 180 147q47 0 74 -36.5t16 -113.5l-44 -314q-3 -25 14 -25h70l-2 -16q-11 -2 -32 -6t-36.5 -6.5
t-27.5 -2.5q-32 0 -27 36zM193 691q-14 0 -22 9t-8 23q0 17 12 30t29 13q25 0 35 -21.5t10 -46.5q0 -56 -34 -95.5t-74 -59.5l-5 13q33 18 57 46t24 59q0 30 -24 30z" />
    <glyph glyph-name="Eng" unicode="&#x14a;" horiz-adv-x="622" 
d="M603 634l-90 -639q-21 -144 -143 -195l-4 13q107 49 126 182l-265 639l-82 -588q-4 -24 14 -25l65 -5l-2 -16h-189l2 16l67 5q18 1 21 25l83 588q3 24 -14 25l-66 5l3 16h128l247 -597l77 551q3 24 -14 25l-65 5l2 16h189l-3 -16l-66 -5q-18 -1 -21 -25z" />
    <glyph glyph-name="eng" unicode="&#x14b;" horiz-adv-x="527" 
d="M478 360l-48 -340q-25 -170 -146 -220l-4 13q52 27 75.5 74.5t32.5 112.5l49 350q19 130 -73 130q-45 0 -83.5 -38.5t-60.5 -89.5t-30 -102l-35 -250h-39l64 461q3 20 -14 20h-70l2 16l128 13l6 -8q-12 -33 -18 -82l-8 -57h1q38 79 82 113t98 34q50 0 75.5 -36t15.5 -114
z" />
    <glyph glyph-name="Omacron" unicode="&#x14c;" horiz-adv-x="665" 
d="M93 285q0 170 100 287.5t236 117.5q106 0 172.5 -83t66.5 -213q0 -170 -100.5 -287t-236.5 -117q-105 0 -171.5 82.5t-66.5 212.5zM138 281q0 -125 56 -198.5t139 -73.5q52 0 103 27.5t93 76t68 123.5t26 162q0 125 -57 199t-140 74q-111 0 -199.5 -109t-88.5 -281z
M329 796h229l-3 -22h-229z" />
    <glyph glyph-name="omacron" unicode="&#x14d;" horiz-adv-x="477" 
d="M307 491q-80 0 -136 -76.5t-56 -221.5q0 -92 34.5 -138t89.5 -46q78 0 135.5 78t57.5 219q0 92 -35 138.5t-90 46.5zM236 -10q-77 0 -120 64t-43 155q0 115 67.5 208t168.5 93q78 0 121 -64t43 -155q0 -115 -68 -208t-169 -93zM209 616h229l-3 -22h-229z" />
    <glyph glyph-name="Obreve" unicode="&#x14e;" horiz-adv-x="665" 
d="M93 285q0 170 100 287.5t236 117.5q106 0 172.5 -83t66.5 -213q0 -170 -100.5 -287t-236.5 -117q-105 0 -171.5 82.5t-66.5 212.5zM138 281q0 -125 56 -198.5t139 -73.5q52 0 103 27.5t93 76t68 123.5t26 162q0 125 -57 199t-140 74q-111 0 -199.5 -109t-88.5 -281z
M436 740q-53 0 -71.5 43.5t-9.5 106.5h14q-2 -49 15.5 -79.5t57.5 -30.5q39 0 65.5 30.5t37.5 79.5h14q-9 -62 -39.5 -106t-83.5 -44z" />
    <glyph glyph-name="obreve" unicode="&#x14f;" horiz-adv-x="477" 
d="M307 491q-80 0 -136 -76.5t-56 -221.5q0 -92 34.5 -138t89.5 -46q78 0 135.5 78t57.5 219q0 92 -35 138.5t-90 46.5zM236 -10q-77 0 -120 64t-43 155q0 115 67.5 208t168.5 93q78 0 121 -64t43 -155q0 -115 -68 -208t-169 -93zM317 560q-53 0 -71.5 43.5t-9.5 106.5h14
q-2 -49 15.5 -79.5t57.5 -30.5q39 0 65.5 30.5t37.5 79.5h14q-9 -62 -39.5 -106t-83.5 -44z" />
    <glyph glyph-name="Ohungarumlaut" unicode="&#x150;" horiz-adv-x="665" 
d="M93 285q0 170 100 287.5t236 117.5q106 0 172.5 -83t66.5 -213q0 -170 -100.5 -287t-236.5 -117q-105 0 -171.5 82.5t-66.5 212.5zM138 281q0 -125 56 -198.5t139 -73.5q52 0 103 27.5t93 76t68 123.5t26 162q0 125 -57 199t-140 74q-111 0 -199.5 -109t-88.5 -281z
M342 725l119 111q13 11 25.5 8.5t12.5 -14.5q2 -14 -14 -26l-137 -88zM510 725l119 111q13 11 25 8.5t13 -14.5q3 -16 -14 -26l-137 -88z" />
    <glyph glyph-name="ohungarumlaut" unicode="&#x151;" horiz-adv-x="477" 
d="M307 491q-80 0 -136 -76.5t-56 -221.5q0 -92 34.5 -138t89.5 -46q78 0 135.5 78t57.5 219q0 92 -35 138.5t-90 46.5zM236 -10q-77 0 -120 64t-43 155q0 115 67.5 208t168.5 93q78 0 121 -64t43 -155q0 -115 -68 -208t-169 -93zM208 545l119 111q13 11 25.5 8.5
t12.5 -14.5q2 -14 -14 -26l-137 -88zM376 545l119 111q13 11 25 8.5t13 -14.5q3 -16 -14 -26l-137 -88z" />
    <glyph glyph-name="OE" unicode="&#x152;" horiz-adv-x="810" 
d="M136 275q0 -124 53.5 -195t135.5 -71q101 0 118 123l59 416q17 123 -84 123q-112 0 -197 -108t-85 -288zM854 680l-21 -150h-14l-4 109q0 20 -23 20h-236l-42 -304h143q23 0 28 20l22 85h14l-32 -230h-14l1 84q0 20 -22 20h-144l-43 -313h249q19 0 28 20l47 109h15
l-38 -150h-384q-28 -10 -62 -10q-105 0 -167.5 79t-62.5 210q0 178 95 294.5t234 116.5q33 0 58 -10h375z" />
    <glyph glyph-name="oe" unicode="&#x153;" horiz-adv-x="764" 
d="M477 233q-5 -56 6.5 -103t46.5 -80.5t90 -33.5q64 0 134 64l7 -14q-67 -76 -161 -76q-65 0 -107 39t-55 104q-32 -65 -84.5 -104t-115.5 -39q-78 0 -121 64t-43 155q0 115 68 208t169 93q62 0 102.5 -43t54.5 -111q32 69 84.5 111.5t121.5 42.5q39 0 62.5 -22t23.5 -57
q0 -54 -69 -109.5t-214 -88.5zM309 491q-80 0 -137 -76t-57 -221q0 -92 35.5 -138.5t90.5 -46.5q78 0 137 77.5t59 217.5q0 93 -36 140t-92 47zM670 491q-65 0 -122 -63.5t-70 -174.5q33 8 69.5 21.5t77.5 36t67 55.5t26 70q0 24 -13 39.5t-35 15.5z" />
    <glyph glyph-name="Racute" unicode="&#x154;" horiz-adv-x="580" 
d="M212 331h107q101 0 148 56t47 134q0 60 -35.5 99t-114.5 39h-107zM356 313v-2q19 -7 29 -22.5t26 -63.5l56 -177q9 -26 35 -27l62 -5l-2 -16q-57 -5 -91 -5q-36 0 -44 30l-71 232q-9 30 -22 41.5t-43 11.5h-82l-37 -264q-4 -24 13 -25l87 -5l-2 -16h-233l2 16l72 5
q18 1 21 25l82 588q3 24 -14 25l-70 5l3 16h245q87 0 134 -44t47 -116q0 -88 -58 -145t-145 -62zM348 740l131 88q15 9 25.5 4.5t10.5 -15.5q0 -17 -18 -26l-145 -61z" />
    <glyph glyph-name="racute" unicode="&#x155;" horiz-adv-x="335" 
d="M205 356h1q30 71 73.5 112.5t76.5 41.5q32 0 32 -24q0 -12 -7.5 -19.5t-19.5 -8.5q-5 0 -15 4.5t-17 4.5q-41 0 -84.5 -68t-54.5 -149l-35 -250h-39l64 461q3 20 -14 20h-70l2 16l128 13l6 -8q-12 -33 -18 -82zM218 560l131 88q15 8 25.5 4t10.5 -15q0 -17 -18 -26
l-145 -61z" />
    <glyph glyph-name="Rcommaaccent" unicode="&#x156;" horiz-adv-x="580" 
d="M212 331h107q101 0 148 56t47 134q0 60 -35.5 99t-114.5 39h-107zM356 313v-2q19 -7 29 -22.5t26 -63.5l56 -177q9 -26 35 -27l62 -5l-2 -16q-57 -5 -91 -5q-36 0 -44 30l-71 232q-9 30 -22 41.5t-43 11.5h-82l-37 -264q-4 -24 13 -25l87 -5l-2 -16h-233l2 16l72 5
q18 1 21 25l82 588q3 24 -14 25l-70 5l3 16h245q87 0 134 -44t47 -116q0 -88 -58 -145t-145 -62zM296 -113q-14 0 -22 9t-8 23q0 17 12 30t29 13q25 0 35 -21.5t10 -46.5q0 -56 -34 -95.5t-74 -59.5l-5 13q33 18 57 46t24 59q0 30 -24 30z" />
    <glyph glyph-name="rcommaaccent" unicode="&#x157;" horiz-adv-x="335" 
d="M205 356h1q30 71 73.5 112.5t76.5 41.5q32 0 32 -24q0 -12 -7.5 -19.5t-19.5 -8.5q-5 0 -15 4.5t-17 4.5q-41 0 -84.5 -68t-54.5 -149l-35 -250h-39l64 461q3 20 -14 20h-70l2 16l128 13l6 -8q-12 -33 -18 -82zM113 -110q-14 0 -22 9t-8 23q0 17 12 30t29 13
q25 0 35 -21.5t10 -46.5q0 -56 -34 -95.5t-74 -59.5l-5 13q33 18 57 46t24 59q0 30 -24 30z" />
    <glyph glyph-name="Rcaron" unicode="&#x158;" horiz-adv-x="580" 
d="M212 331h107q101 0 148 56t47 134q0 60 -35.5 99t-114.5 39h-107zM356 313v-2q19 -7 29 -22.5t26 -63.5l56 -177q9 -26 35 -27l62 -5l-2 -16q-57 -5 -91 -5q-36 0 -44 30l-71 232q-9 30 -22 41.5t-43 11.5h-82l-37 -264q-4 -24 13 -25l87 -5l-2 -16h-233l2 16l72 5
q18 1 21 25l82 588q3 24 -14 25l-70 5l3 16h245q87 0 134 -44t47 -116q0 -88 -58 -145t-145 -62zM294 890l83 -115l114 115h17l-134 -160h-7l-90 160h17z" />
    <glyph glyph-name="rcaron" unicode="&#x159;" horiz-adv-x="335" 
d="M205 356h1q30 71 73.5 112.5t76.5 41.5q32 0 32 -24q0 -12 -7.5 -19.5t-19.5 -8.5q-5 0 -15 4.5t-17 4.5q-41 0 -84.5 -68t-54.5 -149l-35 -250h-39l64 461q3 20 -14 20h-70l2 16l128 13l6 -8q-12 -33 -18 -82zM191 710l83 -115l114 115h17l-134 -160h-7l-90 160h17z" />
    <glyph glyph-name="Sacute" unicode="&#x15a;" horiz-adv-x="465" 
d="M232 -10q-81 0 -157 50l3 160h14q6 -108 42 -149.5t100 -41.5q71 0 118 45t47 121q0 35 -12 63t-37 49.5t-41 31.5t-46 26q-120 63 -120 165q0 71 51 125.5t141 54.5q34 0 64 -8t47 -17t41 -25l-21 -150h-14q8 100 -25 140.5t-97 40.5q-66 0 -106 -45.5t-40 -102.5
q0 -92 121 -151q137 -68 137 -178q0 -83 -59 -143.5t-151 -60.5zM316 740l131 88q15 9 25.5 4.5t10.5 -15.5q0 -17 -18 -26l-145 -61z" />
    <glyph glyph-name="sacute" unicode="&#x15b;" horiz-adv-x="380" 
d="M259 491q-51 0 -82.5 -30.5t-31.5 -75.5q0 -33 21.5 -56t52.5 -38t62 -30.5t52.5 -43.5t21.5 -68q0 -72 -49.5 -115.5t-124.5 -43.5q-50 0 -90.5 17t-40.5 38q0 9 6 16t16 7q6 0 15.5 -9t20 -20.5t31.5 -20.5t47 -9q56 0 91.5 32.5t35.5 90.5q0 36 -21.5 61t-52 39.5
t-61 30t-52 42.5t-21.5 66q0 61 46 100t110 39q52 0 91 -16.5t39 -37.5q0 -10 -6 -17t-14 -7t-17.5 9t-19 20.5t-29.5 20.5t-46 9zM246 560l131 88q15 8 25.5 4t10.5 -15q0 -17 -18 -26l-145 -61z" />
    <glyph glyph-name="Scircumflex" unicode="&#x15c;" horiz-adv-x="465" 
d="M232 -10q-81 0 -157 50l3 160h14q6 -108 42 -149.5t100 -41.5q71 0 118 45t47 121q0 35 -12 63t-37 49.5t-41 31.5t-46 26q-120 63 -120 165q0 71 51 125.5t141 54.5q34 0 64 -8t47 -17t41 -25l-21 -150h-14q8 100 -25 140.5t-97 40.5q-66 0 -106 -45.5t-40 -102.5
q0 -92 121 -151q137 -68 137 -178q0 -83 -59 -143.5t-151 -60.5zM351 845l-115 -115h-17l134 160h7l90 -160h-17z" />
    <glyph glyph-name="scircumflex" unicode="&#x15d;" horiz-adv-x="380" 
d="M259 491q-51 0 -82.5 -30.5t-31.5 -75.5q0 -33 21.5 -56t52.5 -38t62 -30.5t52.5 -43.5t21.5 -68q0 -72 -49.5 -115.5t-124.5 -43.5q-50 0 -90.5 17t-40.5 38q0 9 6 16t16 7q6 0 15.5 -9t20 -20.5t31.5 -20.5t47 -9q56 0 91.5 32.5t35.5 90.5q0 36 -21.5 61t-52 39.5
t-61 30t-52 42.5t-21.5 66q0 61 46 100t110 39q52 0 91 -16.5t39 -37.5q0 -10 -6 -17t-14 -7t-17.5 9t-19 20.5t-29.5 20.5t-46 9zM282 665l-115 -115h-17l134 160h7l90 -160h-17z" />
    <glyph glyph-name="Scedilla" unicode="&#x15e;" horiz-adv-x="465" 
d="M219 -50l6 40q-76 2 -150 50l3 160h14q6 -108 42 -149.5t100 -41.5q71 0 118 45t47 121q0 35 -12 63t-37 49.5t-41 31.5t-46 26q-120 63 -120 165q0 71 51 125.5t141 54.5q34 0 64 -8t47 -17t41 -25l-21 -150h-14q8 100 -25 140.5t-97 40.5q-66 0 -106 -45.5t-40 -102.5
q0 -92 121 -151q137 -68 137 -178q0 -81 -57 -141t-146 -63l-5 -32q24 -3 45 -21t21 -50q0 -39 -26 -63t-66 -24q-30 0 -56 12l5 13q25 -9 44 -9q31 0 46.5 23.5t15.5 50.5q0 52 -44 60z" />
    <glyph glyph-name="scedilla" unicode="&#x15f;" horiz-adv-x="380" 
d="M259 491q-51 0 -82.5 -30.5t-31.5 -75.5q0 -33 21.5 -56t52.5 -38t62 -30.5t52.5 -43.5t21.5 -68q0 -70 -47 -113.5t-119 -45.5l-5 -32q24 -3 45 -21t21 -50q0 -39 -26 -63t-66 -24q-31 0 -55 12l5 13q22 -9 43 -9q31 0 47 23t16 50q0 53 -45 61l5 40q-48 2 -86 18.5
t-38 36.5q0 9 6 16t16 7q6 0 15.5 -9t20 -20.5t31.5 -20.5t47 -9q56 0 91.5 32.5t35.5 90.5q0 36 -21.5 61t-52 39.5t-61 30t-52 42.5t-21.5 66q0 61 46 100t110 39q52 0 91 -16.5t39 -37.5q0 -10 -6 -17t-14 -7t-17.5 9t-19 20.5t-29.5 20.5t-46 9z" />
    <glyph glyph-name="Scaron" unicode="&#x160;" horiz-adv-x="465" 
d="M232 -10q-81 0 -157 50l3 160h14q6 -108 42 -149.5t100 -41.5q71 0 118 45t47 121q0 35 -12 63t-37 49.5t-41 31.5t-46 26q-120 63 -120 165q0 71 51 125.5t141 54.5q34 0 64 -8t47 -17t41 -25l-21 -150h-14q8 100 -25 140.5t-97 40.5q-66 0 -106 -45.5t-40 -102.5
q0 -92 121 -151q137 -68 137 -178q0 -83 -59 -143.5t-151 -60.5zM258 890l83 -115l114 115h17l-134 -160h-7l-90 160h17z" />
    <glyph glyph-name="scaron" unicode="&#x161;" horiz-adv-x="380" 
d="M259 491q-51 0 -82.5 -30.5t-31.5 -75.5q0 -33 21.5 -56t52.5 -38t62 -30.5t52.5 -43.5t21.5 -68q0 -72 -49.5 -115.5t-124.5 -43.5q-50 0 -90.5 17t-40.5 38q0 9 6 16t16 7q6 0 15.5 -9t20 -20.5t31.5 -20.5t47 -9q56 0 91.5 32.5t35.5 90.5q0 36 -21.5 61t-52 39.5
t-61 30t-52 42.5t-21.5 66q0 61 46 100t110 39q52 0 91 -16.5t39 -37.5q0 -10 -6 -17t-14 -7t-17.5 9t-19 20.5t-29.5 20.5t-46 9zM190 710l83 -115l114 115h17l-134 -160h-7l-90 160h17z" />
    <glyph glyph-name="Tcommaaccent" unicode="&#x162;" 
d="M327 659h-151q-23 0 -28 -20l-35 -109h-14l21 150h460l-21 -150h-15l-3 109q0 20 -23 20h-151l-86 -613q-3 -24 14 -25l69 -5l-2 -16h-215l2 16l72 5q17 1 20 25zM231 -110q-14 0 -22 9t-8 23q0 17 12 30t29 13q25 0 35 -21.5t10 -46.5q0 -56 -34 -95.5t-74 -59.5l-5 13
q33 18 57 46t24 59q0 30 -24 30z" />
    <glyph glyph-name="tcommaaccent" unicode="&#x163;" horiz-adv-x="287" 
d="M97 492l72 10q18 3 26 28l32 90h11l-17 -120h130l-3 -22h-130l-55 -392q-6 -42 6 -56t44 -14q33 0 75 24l3 -15q-49 -35 -99 -35q-39 0 -57 18.5t-11 71.5l56 398h-85zM143 -110q-14 0 -22 9t-8 23q0 17 12 30t29 13q25 0 35 -21.5t10 -46.5q0 -56 -34 -95.5t-74 -59.5
l-5 13q33 18 57 46t24 59q0 30 -24 30z" />
    <glyph glyph-name="Tcaron" unicode="&#x164;" 
d="M327 659h-151q-23 0 -28 -20l-35 -109h-14l21 150h460l-21 -150h-15l-3 109q0 20 -23 20h-151l-86 -613q-3 -24 14 -25l69 -5l-2 -16h-215l2 16l72 5q17 1 20 25zM281 890l83 -115l114 115h17l-134 -160h-7l-90 160h17z" />
    <glyph glyph-name="tcaron" unicode="&#x165;" horiz-adv-x="287" 
d="M97 492l72 10q18 3 26 28l32 90h11l-17 -120h130l-3 -22h-130l-55 -392q-6 -42 6 -56t44 -14q33 0 75 24l3 -15q-49 -35 -99 -35q-39 0 -57 18.5t-11 71.5l56 398h-85zM295 695q-14 0 -22 9t-8 23q0 17 12 30t29 13q25 0 35 -21.5t10 -46.5q0 -56 -34 -95.5t-74 -59.5
l-5 13q33 18 57 46t24 59q0 30 -24 30z" />
    <glyph glyph-name="Tbar" unicode="&#x166;" 
d="M327 659h-151q-23 0 -28 -20l-35 -109h-14l21 150h460l-21 -150h-15l-3 109q0 20 -23 20h-151l-44 -313h83l-3 -22h-83l-39 -278q-3 -24 14 -25l69 -5l-2 -16h-215l2 16l72 5q17 1 20 25l39 278h-84l3 22h84z" />
    <glyph glyph-name="tbar" unicode="&#x167;" horiz-adv-x="287" 
d="M100 492l72 10q18 3 26 28l32 90h11l-17 -120h130l-3 -22h-130l-31 -222h77l-3 -22h-77l-21 -148q-6 -42 6 -56t44 -14q33 0 75 24l3 -15q-49 -35 -99 -35q-39 0 -57 18.5t-11 71.5l21 154h-74l3 22h74l32 222h-85z" />
    <glyph glyph-name="Utilde" unicode="&#x168;" horiz-adv-x="647" 
d="M549 255l53 379q3 24 -14 25l-67 5l2 16h195l-3 -16l-70 -5q-18 -1 -21 -25l-53 -378q-18 -128 -83.5 -197t-169.5 -69q-202 0 -165 267l53 377q3 24 -14 25l-69 5l3 16h215l-3 -16l-72 -5q-17 -1 -20 -25l-55 -392q-17 -117 18 -172.5t126 -55.5q82 0 139.5 59.5
t74.5 181.5zM321 754l-12 6q37 67 59 85q18 15 37 15t60 -28.5t58 -28.5q28 0 62 54l11 -7q-14 -27 -22.5 -41.5t-24 -28t-32.5 -13.5q-22 0 -63.5 28.5t-56.5 28.5q-27 0 -67 -58q-2 -2 -3 -3.5t-3 -4t-3 -4.5z" />
    <glyph glyph-name="utilde" unicode="&#x169;" horiz-adv-x="527" 
d="M134 140l45 321q3 20 -14 20h-71l2 16l127 13l7 -8q-12 -29 -20 -82l-38 -270q-8 -62 7.5 -96t66.5 -34q66 0 115 74t60 156l30 211q3 20 -14 20h-87l2 16l143 13l7 -8q-12 -31 -19 -82l-52 -374q-3 -24 14 -25l69 -5l-3 -16q-82 -10 -93 -10q-32 0 -28 36l16 111h-1
q-72 -147 -182 -147q-48 0 -74 36.5t-15 113.5zM211 574l-12 6q37 67 59 85q18 15 37 15t60 -28.5t58 -28.5q28 0 62 54l11 -7q-14 -27 -22.5 -41.5t-24 -28t-32.5 -13.5q-22 0 -63.5 28.5t-56.5 28.5q-27 0 -67 -58z" />
    <glyph glyph-name="Umacron" unicode="&#x16a;" horiz-adv-x="647" 
d="M549 255l53 379q3 24 -14 25l-67 5l2 16h195l-3 -16l-70 -5q-18 -1 -21 -25l-53 -378q-18 -128 -83.5 -197t-169.5 -69q-202 0 -165 267l53 377q3 24 -14 25l-69 5l3 16h215l-3 -16l-72 -5q-17 -1 -20 -25l-55 -392q-17 -117 18 -172.5t126 -55.5q82 0 139.5 59.5
t74.5 181.5zM338 796h229l-3 -22h-229z" />
    <glyph glyph-name="umacron" unicode="&#x16b;" horiz-adv-x="527" 
d="M134 140l45 321q3 20 -14 20h-71l2 16l127 13l7 -8q-12 -29 -20 -82l-38 -270q-8 -62 7.5 -96t66.5 -34q66 0 115 74t60 156l30 211q3 20 -14 20h-87l2 16l143 13l7 -8q-12 -31 -19 -82l-52 -374q-3 -24 14 -25l69 -5l-3 -16q-82 -10 -93 -10q-32 0 -28 36l16 111h-1
q-72 -147 -182 -147q-48 0 -74 36.5t-15 113.5zM226 616h229l-3 -22h-229z" />
    <glyph glyph-name="Ubreve" unicode="&#x16c;" horiz-adv-x="647" 
d="M549 255l53 379q3 24 -14 25l-67 5l2 16h195l-3 -16l-70 -5q-18 -1 -21 -25l-53 -378q-18 -128 -83.5 -197t-169.5 -69q-202 0 -165 267l53 377q3 24 -14 25l-69 5l3 16h215l-3 -16l-72 -5q-17 -1 -20 -25l-55 -392q-17 -117 18 -172.5t126 -55.5q82 0 139.5 59.5
t74.5 181.5zM447 740q-53 0 -71.5 43.5t-9.5 106.5h14q-2 -49 15.5 -79.5t57.5 -30.5q39 0 65.5 30.5t37.5 79.5h14q-9 -62 -39.5 -106t-83.5 -44z" />
    <glyph glyph-name="ubreve" unicode="&#x16d;" horiz-adv-x="527" 
d="M134 140l45 321q3 20 -14 20h-71l2 16l127 13l7 -8q-12 -29 -20 -82l-38 -270q-8 -62 7.5 -96t66.5 -34q66 0 115 74t60 156l30 211q3 20 -14 20h-87l2 16l143 13l7 -8q-12 -31 -19 -82l-52 -374q-3 -24 14 -25l69 -5l-3 -16q-82 -10 -93 -10q-32 0 -28 36l16 111h-1
q-72 -147 -182 -147q-48 0 -74 36.5t-15 113.5zM334 560q-53 0 -71.5 43.5t-9.5 106.5h14q-2 -49 15.5 -79.5t57.5 -30.5q39 0 65.5 30.5t37.5 79.5h14q-9 -62 -39.5 -106t-83.5 -44z" />
    <glyph glyph-name="Uring" unicode="&#x16e;" horiz-adv-x="647" 
d="M549 255l53 379q3 24 -14 25l-67 5l2 16h195l-3 -16l-70 -5q-18 -1 -21 -25l-53 -378q-18 -128 -83.5 -197t-169.5 -69q-202 0 -165 267l53 377q3 24 -14 25l-69 5l3 16h215l-3 -16l-72 -5q-17 -1 -20 -25l-55 -392q-17 -117 18 -172.5t126 -55.5q82 0 139.5 59.5
t74.5 181.5zM376 794q0 42 25 71.5t63 29.5q29 0 46 -21t17 -54q0 -42 -25 -71t-63 -29q-29 0 -46 21t-17 53zM399 792q0 -25 11 -40.5t31 -15.5q28 0 44.5 24.5t16.5 62.5q0 56 -41 56q-28 0 -45 -24.5t-17 -62.5z" />
    <glyph glyph-name="uring" unicode="&#x16f;" horiz-adv-x="527" 
d="M134 140l45 321q3 20 -14 20h-71l2 16l127 13l7 -8q-12 -29 -20 -82l-38 -270q-8 -62 7.5 -96t66.5 -34q66 0 115 74t60 156l30 211q3 20 -14 20h-87l2 16l143 13l7 -8q-12 -31 -19 -82l-52 -374q-3 -24 14 -25l69 -5l-3 -16q-82 -10 -93 -10q-32 0 -28 36l16 111h-1
q-72 -147 -182 -147q-48 0 -74 36.5t-15 113.5zM268 614q0 42 25 71.5t63 29.5q29 0 46 -21t17 -54q0 -42 -25 -71t-63 -29q-29 0 -46 21t-17 53zM291 612q0 -25 11 -40.5t31 -15.5q28 0 44.5 24.5t16.5 62.5q0 56 -41 56q-28 0 -45 -24.5t-17 -62.5z" />
    <glyph glyph-name="Uhungarumlaut" unicode="&#x170;" horiz-adv-x="647" 
d="M549 255l53 379q3 24 -14 25l-67 5l2 16h195l-3 -16l-70 -5q-18 -1 -21 -25l-53 -378q-18 -128 -83.5 -197t-169.5 -69q-202 0 -165 267l53 377q3 24 -14 25l-69 5l3 16h215l-3 -16l-72 -5q-17 -1 -20 -25l-55 -392q-17 -117 18 -172.5t126 -55.5q82 0 139.5 59.5
t74.5 181.5zM333 725l119 111q14 11 26 8.5t12 -14.5q2 -14 -14 -26l-137 -88zM501 725l119 111q13 11 25 8.5t13 -14.5q3 -16 -14 -26l-137 -88z" />
    <glyph glyph-name="uhungarumlaut" unicode="&#x171;" horiz-adv-x="527" 
d="M134 140l45 321q3 20 -14 20h-71l2 16l127 13l7 -8q-12 -29 -20 -82l-38 -270q-8 -62 7.5 -96t66.5 -34q66 0 115 74t60 156l30 211q3 20 -14 20h-87l2 16l143 13l7 -8q-12 -31 -19 -82l-52 -374q-3 -24 14 -25l69 -5l-3 -16q-82 -10 -93 -10q-32 0 -28 36l16 111h-1
q-72 -147 -182 -147q-48 0 -74 36.5t-15 113.5zM178 545l119 111q13 11 25.5 8.5t12.5 -14.5q2 -14 -14 -26l-137 -88zM346 545l119 111q13 11 25 8.5t13 -14.5q3 -16 -14 -26l-137 -88z" />
    <glyph glyph-name="Uogonek" unicode="&#x172;" horiz-adv-x="647" 
d="M549 255l53 379q3 24 -14 25l-67 5l2 16h195l-3 -16l-70 -5q-18 -1 -21 -25l-53 -378q-18 -125 -81 -193.5t-162 -72.5q-54 -56 -55 -114q0 -43 32 -46q22 -1 53 19l3 -9q-31 -40 -69 -40q-32 0 -48.5 26t-1 72t69.5 92q-195 4 -159 267l53 377q3 24 -14 25l-69 5l3 16
h215l-3 -16l-72 -5q-17 -1 -20 -25l-55 -392q-17 -117 18 -172.5t126 -55.5q82 0 139.5 59.5t74.5 181.5z" />
    <glyph glyph-name="uogonek" unicode="&#x173;" horiz-adv-x="527" 
d="M381 26l16 111h-1q-72 -147 -183 -147q-47 0 -73 36.5t-15 113.5l45 321q3 20 -14 20h-71l2 16l127 13l6 -8q-12 -31 -19 -82l-38 -270q-8 -62 7.5 -96t66.5 -34q65 0 114.5 74t60.5 156l30 211q3 20 -14 20h-87l2 16l143 13l6 -8q-10 -27 -18 -82l-52 -374
q-3 -24 13 -25l70 -5l-3 -16q-61 -5 -94 -66q-27 -49 -13 -84q16 -39 69 -7l10 6l5 -9q-33 -40 -70 -40q-42 0 -53 41q-14 50 32 104q24 28 59 48q-24 -3 -38 -3q-33 0 -28 36z" />
    <glyph glyph-name="Wcircumflex" unicode="&#x174;" horiz-adv-x="892" 
d="M312 47l222 520l-9 65q-4 25 -26 27l-51 5l3 16h200l-3 -16l-55 -5q-26 -2 -24 -28l60 -584h2l229 586q9 23 -15 26l-57 5l3 16h182l-3 -16l-53 -5q-27 -4 -35 -26l-250 -638h-36l-57 532l-227 -532h-35l-92 637q-4 25 -27 27l-50 5l3 16h200l-3 -16l-55 -5
q-28 -3 -23 -28l81 -584h1zM573 845l-115 -115h-17l134 160h7l90 -160h-17z" />
    <glyph glyph-name="wcircumflex" unicode="&#x175;" horiz-adv-x="742" 
d="M425 358l-19 106q-4 15 -24 15h-56l2 16q48 15 78 15q32 0 39 -30l84 -443h1l39 84q45 100 69.5 175.5t29 109.5t5.5 74q0 30 24 30q23 0 23 -29q0 -68 -109 -309l-79 -177h-34l-67 330l-149 -330h-34l-92 469q-4 15 -24 15h-56l2 16q48 15 78 15q32 0 39 -30l84 -443h1z
M463 665l-115 -115h-17l134 160h7l90 -160h-17z" />
    <glyph glyph-name="Ycircumflex" unicode="&#x176;" horiz-adv-x="595" 
d="M580 629l-227 -374l-30 -209q-3 -24 14 -25l70 -5l-2 -16h-215l2 16l71 5q17 1 20 25l29 199l-122 384q-10 29 -28 30l-54 5l3 16h200l-3 -16l-53 -5q-12 -1 -17.5 -11t-2.5 -20l111 -348h2l212 349q7 12 3.5 20.5t-14.5 9.5l-56 5l3 16h180l-3 -16l-54 -5
q-21 -1 -39 -30zM427 845l-115 -115h-17l134 160h7l90 -160h-17z" />
    <glyph glyph-name="ycircumflex" unicode="&#x177;" horiz-adv-x="502" 
d="M253 -26l-97 490q-4 15 -24 15h-56l2 16q48 15 78 15q32 0 39 -30l84 -443h1l39 84q45 100 69.5 175.5t29 109.5t5.5 74q0 30 24 30q23 0 23 -29q0 -68 -109 -309l-82 -187q-44 -97 -72 -130q-46 -55 -107 -55q-23 0 -41 8.5t-16 24.5q1 12 11.5 16.5t21.5 -1.5
q58 -29 99 0t78 126zM359 665l-115 -115h-17l134 160h7l90 -160h-17z" />
    <glyph glyph-name="Ydieresis" unicode="&#x178;" horiz-adv-x="595" 
d="M580 629l-227 -374l-30 -209q-3 -24 14 -25l70 -5l-2 -16h-215l2 16l71 5q17 1 20 25l29 199l-122 384q-10 29 -28 30l-54 5l3 16h200l-3 -16l-53 -5q-12 -1 -17.5 -11t-2.5 -20l111 -348h2l212 349q7 12 3.5 20.5t-14.5 9.5l-56 5l3 16h180l-3 -16l-54 -5
q-21 -1 -39 -30zM307 800q0 16 10 26.5t24 10.5q11 0 18.5 -8t7.5 -20q0 -16 -10.5 -26.5t-24.5 -10.5q-11 0 -18 8t-7 20zM477 800q0 16 10 26.5t24 10.5q11 0 18.5 -8t7.5 -20q0 -16 -10.5 -26.5t-24.5 -10.5q-11 0 -18 8t-7 20z" />
    <glyph glyph-name="Zacute" unicode="&#x179;" horiz-adv-x="495" 
d="M26 7l469 650v2h-301q-21 0 -28 -20l-34 -109h-15l22 150h414l-2 -7l-470 -652h319q19 0 28 20l48 109h15l-39 -150h-427zM326 740l131 88q15 9 25.5 4.5t10.5 -15.5q0 -17 -18 -26l-145 -61z" />
    <glyph glyph-name="zacute" unicode="&#x17a;" horiz-adv-x="420" 
d="M30 0l-4 7l368 451v2h-243q-16 0 -25 -20l-27 -55h-13l26 115h337v-7l-382 -468l1 -2q68 23 140 23q32 0 73.5 -6.5t53.5 -6.5q29 2 45 31l31 51h13l-30 -75q-20 -50 -82 -50q-21 0 -83 11t-102 11q-52 0 -97 -12zM266 560l131 88q15 8 25.5 4t10.5 -15q0 -17 -18 -26
l-145 -61z" />
    <glyph glyph-name="Zdotaccent" unicode="&#x17b;" horiz-adv-x="495" 
d="M26 7l469 650v2h-301q-21 0 -28 -20l-34 -109h-15l22 150h414l-2 -7l-470 -652h319q19 0 28 20l48 109h15l-39 -150h-427zM330 800q0 16 10.5 26.5t24.5 10.5q11 0 18 -8t7 -20q0 -15 -10.5 -26t-23.5 -11q-12 0 -19 8t-7 20z" />
    <glyph glyph-name="zdotaccent" unicode="&#x17c;" horiz-adv-x="420" 
d="M30 0l-4 7l368 451v2h-243q-16 0 -25 -20l-27 -55h-13l26 115h337v-7l-382 -468l1 -2q68 23 140 23q32 0 73.5 -6.5t53.5 -6.5q29 2 45 31l31 51h13l-30 -75q-20 -50 -82 -50q-21 0 -83 11t-102 11q-52 0 -97 -12zM266 620q0 16 10.5 26.5t24.5 10.5q11 0 18 -8t7 -20
q0 -15 -10.5 -26t-23.5 -11q-12 0 -19 8t-7 20z" />
    <glyph glyph-name="Zcaron" unicode="&#x17d;" horiz-adv-x="495" 
d="M26 7l469 650v2h-301q-21 0 -28 -20l-34 -109h-15l22 150h414l-2 -7l-470 -652h319q19 0 28 20l48 109h15l-39 -150h-427zM273 890l83 -115l114 115h17l-134 -160h-7l-90 160h17z" />
    <glyph glyph-name="zcaron" unicode="&#x17e;" horiz-adv-x="420" 
d="M30 0l-4 7l368 451v2h-243q-16 0 -25 -20l-27 -55h-13l26 115h337v-7l-382 -468l1 -2q68 23 140 23q32 0 73.5 -6.5t53.5 -6.5q29 2 45 31l31 51h13l-30 -75q-20 -50 -82 -50q-21 0 -83 11t-102 11q-52 0 -97 -12zM210 710l83 -115l114 115h17l-134 -160h-7l-90 160h17z
" />
    <glyph glyph-name="florin" unicode="&#x192;" horiz-adv-x="427" 
d="M293 477l-149 -513q-20 -70 -67.5 -117t-117.5 -47q-23 0 -40 8.5t-12 24.5q5 18 22 18q14 0 35 -12.5t35 -12.5q32 -1 56.5 25t39.5 79l160 547h-76l5 15l77 8l13 46q20 69 68 116.5t118 47.5q23 0 39.5 -8.5t12.5 -24.5q-7 -18 -23 -18q-14 0 -34.5 12.5t-34.5 12.5
q-32 1 -56.5 -25t-39.5 -79l-24 -80h118l-7 -23h-118z" />
    <glyph glyph-name="AEacute" unicode="&#x1fc;" horiz-adv-x="807" 
d="M428 46l27 196h-204l-123 -195q-15 -23 11 -26l58 -5l-2 -16h-180l2 16l53 5q19 1 33 25l401 634h348l-22 -150h-15l-3 109q0 20 -23 20h-236l-42 -304h143q23 0 28 20l23 85h14l-33 -230h-14l2 84q0 20 -23 20h-143l-44 -313h249q20 0 29 20l47 109h14l-38 -150h-432
l2 16l72 5q18 1 21 25zM265 264h193l55 394h-1zM553 740l131 88q15 9 25.5 4.5t10.5 -15.5q0 -17 -18 -26l-145 -61z" />
    <glyph glyph-name="aeacute" unicode="&#x1fd;" horiz-adv-x="670" 
d="M382 233q-8 -89 27.5 -153t116.5 -64q65 0 133 64l8 -14q-67 -76 -161 -76q-71 0 -113 43.5t-52 117.5q-30 -89 -79.5 -125t-103.5 -36q-48 0 -75 29t-27 72q0 58 37 96.5t132 66.5l121 36l12 85q16 110 -82 110q-58 0 -136 -52l-6 12q12 11 31 24t56 27t73 14
q56 0 83 -29.5t22 -78.5q71 108 181 108q38 0 62 -22t24 -57q0 -54 -69.5 -109.5t-214.5 -88.5zM334 200l10 71l-132 -42q-117 -37 -117 -135q0 -39 21 -60t59 -21q57 0 102.5 54.5t56.5 132.5zM576 491q-66 0 -122.5 -63.5t-69.5 -174.5q33 8 69 21.5t77 36t67 55.5t26 70
q0 24 -13 39.5t-34 15.5zM418 560l131 88q15 8 25.5 4t10.5 -15q0 -17 -18 -26l-145 -61z" />
    <glyph glyph-name="Oslashacute" unicode="&#x1fe;" horiz-adv-x="665" 
d="M424 740l131 88q15 9 25.5 4.5t10.5 -15.5q0 -17 -18 -26l-145 -61zM93 285q0 170 100 287.5t236 117.5q82 0 142 -52l47 71l15 -11l-48 -73q83 -85 83 -231q0 -170 -100.5 -287t-236.5 -117q-75 0 -133 44l-41 -63l-15 11l42 64q-91 83 -91 239zM137 281q0 -132 64 -209
l353 539q-52 60 -128 60q-111 0 -200 -109t-89 -281zM623 398q0 123 -57 198l-352 -538q51 -49 119 -49q52 0 103 27.5t93 76t68 123.5t26 162z" />
    <glyph glyph-name="oslashacute" unicode="&#x1ff;" horiz-adv-x="477" 
d="M322 560l131 88q15 8 25.5 4t10.5 -15q0 -17 -18 -26l-145 -61zM236 -10q-55 0 -94 34l-35 -53l-17 11l37 57q-54 61 -54 170q0 115 67.5 208t168.5 93q60 0 100 -40l39 59l16 -11l-41 -63q50 -64 50 -164q0 -115 -68 -208t-169 -93zM307 491q-80 0 -136 -76.5
t-56 -221.5q0 -83 28 -130l252 385q-34 43 -88 43zM432 306q0 75 -26 124l-250 -384q31 -37 83 -37q78 0 135.5 78t57.5 219z" />
    <glyph glyph-name="Scommaaccent" unicode="&#x218;" horiz-adv-x="465" 
d="M232 -10q-81 0 -157 50l3 160h14q6 -108 42 -149.5t100 -41.5q71 0 118 45t47 121q0 35 -12 63t-37 49.5t-41 31.5t-46 26q-120 63 -120 165q0 71 51 125.5t141 54.5q34 0 64 -8t47 -17t41 -25l-21 -150h-14q8 100 -25 140.5t-97 40.5q-66 0 -106 -45.5t-40 -102.5
q0 -92 121 -151q137 -68 137 -178q0 -83 -59 -143.5t-151 -60.5zM207 -110q-14 0 -22 9t-8 23q0 17 12 30t29 13q25 0 35 -21.5t10 -46.5q0 -56 -34 -95.5t-74 -59.5l-5 13q33 18 57 46t24 59q0 30 -24 30z" />
    <glyph glyph-name="scommaaccent" unicode="&#x219;" horiz-adv-x="380" 
d="M259 491q-51 0 -82.5 -30.5t-31.5 -75.5q0 -33 21.5 -56t52.5 -38t62 -30.5t52.5 -43.5t21.5 -68q0 -72 -49.5 -115.5t-124.5 -43.5q-50 0 -90.5 17t-40.5 38q0 9 6 16t16 7q6 0 15.5 -9t20 -20.5t31.5 -20.5t47 -9q56 0 91.5 32.5t35.5 90.5q0 36 -21.5 61t-52 39.5
t-61 30t-52 42.5t-21.5 66q0 61 46 100t110 39q52 0 91 -16.5t39 -37.5q0 -10 -6 -17t-14 -7t-17.5 9t-19 20.5t-29.5 20.5t-46 9zM177 -110q-14 0 -22 9t-8 23q0 17 12 30t29 13q25 0 35 -21.5t10 -46.5q0 -56 -34 -95.5t-74 -59.5l-5 13q33 18 57 46t24 59q0 30 -24 30z
" />
    <glyph glyph-name="uni021A" unicode="&#x21a;" 
d="M327 659h-151q-23 0 -28 -20l-35 -109h-14l21 150h460l-21 -150h-15l-3 109q0 20 -23 20h-151l-86 -613q-3 -24 14 -25l69 -5l-2 -16h-215l2 16l72 5q17 1 20 25zM231 -112q-14 0 -22 9t-8 23q0 17 12 30t29 13q25 0 35 -21.5t10 -46.5q0 -56 -34 -95.5t-74 -59.5l-5 13
q33 18 57 46t24 59q0 30 -24 30z" />
    <glyph glyph-name="uni021B" unicode="&#x21b;" horiz-adv-x="287" 
d="M97 492l72 10q18 3 26 28l32 90h11l-17 -120h130l-3 -22h-130l-55 -392q-6 -42 6 -56t44 -14q33 0 75 24l3 -15q-49 -35 -99 -35q-39 0 -57 18.5t-11 71.5l56 398h-85zM144 -112q-14 0 -22 9t-8 23q0 17 12 30t29 13q25 0 35 -21.5t10 -46.5q0 -56 -34 -95.5t-74 -59.5
l-5 13q33 18 57 46t24 59q0 30 -24 30z" />
    <glyph glyph-name="dotlessj" unicode="&#x237;" horiz-adv-x="227" 
d="M201 420l-56 -400q-25 -170 -145 -220l-5 12q90 47 110 188l65 461q3 20 -14 20h-71l2 16l127 13l5 -8q-10 -27 -18 -82z" />
    <glyph glyph-name="circumflex" unicode="&#x2c6;" horiz-adv-x="399" 
d="M293 665l-115 -115h-17l134 160h7l90 -160h-17z" />
    <glyph glyph-name="caron" unicode="&#x2c7;" horiz-adv-x="399" 
d="M201 710l83 -115l114 115h17l-134 -160h-7l-90 160h17z" />
    <glyph glyph-name="uni02C9" unicode="&#x2c9;" horiz-adv-x="399" 
d="M171 616h229l-3 -22h-229z" />
    <glyph glyph-name="breve" unicode="&#x2d8;" horiz-adv-x="374" 
d="M266 560q-53 0 -71.5 43.5t-9.5 106.5h14q-2 -49 15.5 -79.5t57.5 -30.5q39 0 65.5 30.5t37.5 79.5h14q-9 -62 -39.5 -106t-83.5 -44z" />
    <glyph glyph-name="dotaccent" unicode="&#x2d9;" horiz-adv-x="227" 
d="M171 620q0 16 10.5 26.5t24.5 10.5q11 0 18 -8t7 -20q0 -15 -10.5 -26t-23.5 -11q-12 0 -19 8t-7 20z" />
    <glyph glyph-name="ring" unicode="&#x2da;" horiz-adv-x="319" 
d="M172 614q0 42 25 71.5t63 29.5q29 0 46 -21t17 -54q0 -42 -25 -71t-63 -29q-29 0 -46 21t-17 53zM195 612q0 -25 11 -40.5t31 -15.5q28 0 44.5 24.5t16.5 62.5q0 56 -41 56q-28 0 -45 -24.5t-17 -62.5z" />
    <glyph glyph-name="ogonek" unicode="&#x2db;" horiz-adv-x="306" 
d="M192 -151l4 -9q-35 -40 -70 -40q-33 0 -49.5 27.5t2.5 76t80 96.5h15q-59 -54 -66 -116q-5 -47 26 -54q23 -4 58 19z" />
    <glyph glyph-name="tilde" unicode="&#x2dc;" horiz-adv-x="443" 
d="M178 574l-12 6q37 67 59 85q18 15 37 15t60 -28.5t58 -28.5q28 0 62 54l11 -7q-14 -27 -22.5 -41.5t-24 -28t-32.5 -13.5q-22 0 -63.5 28.5t-56.5 28.5q-27 0 -67 -58z" />
    <glyph glyph-name="hungarumlaut" unicode="&#x2dd;" horiz-adv-x="480" 
d="M160 545l119 111q13 11 25.5 8.5t12.5 -14.5q2 -14 -14 -26l-137 -88zM328 545l119 111q13 11 25 8.5t13 -14.5q3 -16 -14 -26l-137 -88z" />
    <glyph glyph-name="uni037E" unicode="&#x37e;" horiz-adv-x="227" 
d="M121 260q0 16 10.5 26.5t24.5 10.5q11 0 18 -8t7 -20q0 -15 -10.5 -26t-23.5 -11q-12 0 -19 8t-7 20z" />
    <glyph glyph-name="tonos" unicode="&#x384;" horiz-adv-x="323" 
d="M162 561l133 89q13 8 23 3t10 -16q0 -19 -20 -26l-143 -61z" />
    <glyph glyph-name="dieresistonos" unicode="&#x385;" horiz-adv-x="451" 
d="M171 620q0 16 10 26.5t24 10.5q11 0 18.5 -8t7.5 -20q0 -16 -10.5 -26.5t-24.5 -10.5q-11 0 -18 8t-7 20zM395 620q0 16 10.5 26.5t24.5 10.5q11 0 18 -8t7 -20q0 -15 -10 -26t-24 -11q-12 0 -19 8t-7 20zM271 601l106 132q9 11 21 13t18 -11q3 -17 -11 -29l-126 -112z
" />
    <glyph glyph-name="anoteleia" unicode="&#x387;" horiz-adv-x="397" 
d="M171 620q0 16 10 26.5t24 10.5q11 0 18.5 -8t7.5 -20q0 -16 -10.5 -26.5t-24.5 -10.5q-11 0 -18 8t-7 20zM341 620q0 16 10 26.5t24 10.5q11 0 18.5 -8t7.5 -20q0 -16 -10.5 -26.5t-24.5 -10.5q-11 0 -18 8t-7 20z" />
    <glyph glyph-name="uni03BC" unicode="&#x3bc;" 
d="M105 0l65 461q3 20 -14 20h-71l2 16l127 13l6 -8q-11 -25 -19 -82l-38 -270q-8 -62 7.5 -96t66.5 -34q65 0 114 73.5t61 156.5l30 211q3 20 -14 20h-87l2 16l143 13l6 -8q-10 -27 -18 -82l-52 -374q-3 -24 13 -25l69 -5l-2 -16q-84 -10 -93 -10q-33 0 -28 36l16 111h-1
q-72 -147 -183 -147q-42 0 -67 28q-25 -167 -146 -218l-4 13q89 46 109 187z" />
    <glyph glyph-name="pi" unicode="&#x3c0;" horiz-adv-x="544" 
d="M99 500h486l-2 -16l-72 -5q-17 -1 -20 -25l-57 -408q-4 -24 13 -25l70 -5l-2 -16h-214l2 16l72 5q18 1 21 25l60 432h-234l-60 -432q-4 -24 13 -25l70 -5l-2 -16h-214l2 16l72 5q18 1 21 25l57 408q3 24 -14 25l-70 5z" />
    <glyph glyph-name="uni03C2" unicode="&#x3c2;" horiz-adv-x="436" 
d="M120 249q9 68 57 114l-54 90l8 8l54 -90q43 36 90 36q46 0 79 -36l80 90l6 -8l-79 -89q36 -47 27 -115q-9 -67 -58 -114l52 -86l-8 -9l-54 87q-41 -35 -89 -35t-80 35l-76 -87l-7 9l77 86q-34 45 -25 114zM130 249q-8 -59 22.5 -102t80.5 -43t93 43t51 102t-22.5 102.5
t-80.5 43.5t-93 -43.5t-51 -102.5z" />
    <glyph glyph-name="sigma" unicode="&#x3c3;" horiz-adv-x="436" 
d="M120 249q9 68 57 114l-54 90l8 8l54 -90q43 36 90 36q46 0 79 -36l80 90l6 -8l-79 -89q36 -47 27 -115q-9 -67 -58 -114l52 -86l-8 -9l-54 87q-41 -35 -89 -35t-80 35l-76 -87l-7 9l77 86q-34 45 -25 114zM130 249q-8 -59 22.5 -102t80.5 -43t93 43t51 102t-22.5 102.5
t-80.5 43.5t-93 -43.5t-51 -102.5z" />
    <glyph glyph-name="Wgrave" unicode="&#x1e80;" horiz-adv-x="892" 
d="M312 47l222 520l-9 65q-4 25 -26 27l-51 5l3 16h200l-3 -16l-55 -5q-26 -2 -24 -28l60 -584h2l229 586q9 23 -15 26l-57 5l3 16h182l-3 -16l-53 -5q-27 -4 -35 -26l-250 -638h-36l-57 532l-227 -532h-35l-92 637q-4 25 -27 27l-50 5l3 16h200l-3 -16l-55 -5
q-28 -3 -23 -28l81 -584h1zM476 828l106 -88l-7 -10l-127 61q-13 6 -12 21q1 14 14 20t26 -4z" />
    <glyph glyph-name="wgrave" unicode="&#x1e81;" horiz-adv-x="742" 
d="M425 358l-19 106q-4 15 -24 15h-56l2 16q48 15 78 15q32 0 39 -30l84 -443h1l39 84q45 100 69.5 175.5t29 109.5t5.5 74q0 30 24 30q23 0 23 -29q0 -68 -109 -309l-79 -177h-34l-67 330l-149 -330h-34l-92 469q-4 15 -24 15h-56l2 16q48 15 78 15q32 0 39 -30l84 -443h1z
M369 648l106 -88l-7 -10l-127 61q-13 6 -12 21q1 14 14 20t26 -4z" />
    <glyph glyph-name="Wacute" unicode="&#x1e82;" horiz-adv-x="892" 
d="M312 47l222 520l-9 65q-4 25 -26 27l-51 5l3 16h200l-3 -16l-55 -5q-26 -2 -24 -28l60 -584h2l229 586q9 23 -15 26l-57 5l3 16h182l-3 -16l-53 -5q-27 -4 -35 -26l-250 -638h-36l-57 532l-227 -532h-35l-92 637q-4 25 -27 27l-50 5l3 16h200l-3 -16l-55 -5
q-28 -3 -23 -28l81 -584h1zM554 740l131 88q15 9 25.5 4.5t10.5 -15.5q0 -17 -18 -26l-145 -61z" />
    <glyph glyph-name="wacute" unicode="&#x1e83;" horiz-adv-x="742" 
d="M425 358l-19 106q-4 15 -24 15h-56l2 16q48 15 78 15q32 0 39 -30l84 -443h1l39 84q45 100 69.5 175.5t29 109.5t5.5 74q0 30 24 30q23 0 23 -29q0 -68 -109 -309l-79 -177h-34l-67 330l-149 -330h-34l-92 469q-4 15 -24 15h-56l2 16q48 15 78 15q32 0 39 -30l84 -443h1z
M444 560l131 88q15 8 25.5 4t10.5 -15q0 -17 -18 -26l-145 -61z" />
    <glyph glyph-name="Wdieresis" unicode="&#x1e84;" horiz-adv-x="892" 
d="M312 47l222 520l-9 65q-4 25 -26 27l-51 5l3 16h200l-3 -16l-55 -5q-26 -2 -24 -28l60 -584h2l229 586q9 23 -15 26l-57 5l3 16h182l-3 -16l-53 -5q-27 -4 -35 -26l-250 -638h-36l-57 532l-227 -532h-35l-92 637q-4 25 -27 27l-50 5l3 16h200l-3 -16l-55 -5
q-28 -3 -23 -28l81 -584h1zM449 800q0 16 10 26.5t24 10.5q11 0 18.5 -8t7.5 -20q0 -16 -10.5 -26.5t-24.5 -10.5q-11 0 -18 8t-7 20zM619 800q0 16 10 26.5t24 10.5q11 0 18.5 -8t7.5 -20q0 -16 -10.5 -26.5t-24.5 -10.5q-11 0 -18 8t-7 20z" />
    <glyph glyph-name="wdieresis" unicode="&#x1e85;" horiz-adv-x="742" 
d="M425 358l-19 106q-4 15 -24 15h-56l2 16q48 15 78 15q32 0 39 -30l84 -443h1l39 84q45 100 69.5 175.5t29 109.5t5.5 74q0 30 24 30q23 0 23 -29q0 -68 -109 -309l-79 -177h-34l-67 330l-149 -330h-34l-92 469q-4 15 -24 15h-56l2 16q48 15 78 15q32 0 39 -30l84 -443h1z
M343 620q0 16 10 26.5t24 10.5q11 0 18.5 -8t7.5 -20q0 -16 -10.5 -26.5t-24.5 -10.5q-11 0 -18 8t-7 20zM513 620q0 16 10 26.5t24 10.5q11 0 18.5 -8t7.5 -20q0 -16 -10.5 -26.5t-24.5 -10.5q-11 0 -18 8t-7 20z" />
    <glyph glyph-name="Ygrave" unicode="&#x1ef2;" horiz-adv-x="595" 
d="M580 629l-227 -374l-30 -209q-3 -24 14 -25l70 -5l-2 -16h-215l2 16l71 5q17 1 20 25l29 199l-122 384q-10 29 -28 30l-54 5l3 16h200l-3 -16l-53 -5q-12 -1 -17.5 -11t-2.5 -20l111 -348h2l212 349q7 12 3.5 20.5t-14.5 9.5l-56 5l3 16h180l-3 -16l-54 -5
q-21 -1 -39 -30zM324 828l106 -88l-7 -10l-127 61q-13 6 -12 21q1 14 14 20t26 -4z" />
    <glyph glyph-name="ygrave" unicode="&#x1ef3;" horiz-adv-x="502" 
d="M253 -26l-97 490q-4 15 -24 15h-56l2 16q48 15 78 15q32 0 39 -30l84 -443h1l39 84q45 100 69.5 175.5t29 109.5t5.5 74q0 30 24 30q23 0 23 -29q0 -68 -109 -309l-82 -187q-44 -97 -72 -130q-46 -55 -107 -55q-23 0 -41 8.5t-16 24.5q1 12 11.5 16.5t21.5 -1.5
q58 -29 99 0t78 126zM262 648l106 -88l-7 -10l-127 61q-13 6 -12 21q1 14 14 20t26 -4z" />
    <glyph glyph-name="thinspace" unicode="&#x2009;" horiz-adv-x="10" 
 />
    <glyph glyph-name="figuredash" unicode="&#x2012;" horiz-adv-x="552" 
d="M124 276h382l-3 -22h-382z" />
    <glyph glyph-name="endash" unicode="&#x2013;" horiz-adv-x="552" 
d="M124 276h382l-3 -22h-382z" />
    <glyph glyph-name="emdash" unicode="&#x2014;" horiz-adv-x="637" 
d="M124 276h467l-3 -22h-467z" />
    <glyph glyph-name="quoteleft" unicode="&#x2018;" horiz-adv-x="259" 
d="M215 552q30 0 30 -32q0 -17 -11.5 -30t-28.5 -13q-25 0 -35.5 21.5t-10.5 46.5q0 56 34 95.5t74 59.5l5 -13q-33 -18 -57 -46t-24 -59q0 -30 24 -30z" />
    <glyph glyph-name="quoteright" unicode="&#x2019;" horiz-adv-x="259" 
d="M208 625q-14 0 -22 9t-8 23q0 17 12 30t29 13q25 0 35 -21.5t10 -46.5q0 -56 -34 -95.5t-74 -59.5l-5 13q33 18 57 46t24 59q0 30 -24 30z" />
    <glyph glyph-name="quotesinglbase" unicode="&#x201a;" horiz-adv-x="259" 
d="M122 10q-14 0 -22 9t-8 23q0 17 12 30t29 13q25 0 35 -21.5t10 -46.5q0 -56 -34 -95.5t-74 -59.5l-5 13q33 18 57 46t24 59q0 30 -24 30z" />
    <glyph glyph-name="quotedblleft" unicode="&#x201c;" horiz-adv-x="429" 
d="M215 552q30 0 30 -32q0 -17 -11.5 -30t-28.5 -13q-25 0 -35.5 21.5t-10.5 46.5q0 56 34 95.5t74 59.5l5 -13q-33 -18 -57 -46t-24 -59q0 -30 24 -30zM385 552q30 0 30 -32q0 -17 -11.5 -30t-28.5 -13q-25 0 -35.5 21.5t-10.5 46.5q0 56 34 95.5t74 59.5l5 -13
q-33 -18 -57 -46t-24 -59q0 -30 24 -30z" />
    <glyph glyph-name="quotedblright" unicode="&#x201d;" horiz-adv-x="429" 
d="M208 625q-14 0 -22 9t-8 23q0 17 12 30t29 13q25 0 35 -21.5t10 -46.5q0 -56 -34 -95.5t-74 -59.5l-5 13q33 18 57 46t24 59q0 30 -24 30zM378 625q-14 0 -22 9t-8 23q0 17 12 30t29 13q25 0 35 -21.5t10 -46.5q0 -56 -34 -95.5t-74 -59.5l-5 13q33 18 57 46t24 59
q0 30 -24 30z" />
    <glyph glyph-name="quotedblbase" unicode="&#x201e;" horiz-adv-x="429" 
d="M122 10q-14 0 -22 9t-8 23q0 17 12 30t29 13q25 0 35 -21.5t10 -46.5q0 -56 -34 -95.5t-74 -59.5l-5 13q33 18 57 46t24 59q0 30 -24 30zM292 10q-14 0 -22 9t-8 23q0 17 12 30t29 13q25 0 35 -21.5t10 -46.5q0 -56 -34 -95.5t-74 -59.5l-5 13q33 18 57 46t24 59
q0 30 -24 30z" />
    <glyph glyph-name="dagger" unicode="&#x2020;" horiz-adv-x="594" 
d="M368 450h-13l7 205q0 35 32 35q31 0 24 -35zM346 390h13l-43 -455q-2 -35 -33 -35q-29 0 -23 35zM332 428l-2 -15l-177 -24q-27 -4 -27 25q0 20 10.5 29t25.5 7zM381 413l2 15l175 22q28 4 28 -24q0 -20 -10.5 -29.5t-26.5 -7.5z" />
    <glyph glyph-name="daggerdbl" unicode="&#x2021;" horiz-adv-x="594" 
d="M368 450h-14l8 205q2 35 33 35q30 0 23 -35zM332 428l-2 -15l-177 -24q-27 -4 -27 25q0 20 10.5 29t25.5 7zM381 413l2 15l175 22q28 4 28 -24q0 -20 -10.5 -29.5t-26.5 -7.5zM296 40h14l-8 -205q0 -35 -32 -35q-31 0 -24 35zM283 77l-3 -15l-176 -22q-11 -2 -19 4.5
t-8 19.5q0 20 10.5 29.5t25.5 7.5zM331 62l3 15l175 24q28 4 28 -25q0 -20 -10.5 -29t-26.5 -7zM317 105h-11q-6 51 -6 88q0 97 46 192h11q7 -42 7 -89q0 -97 -47 -191z" />
    <glyph glyph-name="bullet" unicode="&#x2022;" horiz-adv-x="337" 
d="M118 232q5 41 33.5 70t63.5 29q31 0 51 -24.5t20 -60.5q0 -46 -30 -79t-69 -33q-35 0 -55 28.5t-14 69.5z" />
    <glyph glyph-name="onedotenleader" unicode="&#x2024;" horiz-adv-x="230" 
d="M86 21q0 16 11.5 28t25.5 12q12 0 20 -9t8 -22q0 -16 -11.5 -28t-26.5 -12q-11 0 -19 9t-8 22z" />
    <glyph glyph-name="twodotenleader" unicode="&#x2025;" horiz-adv-x="400" 
d="M86 21q0 16 11.5 28t25.5 12q12 0 20 -9t8 -22q0 -16 -11.5 -28t-26.5 -12q-11 0 -19 9t-8 22zM256 21q0 16 11.5 28t25.5 12q12 0 20 -9t8 -22q0 -16 -11.5 -28t-26.5 -12q-11 0 -19 9t-8 22z" />
    <glyph glyph-name="ellipsis" unicode="&#x2026;" horiz-adv-x="570" 
d="M86 21q0 16 11.5 28t25.5 12q12 0 20 -9t8 -22q0 -16 -11.5 -28t-26.5 -12q-11 0 -19 9t-8 22zM256 21q0 16 11.5 28t25.5 12q12 0 20 -9t8 -22q0 -16 -11.5 -28t-26.5 -12q-11 0 -19 9t-8 22zM426 21q0 16 11.5 28t25.5 12q12 0 20 -9t8 -22q0 -16 -11.5 -28t-26.5 -12
q-11 0 -19 9t-8 22z" />
    <glyph glyph-name="perthousand" unicode="&#x2030;" horiz-adv-x="1160" 
d="M585 700h20l-279 -720h-21zM296 675q-47 0 -82.5 -46t-35.5 -131q0 -56 22 -84.5t56 -28.5q47 0 82.5 46.5t35.5 130.5q0 56 -22 84.5t-56 28.5zM254 374q-46 0 -72 38t-26 93q0 69 40.5 125t101.5 56q46 0 72 -38.5t26 -93.5q0 -69 -40.5 -124.5t-101.5 -55.5zM659 291
q-48 0 -83 -45.5t-35 -131.5q0 -56 22 -84.5t56 -28.5q46 0 81.5 46.5t35.5 130.5q0 56 -22 84.5t-55 28.5zM617 -10q-47 0 -72.5 38t-25.5 93q0 70 40.5 125.5t101.5 55.5q46 0 72 -38.5t26 -93.5q0 -69 -40.5 -124.5t-101.5 -55.5zM999 291q-48 0 -83 -45.5t-35 -131.5
q0 -56 22 -84.5t56 -28.5q46 0 81.5 46.5t35.5 130.5q0 56 -22 84.5t-55 28.5zM957 -10q-47 0 -72.5 38t-25.5 93q0 70 40.5 125.5t101.5 55.5q46 0 72 -38.5t26 -93.5q0 -69 -40.5 -124.5t-101.5 -55.5z" />
    <glyph glyph-name="guilsinglleft" unicode="&#x2039;" horiz-adv-x="363" 
d="M341 450l-180 -180l130 -180l-13 -15l-156 187l2 16l209 187z" />
    <glyph glyph-name="guilsinglright" unicode="&#x203a;" horiz-adv-x="363" 
d="M277 270l-129 180l12 15l157 -187l-2 -16l-210 -187l-7 15z" />
    <glyph glyph-name="exclamdbl" unicode="&#x203c;" horiz-adv-x="402" 
d="M87 21q0 16 11.5 28t25.5 12q12 0 19.5 -9t7.5 -22q0 -16 -11.5 -28t-25.5 -12q-12 0 -19.5 9t-7.5 22zM144 150h-13l49 505q4 35 33 35t23 -35zM257 21q0 16 11.5 28t25.5 12q12 0 19.5 -9t7.5 -22q0 -16 -11.5 -28t-25.5 -12q-12 0 -19.5 9t-7.5 22zM314 150h-13
l49 505q4 35 33 35t23 -35z" />
    <glyph glyph-name="fraction" unicode="&#x2044;" horiz-adv-x="374" 
d="M364 700h20l-279 -720h-21z" />
    <glyph glyph-name="zerosuperior" unicode="&#x2070;" horiz-adv-x="277" 
d="M257 849q-43 0 -70.5 -62.5t-27.5 -155.5q0 -111 52 -111q44 0 71.5 62.5t27.5 155.5q0 52 -14 81.5t-39 29.5zM258 860q37 0 57 -36.5t20 -96.5q0 -91 -36 -154t-90 -63q-35 0 -55 36t-20 96q0 91 35.5 154.5t88.5 63.5z" />
    <glyph glyph-name="foursuperior" unicode="&#x2074;" horiz-adv-x="292" 
d="M256 539l7 53h-138l2 8l187 257h12l-36 -253h44l-2 -12h-44l-7 -53q-2 -13 7 -13l33 -2l-2 -9h-109l2 9l33 2q9 0 11 13zM294 812l-150 -207v-1h121z" />
    <glyph glyph-name="fivesuperior" unicode="&#x2075;" horiz-adv-x="255" 
d="M173 726l17 -2q110 -10 110 -99q0 -54 -33 -84.5t-78 -30.5q-29 0 -50 9t-21 21q0 9 8 12.5t13 -2.5q24 -30 54 -30q35 0 57.5 31t22.5 71q0 80 -90 90l-24 3l24 140h136l-3 -20h-125z" />
    <glyph glyph-name="sixsuperior" unicode="&#x2076;" horiz-adv-x="264" 
d="M165 692h1q33 32 72 32q31 0 51.5 -22t20.5 -61q0 -57 -31 -94t-75 -37q-38 0 -56 29t-18 76q0 94 49 163t132 87q1 -3 1 -10q-112 -30 -147 -163zM285 637q0 32 -15 52.5t-41 20.5q-36 0 -66 -33q-16 -75 -4.5 -116t46.5 -41q34 0 57 34t23 83z" />
    <glyph glyph-name="sevensuperior" unicode="&#x2077;" horiz-adv-x="259" 
d="M312 834v1h-127q-13 0 -14 -10l-12 -48h-8l11 78h174l-1 -6q-108 -141 -160 -334h-30q58 172 167 319z" />
    <glyph glyph-name="eightsuperior" unicode="&#x2078;" horiz-adv-x="270" 
d="M301 791q0 26 -13 42t-35 16q-27 0 -46 -22.5t-19 -54.5q0 -25 14 -41.5t44 -33.5q55 40 55 94zM286 604q0 26 -16.5 43.5t-53.5 38.5q-31 -16 -48 -43t-17 -56q0 -30 15 -48.5t42 -18.5q35 0 56.5 24t21.5 60zM312 611q0 -48 -32 -74.5t-75 -26.5q-34 0 -57 19.5
t-23 54.5q0 30 21 61t60 47q-43 27 -43 72q0 43 28.5 69.5t65.5 26.5q29 0 48.5 -19.5t19.5 -51.5q0 -59 -70 -98q57 -30 57 -80z" />
    <glyph glyph-name="ninesuperior" unicode="&#x2079;" horiz-adv-x="264" 
d="M290 677q-35 -32 -72 -32q-32 0 -52.5 22.5t-20.5 61.5q0 56 32 93.5t76 37.5q37 0 54.5 -29.5t17.5 -76.5q0 -94 -48.5 -163t-131.5 -86l-2 10q113 28 147 162zM173 750q-5 -41 9 -66t45 -25q35 0 66 34q15 75 4 115.5t-46 40.5q-29 0 -50 -27t-28 -72z" />
    <glyph glyph-name="parenleftsuperior" unicode="&#x207d;" horiz-adv-x="164" 
d="M134 639q0 145 102 256h11q-88 -111 -88 -273q0 -92 29 -147h-11q-43 65 -43 164z" />
    <glyph glyph-name="parenrightsuperior" unicode="&#x207e;" horiz-adv-x="164" 
d="M221 731q0 -147 -100 -256h-12q87 111 87 273q0 89 -28 147h12q41 -64 41 -164z" />
    <glyph glyph-name="nsuperior" unicode="&#x207f;" horiz-adv-x="357" 
d="M235 396l27 194q12 78 -44 78q-39 0 -68 -44t-36 -94l-21 -150h-24l39 277q3 12 -9 12h-42l1 9l78 8l3 -5q-6 -17 -11 -49l-5 -34h1q43 88 108 88q29 0 44.5 -22t9.5 -68l-26 -188q-2 -15 8 -15h42l-1 -10q-7 -1 -19.5 -3.5t-22 -4t-16.5 -1.5q-20 0 -16 22z" />
    <glyph glyph-name="zeroinferior" unicode="&#x2080;" horiz-adv-x="277" 
d="M160 159q-43 0 -70.5 -62.5t-27.5 -155.5q0 -111 52 -111q44 0 71.5 62.5t27.5 155.5q0 52 -14 81.5t-39 29.5zM161 170q37 0 57 -36.5t20 -96.5q0 -91 -36 -154t-90 -63q-35 0 -55 36t-20 96q0 91 35.5 154.5t88.5 63.5z" />
    <glyph glyph-name="oneinferior" unicode="&#x2081;" horiz-adv-x="251" 
d="M161 167l-44 -318q-2 -13 7 -13l62 -2l-2 -9h-167l2 9l62 2q9 0 11 13l39 287q1 5 -1 8t-6 2l-59 -11v10l89 22h7z" />
    <glyph glyph-name="twoinferior" unicode="&#x2082;" horiz-adv-x="268" 
d="M198 -175h-181q1 2 1 8q105 76 142 134.5t37 119.5q0 31 -12.5 51.5t-36.5 20.5q-6 0 -11.5 -0.5t-11 -3t-8.5 -3.5t-8.5 -5t-7 -5.5t-7.5 -6t-7 -5.5q-5 -6 -11 0q-2 -1 -4.5 1t-2.5 6q0 12 25 22.5t55 10.5q38 0 56 -26t18 -61q0 -108 -170 -239h124q11 0 14 10l13 39
h8z" />
    <glyph glyph-name="threeinferior" unicode="&#x2083;" horiz-adv-x="255" 
d="M147 170q31 0 50 -19t19 -49q0 -34 -21 -59.5t-55 -34.5q63 -15 63 -78q0 -52 -33.5 -81t-78.5 -29q-28 0 -49 9t-21 21q0 9 8 12.5t13 -2.5q24 -30 54 -30q35 0 57.5 30t22.5 69q0 31 -16 51t-47 20h-12l2 11h9q32 0 55 25.5t23 63.5q0 57 -50 57q-33 0 -68 -31l-4 9
q35 35 79 35z" />
    <glyph glyph-name="fourinferior" unicode="&#x2084;" horiz-adv-x="292" 
d="M159 -151l7 53h-138l2 8l187 257h12l-36 -253h44l-2 -12h-44l-7 -53q-2 -13 7 -13l33 -2l-2 -9h-109l2 9l33 2q9 0 11 13zM197 122l-150 -207v-1h121z" />
    <glyph glyph-name="fiveinferior" unicode="&#x2085;" horiz-adv-x="255" 
d="M76 36l17 -2q110 -10 110 -99q0 -54 -33 -84.5t-78 -30.5q-29 0 -50 9t-21 21q0 9 8 12.5t13 -2.5q24 -30 54 -30q35 0 57.5 31t22.5 71q0 80 -90 90l-24 3l24 140h136l-3 -20h-125z" />
    <glyph glyph-name="sixinferior" unicode="&#x2086;" horiz-adv-x="263" 
d="M68 2h1q33 32 72 32q31 0 51.5 -22t20.5 -61q0 -57 -31 -94t-75 -37q-38 0 -56 29t-18 76q0 94 49 163t132 87q1 -3 1 -10q-112 -30 -147 -163zM188 -53q0 32 -15 52.5t-41 20.5q-36 0 -66 -33q-16 -75 -4.5 -116t46.5 -41q34 0 57 34t23 83z" />
    <glyph glyph-name="seveninferior" unicode="&#x2087;" horiz-adv-x="259" 
d="M215 144v1h-127q-13 0 -14 -10l-12 -48h-8l11 78h174l-1 -6q-108 -141 -160 -334h-30q58 172 167 319z" />
    <glyph glyph-name="eightinferior" unicode="&#x2088;" horiz-adv-x="271" 
d="M204 101q0 26 -13 42t-35 16q-27 0 -46 -22.5t-19 -54.5q0 -25 14 -41.5t44 -33.5q55 40 55 94zM189 -86q0 26 -16.5 43.5t-53.5 38.5q-31 -16 -48 -43t-17 -56q0 -30 15 -48.5t42 -18.5q35 0 56.5 24t21.5 60zM215 -79q0 -48 -32 -74.5t-75 -26.5q-34 0 -57 19.5
t-23 54.5q0 30 21 61t60 47q-43 27 -43 72q0 43 28.5 69.5t65.5 26.5q29 0 48.5 -19.5t19.5 -51.5q0 -59 -70 -98q57 -30 57 -80z" />
    <glyph glyph-name="nineinferior" unicode="&#x2089;" horiz-adv-x="264" 
d="M193 -13q-35 -32 -72 -32q-32 0 -52.5 22.5t-20.5 61.5q0 56 32 93.5t76 37.5q37 0 54.5 -29.5t17.5 -76.5q0 -94 -48.5 -163t-131.5 -86l-2 10q113 28 147 162zM76 60q-5 -41 9 -66t45 -25q35 0 66 34q15 75 4 115.5t-46 40.5q-29 0 -50 -27t-28 -72z" />
    <glyph glyph-name="parenleftinferior" unicode="&#x208d;" horiz-adv-x="164" 
d="M37 -51q0 145 102 256h11q-88 -111 -88 -273q0 -92 29 -147h-11q-43 65 -43 164z" />
    <glyph glyph-name="parenrightinferior" unicode="&#x208e;" horiz-adv-x="165" 
d="M124 41q0 -147 -100 -256h-12q87 111 87 273q0 89 -28 147h12q41 -64 41 -164z" />
    <glyph glyph-name="colonmonetary" unicode="&#x20a1;" horiz-adv-x="612" 
d="M554 200l19 -4q-39 -112 -103 -159t-138 -47q-100 0 -161 81t-61 210q0 172 98.5 290.5t229.5 118.5q104 0 180 -50l-21 -150h-14q0 56 -10 90l-368 -503q49 -67 130 -67q69 0 128 46t91 144zM154 271q0 -67 15 -117l363 491q-36 26 -96 26q-112 0 -197 -107t-85 -293z
M175 135q9 -23 21 -43l371 506q-8 21 -23 37z" />
    <glyph glyph-name="franc" unicode="&#x20a3;" horiz-adv-x="630" 
d="M73 281h55q0 60 14 118h-52l3 22h55q35 119 121 194t186 75q105 0 181 -50l-21 -150h-15q5 55 -5 92.5t-33 56t-48.5 25.5t-60.5 7q-86 0 -160 -65.5t-105 -184.5h202l-3 -22h-204q-11 -51 -13 -118h200l-3 -22h-197q2 -120 53.5 -184.5t128.5 -64.5q68 0 127.5 46
t92.5 144l18 -4q-38 -112 -102.5 -159t-138.5 -47q-95 0 -155.5 74.5t-65.5 194.5h-58z" />
    <glyph glyph-name="lira" unicode="&#x20a4;" horiz-adv-x="630" 
d="M73 281h55q0 60 14 118h-52l3 22h55q35 119 121 194t186 75q105 0 181 -50l-21 -150h-15q5 55 -5 92.5t-33 56t-48.5 25.5t-60.5 7q-86 0 -160 -65.5t-105 -184.5h202l-3 -22h-204q-11 -51 -13 -118h200l-3 -22h-197q2 -120 53.5 -184.5t128.5 -64.5q68 0 127.5 46
t92.5 144l18 -4q-38 -112 -102.5 -159t-138.5 -47q-95 0 -155.5 74.5t-65.5 194.5h-58z" />
    <glyph glyph-name="peseta" unicode="&#x20a7;" horiz-adv-x="630" 
d="M73 281h55q0 60 14 118h-52l3 22h55q35 119 121 194t186 75q105 0 181 -50l-21 -150h-15q5 55 -5 92.5t-33 56t-48.5 25.5t-60.5 7q-86 0 -160 -65.5t-105 -184.5h202l-3 -22h-204q-11 -51 -13 -118h200l-3 -22h-197q2 -120 53.5 -184.5t128.5 -64.5q68 0 127.5 46
t92.5 144l18 -4q-38 -112 -102.5 -159t-138.5 -47q-95 0 -155.5 74.5t-65.5 194.5h-58z" />
    <glyph glyph-name="Euro" unicode="&#x20ac;" horiz-adv-x="630" 
d="M73 281h55q0 60 14 118h-52l3 22h55q35 119 121 194t186 75q105 0 181 -50l-21 -150h-15q5 55 -5 92.5t-33 56t-48.5 25.5t-60.5 7q-86 0 -160 -65.5t-105 -184.5h202l-3 -22h-204q-11 -51 -13 -118h200l-3 -22h-197q2 -120 53.5 -184.5t128.5 -64.5q68 0 127.5 46
t92.5 144l18 -4q-38 -112 -102.5 -159t-138.5 -47q-95 0 -155.5 74.5t-65.5 194.5h-58z" />
    <glyph glyph-name="litre" unicode="&#x2113;" horiz-adv-x="381" 
d="M56 156l-8 11l94 99l34 243q13 100 55 151q44 50 92 50q38 0 56.5 -27t11.5 -72q-6 -47 -42 -112q-37 -66 -134 -176l-24 -168q-10 -74 4 -106q16 -29 47 -29t59 29q31 28 61 103h15q-30 -82 -76 -127q-35 -35 -81 -35q-37 0 -62 24.5t-32 65.5q-5 35 5 107l7 52z
M246 543l-27 -193q135 156 148 242q6 41 -7.5 65t-37.5 24t-45 -28q-19 -28 -31 -110z" />
    <glyph glyph-name="afii61352" unicode="&#x2116;" horiz-adv-x="895" 
d="M842 675q-49 0 -82 -46t-33 -133q0 -56 20.5 -83.5t53.5 -27.5q46 0 80.5 47t34.5 132q0 56 -20.5 83.5t-53.5 27.5zM800 374q-47 0 -72 37.5t-25 92.5q0 70 39.5 126t100.5 56q46 0 71 -37.5t25 -92.5q0 -70 -39.5 -126t-99.5 -56zM676 316h231l-3 -16h-231zM498 -5
l-271 639l-82 -588q-4 -24 14 -25l65 -5l-2 -16h-190l2 16l68 5q18 1 21 25l82 588q3 24 -14 25l-66 5l3 16h129l250 -594l77 548q3 24 -14 25l-67 5l3 16h187l-3 -16l-64 -5q-18 -1 -21 -25l-90 -639h-17z" />
    <glyph glyph-name="trademark" unicode="&#x2122;" horiz-adv-x="630" 
d="M624 655l-136 -284h-4l-59 284l-36 -261q-2 -11 6 -11l31 -2l-1 -7h-85l1 7l29 2q8 0 10 11l36 265q1 10 -6 11l-29 3l2 7h57l56 -271l131 271h59l-2 -7l-32 -3q-9 -1 -10 -11l-36 -265q-2 -11 6 -11l32 -2l-1 -7h-97l1 7l32 2q7 0 9 11zM228 670h-67q-10 0 -13 -9
l-16 -49h-6l10 68h207l-10 -68h-6l-3 49q0 9 -9 9h-69l-38 -276q-2 -11 6 -11l32 -2l-1 -7h-97l1 7l32 2q7 0 9 11z" />
    <glyph glyph-name="Omega" unicode="&#x2126;" horiz-adv-x="629" 
d="M260 0h-185l4 150h14l17 -108q3 -20 22 -20h109l14 94q-72 24 -112.5 85.5t-40.5 152.5q0 151 86 243.5t223 92.5q106 0 167 -64.5t61 -177.5q0 -127 -64 -213.5t-169 -118.5l-13 -94h109q19 0 28 20l47 108h15l-38 -150h-186l18 128q93 24 153 111.5t60 206.5
q0 105 -52 165t-139 60q-113 0 -190 -87t-77 -230q0 -86 37 -147t100 -79z" />
    <glyph glyph-name="estimated" unicode="&#x212e;" horiz-adv-x="625" 
d="M649 349h-449l-33 -235q58 -78 151 -78q139 0 236 157l36 -26q-71 -96 -132 -136.5t-146 -40.5q-112 0 -177.5 84.5t-65.5 216.5q0 175 100 297t244 122q121 0 188 -94.5t48 -266.5zM207 397h323l26 189q-57 77 -151 77q-93 0 -172 -77z" />
    <glyph glyph-name="onethird" unicode="&#x2153;" horiz-adv-x="681" 
d="M531 700h18l-281 -720h-18zM596 345q31 0 50 -19t19 -49q0 -34 -21 -59.5t-55 -34.5q62 -15 62 -78q0 -52 -33 -81t-78 -29q-28 0 -49 9t-21 21q0 9 8 12.5t12 -2.5q24 -30 54 -30q36 0 58.5 29.5t22.5 69.5q0 30 -16 50.5t-47 20.5h-12l2 11h9q32 0 55 25.5t23 63.5
q0 57 -51 57q-32 0 -67 -31l-4 9q35 35 79 35zM234 682l-44 -318q-2 -13 7 -13l62 -2l-2 -9h-167l2 9l62 2q9 0 11 13l39 287q1 5 -1 8t-6 2l-59 -11v10l89 22h7z" />
    <glyph glyph-name="twothirds" unicode="&#x2154;" horiz-adv-x="681" 
d="M533 700h18l-280 -720h-18zM596 345q31 0 50 -19.5t19 -48.5q0 -34 -21 -59.5t-55 -34.5q62 -15 62 -78q0 -52 -33 -81t-78 -29q-28 0 -49 9t-21 21q0 9 8 12.5t12 -2.5q24 -30 54 -30q36 0 58.5 29.5t22.5 69.5q0 30 -16 50.5t-47 20.5h-12l2 11h9q32 0 55 25.5t23 63.5
q0 57 -51 57q-32 0 -67 -31l-4 9q35 35 79 35zM271 340h-181q1 2 1 8q105 76 142 134.5t37 119.5q0 31 -12.5 51.5t-36.5 20.5q-6 0 -11.5 -0.5t-11 -3t-8.5 -3.5t-8.5 -5t-7 -5.5t-7.5 -6t-7 -5.5q-6 -5 -11 0q-2 -1 -4.5 1t-2.5 6q0 12 25 22.5t55 10.5q38 0 56 -26
t18 -61q0 -108 -170 -239h124q11 0 14 10l13 39h8z" />
    <glyph glyph-name="oneeighth" unicode="&#x215b;" horiz-adv-x="680" 
d="M531 700h18l-281 -720h-18zM638 276q0 26 -13 42t-34 16q-27 0 -46 -22.5t-19 -54.5q0 -25 13.5 -41.5t44.5 -33.5q54 40 54 94zM623 89q0 26 -16.5 43.5t-53.5 38.5q-31 -16 -48 -43t-17 -56q0 -30 15.5 -48.5t41.5 -18.5q35 0 56.5 24t21.5 60zM650 96
q0 -48 -32.5 -74.5t-74.5 -26.5q-34 0 -57.5 19.5t-23.5 54.5q0 30 21.5 61t59.5 47q-42 27 -42 72q0 44 28 70t66 26q29 0 48 -19.5t19 -51.5q0 -59 -69 -98q57 -30 57 -80zM234 682l-44 -318q-2 -13 7 -13l62 -2l-2 -9h-167l2 9l62 2q9 0 11 13l39 287q1 5 -1 8t-6 2
l-59 -11v10l89 22h7z" />
    <glyph glyph-name="threeeighths" unicode="&#x215c;" horiz-adv-x="680" 
d="M517 700h19l-280 -720h-18zM638 276q0 26 -13 42t-34 16q-28 0 -47 -22.5t-19 -54.5q0 -25 14 -41.5t44 -33.5q55 40 55 94zM623 89q0 26 -16.5 43.5t-53.5 38.5q-31 -16 -48.5 -43t-17.5 -56q0 -30 15.5 -48.5t42.5 -18.5q35 0 56.5 24t21.5 60zM649 96q0 -48 -32 -74.5
t-75 -26.5q-34 0 -57 19.5t-23 54.5q0 30 21 61t60 47q-43 27 -43 72q0 43 28.5 69.5t65.5 26.5q29 0 48.5 -19.5t19.5 -51.5q0 -59 -70 -98q57 -30 57 -80zM219 685q31 0 50 -19t19 -49q0 -34 -21 -59.5t-55 -34.5q63 -15 63 -78q0 -52 -33.5 -81t-78.5 -29q-28 0 -49 9
t-21 21q0 9 8 12t13 -2q24 -30 54 -30q35 0 57.5 30t22.5 69q0 31 -16 51t-47 20h-12l2 11h9q32 0 55 25.5t23 63.5q0 57 -50 57q-33 0 -68 -31l-4 9q35 35 79 35z" />
    <glyph glyph-name="fiveeighths" unicode="&#x215d;" horiz-adv-x="680" 
d="M512 700h19l-280 -720h-18zM638 276q0 26 -13 42t-34 16q-28 0 -47 -22.5t-19 -54.5q0 -25 14 -41.5t44 -33.5q55 40 55 94zM623 89q0 26 -16.5 43.5t-53.5 38.5q-31 -16 -48.5 -43t-17.5 -56q0 -30 15.5 -48.5t42.5 -18.5q35 0 56.5 24t21.5 60zM649 96q0 -48 -32 -74.5
t-75 -26.5q-34 0 -57 19.5t-23 54.5q0 30 21 61t60 47q-43 27 -43 72q0 43 28.5 69.5t65.5 26.5q29 0 48.5 -19.5t19.5 -51.5q0 -59 -70 -98q57 -30 57 -80zM166 660l-18 -109q69 -10 98 -34t29 -65q0 -55 -33 -86t-78 -31q-28 0 -49.5 9t-21.5 21q0 9 8 12t13 -2
q19 -26 46 -27q36 -7 62.5 25.5t26.5 74.5q0 86 -115 92l24 140h136l-3 -20h-125z" />
    <glyph glyph-name="seveneighths" unicode="&#x215e;" horiz-adv-x="680" 
d="M650 96q0 -48 -32.5 -74.5t-74.5 -26.5q-34 0 -57.5 19.5t-23.5 54.5q0 30 21.5 61t59.5 47q-42 27 -42 72q0 44 28 70t66 26q29 0 48 -19.5t19 -51.5q0 -59 -69 -98q57 -30 57 -80zM623 89q0 26 -16.5 43.5t-53.5 38.5q-31 -16 -48 -43t-17 -56q0 -30 15.5 -48.5
t41.5 -18.5q35 0 56.5 24t21.5 60zM491 700h18l-281 -720h-18zM638 276q0 26 -13 42t-34 16q-27 0 -46 -22.5t-19 -54.5q0 -25 13.5 -41.5t44.5 -33.5q54 40 54 94zM288 659v1h-127q-13 0 -14 -10l-12 -48h-8l11 78h174l-1 -6q-108 -141 -160 -334h-30q58 172 167 319z" />
    <glyph glyph-name="partialdiff" unicode="&#x2202;" horiz-adv-x="457" 
d="M112 210q-25 -89 -4 -145t83 -56q75 0 134.5 80t94.5 234q-16 33 -47 52t-66 19q-65 0 -118 -51.5t-77 -132.5zM426 349l3 1q10 82 6 138.5t-29.5 96t-57 61.5t-76.5 36l9 18q126 -31 168.5 -148t-7.5 -285q-36 -123 -101 -200t-155 -77q-78 0 -109 63t0 167
q26 92 92.5 145t135.5 53q76 0 121 -69z" />
    <glyph glyph-name="Delta" unicode="&#x2206;" horiz-adv-x="566" 
d="M394 710l121 -710h-464zM83 22h387l-100 594z" />
    <glyph glyph-name="product" unicode="&#x220f;" horiz-adv-x="663" 
d="M133 680h589l-3 -16l-71 -5q-18 -1 -21 -25l-110 -788q-4 -24 13 -25l70 -5l-2 -16h-215l2 16l72 5q18 1 21 25l113 812h-334l-113 -812q-4 -24 13 -25l70 -5l-2 -16h-216l2 16l72 5q18 1 21 25l110 788q3 24 -13 25l-71 5z" />
    <glyph glyph-name="summation" unicode="&#x2211;" horiz-adv-x="494" 
d="M273 350l-142 323l2 7h413l-22 -150h-15l-3 108q0 20 -23 20h-299l134 -308l-236 -328h317q20 0 29 20l47 108h15l-38 -150h-427l1 7z" />
    <glyph glyph-name="minus" unicode="&#x2212;" horiz-adv-x="467" 
d="M124 276h297l-3 -22h-297z" />
    <glyph glyph-name="uni2215" unicode="&#x2215;" horiz-adv-x="374" 
d="M364 700h20l-279 -720h-21z" />
    <glyph glyph-name="uni2219" unicode="&#x2219;" horiz-adv-x="227" 
d="M121 260q0 16 10.5 26.5t24.5 10.5q11 0 18 -8t7 -20q0 -15 -10.5 -26t-23.5 -11q-12 0 -19 8t-7 20z" />
    <glyph glyph-name="radical" unicode="&#x221a;" horiz-adv-x="667" 
d="M693 680h19l-342 -680h-25l-83 401h-154l3 19h187l75 -376z" />
    <glyph glyph-name="infinity" unicode="&#x221e;" horiz-adv-x="898" 
d="M710 85q-71 0 -132.5 46.5t-97.5 99.5q-50 -53 -124.5 -99.5t-144.5 -46.5q-59 0 -93.5 38.5t-34.5 98.5q0 77 49 130t124 53q48 0 98 -28t79.5 -58.5t51.5 -62.5q53 55 126.5 102t143.5 47q60 0 94 -38.5t34 -98.5q0 -77 -49 -130t-124 -53zM470 243q-21 30 -47 58
t-73.5 56t-94.5 28q-68 0 -109.5 -46.5t-41.5 -114.5q0 -52 29 -85.5t82 -33.5q68 0 137 44t118 94zM494 244q20 -29 47 -57t75 -55t95 -27q68 0 109.5 47t41.5 114q0 52 -29 85.5t-82 33.5q-68 0 -137.5 -45t-119.5 -96z" />
    <glyph glyph-name="integral" unicode="&#x222b;" horiz-adv-x="427" 
d="M324 580l-180 -616q-20 -70 -67.5 -117t-117.5 -47q-23 0 -40 8.5t-12 24.5q5 18 22 18q14 0 35 -12.5t35 -12.5q32 -1 56.5 25t39.5 79l179 616q21 70 69 117t117 47q23 0 39.5 -8.5t12.5 -24.5q-7 -18 -23 -18q-14 0 -34.5 12.5t-34.5 12.5q-32 1 -56.5 -25t-39.5 -79z
" />
    <glyph glyph-name="approxequal" unicode="&#x2248;" horiz-adv-x="444" 
d="M137 284l-12 6q13 24 19.5 35t19.5 30t27 27t29 8q19 0 60.5 -28.5t58.5 -28.5q29 0 61 54l12 -7q-16 -30 -23 -42.5t-22.5 -26.5t-32.5 -14q-24 0 -65 28.5t-56 28.5q-5 0 -9.5 -0.5t-9 -3t-7.5 -4t-7.5 -6l-7.5 -7.5t-8 -10t-7.5 -11t-9 -13.5t-10.5 -14.5zM119 154
l-12 6q13 24 19.5 35t19.5 30t27 27t29 8q19 0 60.5 -28.5t58.5 -28.5q27 0 61 54l12 -7q-15 -28 -23 -41.5t-23.5 -27.5t-32.5 -14q-23 0 -64 28.5t-56 28.5q-14 0 -26 -8t-18.5 -16.5t-24.5 -35.5q-2 -2 -2.5 -3t-2 -3t-2.5 -4z" />
    <glyph glyph-name="notequal" unicode="&#x2260;" horiz-adv-x="467" 
d="M134 346h164l101 234h20l-101 -234h113l-3 -22h-119l-51 -118h153l-3 -22h-159l-96 -224h-20l96 224h-118l3 22h124l51 118h-158z" />
    <glyph glyph-name="lessequal" unicode="&#x2264;" horiz-adv-x="468" 
d="M95 70h297l-3 -22h-297zM405 460l-233 -170l185 -170l-3 -25l-212 190l2 10l265 190z" />
    <glyph glyph-name="greaterequal" unicode="&#x2265;" horiz-adv-x="468" 
d="M95 70h297l-3 -22h-297zM376 290l-184 170l4 25l211 -190l-2 -10l-264 -190l3 25z" />
    <glyph glyph-name="lozenge" unicode="&#x25ca;" horiz-adv-x="520" 
d="M249 -10l-116 354l215 346h18l117 -346l-216 -354h-18zM156 344l106 -328l197 328l-106 320z" />
    <glyph glyph-name="Abreve.small" unicode="&#xf66d;" horiz-adv-x="525" 
d="M374 193h-197l-65 -152q-8 -19 10 -22l50 -5l-2 -14h-155l2 14l45 5q21 4 29 21l218 508h38l100 -509q4 -18 22 -20l43 -5l-2 -14h-174l2 14l47 5q21 2 18 22zM185 211h185l-58 295h-1zM340 600q-53 0 -71.5 43.5t-9.5 106.5h14q-2 -49 15.5 -79.5t57.5 -30.5
q39 0 65.5 30.5t37.5 79.5h14q-9 -62 -39.5 -106t-83.5 -44z" />
    <glyph glyph-name="Amacron.small" unicode="&#xf66e;" horiz-adv-x="525" 
d="M374 193h-197l-65 -152q-8 -19 10 -22l50 -5l-2 -14h-155l2 14l45 5q21 4 29 21l218 508h38l100 -509q4 -18 22 -20l43 -5l-2 -14h-174l2 14l47 5q21 2 18 22zM185 211h185l-58 295h-1zM226 656h229l-3 -22h-229z" />
    <glyph glyph-name="AEacute.small" unicode="&#xf670;" horiz-adv-x="695" 
d="M436 267l-34 -249h207q15 0 24 16l41 88h13l-31 -122h-370l2 14l60 5q15 1 17 20l22 154h-173l-102 -152q-6 -9 -2.5 -15t13.5 -7l49 -5l-2 -14h-155l2 14l45 5q16 3 29 21l333 504h300l-17 -122h-13l-5 87q-1 16 -20 16h-196l-34 -240h117q19 0 24 16l20 68h13l-26 -186
h-13l-1 68q0 16 -19 16h-118zM227 212h163l44 313h-1zM461 600l131 88q15 9 25.5 4.5t10.5 -15.5q0 -17 -18 -26l-145 -61z" />
    <glyph glyph-name="Cacute.small" unicode="&#xf671;" horiz-adv-x="484" 
d="M464 162l17 -4q-59 -166 -205 -166q-86 0 -139 65.5t-53 169.5q0 137 83 231t194 94q87 0 155 -41l-18 -121h-13q4 84 -30 114.5t-95 30.5q-94 0 -163.5 -84t-69.5 -231q0 -101 43 -155.5t110 -54.5q57 0 107 37t77 115zM347 600l131 88q15 9 25.5 4.5t10.5 -15.5
q0 -17 -18 -26l-145 -61z" />
    <glyph glyph-name="Ccaron.small" unicode="&#xf672;" horiz-adv-x="484" 
d="M464 162l17 -4q-59 -166 -205 -166q-86 0 -139 65.5t-53 169.5q0 137 83 231t194 94q87 0 155 -41l-18 -121h-13q4 84 -30 114.5t-95 30.5q-94 0 -163.5 -84t-69.5 -231q0 -101 43 -155.5t110 -54.5q57 0 107 37t77 115zM291 750l83 -115l114 115h17l-134 -160h-7
l-90 160h17z" />
    <glyph glyph-name="Ccircumflex.small" unicode="&#xf673;" horiz-adv-x="484" 
d="M464 162l17 -4q-59 -166 -205 -166q-86 0 -139 65.5t-53 169.5q0 137 83 231t194 94q87 0 155 -41l-18 -121h-13q4 84 -30 114.5t-95 30.5q-94 0 -163.5 -84t-69.5 -231q0 -101 43 -155.5t110 -54.5q57 0 107 37t77 115zM378 705l-115 -115h-17l134 160h7l90 -160h-17z
" />
    <glyph glyph-name="Cdotaccent.small" unicode="&#xf674;" horiz-adv-x="484" 
d="M464 162l17 -4q-59 -166 -205 -166q-86 0 -139 65.5t-53 169.5q0 137 83 231t194 94q87 0 155 -41l-18 -121h-13q4 84 -30 114.5t-95 30.5q-94 0 -163.5 -84t-69.5 -231q0 -101 43 -155.5t110 -54.5q57 0 107 37t77 115zM339 660q0 16 10.5 26.5t24.5 10.5q11 0 18 -8
t7 -20q0 -15 -10.5 -26t-23.5 -11q-12 0 -19 8t-7 20z" />
    <glyph glyph-name="Dcaron.small" unicode="&#xf675;" horiz-adv-x="553" 
d="M153 18h102q77 0 135.5 46t86 113t27.5 140q0 93 -46.5 150.5t-138.5 57.5h-95zM254 0h-217l2 14l60 5q15 1 17 20l66 466q3 19 -12 20l-59 5l2 14h217q103 0 159 -59.5t56 -165.5q0 -140 -80 -229.5t-211 -89.5zM264 750l83 -115l114 115h17l-134 -160h-7l-90 160h17z
" />
    <glyph glyph-name="Ebreve.small" unicode="&#xf677;" horiz-adv-x="446" 
d="M224 525l-34 -240h117q21 0 25 16l19 68h14l-26 -186h-14v68q0 16 -20 16h-118l-34 -249h207q15 0 24 16l40 88h14l-32 -122h-369l2 14l60 5q15 1 17 20l66 466q3 19 -12 20l-59 5l2 14h362l-17 -122h-13l-5 87q-1 16 -20 16h-196zM320 600q-53 0 -71.5 43.5t-9.5 106.5
h14q-2 -49 15.5 -79.5t57.5 -30.5q39 0 65.5 30.5t37.5 79.5h14q-9 -62 -39.5 -106t-83.5 -44z" />
    <glyph glyph-name="Ecaron.small" unicode="&#xf678;" horiz-adv-x="446" 
d="M224 525l-34 -240h117q21 0 25 16l19 68h14l-26 -186h-14v68q0 16 -20 16h-118l-34 -249h207q15 0 24 16l40 88h14l-32 -122h-369l2 14l60 5q15 1 17 20l66 466q3 19 -12 20l-59 5l2 14h362l-17 -122h-13l-5 87q-1 16 -20 16h-196zM245 750l83 -115l114 115h17l-134 -160
h-7l-90 160h17z" />
    <glyph glyph-name="Edotaccent.small" unicode="&#xf679;" horiz-adv-x="446" 
d="M224 525l-34 -240h117q21 0 25 16l19 68h14l-26 -186h-14v68q0 16 -20 16h-118l-34 -249h207q15 0 24 16l40 88h14l-32 -122h-369l2 14l60 5q15 1 17 20l66 466q3 19 -12 20l-59 5l2 14h362l-17 -122h-13l-5 87q-1 16 -20 16h-196zM310 660q0 16 10.5 26.5t24.5 10.5
q11 0 18 -8t7 -20q0 -15 -10.5 -26t-23.5 -11q-12 0 -19 8t-7 20z" />
    <glyph glyph-name="Emacron.small" unicode="&#xf67a;" horiz-adv-x="446" 
d="M224 525l-34 -240h117q21 0 25 16l19 68h14l-26 -186h-14v68q0 16 -20 16h-118l-34 -249h207q15 0 24 16l40 88h14l-32 -122h-369l2 14l60 5q15 1 17 20l66 466q3 19 -12 20l-59 5l2 14h362l-17 -122h-13l-5 87q-1 16 -20 16h-196zM201 656h229l-3 -22h-229z" />
    <glyph glyph-name="Gbreve.small" unicode="&#xf67d;" horiz-adv-x="534" 
d="M85 230q0 135 83 228.5t194 93.5q88 0 154 -41l-17 -121h-13q4 84 -30 114.5t-95 30.5q-95 0 -164 -84t-69 -230q0 -101 45 -156.5t113 -55.5q74 0 134 38l22 156q2 19 -12 20l-58 4l2 14h169l-2 -14l-42 -4q-15 -1 -18 -20l-29 -203h-10l-19 28q-67 -36 -141 -36
q-87 0 -142 67t-55 171zM368 600q-53 0 -71.5 43.5t-9.5 106.5h14q-2 -49 15.5 -79.5t57.5 -30.5q39 0 65.5 30.5t37.5 79.5h14q-9 -62 -39.5 -106t-83.5 -44z" />
    <glyph glyph-name="Gcircumflex.small" unicode="&#xf67e;" horiz-adv-x="534" 
d="M85 230q0 135 83 228.5t194 93.5q88 0 154 -41l-17 -121h-13q4 84 -30 114.5t-95 30.5q-95 0 -164 -84t-69 -230q0 -101 45 -156.5t113 -55.5q74 0 134 38l22 156q2 19 -12 20l-58 4l2 14h169l-2 -14l-42 -4q-15 -1 -18 -20l-29 -203h-10l-19 28q-67 -36 -141 -36
q-87 0 -142 67t-55 171zM376 705l-115 -115h-17l134 160h7l90 -160h-17z" />
    <glyph glyph-name="Gcommaaccent.small" unicode="&#xf67f;" horiz-adv-x="534" 
d="M85 230q0 135 83 228.5t194 93.5q88 0 154 -41l-17 -121h-13q4 84 -30 114.5t-95 30.5q-95 0 -164 -84t-69 -230q0 -101 45 -156.5t113 -55.5q74 0 134 38l22 156q2 19 -12 20l-58 4l2 14h169l-2 -14l-42 -4q-15 -1 -18 -20l-29 -203h-10l-19 28q-67 -36 -141 -36
q-87 0 -142 67t-55 171zM253 -110q-14 0 -22 9t-8 23q0 17 12 30t29 13q25 0 35 -21.5t10 -46.5q0 -56 -34 -95.5t-74 -59.5l-5 13q33 18 57 46t24 59q0 30 -24 30z" />
    <glyph glyph-name="Gdotaccent.small" unicode="&#xf680;" horiz-adv-x="534" 
d="M85 230q0 135 83 228.5t194 93.5q88 0 154 -41l-17 -121h-13q4 84 -30 114.5t-95 30.5q-95 0 -164 -84t-69 -230q0 -101 45 -156.5t113 -55.5q74 0 134 38l22 156q2 19 -12 20l-58 4l2 14h169l-2 -14l-42 -4q-15 -1 -18 -20l-29 -203h-10l-19 28q-67 -36 -141 -36
q-87 0 -142 67t-55 171zM342 660q0 16 10.5 26.5t24.5 10.5q11 0 18 -8t7 -20q0 -15 -10.5 -26t-23.5 -11q-12 0 -19 8t-7 20z" />
    <glyph glyph-name="Hcircumflex.small" unicode="&#xf682;" horiz-adv-x="579" 
d="M187 267l-32 -228q-1 -19 13 -20l58 -5l-2 -14h-187l2 14l60 5q15 1 17 20l66 466q3 19 -12 20l-59 5l2 14h187l-2 -14l-59 -5q-15 -1 -18 -20l-31 -220h279l31 220q3 19 -12 20l-59 5l2 14h186l-2 -14l-59 -5q-14 -1 -17 -20l-66 -466q-1 -19 12 -20l58 -5l-2 -14h-186
l2 14l60 5q15 1 17 20l32 228h-279zM388 705l-115 -115h-17l134 160h7l90 -160h-17z" />
    <glyph glyph-name="Ibreve.small" unicode="&#xf683;" horiz-adv-x="262" 
d="M221 505l-66 -466q-1 -19 13 -20l58 -5l-2 -14h-187l2 14l60 5q15 1 17 20l66 466q3 19 -12 20l-59 5l2 14h187l-2 -14l-59 -5q-15 -1 -18 -20zM215 600q-53 0 -71.5 43.5t-9.5 106.5h14q-2 -49 15.5 -79.5t57.5 -30.5q39 0 65.5 30.5t37.5 79.5h14q-9 -62 -39.5 -106
t-83.5 -44z" />
    <glyph glyph-name="Imacron.small" unicode="&#xf685;" horiz-adv-x="262" 
d="M221 505l-66 -466q-1 -19 13 -20l58 -5l-2 -14h-187l2 14l60 5q15 1 17 20l66 466q3 19 -12 20l-59 5l2 14h187l-2 -14l-59 -5q-15 -1 -18 -20zM108 656h229l-3 -22h-229z" />
    <glyph glyph-name="Itilde.small" unicode="&#xf687;" horiz-adv-x="262" 
d="M221 505l-66 -466q-1 -19 13 -20l58 -5l-2 -14h-187l2 14l60 5q15 1 17 20l66 466q3 19 -12 20l-59 5l2 14h187l-2 -14l-59 -5q-15 -1 -18 -20zM92 614l-12 6q37 67 59 85q18 15 37 15t60 -28.5t58 -28.5q28 0 62 54l11 -7q-14 -27 -22.5 -41.5t-24 -28t-32.5 -13.5
q-22 0 -63.5 28.5t-56.5 28.5q-27 0 -67 -58q-2 -2 -3 -3.5t-3 -4t-3 -4.5z" />
    <glyph glyph-name="Jcircumflex.small" unicode="&#xf688;" horiz-adv-x="245" 
d="M213 505l-68 -486q-20 -139 -129 -179l-5 13q46 22 65 58.5t26 88.5l71 505q2 19 -12 20l-58 5l2 14h187l-2 -14l-61 -5q-15 -1 -16 -20zM222 705l-115 -115h-17l134 160h7l90 -160h-17z" />
    <glyph glyph-name="Kcommaaccent.small" unicode="&#xf689;" horiz-adv-x="543" 
d="M251 296l-68 -63l-28 -194q-1 -19 13 -20l58 -5l-2 -14h-187l2 14l60 5q15 1 17 20l66 466q3 19 -12 20l-59 5l2 14h187l-2 -14l-59 -5q-15 -1 -18 -20l-34 -243l260 237q6 5 8 11t0 10.5t-9 4.5l-53 5l2 14h176l-2 -14l-39 -4q-32 -4 -61 -30l-186 -169l156 -284
q12 -23 44 -25l45 -4l-2 -14h-200l2 14l44 4q12 1 16.5 9t-0.5 16zM242 -110q-14 0 -22 9t-8 23q0 17 12 30t29 13q25 0 35 -21.5t10 -46.5q0 -56 -34 -95.5t-74 -59.5l-5 13q33 18 57 46t24 59q0 30 -24 30z" />
    <glyph glyph-name="Lacute.small" unicode="&#xf68a;" horiz-adv-x="429" 
d="M221 505l-68 -487h200q15 0 24 16l40 88h14l-32 -122h-362l2 14l60 5q15 1 17 20l66 466q3 19 -12 20l-59 5l2 14h187l-2 -14l-59 -5q-15 -1 -18 -20zM211 600l131 88q15 9 25.5 4.5t10.5 -15.5q0 -17 -18 -26l-145 -61z" />
    <glyph glyph-name="Lcaron.small" unicode="&#xf68b;" horiz-adv-x="429" 
d="M221 505l-68 -487h200q15 0 24 16l40 88h14l-32 -122h-362l2 14l60 5q15 1 17 20l66 466q3 19 -12 20l-59 5l2 14h187l-2 -14l-59 -5q-15 -1 -18 -20zM376 475q-14 0 -22 9t-8 23q0 17 12 30t29 13q25 0 35 -21.5t10 -46.5q0 -56 -34 -95.5t-74 -59.5l-5 13q33 18 57 46
t24 59q0 30 -24 30z" />
    <glyph glyph-name="Lcommaaccent.small" unicode="&#xf68c;" horiz-adv-x="429" 
d="M221 505l-68 -487h200q15 0 24 16l40 88h14l-32 -122h-362l2 14l60 5q15 1 17 20l66 466q3 19 -12 20l-59 5l2 14h187l-2 -14l-59 -5q-15 -1 -18 -20zM208 -110q-14 0 -22 9t-8 23q0 17 12 30t29 13q25 0 35 -21.5t10 -46.5q0 -56 -34 -95.5t-74 -59.5l-5 13q33 18 57 46
t24 59q0 30 -24 30z" />
    <glyph glyph-name="Ldot.small" unicode="&#xf68d;" horiz-adv-x="429" 
d="M221 505l-68 -487h200q15 0 24 16l40 88h14l-32 -122h-362l2 14l60 5q15 1 17 20l66 466q3 19 -12 20l-59 5l2 14h187l-2 -14l-59 -5q-15 -1 -18 -20zM272 280q0 16 10.5 26.5t24.5 10.5q11 0 18 -8t7 -20q0 -15 -10.5 -26t-23.5 -11q-12 0 -19 8t-7 20z" />
    <glyph glyph-name="Nacute.small" unicode="&#xf68e;" horiz-adv-x="541" 
d="M428 -4l-234 508l-65 -464q-3 -20 11 -21l57 -5l-2 -14h-163l2 14l56 5q15 1 19 21l65 465q3 19 -11 20l-57 5l2 14h115l214 -462l59 422q2 20 -12 21l-56 5l1 14h163l-2 -14l-56 -5q-16 -1 -18 -21l-72 -508h-16zM339 600l131 88q15 9 25.5 4.5t10.5 -15.5
q0 -17 -18 -26l-145 -61z" />
    <glyph glyph-name="Ncaron.small" unicode="&#xf68f;" horiz-adv-x="541" 
d="M428 -4l-234 508l-65 -464q-3 -20 11 -21l57 -5l-2 -14h-163l2 14l56 5q15 1 19 21l65 465q3 19 -11 20l-57 5l2 14h115l214 -462l59 422q2 20 -12 21l-56 5l1 14h163l-2 -14l-56 -5q-16 -1 -18 -21l-72 -508h-16zM283 750l83 -115l114 115h17l-134 -160h-7l-90 160h17z
" />
    <glyph glyph-name="Ncommaaccent.small" unicode="&#xf690;" horiz-adv-x="541" 
d="M428 -4l-234 508l-65 -464q-3 -20 11 -21l57 -5l-2 -14h-163l2 14l56 5q15 1 19 21l65 465q3 19 -11 20l-57 5l2 14h115l214 -462l59 422q2 20 -12 21l-56 5l1 14h163l-2 -14l-56 -5q-16 -1 -18 -21l-72 -508h-16zM247 -110q-14 0 -22 9t-8 23q0 17 12 30t29 13
q25 0 35 -21.5t10 -46.5q0 -56 -34 -95.5t-74 -59.5l-5 13q33 18 57 46t24 59q0 30 -24 30z" />
    <glyph glyph-name="Obreve.small" unicode="&#xf691;" horiz-adv-x="582" 
d="M85 230q0 136 84.5 229t199.5 93q91 0 148 -66.5t57 -171.5q0 -137 -83.5 -229.5t-200.5 -92.5q-91 0 -148 66.5t-57 171.5zM128 226q0 -100 47 -158.5t118 -58.5q93 0 166 86t73 222q0 100 -47 159t-118 59q-93 0 -166 -86t-73 -223zM375 600q-53 0 -71.5 43.5
t-9.5 106.5h14q-2 -49 15.5 -79.5t57.5 -30.5q39 0 65.5 30.5t37.5 79.5h14q-9 -62 -39.5 -106t-83.5 -44z" />
    <glyph glyph-name="Ohungarumlaut.small" unicode="&#xf692;" horiz-adv-x="582" 
d="M85 230q0 136 84.5 229t199.5 93q91 0 148 -66.5t57 -171.5q0 -137 -83.5 -229.5t-200.5 -92.5q-91 0 -148 66.5t-57 171.5zM128 226q0 -100 47 -158.5t118 -58.5q93 0 166 86t73 222q0 100 -47 159t-118 59q-93 0 -166 -86t-73 -223zM259 585l119 111q14 11 26 8.5
t12 -14.5q2 -14 -14 -26l-137 -88zM427 585l119 111q13 11 25 8.5t13 -14.5q3 -16 -14 -26l-137 -88z" />
    <glyph glyph-name="Omacron.small" unicode="&#xf693;" horiz-adv-x="582" 
d="M85 230q0 136 84.5 229t199.5 93q91 0 148 -66.5t57 -171.5q0 -137 -83.5 -229.5t-200.5 -92.5q-91 0 -148 66.5t-57 171.5zM128 226q0 -100 47 -158.5t118 -58.5q93 0 166 86t73 222q0 100 -47 159t-118 59q-93 0 -166 -86t-73 -223zM269 656h229l-3 -22h-229z" />
    <glyph glyph-name="Oslashacute.small" unicode="&#xf694;" horiz-adv-x="582" 
d="M349 600l131 88q15 9 25.5 4.5t10.5 -15.5q0 -17 -18 -26l-145 -61zM85 230q0 136 84.5 229t199.5 93q69 0 121 -41l39 56l14 -9l-40 -58q71 -66 71 -186q0 -137 -83.5 -229.5t-200.5 -92.5q-65 0 -114 35l-34 -50l-13 9l35 51q-79 66 -79 193zM128 226q0 -105 52 -165
l294 427q-45 47 -107 47q-93 0 -166 -86t-73 -223zM532 317q0 96 -47 158l-293 -426q43 -40 101 -40q93 0 166 86t73 222z" />
    <glyph glyph-name="Racute.small" unicode="&#xf695;" horiz-adv-x="506" 
d="M309 252v-2q18 -6 28.5 -19.5t23.5 -50.5l47 -136q7 -22 36 -25l46 -5l-2 -14q-40 -4 -80 -4q-32 0 -41 27l-60 183q-8 24 -18.5 33t-35.5 9h-68l-30 -209q-1 -19 13 -20l73 -5l-2 -14h-202l2 14l60 5q15 1 17 20l66 466q3 19 -12 20l-59 5l2 14h211q75 0 115.5 -35.5
t40.5 -92.5q0 -71 -48.5 -116t-122.5 -48zM187 266h89q84 0 123 44t39 106q0 47 -30 78t-95 31h-89zM298 600l131 88q15 9 25.5 4.5t10.5 -15.5q0 -17 -18 -26l-145 -61z" />
    <glyph glyph-name="Rcaron.small" unicode="&#xf696;" horiz-adv-x="506" 
d="M309 252v-2q18 -6 28.5 -19.5t23.5 -50.5l47 -136q7 -22 36 -25l46 -5l-2 -14q-40 -4 -80 -4q-32 0 -41 27l-60 183q-8 24 -18.5 33t-35.5 9h-68l-30 -209q-1 -19 13 -20l73 -5l-2 -14h-202l2 14l60 5q15 1 17 20l66 466q3 19 -12 20l-59 5l2 14h211q75 0 115.5 -35.5
t40.5 -92.5q0 -71 -48.5 -116t-122.5 -48zM187 266h89q84 0 123 44t39 106q0 47 -30 78t-95 31h-89zM242 750l83 -115l114 115h17l-134 -160h-7l-90 160h17z" />
    <glyph glyph-name="Rcommaaccent.small" unicode="&#xf697;" horiz-adv-x="506" 
d="M309 252v-2q18 -6 28.5 -19.5t23.5 -50.5l47 -136q7 -22 36 -25l46 -5l-2 -14q-40 -4 -80 -4q-32 0 -41 27l-60 183q-8 24 -18.5 33t-35.5 9h-68l-30 -209q-1 -19 13 -20l73 -5l-2 -14h-202l2 14l60 5q15 1 17 20l66 466q3 19 -12 20l-59 5l2 14h211q75 0 115.5 -35.5
t40.5 -92.5q0 -71 -48.5 -116t-122.5 -48zM187 266h89q84 0 123 44t39 106q0 47 -30 78t-95 31h-89zM247 -110q-14 0 -22 9t-8 23q0 17 12 30t29 13q25 0 35 -21.5t10 -46.5q0 -56 -34 -95.5t-74 -59.5l-5 13q33 18 57 46t24 59q0 30 -24 30z" />
    <glyph glyph-name="Sacute.small" unicode="&#xf698;" horiz-adv-x="412" 
d="M205 -8q-66 0 -134 41l2 129h13q7 -85 38 -119t84 -34q58 0 97.5 35.5t39.5 94.5q0 28 -10 49.5t-31.5 38t-35 24t-39.5 20.5q-104 53 -104 135q0 59 43.5 102.5t120.5 43.5q29 0 55.5 -7t39 -13.5t35.5 -20.5l-17 -121h-14q4 81 -23 113t-80 32q-55 0 -88.5 -35.5
t-33.5 -79.5q0 -72 106 -120q115 -55 115 -143q0 -68 -50.5 -116.5t-128.5 -48.5zM273 600l131 88q15 9 25.5 4.5t10.5 -15.5q0 -17 -18 -26l-145 -61z" />
    <glyph glyph-name="Scircumflex.small" unicode="&#xf69a;" horiz-adv-x="412" 
d="M205 -8q-66 0 -134 41l2 129h13q7 -85 38 -119t84 -34q58 0 97.5 35.5t39.5 94.5q0 28 -10 49.5t-31.5 38t-35 24t-39.5 20.5q-104 53 -104 135q0 59 43.5 102.5t120.5 43.5q29 0 55.5 -7t39 -13.5t35.5 -20.5l-17 -121h-14q4 81 -23 113t-80 32q-55 0 -88.5 -35.5
t-33.5 -79.5q0 -72 106 -120q115 -55 115 -143q0 -68 -50.5 -116.5t-128.5 -48.5zM305 705l-115 -115h-17l134 160h7l90 -160h-17z" />
    <glyph glyph-name="Scommaaccent.small" unicode="&#xf69b;" horiz-adv-x="412" 
d="M205 -8q-66 0 -134 41l2 129h13q7 -85 38 -119t84 -34q58 0 97.5 35.5t39.5 94.5q0 28 -10 49.5t-31.5 38t-35 24t-39.5 20.5q-104 53 -104 135q0 59 43.5 102.5t120.5 43.5q29 0 55.5 -7t39 -13.5t35.5 -20.5l-17 -121h-14q4 81 -23 113t-80 32q-55 0 -88.5 -35.5
t-33.5 -79.5q0 -72 106 -120q115 -55 115 -143q0 -68 -50.5 -116.5t-128.5 -48.5zM182 -110q-14 0 -22 9t-8 23q0 17 12 30t29 13q25 0 35 -21.5t10 -46.5q0 -56 -34 -95.5t-74 -59.5l-5 13q33 18 57 46t24 59q0 30 -24 30z" />
    <glyph glyph-name="Tcaron.small" unicode="&#xf69d;" horiz-adv-x="444" 
d="M275 525h-124q-17 0 -24 -16l-30 -87h-13l17 122h394l-17 -122h-13l-7 87q-1 16 -19 16h-124l-68 -486q-3 -19 11 -20l59 -5l-2 -14h-186l2 14l59 5q15 1 17 20zM228 750l83 -115l114 115h17l-134 -160h-7l-90 160h17z" />
    <glyph glyph-name="Tcommaaccent.small" unicode="&#xf69e;" horiz-adv-x="444" 
d="M275 525h-124q-17 0 -24 -16l-30 -87h-13l17 122h394l-17 -122h-13l-7 87q-1 16 -19 16h-124l-68 -486q-3 -19 11 -20l59 -5l-2 -14h-186l2 14l59 5q15 1 17 20zM198 -110q-14 0 -22 9t-8 23q0 17 12 30t29 13q25 0 35 -21.5t10 -46.5q0 -56 -34 -95.5t-74 -59.5l-5 13
q33 18 57 46t24 59q0 30 -24 30z" />
    <glyph glyph-name="Ubreve.small" unicode="&#xf69f;" horiz-adv-x="562" 
d="M472 204l42 300q3 20 -12 21l-57 5l2 14h167l-3 -14l-59 -5q-15 -1 -18 -21l-42 -299q-14 -103 -70 -158t-145 -55q-175 0 -145 214l42 299q2 19 -12 20l-58 5l3 14h187l-3 -14l-61 -5q-13 -1 -16 -20l-44 -311q-13 -92 17 -136t106 -44q69 0 117.5 47t61.5 143zM370 600
q-53 0 -71.5 43.5t-9.5 106.5h14q-2 -49 15.5 -79.5t57.5 -30.5q39 0 65.5 30.5t37.5 79.5h14q-9 -62 -39.5 -106t-83.5 -44z" />
    <glyph glyph-name="Uhungarumlaut.small" unicode="&#xf6a0;" horiz-adv-x="562" 
d="M472 204l42 300q3 20 -12 21l-57 5l2 14h167l-3 -14l-59 -5q-15 -1 -18 -21l-42 -299q-14 -103 -70 -158t-145 -55q-175 0 -145 214l42 299q2 19 -12 20l-58 5l3 14h187l-3 -14l-61 -5q-13 -1 -16 -20l-44 -311q-13 -92 17 -136t106 -44q69 0 117.5 47t61.5 143zM259 585
l119 111q14 11 26 8.5t12 -14.5q2 -14 -14 -26l-137 -88zM427 585l119 111q13 11 25 8.5t13 -14.5q3 -16 -14 -26l-137 -88z" />
    <glyph glyph-name="Umacron.small" unicode="&#xf6a1;" horiz-adv-x="562" 
d="M472 204l42 300q3 20 -12 21l-57 5l2 14h167l-3 -14l-59 -5q-15 -1 -18 -21l-42 -299q-14 -103 -70 -158t-145 -55q-175 0 -145 214l42 299q2 19 -12 20l-58 5l3 14h187l-3 -14l-61 -5q-13 -1 -16 -20l-44 -311q-13 -92 17 -136t106 -44q69 0 117.5 47t61.5 143zM261 656
h229l-3 -22h-229z" />
    <glyph glyph-name="Uring.small" unicode="&#xf6a3;" horiz-adv-x="562" 
d="M472 204l42 300q3 20 -12 21l-57 5l2 14h167l-3 -14l-59 -5q-15 -1 -18 -21l-42 -299q-14 -103 -70 -158t-145 -55q-175 0 -145 214l42 299q2 19 -12 20l-58 5l3 14h187l-3 -14l-61 -5q-13 -1 -16 -20l-44 -311q-13 -92 17 -136t106 -44q69 0 117.5 47t61.5 143zM310 654
q0 42 25 71.5t63 29.5q29 0 46 -21t17 -54q0 -42 -25 -71t-63 -29q-29 0 -46 21t-17 53zM333 652q0 -25 11 -40.5t31 -15.5q28 0 44.5 24.5t16.5 62.5q0 56 -41 56q-28 0 -45 -24.5t-17 -62.5z" />
    <glyph glyph-name="Utilde.small" unicode="&#xf6a4;" horiz-adv-x="562" 
d="M472 204l42 300q3 20 -12 21l-57 5l2 14h167l-3 -14l-59 -5q-15 -1 -18 -21l-42 -299q-14 -103 -70 -158t-145 -55q-175 0 -145 214l42 299q2 19 -12 20l-58 5l3 14h187l-3 -14l-61 -5q-13 -1 -16 -20l-44 -311q-13 -92 17 -136t106 -44q69 0 117.5 47t61.5 143zM252 614
l-12 6q37 67 59 85q18 15 37 15t60 -28.5t58 -28.5q28 0 62 54l11 -7q-14 -27 -22.5 -41.5t-24 -28t-32.5 -13.5q-22 0 -63.5 28.5t-56.5 28.5q-27 0 -67 -58q-2 -2 -3 -3.5t-3 -4t-3 -4.5z" />
    <glyph glyph-name="Wacute.small" unicode="&#xf6a5;" horiz-adv-x="767" 
d="M272 46l180 400l-9 58q-3 19 -22 21l-42 5l3 14h174l-3 -14l-46 -5q-21 -2 -19 -22l55 -457h2l186 457q8 19 -13 22l-48 5l3 14h156l-3 -14l-45 -5q-22 -4 -30 -22l-206 -507h-36l-52 416l-186 -416h-34l-84 507q-3 20 -22 22l-42 5l3 14h174l-3 -14l-45 -5
q-24 -2 -20 -22l73 -457h1zM457 600l131 88q15 9 25.5 4.5t10.5 -15.5q0 -17 -18 -26l-145 -61z" />
    <glyph glyph-name="Wcircumflex.small" unicode="&#xf6a6;" horiz-adv-x="767" 
d="M272 46l180 400l-9 58q-3 19 -22 21l-42 5l3 14h174l-3 -14l-46 -5q-21 -2 -19 -22l55 -457h2l186 457q8 19 -13 22l-48 5l3 14h156l-3 -14l-45 -5q-22 -4 -30 -22l-206 -507h-36l-52 416l-186 -416h-34l-84 507q-3 20 -22 22l-42 5l3 14h174l-3 -14l-45 -5
q-24 -2 -20 -22l73 -457h1zM489 705l-115 -115h-17l134 160h7l90 -160h-17z" />
    <glyph glyph-name="Wdieresis.small" unicode="&#xf6a7;" horiz-adv-x="767" 
d="M272 46l180 400l-9 58q-3 19 -22 21l-42 5l3 14h174l-3 -14l-46 -5q-21 -2 -19 -22l55 -457h2l186 457q8 19 -13 22l-48 5l3 14h156l-3 -14l-45 -5q-22 -4 -30 -22l-206 -507h-36l-52 416l-186 -416h-34l-84 507q-3 20 -22 22l-42 5l3 14h174l-3 -14l-45 -5
q-24 -2 -20 -22l73 -457h1zM370 660q0 16 10 26.5t24 10.5q11 0 18.5 -8t7.5 -20q0 -16 -10.5 -26.5t-24.5 -10.5q-11 0 -18 8t-7 20zM540 660q0 16 10 26.5t24 10.5q11 0 18.5 -8t7.5 -20q0 -16 -10.5 -26.5t-24.5 -10.5q-11 0 -18 8t-7 20z" />
    <glyph glyph-name="Wgrave.small" unicode="&#xf6a8;" horiz-adv-x="767" 
d="M272 46l180 400l-9 58q-3 19 -22 21l-42 5l3 14h174l-3 -14l-46 -5q-21 -2 -19 -22l55 -457h2l186 457q8 19 -13 22l-48 5l3 14h156l-3 -14l-45 -5q-22 -4 -30 -22l-206 -507h-36l-52 416l-186 -416h-34l-84 507q-3 20 -22 22l-42 5l3 14h174l-3 -14l-45 -5
q-24 -2 -20 -22l73 -457h1zM392 688l106 -88l-7 -10l-127 61q-13 6 -12 21q1 14 14 20t26 -4z" />
    <glyph glyph-name="Ycircumflex.small" unicode="&#xf6a9;" horiz-adv-x="512" 
d="M492 500l-188 -296l-23 -165q-3 -19 11 -20l59 -5l-2 -14h-186l2 14l59 5q15 1 17 20l23 157l-106 305q-8 23 -24 24l-45 5l3 14h173l-3 -14l-43 -4q-10 -1 -14.5 -9t-1.5 -17l95 -273h1l174 274q6 9 3 15.5t-13 8.5l-47 5l3 14h155l-3 -14l-47 -5q-16 -1 -32 -25z
M356 705l-115 -115h-17l134 160h7l90 -160h-17z" />
    <glyph glyph-name="Ygrave.small" unicode="&#xf6aa;" horiz-adv-x="512" 
d="M492 500l-188 -296l-23 -165q-3 -19 11 -20l59 -5l-2 -14h-186l2 14l59 5q15 1 17 20l23 157l-106 305q-8 23 -24 24l-45 5l3 14h173l-3 -14l-43 -4q-10 -1 -14.5 -9t-1.5 -17l95 -273h1l174 274q6 9 3 15.5t-13 8.5l-47 5l3 14h155l-3 -14l-47 -5q-16 -1 -32 -25z
M248 688l106 -88l-7 -10l-127 61q-13 6 -12 21q1 14 14 20t26 -4z" />
    <glyph glyph-name="Zacute.small" unicode="&#xf6ab;" horiz-adv-x="430" 
d="M26 7l390 517v1h-248q-19 0 -24 -16l-31 -87h-14l17 122h354v-7l-390 -517v-2h264q15 0 24 16l41 88h13l-31 -122h-366zM279 600l131 88q15 9 25.5 4.5t10.5 -15.5q0 -17 -18 -26l-145 -61z" />
    <glyph glyph-name="Zdotaccent.small" unicode="&#xf6ac;" horiz-adv-x="430" 
d="M26 7l390 517v1h-248q-19 0 -24 -16l-31 -87h-14l17 122h354v-7l-390 -517v-2h264q15 0 24 16l41 88h13l-31 -122h-366zM278 660q0 16 10.5 26.5t24.5 10.5q11 0 18 -8t7 -20q0 -15 -10.5 -26t-23.5 -11q-12 0 -19 8t-7 20z" />
    <glyph glyph-name="Idotaccent.small" unicode="&#xf6ad;" horiz-adv-x="262" 
d="M221 505l-66 -466q-1 -19 13 -20l58 -5l-2 -14h-187l2 14l60 5q15 1 17 20l66 466q3 19 -12 20l-59 5l2 14h187l-2 -14l-59 -5q-15 -1 -18 -20zM194 660q0 16 10.5 26.5t24.5 10.5q11 0 18 -8t7 -20q0 -15 -10.5 -26t-23.5 -11q-12 0 -19 8t-7 20z" />
    <glyph glyph-name="dieresisacute" unicode="&#xf6d7;" horiz-adv-x="451" 
d="M171 620q0 16 10 26.5t24 10.5q11 0 18.5 -8t7.5 -20q0 -16 -10.5 -26.5t-24.5 -10.5q-11 0 -18 8t-7 20zM395 620q0 16 10.5 26.5t24.5 10.5q11 0 18 -8t7 -20q0 -15 -10 -26t-24 -11q-12 0 -19 8t-7 20zM271 601l106 132q9 11 21 13t18 -11q3 -17 -11 -29l-126 -112z
" />
    <glyph glyph-name="rupiah" unicode="&#xf6dd;" horiz-adv-x="1010" 
d="M594 -154l21 154q-65 -5 -144 -5q-37 0 -44 30l-71 232q-9 30 -22 41.5t-43 11.5h-82l-37 -264q-4 -24 13 -25l87 -5l-2 -16h-233l2 16l72 5q18 1 21 25l82 588q3 24 -14 25l-70 5l3 16h245q87 0 133.5 -44t46.5 -116q0 -88 -57.5 -145t-144.5 -62v-2q19 -7 29 -22.5
t26 -63.5l53 -171q11 -32 37 -33l117 -5l62 445q3 20 -14 20h-56l2 16l113 13l6 -8q-11 -26 -19 -81l-2 -14h3q29 58 70.5 80.5t79.5 22.5q71 0 109.5 -54.5t38.5 -150.5q0 -134 -68 -224.5t-168 -90.5q-68 0 -116 38h-2l-25 -182q-5 -24 13 -25l87 -5l-2 -16h-231l2 16
l72 5q18 1 21 25zM696 305l-35 -252q53 -42 115 -42q78 0 137.5 78t59.5 223q0 89 -31 133t-85 44q-62 0 -106 -52.5t-55 -131.5zM212 331h107q101 0 149 56t48 133q0 60 -36.5 99.5t-115.5 39.5h-107z" />
    <glyph glyph-name="Scaronsmall" unicode="&#xf6fd;" horiz-adv-x="412" 
d="M207 790l83 -115l114 115h17l-134 -160h-7l-90 160h17zM205 -8q-66 0 -134 41l2 129h13q7 -85 38 -119t84 -34q58 0 97.5 35.5t39.5 94.5q0 28 -10 49.5t-31.5 38t-35 24t-39.5 20.5q-104 53 -104 135q0 59 43.5 102.5t120.5 43.5q29 0 55.5 -7t39 -13.5t35.5 -20.5
l-17 -121h-14q4 81 -23 113t-80 32q-55 0 -88.5 -35.5t-33.5 -79.5q0 -72 106 -120q115 -55 115 -143q0 -68 -50.5 -116.5t-128.5 -48.5z" />
    <glyph glyph-name="Zcaronsmall" unicode="&#xf6ff;" horiz-adv-x="430" 
d="M216 790l83 -115l114 115h17l-134 -160h-7l-90 160h17zM26 7l390 517v1h-248q-19 0 -24 -16l-31 -87h-14l17 122h354v-7l-390 -517v-2h264q15 0 24 16l41 88h13l-31 -122h-366z" />
    <glyph glyph-name="Agravesmall" unicode="&#xf7e0;" horiz-adv-x="525" 
d="M374 193h-197l-65 -152q-8 -19 10 -22l50 -5l-2 -14h-155l2 14l45 5q21 4 29 21l218 508h38l100 -509q4 -18 22 -20l43 -5l-2 -14h-174l2 14l47 5q21 2 18 22zM185 211h185l-58 295h-1zM240 688l106 -88l-7 -10l-127 61q-13 6 -12 21q1 14 14 20t26 -4z" />
    <glyph glyph-name="Aacutesmall" unicode="&#xf7e1;" horiz-adv-x="525" 
d="M374 193h-197l-65 -152q-8 -19 10 -22l50 -5l-2 -14h-155l2 14l45 5q21 4 29 21l218 508h38l100 -509q4 -18 22 -20l43 -5l-2 -14h-174l2 14l47 5q21 2 18 22zM185 211h185l-58 295h-1zM329 600l131 88q15 9 25.5 4.5t10.5 -15.5q0 -17 -18 -26l-145 -61z" />
    <glyph glyph-name="Acircumflexsmall" unicode="&#xf7e2;" horiz-adv-x="525" 
d="M374 193h-197l-65 -152q-8 -19 10 -22l50 -5l-2 -14h-155l2 14l45 5q21 4 29 21l218 508h38l100 -509q4 -18 22 -20l43 -5l-2 -14h-174l2 14l47 5q21 2 18 22zM185 211h185l-58 295h-1zM348 705l-115 -115h-17l134 160h7l90 -160h-17z" />
    <glyph glyph-name="Atildesmall" unicode="&#xf7e3;" horiz-adv-x="525" 
d="M374 193h-197l-65 -152q-8 -19 10 -22l50 -5l-2 -14h-155l2 14l45 5q21 4 29 21l218 508h38l100 -509q4 -18 22 -20l43 -5l-2 -14h-174l2 14l47 5q21 2 18 22zM185 211h185l-58 295h-1zM219 614l-12 6q37 67 59 85q18 15 37 15t60 -28.5t58 -28.5q28 0 62 54l11 -7
q-14 -27 -22.5 -41.5t-24 -28t-32.5 -13.5q-22 0 -63.5 28.5t-56.5 28.5q-27 0 -67 -58z" />
    <glyph glyph-name="Adieresissmall" unicode="&#xf7e4;" horiz-adv-x="525" 
d="M374 193h-197l-65 -152q-8 -19 10 -22l50 -5l-2 -14h-155l2 14l45 5q21 4 29 21l218 508h38l100 -509q4 -18 22 -20l43 -5l-2 -14h-174l2 14l47 5q21 2 18 22zM185 211h185l-58 295h-1zM232 660q0 16 10 26.5t24 10.5q11 0 18.5 -8t7.5 -20q0 -16 -10.5 -26.5
t-24.5 -10.5q-11 0 -18 8t-7 20zM402 660q0 16 10 26.5t24 10.5q11 0 18.5 -8t7.5 -20q0 -16 -10.5 -26.5t-24.5 -10.5q-11 0 -18 8t-7 20z" />
    <glyph glyph-name="Aringsmall" unicode="&#xf7e5;" horiz-adv-x="525" 
d="M374 193h-197l-65 -152q-8 -19 10 -22l50 -5l-2 -14h-155l2 14l45 5q21 4 29 21l218 508h38l100 -509q4 -18 22 -20l43 -5l-2 -14h-174l2 14l47 5q21 2 18 22zM185 211h185l-58 295h-1zM266 654q0 42 25 71.5t63 29.5q29 0 46 -21t17 -54q0 -42 -25 -71t-63 -29
q-29 0 -46 21t-17 53zM289 652q0 -25 11 -40.5t31 -15.5q28 0 44.5 24.5t16.5 62.5q0 56 -41 56q-28 0 -45 -24.5t-17 -62.5z" />
    <glyph glyph-name="Egravesmall" unicode="&#xf7e8;" horiz-adv-x="446" 
d="M224 525l-34 -240h117q21 0 25 16l19 68h14l-26 -186h-14v68q0 16 -20 16h-118l-34 -249h207q15 0 24 16l40 88h14l-32 -122h-369l2 14l60 5q15 1 17 20l66 466q3 19 -12 20l-59 5l2 14h362l-17 -122h-13l-5 87q-1 16 -20 16h-196zM254 688l106 -88l-7 -10l-127 61
q-13 6 -12 21q1 14 14 20t26 -4z" />
    <glyph glyph-name="Eacutesmall" unicode="&#xf7e9;" horiz-adv-x="446" 
d="M224 525l-34 -240h117q21 0 25 16l19 68h14l-26 -186h-14v68q0 16 -20 16h-118l-34 -249h207q15 0 24 16l40 88h14l-32 -122h-369l2 14l60 5q15 1 17 20l66 466q3 19 -12 20l-59 5l2 14h362l-17 -122h-13l-5 87q-1 16 -20 16h-196zM292 600l131 88q15 9 25.5 4.5
t10.5 -15.5q0 -17 -18 -26l-145 -61z" />
    <glyph glyph-name="Ecircumflexsmall" unicode="&#xf7ea;" horiz-adv-x="446" 
d="M224 525l-34 -240h117q21 0 25 16l19 68h14l-26 -186h-14v68q0 16 -20 16h-118l-34 -249h207q15 0 24 16l40 88h14l-32 -122h-369l2 14l60 5q15 1 17 20l66 466q3 19 -12 20l-59 5l2 14h362l-17 -122h-13l-5 87q-1 16 -20 16h-196zM338 705l-115 -115h-17l134 160h7
l90 -160h-17z" />
    <glyph glyph-name="Edieresissmall" unicode="&#xf7eb;" horiz-adv-x="446" 
d="M224 525l-34 -240h117q21 0 25 16l19 68h14l-26 -186h-14v68q0 16 -20 16h-118l-34 -249h207q15 0 24 16l40 88h14l-32 -122h-369l2 14l60 5q15 1 17 20l66 466q3 19 -12 20l-59 5l2 14h362l-17 -122h-13l-5 87q-1 16 -20 16h-196zM214 660q0 16 10 26.5t24 10.5
q11 0 18.5 -8t7.5 -20q0 -16 -10.5 -26.5t-24.5 -10.5q-11 0 -18 8t-7 20zM384 660q0 16 10 26.5t24 10.5q11 0 18.5 -8t7.5 -20q0 -16 -10.5 -26.5t-24.5 -10.5q-11 0 -18 8t-7 20z" />
    <glyph glyph-name="Igravesmall" unicode="&#xf7ec;" horiz-adv-x="262" 
d="M221 505l-66 -466q-1 -19 13 -20l58 -5l-2 -14h-187l2 14l60 5q15 1 17 20l66 466q3 19 -12 20l-59 5l2 14h187l-2 -14l-59 -5q-15 -1 -18 -20zM121 688l106 -88l-7 -10l-127 61q-13 6 -12 21q1 14 14 20t26 -4z" />
    <glyph glyph-name="Iacutesmall" unicode="&#xf7ed;" horiz-adv-x="262" 
d="M221 505l-66 -466q-1 -19 13 -20l58 -5l-2 -14h-187l2 14l60 5q15 1 17 20l66 466q3 19 -12 20l-59 5l2 14h187l-2 -14l-59 -5q-15 -1 -18 -20zM205 600l131 88q15 9 25.5 4.5t10.5 -15.5q0 -17 -18 -26l-145 -61z" />
    <glyph glyph-name="Icircumflexsmall" unicode="&#xf7ee;" horiz-adv-x="262" 
d="M221 505l-66 -466q-1 -19 13 -20l58 -5l-2 -14h-187l2 14l60 5q15 1 17 20l66 466q3 19 -12 20l-59 5l2 14h187l-2 -14l-59 -5q-15 -1 -18 -20zM230 705l-115 -115h-17l134 160h7l90 -160h-17z" />
    <glyph glyph-name="Idieresissmall" unicode="&#xf7ef;" horiz-adv-x="262" 
d="M221 505l-66 -466q-1 -19 13 -20l58 -5l-2 -14h-187l2 14l60 5q15 1 17 20l66 466q3 19 -12 20l-59 5l2 14h187l-2 -14l-59 -5q-15 -1 -18 -20zM110 660q0 16 10 26.5t24 10.5q11 0 18.5 -8t7.5 -20q0 -16 -10.5 -26.5t-24.5 -10.5q-11 0 -18 8t-7 20zM280 660
q0 16 10 26.5t24 10.5q11 0 18.5 -8t7.5 -20q0 -16 -10.5 -26.5t-24.5 -10.5q-11 0 -18 8t-7 20z" />
    <glyph glyph-name="Ntildesmall" unicode="&#xf7f1;" horiz-adv-x="541" 
d="M428 -4l-234 508l-65 -464q-3 -20 11 -21l57 -5l-2 -14h-163l2 14l56 5q15 1 19 21l65 465q3 19 -11 20l-57 5l2 14h115l214 -462l59 422q2 20 -12 21l-56 5l1 14h163l-2 -14l-56 -5q-16 -1 -18 -21l-72 -508h-16zM240 614l-12 6q37 67 59 85q18 15 37 15t60 -28.5
t58 -28.5q28 0 62 54l11 -7q-14 -27 -22.5 -41.5t-24 -28t-32.5 -13.5q-22 0 -63.5 28.5t-56.5 28.5q-27 0 -67 -58z" />
    <glyph glyph-name="Ogravesmall" unicode="&#xf7f2;" horiz-adv-x="582" 
d="M85 230q0 136 84.5 229t199.5 93q91 0 148 -66.5t57 -171.5q0 -137 -83.5 -229.5t-200.5 -92.5q-91 0 -148 66.5t-57 171.5zM128 226q0 -100 47 -158.5t118 -58.5q93 0 166 86t73 222q0 100 -47 159t-118 59q-93 0 -166 -86t-73 -223zM304 688l106 -88l-7 -10l-127 61
q-13 6 -12 21q1 14 14 20t26 -4z" />
    <glyph glyph-name="Oacutesmall" unicode="&#xf7f3;" horiz-adv-x="582" 
d="M85 230q0 136 84.5 229t199.5 93q91 0 148 -66.5t57 -171.5q0 -137 -83.5 -229.5t-200.5 -92.5q-91 0 -148 66.5t-57 171.5zM128 226q0 -100 47 -158.5t118 -58.5q93 0 166 86t73 222q0 100 -47 159t-118 59q-93 0 -166 -86t-73 -223zM354 600l131 88q15 9 25.5 4.5
t10.5 -15.5q0 -17 -18 -26l-145 -61z" />
    <glyph glyph-name="Ocircumflexsmall" unicode="&#xf7f4;" horiz-adv-x="582" 
d="M85 230q0 136 84.5 229t199.5 93q91 0 148 -66.5t57 -171.5q0 -137 -83.5 -229.5t-200.5 -92.5q-91 0 -148 66.5t-57 171.5zM128 226q0 -100 47 -158.5t118 -58.5q93 0 166 86t73 222q0 100 -47 159t-118 59q-93 0 -166 -86t-73 -223zM391 705l-115 -115h-17l134 160h7
l90 -160h-17z" />
    <glyph glyph-name="Otildesmall" unicode="&#xf7f5;" horiz-adv-x="582" 
d="M85 230q0 136 84.5 229t199.5 93q91 0 148 -66.5t57 -171.5q0 -137 -83.5 -229.5t-200.5 -92.5q-91 0 -148 66.5t-57 171.5zM128 226q0 -100 47 -158.5t118 -58.5q93 0 166 86t73 222q0 100 -47 159t-118 59q-93 0 -166 -86t-73 -223zM253 614l-12 6q37 67 59 85
q18 15 37 15t60 -28.5t58 -28.5q28 0 62 54l11 -7q-14 -27 -22.5 -41.5t-24 -28t-32.5 -13.5q-22 0 -63.5 28.5t-56.5 28.5q-27 0 -67 -58q-2 -2 -3 -3.5t-3 -4t-3 -4.5z" />
    <glyph glyph-name="Odieresissmall" unicode="&#xf7f6;" horiz-adv-x="582" 
d="M85 230q0 136 84.5 229t199.5 93q91 0 148 -66.5t57 -171.5q0 -137 -83.5 -229.5t-200.5 -92.5q-91 0 -148 66.5t-57 171.5zM128 226q0 -100 47 -158.5t118 -58.5q93 0 166 86t73 222q0 100 -47 159t-118 59q-93 0 -166 -86t-73 -223zM270 660q0 16 10 26.5t24 10.5
q11 0 18.5 -8t7.5 -20q0 -16 -10.5 -26.5t-24.5 -10.5q-11 0 -18 8t-7 20zM440 660q0 16 10 26.5t24 10.5q11 0 18.5 -8t7.5 -20q0 -16 -10.5 -26.5t-24.5 -10.5q-11 0 -18 8t-7 20z" />
    <glyph glyph-name="Ugravesmall" unicode="&#xf7f9;" horiz-adv-x="562" 
d="M472 204l42 300q3 20 -12 21l-57 5l2 14h167l-3 -14l-59 -5q-15 -1 -18 -21l-42 -299q-14 -103 -70 -158t-145 -55q-175 0 -145 214l42 299q2 19 -12 20l-58 5l3 14h187l-3 -14l-61 -5q-13 -1 -16 -20l-44 -311q-13 -92 17 -136t106 -44q69 0 117.5 47t61.5 143zM285 688
l106 -88l-7 -10l-127 61q-13 6 -12 21q1 14 14 20t26 -4z" />
    <glyph glyph-name="Uacutesmall" unicode="&#xf7fa;" horiz-adv-x="562" 
d="M472 204l42 300q3 20 -12 21l-57 5l2 14h167l-3 -14l-59 -5q-15 -1 -18 -21l-42 -299q-14 -103 -70 -158t-145 -55q-175 0 -145 214l42 299q2 19 -12 20l-58 5l3 14h187l-3 -14l-61 -5q-13 -1 -16 -20l-44 -311q-13 -92 17 -136t106 -44q69 0 117.5 47t61.5 143zM365 600
l131 88q15 9 25.5 4.5t10.5 -15.5q0 -17 -18 -26l-145 -61z" />
    <glyph glyph-name="Ucircumflexsmall" unicode="&#xf7fb;" horiz-adv-x="562" 
d="M472 204l42 300q3 20 -12 21l-57 5l2 14h167l-3 -14l-59 -5q-15 -1 -18 -21l-42 -299q-14 -103 -70 -158t-145 -55q-175 0 -145 214l42 299q2 19 -12 20l-58 5l3 14h187l-3 -14l-61 -5q-13 -1 -16 -20l-44 -311q-13 -92 17 -136t106 -44q69 0 117.5 47t61.5 143zM388 705
l-115 -115h-17l134 160h7l90 -160h-17z" />
    <glyph glyph-name="Udieresissmall" unicode="&#xf7fc;" horiz-adv-x="562" 
d="M472 204l42 300q3 20 -12 21l-57 5l2 14h167l-3 -14l-59 -5q-15 -1 -18 -21l-42 -299q-14 -103 -70 -158t-145 -55q-175 0 -145 214l42 299q2 19 -12 20l-58 5l3 14h187l-3 -14l-61 -5q-13 -1 -16 -20l-44 -311q-13 -92 17 -136t106 -44q69 0 117.5 47t61.5 143zM269 660
q0 16 10 26.5t24 10.5q11 0 18.5 -8t7.5 -20q0 -16 -10.5 -26.5t-24.5 -10.5q-11 0 -18 8t-7 20zM439 660q0 16 10 26.5t24 10.5q11 0 18.5 -8t7.5 -20q0 -16 -10.5 -26.5t-24.5 -10.5q-11 0 -18 8t-7 20z" />
    <glyph glyph-name="Yacutesmall" unicode="&#xf7fd;" horiz-adv-x="512" 
d="M492 500l-188 -296l-23 -165q-3 -19 11 -20l59 -5l-2 -14h-186l2 14l59 5q15 1 17 20l23 157l-106 305q-8 23 -24 24l-45 5l3 14h173l-3 -14l-43 -4q-10 -1 -14.5 -9t-1.5 -17l95 -273h1l174 274q6 9 3 15.5t-13 8.5l-47 5l3 14h155l-3 -14l-47 -5q-16 -1 -32 -25z
M339 600l131 88q15 9 25.5 4.5t10.5 -15.5q0 -17 -18 -26l-145 -61z" />
    <glyph glyph-name="Ydieresissmall" unicode="&#xf7ff;" horiz-adv-x="512" 
d="M492 500l-188 -296l-23 -165q-3 -19 11 -20l59 -5l-2 -14h-186l2 14l59 5q15 1 17 20l23 157l-106 305q-8 23 -24 24l-45 5l3 14h173l-3 -14l-43 -4q-10 -1 -14.5 -9t-1.5 -17l95 -273h1l174 274q6 9 3 15.5t-13 8.5l-47 5l3 14h155l-3 -14l-47 -5q-16 -1 -32 -25z
M241 660q0 16 10 26.5t24 10.5q11 0 18.5 -8t7.5 -20q0 -16 -10.5 -26.5t-24.5 -10.5q-11 0 -18 8t-7 20zM411 660q0 16 10 26.5t24 10.5q11 0 18.5 -8t7.5 -20q0 -16 -10.5 -26.5t-24.5 -10.5q-11 0 -18 8t-7 20z" />
    <glyph glyph-name="cyrbreve" horiz-adv-x="374" 
d="M266 560q-53 0 -71.5 43.5t-9.5 106.5h14q-2 -49 15.5 -79.5t57.5 -30.5q39 0 65.5 30.5t37.5 79.5h14q-9 -62 -39.5 -106t-83.5 -44z" />
    <glyph glyph-name="commaaccent" horiz-adv-x="259" 
d="M105 -110q-14 0 -22 9t-8 23q0 17 12 30t29 13q25 0 35 -21.5t10 -46.5q0 -56 -34 -95.5t-74 -59.5l-5 13q33 18 57 46t24 59q0 30 -24 30z" />
    <glyph glyph-name="undercommaaccent" horiz-adv-x="259" 
d="M105 -110q-14 0 -22 9t-8 23q0 17 12 30t29 13q25 0 35 -21.5t10 -46.5q0 -56 -34 -95.5t-74 -59.5l-5 13q33 18 57 46t24 59q0 30 -24 30z" />
    <glyph glyph-name="dieresisgrave" horiz-adv-x="451" 
d="M455 629q0 -15 -10 -26t-24 -11q-12 0 -19 8t-7 20q0 16 10.5 26.5t24.5 10.5q11 0 18 -8t7 -20zM231 629q0 -16 -10.5 -26.5t-24.5 -10.5q-11 0 -18 8t-7 20q0 16 10 26.5t24 10.5q11 0 18.5 -8t7.5 -20zM279 733l68 -132l-9 -7l-94 112q-11 13 -3 29q7 11 19 11t19 -13
z" />
    <glyph glyph-name="dblgrave" horiz-adv-x="480" 
d="M384 656l88 -111l-8 -9l-112 88q-15 10 -8 26q4 12 17.5 14.5t22.5 -8.5zM217 656l87 -111l-8 -9l-112 88q-15 10 -8 26q5 12 18 14.5t23 -8.5z" />
    <glyph glyph-name="cyrflex" horiz-adv-x="399" 
d="M293 665l-115 -115h-17l134 160h7l90 -160h-17z" />
    <glyph glyph-name="Acute" horiz-adv-x="323" 
d="M186 740l131 88q15 9 25.5 4.5t10.5 -15.5q0 -17 -18 -26l-145 -61z" />
    <glyph glyph-name="Breve" horiz-adv-x="374" 
d="M291 740q-53 0 -71.5 43.5t-9.5 106.5h14q-2 -49 15.5 -79.5t57.5 -30.5q39 0 65.5 30.5t37.5 79.5h14q-9 -62 -39.5 -106t-83.5 -44z" />
    <glyph glyph-name="cyrBreve" horiz-adv-x="374" 
d="M291 740q-53 0 -71.5 43.5t-9.5 106.5h14q-2 -49 15.5 -79.5t57.5 -30.5q39 0 65.5 30.5t37.5 79.5h14q-9 -62 -39.5 -106t-83.5 -44z" />
    <glyph glyph-name="Caron" horiz-adv-x="399" 
d="M226 890l83 -115l114 115h17l-134 -160h-7l-90 160h17z" />
    <glyph glyph-name="Cedilla" horiz-adv-x="306" 
d="M124 -50l7 50h14l-5 -42q24 -3 45 -21t21 -50q0 -39 -26 -63t-66 -24q-30 0 -56 12l5 13q25 -9 43 -9q32 0 48 23t16 51q0 52 -46 60z" />
    <glyph glyph-name="Circumflex" horiz-adv-x="399" 
d="M319 845l-115 -115h-17l134 160h7l90 -160h-17z" />
    <glyph glyph-name="commaaccent.cap" horiz-adv-x="259" 
d="M105 -110q-14 0 -22 9t-8 23q0 17 12 30t29 13q25 0 35 -21.5t10 -46.5q0 -56 -34 -95.5t-74 -59.5l-5 13q33 18 57 46t24 59q0 30 -24 30z" />
    <glyph glyph-name="Dieresis" horiz-adv-x="397" 
d="M197 800q0 16 10 26.5t24 10.5q11 0 18.5 -8t7.5 -20q0 -16 -10.5 -26.5t-24.5 -10.5q-11 0 -18 8t-7 20zM367 800q0 16 10 26.5t24 10.5q11 0 18.5 -8t7.5 -20q0 -16 -10.5 -26.5t-24.5 -10.5q-11 0 -18 8t-7 20z" />
    <glyph glyph-name="DieresisAcute" horiz-adv-x="451" 
d="M197 800q0 16 10 26.5t24 10.5q11 0 18.5 -8t7.5 -20q0 -16 -10.5 -26.5t-24.5 -10.5q-11 0 -18 8t-7 20zM421 800q0 16 10.5 26.5t24.5 10.5q11 0 18 -8t7 -20q0 -15 -10 -26t-24 -11q-12 0 -19 8t-7 20zM297 781l106 132q9 11 21 13t18 -11q3 -17 -11 -29
q-19 -16 -126 -112z" />
    <glyph glyph-name="DieresisGrave" horiz-adv-x="451" 
d="M481 809q0 -15 -10 -26t-24 -11q-12 0 -19 8t-7 20q0 16 10.5 26.5t24.5 10.5q11 0 18 -8t7 -20zM257 809q0 -16 -10.5 -26.5t-24.5 -10.5q-11 0 -18 8t-7 20q0 16 10 26.5t24 10.5q11 0 18.5 -8t7.5 -20zM305 913l68 -132l-9 -7l-94 112q-11 13 -3 29q7 11 19 11t19 -13
z" />
    <glyph glyph-name="Dotaccent" horiz-adv-x="227" 
d="M197 800q0 16 10.5 26.5t24.5 10.5q11 0 18 -8t7 -20q0 -15 -10.5 -26t-23.5 -11q-12 0 -19 8t-7 20z" />
    <glyph glyph-name="Hungarumlaut" horiz-adv-x="480" 
d="M185 725l119 111q14 11 26 8.5t12 -14.5q2 -14 -14 -26l-137 -88zM353 725l119 111q13 11 25 8.5t13 -14.5q3 -16 -14 -26l-137 -88z" />
    <glyph glyph-name="Grave" horiz-adv-x="323" 
d="M238 828l106 -88l-7 -10l-127 61q-13 6 -12 21q1 14 14 20t26 -4z" />
    <glyph glyph-name="dblGrave" horiz-adv-x="480" 
d="M409 836l88 -111l-8 -9l-112 88q-15 10 -8 26q4 12 17.5 14.5t22.5 -8.5zM242 836l87 -111l-8 -9l-112 88q-15 10 -8 26q5 12 18 14.5t23 -8.5z" />
    <glyph glyph-name="cyrFlex" horiz-adv-x="399" 
d="M319 845l-115 -115h-17l134 160h7l90 -160h-17z" />
    <glyph glyph-name="Macron" horiz-adv-x="399" 
d="M197 796h229l-3 -22h-229z" />
    <glyph glyph-name="Ogonek" horiz-adv-x="306" 
d="M192 -151l4 -9q-35 -40 -70 -40q-33 0 -49.5 27.5t2.5 76t80 96.5h15q-59 -54 -66 -116q-5 -47 26 -54q23 -4 58 19z" />
    <glyph glyph-name="Ring" horiz-adv-x="319" 
d="M197 794q0 42 25 71.5t63 29.5q29 0 46 -21t17 -54q0 -42 -25 -71t-63 -29q-29 0 -46 21t-17 53zM220 792q0 -25 11 -40.5t31 -15.5q28 0 44.5 24.5t16.5 62.5q0 56 -41 56q-28 0 -45 -24.5t-17 -62.5z" />
    <glyph glyph-name="Tilde" horiz-adv-x="443" 
d="M203 754l-12 6q37 67 59 85q18 15 37 15t60 -28.5t58 -28.5q28 0 62 54l11 -7q-14 -27 -22.5 -41.5t-24 -28t-32.5 -13.5q-22 0 -63.5 28.5t-56.5 28.5q-27 0 -67 -58z" />
    <glyph glyph-name="Acutesmall" horiz-adv-x="323" 
d="M167 600l131 88q15 9 25.5 4.5t10.5 -15.5q0 -17 -18 -26l-145 -61z" />
    <glyph glyph-name="Brevesmall" horiz-adv-x="374" 
d="M271 600q-53 0 -71.5 43.5t-9.5 106.5h14q-2 -49 15.5 -79.5t57.5 -30.5q39 0 65.5 30.5t37.5 79.5h14q-9 -62 -39.5 -106t-83.5 -44z" />
    <glyph glyph-name="Caronsmall" horiz-adv-x="399" 
d="M206 750l83 -115l114 115h17l-134 -160h-7l-90 160h17z" />
    <glyph glyph-name="Cedillasmall" horiz-adv-x="306" 
d="M124 -50l7 50h14l-5 -42q24 -3 45 -21t21 -50q0 -39 -26 -63t-66 -24q-30 0 -56 12l5 13q25 -9 43 -9q32 0 48 23t16 51q0 52 -46 60z" />
    <glyph glyph-name="Circumflexsmall" horiz-adv-x="399" 
d="M299 705l-115 -115h-17l134 160h7l90 -160h-17z" />
    <glyph glyph-name="commaaccent.small" horiz-adv-x="259" 
d="M105 -110q-14 0 -22 9t-8 23q0 17 12 30t29 13q25 0 35 -21.5t10 -46.5q0 -56 -34 -95.5t-74 -59.5l-5 13q33 18 57 46t24 59q0 30 -24 30z" />
    <glyph glyph-name="Dieresissmall" horiz-adv-x="397" 
d="M177 660q0 16 10 26.5t24 10.5q11 0 18.5 -8t7.5 -20q0 -16 -10.5 -26.5t-24.5 -10.5q-11 0 -18 8t-7 20zM347 660q0 16 10 26.5t24 10.5q11 0 18.5 -8t7.5 -20q0 -16 -10.5 -26.5t-24.5 -10.5q-11 0 -18 8t-7 20z" />
    <glyph glyph-name="DieresisAcute.small" horiz-adv-x="451" 
d="M177 660q0 16 10 26.5t24 10.5q11 0 18.5 -8t7.5 -20q0 -16 -10.5 -26.5t-24.5 -10.5q-11 0 -18 8t-7 20zM401 660q0 16 10.5 26.5t24.5 10.5q11 0 18 -8t7 -20q0 -15 -10 -26t-24 -11q-12 0 -19 8t-7 20zM277 641l106 132q9 11 21 13t18 -11q3 -17 -11 -29l-126 -112z
" />
    <glyph glyph-name="DieresisGrave.small" horiz-adv-x="451" 
d="M461 669q0 -15 -10 -26t-24 -11q-12 0 -19 8t-7 20q0 16 10.5 26.5t24.5 10.5q11 0 18 -8t7 -20zM237 669q0 -16 -10.5 -26.5t-24.5 -10.5q-11 0 -18 8t-7 20q0 16 10 26.5t24 10.5q11 0 18.5 -8t7.5 -20zM285 773l68 -132l-9 -7l-94 112q-11 13 -3 29q7 11 19 11t19 -13
z" />
    <glyph glyph-name="Dotaccentsmall" horiz-adv-x="227" 
d="M177 660q0 16 10.5 26.5t24.5 10.5q11 0 18 -8t7 -20q0 -15 -10.5 -26t-23.5 -11q-12 0 -19 8t-7 20z" />
    <glyph glyph-name="Hungarumlautsmall" horiz-adv-x="480" 
d="M166 585l119 111q13 11 25.5 8.5t12.5 -14.5q2 -14 -14 -26l-137 -88zM334 585l119 111q13 11 25 8.5t13 -14.5q3 -16 -14 -26l-137 -88z" />
    <glyph glyph-name="Gravesmall" horiz-adv-x="323" 
d="M218 688l106 -88l-7 -10l-127 61q-13 6 -12 21q1 14 14 20t26 -4z" />
    <glyph glyph-name="dblGrave.small" horiz-adv-x="479" 
d="M389 696l88 -111l-8 -9l-112 88q-15 10 -8 26q4 12 17.5 14.5t22.5 -8.5zM222 696l87 -111l-8 -9l-112 88q-15 10 -8 26q5 12 18 14.5t23 -8.5z" />
    <glyph glyph-name="Macronsmall" horiz-adv-x="399" 
d="M177 656h229l-3 -22h-229z" />
    <glyph glyph-name="Ogoneksmall" horiz-adv-x="306" 
d="M192 -151l4 -9q-35 -40 -70 -40q-33 0 -49.5 27.5t2.5 76t80 96.5h15q-59 -54 -66 -116q-5 -47 26 -54q23 -4 58 19z" />
    <glyph glyph-name="Ringsmall" horiz-adv-x="319" 
d="M178 654q0 42 25 71.5t63 29.5q29 0 46 -21t17 -54q0 -42 -25 -71t-63 -29q-29 0 -46 21t-17 53zM201 652q0 -25 11 -40.5t31 -15.5q28 0 44.5 24.5t16.5 62.5q0 56 -41 56q-28 0 -45 -24.5t-17 -62.5z" />
    <glyph glyph-name="Tildesmall" horiz-adv-x="443" 
d="M183 614l-12 6q37 67 59 85q18 15 37 15t60 -28.5t58 -28.5q28 0 62 54l11 -7q-14 -27 -22.5 -41.5t-24 -28t-32.5 -13.5q-22 0 -63.5 28.5t-56.5 28.5q-27 0 -67 -58z" />
    <glyph glyph-name="middot" horiz-adv-x="227" 
d="M121 260q0 16 10.5 26.5t24.5 10.5q11 0 18 -8t7 -20q0 -15 -10.5 -26t-23.5 -11q-12 0 -19 8t-7 20z" />
    <glyph glyph-name="Asmall" horiz-adv-x="525" 
d="M374 193h-197l-65 -152q-8 -19 10 -22l50 -5l-2 -14h-155l2 14l45 5q21 4 29 21l218 508h38l100 -509q4 -18 22 -20l43 -5l-2 -14h-174l2 14l47 5q21 2 18 22zM185 211h185l-58 295h-1z" />
    <glyph glyph-name="Aogonek.small" horiz-adv-x="525" 
d="M374 193h-197l-65 -152q-8 -19 10 -22l50 -5l-2 -14h-155l2 14l45 5q21 4 29 21l218 508h38l100 -509q4 -18 22 -20l43 -5l-2 -14h-74q-52 -45 -54 -95q-2 -36 27 -39q18 -1 44 15l2 -9q-27 -32 -59 -32q-29 0 -43 22.5t2 61.5t68 76h-87l2 14l47 5q21 2 18 22zM185 211
h185l-58 295h-1z" />
    <glyph glyph-name="AEsmall" horiz-adv-x="695" 
d="M436 267l-34 -249h207q15 0 24 16l41 88h13l-31 -122h-370l2 14l60 5q15 1 17 20l22 154h-173l-102 -152q-6 -9 -2.5 -15t13.5 -7l49 -5l-2 -14h-155l2 14l45 5q16 3 29 21l333 504h300l-17 -122h-13l-5 87q-1 16 -20 16h-196l-34 -240h117q19 0 24 16l20 68h13l-26 -186
h-13l-1 68q0 16 -19 16h-118zM227 212h163l44 313h-1z" />
    <glyph glyph-name="Bsmall" horiz-adv-x="460" 
d="M224 525l-33 -232h76q76 0 114.5 35.5t38.5 100.5q0 96 -115 96h-81zM264 275h-76l-35 -257h96q78 0 116.5 40t38.5 104q0 50 -34 81.5t-106 31.5zM252 0h-215l2 14l60 5q15 1 17 20l66 466q3 19 -12 20l-59 5l2 14h199q73 0 110.5 -31t37.5 -84t-37 -93t-100 -51v-2
q60 -5 91 -41.5t31 -82.5q0 -71 -52 -115t-141 -44z" />
    <glyph glyph-name="Csmall" horiz-adv-x="484" 
d="M464 162l17 -4q-59 -166 -205 -166q-86 0 -139 65.5t-53 169.5q0 137 83 231t194 94q87 0 155 -41l-18 -121h-13q4 84 -30 114.5t-95 30.5q-94 0 -163.5 -84t-69.5 -231q0 -101 43 -155.5t110 -54.5q57 0 107 37t77 115z" />
    <glyph glyph-name="Ccedillasmall" horiz-adv-x="484" 
d="M464 162l17 -4q-57 -162 -200 -166l-5 -34q24 -3 45 -21t21 -50q0 -38 -26 -62.5t-65 -24.5q-31 0 -57 12l6 13q25 -9 43 -9q31 0 47 23t16 51q0 52 -45 60l6 42q-83 4 -133 69t-50 166q0 137 83 231t194 94q87 0 155 -41l-18 -121h-13q4 84 -30 114.5t-95 30.5
q-94 0 -163.5 -84t-69.5 -231q0 -101 43 -155.5t110 -54.5q57 0 107 37t77 115z" />
    <glyph glyph-name="Dsmall" horiz-adv-x="553" 
d="M153 18h102q77 0 135.5 46t86 113t27.5 140q0 93 -46.5 150.5t-138.5 57.5h-95zM254 0h-217l2 14l60 5q15 1 17 20l66 466q3 19 -12 20l-59 5l2 14h217q103 0 159 -59.5t56 -165.5q0 -140 -80 -229.5t-211 -89.5z" />
    <glyph glyph-name="Dcroat.small" horiz-adv-x="553" 
d="M265 259h-79l-33 -241h102q77 0 135.5 46t86 113t27.5 140q0 93 -46.5 150.5t-138.5 57.5h-95l-35 -248h79zM116 39l31 220h-71l3 18h71l32 228q3 19 -12 20l-59 5l2 14h217q103 0 159 -59.5t56 -165.5q0 -140 -80 -229.5t-211 -89.5h-217l2 14l60 5q15 1 17 20z" />
    <glyph glyph-name="Esmall" horiz-adv-x="446" 
d="M224 525l-34 -240h117q21 0 25 16l19 68h14l-26 -186h-14v68q0 16 -20 16h-118l-34 -249h207q15 0 24 16l40 88h14l-32 -122h-369l2 14l60 5q15 1 17 20l66 466q3 19 -12 20l-59 5l2 14h362l-17 -122h-13l-5 87q-1 16 -20 16h-196z" />
    <glyph glyph-name="Eogonek.small" horiz-adv-x="446" 
d="M187 267l-34 -249h207q15 0 24 16l40 88h14l-32 -122q-58 -54 -65 -116q-5 -47 27 -54q23 -3 57 19l4 -9q-33 -40 -70 -40q-33 0 -49.5 27.5t3 76t80.5 96.5h-356l2 14l60 5q15 1 17 20l66 466q3 19 -12 20l-59 5l2 14h362l-17 -122h-13l-5 87q-1 16 -20 16h-196
l-34 -240h117q21 0 25 16l19 68h14l-26 -186h-14v68q0 16 -20 16h-118z" />
    <glyph glyph-name="Fsmall" horiz-adv-x="424" 
d="M186 259l-31 -220q-2 -19 13 -20l73 -5l-2 -14h-202l2 14l60 5q15 1 17 20l66 466q3 19 -12 20l-59 5l2 14h362l-17 -122h-13l-5 87q-1 16 -20 16h-196l-35 -248h117q20 0 25 16l19 68h14l-26 -186h-14v68q0 16 -20 16h-118z" />
    <glyph glyph-name="Gsmall" horiz-adv-x="534" 
d="M85 230q0 135 83 228.5t194 93.5q88 0 154 -41l-17 -121h-13q4 84 -30 114.5t-95 30.5q-95 0 -164 -84t-69 -230q0 -101 45 -156.5t113 -55.5q74 0 134 38l22 156q2 19 -12 20l-58 4l2 14h169l-2 -14l-42 -4q-15 -1 -18 -20l-29 -203h-10l-19 28q-67 -36 -141 -36
q-87 0 -142 67t-55 171z" />
    <glyph glyph-name="Hsmall" horiz-adv-x="579" 
d="M187 267l-32 -228q-1 -19 13 -20l58 -5l-2 -14h-187l2 14l60 5q15 1 17 20l66 466q3 19 -12 20l-59 5l2 14h187l-2 -14l-59 -5q-15 -1 -18 -20l-31 -220h279l31 220q3 19 -12 20l-59 5l2 14h186l-2 -14l-59 -5q-14 -1 -17 -20l-66 -466q-1 -19 12 -20l58 -5l-2 -14h-186
l2 14l60 5q15 1 17 20l32 228h-279z" />
    </font>
</defs>
</svg>
