<?xml version="1.0" standalone="no"?>
<!DOCTYPE svg PUBLIC "-//W3C//DTD SVG 1.1//EN" "http://www.w3.org/Graphics/SVG/1.1/DTD/svg11.dtd" >
<svg xmlns="http://www.w3.org/2000/svg" xmlns:xlink="http://www.w3.org/1999/xlink" version="1.1">
<metadata>
Created by FontForge 20161013 at Sun Jul 25 20:59:59 2010
 By ,,,
Copyright (c) 2009 by Dino dos Santos _DSType. All rights reserved.
</metadata>
<defs>
<font id="VelinoText-BlackItalic" horiz-adv-x="540" >
  <font-face 
    font-family="Velino Text Black Italic"
    font-weight="900"
    font-style="italic"
    font-stretch="normal"
    units-per-em="1000"
    panose-1="2 0 5 3 4 0 0 2 0 4"
    ascent="750"
    descent="-250"
    x-height="500"
    cap-height="680"
    bbox="-129.227 -312 1179 953"
    underline-thickness="50"
    underline-position="-200"
    unicode-range="U+0020-FB04"
  />
<missing-glyph horiz-adv-x="461" 
d="M123 228q0 77 61 135l-57 90l8 8l58 -90q44 36 95 36q50 0 84 -36l83 90l7 -8l-83 -89q31 -37 31 -95q0 -79 -62 -134l57 -86l-10 -9l-57 87q-43 -35 -94 -35q-52 0 -85 35l-80 -87l-7 9l80 86q-29 37 -29 93zM135 231q0 -53 31.5 -90t79.5 -37q59 0 106 49.5t47 113.5
q0 53 -32 90.5t-80 37.5q-59 0 -105.5 -49.5t-46.5 -114.5z" />
    <glyph glyph-name="ff" unicode="ff" horiz-adv-x="645" 
d="M451 453h-167l-66 -459q-13 -91 -80.5 -142.5t-147.5 -51.5q-97 0 -97 68q0 30 19.5 47t42.5 17q22 0 35.5 -18.5t21.5 -37.5t17 -19q18 0 24 46l78 550h-50l4 33l52 14l3 16q13 93 80.5 143.5t154.5 50.5q47 0 81 -16.5t34 -50.5q0 -32 -18.5 -49t-43.5 -17
q-18 0 -33.5 12.5t-24 27t-18.5 27t-18 12.5q-22 0 -27 -40l-17 -116h167l3 16q13 93 80.5 143.5t154.5 50.5q47 0 81 -16.5t34 -50.5q0 -32 -18.5 -49t-43.5 -17q-18 0 -33.5 12.5t-24 27t-18.5 27t-18 12.5q-22 0 -27 -40l-17 -116h97l-6 -47h-97l-66 -459
q-13 -91 -80.5 -142.5t-147.5 -51.5q-97 0 -97 68q0 30 19.5 47t42.5 17q22 0 35.5 -18.5t21.5 -37.5t17 -19q18 0 24 46z" />
    <glyph glyph-name="fi" unicode="fi" horiz-adv-x="595" 
d="M388 30l58 403q3 20 -15 20h-147l-66 -459q-13 -91 -80.5 -142.5t-147.5 -51.5q-97 0 -97 68q0 30 19.5 47t42.5 17q22 0 35.5 -18.5t21.5 -37.5t17 -19q18 0 24 46l78 550h-50l4 33l52 14l3 16q13 96 88.5 155t196.5 59q87 0 128.5 -25.5t41.5 -68.5q0 -39 -27 -62.5
t-57 -23.5q-34 0 -52 21t-22.5 46.5t-19.5 46.5t-44 21q-55 0 -70 -91l-13 -94h157l162 10l6 -8q-13 -39 -19 -86l-49 -346q-3 -25 15 -25h32l-6 -40q-141 -15 -151 -15q-55 0 -49 40z" />
    <glyph glyph-name="fl" unicode="fl" horiz-adv-x="595" 
d="M388 30l74 520q-3 19 -4.5 25t-6.5 27.5t-10.5 31.5t-15 24.5t-23 20.5t-29.5 6q-55 0 -70 -91l-13 -94h97l-6 -47h-97l-66 -459q-13 -91 -80.5 -142.5t-147.5 -51.5q-97 0 -97 68q0 30 19.5 47t42.5 17q22 0 35.5 -18.5t21.5 -37.5t17 -19q18 0 24 46l78 550h-50l4 33
l52 14l3 16q13 97 84.5 155.5t191.5 58.5q72 0 152 -38l69 18l6 -8q-13 -39 -19 -86l-77 -546q-3 -25 15 -25h32l-6 -40q-141 -15 -151 -15q-55 0 -49 40z" />
    <glyph glyph-name="ffi" unicode="ffi" horiz-adv-x="915" 
d="M708 30l58 403q3 20 -15 20h-147l-66 -459q-13 -91 -80.5 -142.5t-147.5 -51.5q-97 0 -97 68q0 30 19.5 47t42.5 17q22 0 35.5 -18.5t21.5 -37.5t17 -19q18 0 24 46l78 550h-167l-66 -459q-13 -91 -80.5 -142.5t-147.5 -51.5q-97 0 -97 68q0 30 19.5 47t42.5 17
q22 0 35.5 -18.5t21.5 -37.5t17 -19q18 0 24 46l78 550h-50l4 33l52 14l3 16q13 93 80.5 143.5t154.5 50.5q47 0 81 -16.5t34 -50.5q0 -32 -18.5 -49t-43.5 -17q-18 0 -33.5 12.5t-24 27t-18.5 27t-18 12.5q-22 0 -27 -40l-17 -116h167l3 16q13 96 88.5 155t196.5 59
q87 0 128.5 -25.5t41.5 -68.5q0 -39 -27 -62.5t-57 -23.5q-34 0 -52 21t-22.5 46.5t-19.5 46.5t-44 21q-55 0 -70 -91l-13 -94h157l162 10l6 -8q-13 -39 -19 -86l-49 -346q-3 -25 15 -25h32l-6 -40q-141 -15 -151 -15q-55 0 -49 40z" />
    <glyph glyph-name="ffl" unicode="ffl" horiz-adv-x="915" 
d="M708 30l74 520q-3 19 -4.5 25t-6.5 27.5t-10.5 31.5t-15 24.5t-23 20.5t-29.5 6q-55 0 -70 -91l-13 -94h97l-6 -47h-97l-66 -459q-13 -91 -80.5 -142.5t-147.5 -51.5q-97 0 -97 68q0 30 19.5 47t42.5 17q22 0 35.5 -18.5t21.5 -37.5t17 -19q18 0 24 46l78 550h-167
l-66 -459q-13 -91 -80.5 -142.5t-147.5 -51.5q-97 0 -97 68q0 30 19.5 47t42.5 17q22 0 35.5 -18.5t21.5 -37.5t17 -19q18 0 24 46l78 550h-50l4 33l52 14l3 16q13 93 80.5 143.5t154.5 50.5q47 0 81 -16.5t34 -50.5q0 -32 -18.5 -49t-43.5 -17q-18 0 -33.5 12.5t-24 27
t-18.5 27t-18 12.5q-22 0 -27 -40l-17 -116h167l3 16q13 97 84.5 155.5t191.5 58.5q72 0 152 -38l69 18l6 -8q-13 -39 -19 -86l-77 -546q-3 -25 15 -25h32l-6 -40q-141 -15 -151 -15q-55 0 -49 40z" />
    <glyph glyph-name="T_h" unicode="Th" horiz-adv-x="1032" 
d="M531 0l87 614q3 20 -15 20h-154l-79 -561q-3 -21 15 -25l40 -8l-5 -40h-292l5 40l43 8q18 4 21 25l79 561h-45q-19 0 -29 -14l-82 -120h-38l25 180h473l205 30l5 -8q-11 -32 -19 -86l-32 -233h2q61 127 175 127q55 0 86 -41t20 -119l-40 -280q-3 -25 15 -25h32l-5 -40
q-18 -2 -74.5 -8.5t-77.5 -6.5q-54 0 -48 40l43 307q4 29 -7 46.5t-36 17.5q-38 0 -66 -37t-35 -88l-39 -276h-153z" />
    <glyph glyph-name="T_h.caron" unicode="&#x164;h" horiz-adv-x="1032" 
d="M531 0l87 614q3 20 -15 20h-154l-79 -561q-3 -21 15 -25l40 -8l-5 -40h-292l5 40l43 8q18 4 21 25l79 561h-45q-19 0 -29 -14l-82 -120h-38l25 180h473l205 30l5 -8q-11 -32 -19 -86l-32 -233h2q61 127 175 127q55 0 86 -41t20 -119l-40 -280q-3 -25 15 -25h32l-5 -40
q-18 -2 -74.5 -8.5t-77.5 -6.5q-54 0 -48 40l43 307q4 29 -7 46.5t-36 17.5q-38 0 -66 -37t-35 -88l-39 -276h-153zM315 910l76 -75l98 75h45l-134 -180h-46l-83 180h44z" />
    <glyph glyph-name="T_h.commaaccent" unicode="&#x162;h" horiz-adv-x="1032" 
d="M531 0l87 614q3 20 -15 20h-154l-79 -561q-3 -21 15 -25l40 -8l-5 -40h-292l5 40l43 8q18 4 21 25l79 561h-45q-19 0 -29 -14l-82 -120h-38l25 180h473l205 30l5 -8q-11 -32 -19 -86l-32 -233h2q61 127 175 127q55 0 86 -41t20 -119l-40 -280q-3 -25 15 -25h32l-5 -40
q-18 -2 -74.5 -8.5t-77.5 -6.5q-54 0 -48 40l43 307q4 29 -7 46.5t-36 17.5q-38 0 -66 -37t-35 -88l-39 -276h-153zM228 -166q-23 0 -35 16t-12 38q0 27 20.5 52t56.5 25q32 0 51.5 -25t19.5 -58q0 -119 -143 -192l-16 31q83 48 83 91q0 22 -25 22z" />
    <glyph glyph-name="f_f_j" unicode="ffj" horiz-adv-x="902" 
d="M131 453h-50l4 33l52 14l3 16q13 93 80.5 143.5t154.5 50.5q47 0 81 -16.5t34 -50.5q0 -32 -18.5 -49t-43.5 -17q-18 0 -33.5 12.5t-24 27t-18.5 27t-18 12.5q-22 0 -27 -40l-17 -116h167l3 16q13 96 88.5 155t196.5 59q87 0 128.5 -25.5t41.5 -68.5q0 -39 -27 -62.5
t-57 -23.5q-34 0 -52 21t-22.5 46.5t-19.5 46.5t-44 21q-55 0 -70 -91l-13 -94h157l162 10l6 -8q-13 -39 -19 -86l-53 -371q-5 -34 -11 -59.5t-22.5 -58.5t-39.5 -56t-63.5 -42.5t-94.5 -28.5l-7 30q34 19 52 58.5t28 111.5l61 433q3 20 -15 20h-147l-66 -459
q-13 -91 -80.5 -142.5t-147.5 -51.5q-97 0 -97 68q0 30 19.5 47t42.5 17q22 0 35.5 -18.5t21.5 -37.5t17 -19q18 0 24 46l78 550h-167l-66 -459q-13 -91 -80.5 -142.5t-147.5 -51.5q-97 0 -97 68q0 30 19.5 47t42.5 17q22 0 35.5 -18.5t21.5 -37.5t17 -19q18 0 24 46z" />
    <glyph glyph-name="f_j" unicode="fj" horiz-adv-x="582" 
d="M284 453l-66 -459q-13 -91 -80.5 -142.5t-147.5 -51.5q-97 0 -97 68q0 30 19.5 47t42.5 17q22 0 35.5 -18.5t21.5 -37.5t17 -19q18 0 24 46l78 550h-50l4 33l52 14l3 16q13 96 88.5 155t196.5 59q87 0 128.5 -25.5t41.5 -68.5q0 -39 -27 -62.5t-57 -23.5q-34 0 -52 21
t-22.5 46.5t-19.5 46.5t-44 21q-55 0 -70 -91l-13 -94h157l162 10l6 -8q-13 -39 -19 -86l-53 -371q-5 -34 -11 -59.5t-22.5 -58.5t-39.5 -56t-63.5 -42.5t-94.5 -28.5l-7 30q34 19 52 58.5t28 111.5l61 433q3 20 -15 20h-147z" />
    <glyph glyph-name=".notdef" horiz-adv-x="461" 
d="M123 228q0 77 61 135l-57 90l8 8l58 -90q44 36 95 36q50 0 84 -36l83 90l7 -8l-83 -89q31 -37 31 -95q0 -79 -62 -134l57 -86l-10 -9l-57 87q-43 -35 -94 -35q-52 0 -85 35l-80 -87l-7 9l80 86q-29 37 -29 93zM135 231q0 -53 31.5 -90t79.5 -37q59 0 106 49.5t47 113.5
q0 53 -32 90.5t-80 37.5q-59 0 -105.5 -49.5t-46.5 -114.5z" />
    <glyph glyph-name=".null" horiz-adv-x="0" 
 />
    <glyph glyph-name="nonmarkingreturn" horiz-adv-x="333" 
 />
    <glyph glyph-name="space" unicode=" " horiz-adv-x="205" 
 />
    <glyph glyph-name="exclam" unicode="!" horiz-adv-x="245" 
d="M62 54q0 33 24.5 57.5t55.5 24.5q25 0 42 -18.5t17 -45.5q0 -33 -24.5 -57.5t-55.5 -24.5q-25 0 -42 18.5t-17 45.5zM168 190h-38l-1 417q0 33 25.5 58t65.5 25t58 -25.5t8 -57.5z" />
    <glyph glyph-name="quotedbl" unicode="&#x22;" horiz-adv-x="493" 
d="M239 450h-37l-26 230h153zM419 450h-37l-26 230h153z" />
    <glyph glyph-name="numbersign" unicode="#" horiz-adv-x="585" 
d="M120 215h119l15 100h-119l5 40h119l20 135h40l-20 -135h85l20 135h40l-20 -135h121l-5 -40h-121l-15 -100h121l-5 -40h-121l-19 -135h-40l19 135h-85l-19 -135h-40l19 135h-119zM294 315l-15 -100h85l15 100h-85z" />
    <glyph glyph-name="dollar" unicode="$" horiz-adv-x="547" 
d="M231 -70l11 60q-44 1 -80.5 13t-49 20.5t-37.5 26.5l7 180h38q37 -103 66.5 -145.5t63.5 -47.5l42 227q-9 7 -42.5 28.5t-47.5 33t-35.5 34t-30.5 49t-9 59.5q0 99 71.5 159.5t170.5 62.5l11 60h21l-11 -61q86 -3 161 -59l-24 -170h-38q-29 97 -51.5 136.5t-56.5 45.5
l-32 -182q14 -12 45 -35.5t49.5 -40t40.5 -41t33 -53.5t11 -62q0 -111 -78 -173t-186 -65l-11 -60h-22zM368 144q0 61 -57 106l-39 -214q48 3 72 32t24 76zM289 561q0 -41 41 -84l30 167q-30 -3 -50.5 -22t-20.5 -61z" />
    <glyph glyph-name="percent" unicode="%" horiz-adv-x="868" 
d="M607 700h38l-290 -720h-38zM306 658q-30 0 -49.5 -44.5t-19.5 -142.5q0 -69 33 -69q30 0 49 44.5t19 141.5q0 70 -32 70zM266 374q-54 0 -88 36.5t-34 96.5q0 78 49 128.5t117 50.5q54 0 88 -36.5t34 -96.5q0 -78 -49 -128.5t-117 -50.5zM693 274q-30 0 -49.5 -44.5
t-19.5 -142.5q0 -69 33 -69q30 0 49 44.5t19 141.5q0 70 -32 70zM653 -10q-54 0 -88 36.5t-34 96.5q0 78 49 128.5t117 50.5q54 0 88 -36.5t34 -96.5q0 -78 -49 -128.5t-117 -50.5z" />
    <glyph glyph-name="ampersand" unicode="&#x26;" horiz-adv-x="678" 
d="M542 295q18 37 -13 49l-42 16l6 40h219l-5 -40l-63 -19q-25 -8 -37 -18t-23 -34q-25 -61 -57 -112l61 -91q13 -20 25.5 -28t33.5 -13l21 -5l-6 -40q-104 -10 -148 -10q-39 0 -60 11.5t-37 37.5l-6 10q-81 -59 -185 -59q-76 0 -123.5 42t-47.5 107q0 126 171 207
q-52 86 -52 157q0 76 56 131.5t153 55.5q57 0 95 -33t38 -91q0 -125 -129 -179l115 -173q20 34 40 81zM305 62q45 0 83 23l-140 227q-46 -76 -46 -142q0 -49 28.5 -78.5t74.5 -29.5zM367 418q21 24 38.5 71t17.5 87q0 68 -44 68q-28 0 -44 -26t-16 -65q0 -65 48 -135z" />
    <glyph glyph-name="quotesingle" unicode="'" horiz-adv-x="313" 
d="M239 450h-37l-26 230h153z" />
    <glyph glyph-name="parenleft" unicode="(" horiz-adv-x="366" 
d="M117 282q0 143 77.5 269.5t207.5 208.5h43q-115 -169 -150 -420t32 -420h-43q-78 61 -122.5 157t-44.5 205z" />
    <glyph glyph-name="parenright" unicode=")" horiz-adv-x="366" 
d="M340 340q-18 -126 -93 -237t-186 -183h-44q115 169 150 420t-32 420h44q91 -72 135 -183t26 -237z" />
    <glyph glyph-name="asterisk" unicode="*" horiz-adv-x="398" 
d="M199 648q21 19 36 3q2 -3 7.5 -18t14 -36.5t15.5 -36.5q0 21 -3.5 59t-3.5 43q0 11 10 19t21 8q9 0 16 -6.5t7 -15.5q0 -4 -6 -21t-15.5 -44t-14.5 -41q9 12 23.5 33.5t25.5 37.5t14 19q8 7 18.5 6.5t16.5 -8.5q6 -7 5 -19t-9 -20q-10 -10 -89 -57q17 3 39 9t38 11t20 5
q8 0 13.5 -8t5.5 -18q0 -12 -9 -22.5t-19 -10.5q-4 0 -18.5 4t-35 9.5t-35.5 8.5q10 -7 27.5 -20t30 -22t15.5 -12q5 -8 2.5 -19.5t-10.5 -19.5t-19 -9t-17 7q-3 3 -8.5 17t-14 35.5t-14.5 35.5q1 -20 4.5 -57t3.5 -42q0 -11 -10 -19.5t-20 -8.5t-17 6.5t-7 16.5q0 4 6 21
t15 42t14 41q-9 -12 -23 -33.5t-24.5 -37t-13.5 -18.5q-8 -7 -18.5 -6t-16.5 9q-6 7 -5 19t9 20q6 7 87 55q-16 -3 -39 -9t-38.5 -10.5t-19.5 -4.5q-7 0 -12 8t-5 18q0 12 7.5 22.5t17.5 10.5q4 0 18.5 -4.5t36 -10t36.5 -8.5q-67 46 -73 56q-6 8 -3.5 19t10.5 19z" />
    <glyph glyph-name="plus" unicode="+" horiz-adv-x="495" 
d="M241 90l21 155h-137l5 40h138l22 155h40l-22 -155h137l-5 -40h-138l-21 -155h-40z" />
    <glyph glyph-name="comma" unicode="," horiz-adv-x="275" 
d="M117 0q-23 0 -35 16t-12 38q0 27 20.5 52t56.5 25q32 0 51.5 -25t19.5 -58q0 -119 -143 -192l-16 31q83 48 83 91q0 22 -25 22z" />
    <glyph glyph-name="hyphen" unicode="-" horiz-adv-x="495" 
d="M130 285h315l-5 -40h-315z" />
    <glyph glyph-name="period" unicode="." horiz-adv-x="244" 
d="M62 54q0 33 24.5 57.5t54.5 24.5q26 0 43 -18.5t17 -45.5q0 -33 -24.5 -57.5t-56.5 -24.5q-25 0 -41.5 19t-16.5 45z" />
    <glyph glyph-name="slash" unicode="/" horiz-adv-x="396" 
d="M371 700h38l-290 -720h-38z" />
    <glyph glyph-name="zero" unicode="0" horiz-adv-x="560" 
d="M371 644q-27 0 -50 -24.5t-43 -76.5t-31.5 -147.5t-11.5 -223.5q0 -136 50 -136q26 0 49 24.5t43.5 76.5t32 147.5t11.5 224.5q0 135 -50 135zM377 690q85 0 139.5 -75.5t54.5 -206.5q0 -187 -88 -302.5t-204 -115.5q-85 0 -140 75t-55 206q0 187 88.5 303t204.5 116z
" />
    <glyph glyph-name="one" unicode="1" horiz-adv-x="395" 
d="M371 685l-86 -612q-3 -22 15 -25l65 -8l-5 -40h-325l5 40l71 8q18 3 21 25l70 495q2 12 -1.5 16.5t-13.5 3.5l-65 -10l1 46l215 61h33z" />
    <glyph glyph-name="two" unicode="2" horiz-adv-x="497" 
d="M452 0h-427l6 46q84 58 146 118t95.5 109t53 101.5t25 89t5.5 78.5q0 102 -49 102q-25 0 -41.5 -14t-34 -42t-26.5 -38q-25 -27 -57.5 -16.5t-32.5 48.5q0 43 53 75.5t140 32.5q57 0 100 -16.5t65.5 -44t33 -57.5t10.5 -63q0 -194 -322 -377l-1 -2h206q23 0 29 15l23 55
h38z" />
    <glyph glyph-name="three" unicode="3" horiz-adv-x="492" 
d="M320 690q86 0 134 -40t48 -101q0 -70 -51 -122.5t-150 -63.5v-3q75 -6 126 -45.5t51 -106.5q0 -97 -79 -157.5t-197 -60.5q-77 0 -121 27.5t-44 64.5q0 31 19.5 49.5t44 18t36.5 -19.5q6 -10 16.5 -38t24 -42t38.5 -14q43 0 68 46.5t25 140.5q0 55 -18.5 86t-51.5 31h-19
l6 46h15q56 0 82.5 43.5t26.5 115.5q0 87 -68 87q-56 0 -121 -61l-25 36q27 30 75.5 56.5t108.5 26.5z" />
    <glyph glyph-name="four" unicode="4" horiz-adv-x="514" 
d="M275 73l12 87h-258l5 34l402 491h77l-67 -473h63l-7 -52h-63l-12 -87q-3 -22 15 -25l40 -8l-5 -40h-272l5 40l43 8q19 3 22 25zM333 485h-2l-226 -273h189z" />
    <glyph glyph-name="five" unicode="5" horiz-adv-x="492" 
d="M194 426l45 -5q125 -13 183 -67t58 -132q0 -101 -79 -166.5t-196 -65.5q-78 0 -123 27.5t-45 64.5q0 31 19.5 49.5t44 18t36.5 -19.5q5 -8 17.5 -37.5t26.5 -43t38 -13.5q49 0 71.5 51.5t22.5 128.5q0 65 -32 111t-92 53l-49 7l50 293h313l-18 -130h-270z" />
    <glyph glyph-name="six" unicode="6" horiz-adv-x="527" 
d="M261 397l1 -1q42 36 105 36q74 0 113 -49.5t39 -127.5t-39.5 -140t-97 -93.5t-118.5 -31.5q-87 0 -137.5 67t-50.5 167q0 180 124 315t329 161q1 -5 3 -15.5t2 -15.5q-104 -20 -180 -96t-93 -176zM367 264q0 105 -53 105q-30 0 -62 -29q-61 -304 19 -304q28 0 48 23
t29.5 59.5t14 72.5t4.5 73z" />
    <glyph glyph-name="seven" unicode="7" horiz-adv-x="467" 
d="M437 548v2h-243q-24 0 -29 -15l-20 -55h-38l29 200h420l-6 -40q-103 -136 -164.5 -277t-126.5 -363h-162q33 112 135 271.5t205 276.5z" />
    <glyph glyph-name="eight" unicode="8" horiz-adv-x="526" 
d="M404 568q0 76 -50 76q-35 0 -55 -31t-20 -72q0 -70 72 -125q53 78 53 152zM352 158q0 37 -23 68t-74 64q-44 -60 -56 -136q-8 -56 11.5 -87t53.5 -31q39 0 63.5 36t24.5 86zM512 207q0 -99 -74.5 -158t-183.5 -59q-85 0 -138.5 36t-53.5 110q0 62 45.5 113.5t109.5 66.5
q-83 63 -83 164q0 95 68 152.5t159 57.5q67 0 114.5 -37t47.5 -102q0 -54 -35.5 -96t-101.5 -62q126 -81 126 -186z" />
    <glyph glyph-name="nine" unicode="9" horiz-adv-x="527" 
d="M362 282l-1 1q-41 -35 -105 -35q-74 0 -113 49.5t-39 127.5t40 140t97.5 93.5t117.5 31.5q87 0 137.5 -67t50.5 -167q0 -180 -124 -315t-328 -161q-6 29 -6 31q105 20 180.5 95.5t92.5 175.5zM261 470q-22 -159 48 -159q31 0 62 29q59 304 -19 304q-66 0 -91 -174z" />
    <glyph glyph-name="colon" unicode=":" horiz-adv-x="244" 
d="M104 351q0 33 24 57.5t55 24.5q25 0 42 -18.5t17 -45.5q0 -33 -24 -57.5t-56 -24.5q-25 0 -41.5 19t-16.5 45zM62 54q0 33 24.5 57.5t54.5 24.5q26 0 43 -18.5t17 -45.5q0 -33 -24.5 -57.5t-56.5 -24.5q-25 0 -41.5 19t-16.5 45z" />
    <glyph glyph-name="semicolon" unicode=";" horiz-adv-x="275" 
d="M118 351q0 33 24.5 57.5t54.5 24.5q26 0 43 -18.5t17 -45.5q0 -33 -24.5 -57.5t-55.5 -24.5q-25 0 -42 18.5t-17 45.5zM117 0q-23 0 -35 16t-12 38q0 27 20.5 52t56.5 25q32 0 51.5 -25t19.5 -58q0 -119 -143 -192l-16 31q83 48 83 91q0 22 -25 22z" />
    <glyph glyph-name="less" unicode="&#x3c;" horiz-adv-x="432" 
d="M400 419l-213 -149l172 -149l-7 -46l-225 190l1 10l279 190z" />
    <glyph glyph-name="equal" unicode="=" horiz-adv-x="495" 
d="M120 215h315l-5 -40h-315zM140 355h315l-5 -40h-315z" />
    <glyph glyph-name="greater" unicode="&#x3e;" horiz-adv-x="432" 
d="M321 270l-172 149l7 46l225 -190l-1 -10l-279 -190l7 46z" />
    <glyph glyph-name="question" unicode="?" horiz-adv-x="461" 
d="M308 644q-26 0 -44 -13t-40.5 -44t-27.5 -37q-24 -27 -57 -16.5t-33 48.5q0 43 60.5 75.5t163.5 32.5q93 0 136 -44.5t43 -111.5q0 -24 -4.5 -47t-19 -51t-38 -50t-66 -40.5t-98.5 -25.5l-27 -130h-39l14 154q63 24 95.5 80.5t32.5 125.5q0 45 -13.5 69.5t-37.5 24.5z
M149 54q0 33 24 57.5t55 24.5q25 0 42 -18.5t17 -45.5q0 -33 -24 -57.5t-56 -24.5q-25 0 -41.5 19t-16.5 45z" />
    <glyph glyph-name="at" unicode="@" horiz-adv-x="820" 
d="M502 166l35 122q11 43 3 64.5t-30 21.5q-25 0 -47.5 -33.5t-47.5 -103.5q-12 -35 -19 -64.5t-8 -54t6.5 -38.5t24.5 -14q23 0 46.5 27.5t36.5 72.5zM567 355l79 50h28l-80 -262q-26 -83 6 -83q56 0 110.5 88t54.5 183q0 62 -23 108.5t-60 71t-75 35.5t-77 11
q-125 0 -219.5 -113t-94.5 -276q0 -124 62.5 -186t152.5 -62q57 0 118.5 20.5t109.5 59.5l7 -25q-120 -96 -260 -96q-131 0 -219 79.5t-88 216.5q0 106 54 201.5t156 157t228 61.5q115 0 185.5 -68t70.5 -188t-69.5 -219.5t-153.5 -99.5q-36 0 -58.5 23t-20.5 53
q-17 -35 -46 -55.5t-57 -20.5q-47 0 -70 36t-20.5 88t24.5 108q28 72 79.5 120t108.5 48q25 0 41.5 -17.5t13.5 -47.5h2z" />
    <glyph glyph-name="A" unicode="A" horiz-adv-x="657" 
d="M383 229h-164l-49 -126q-11 -27 20 -40l50 -23l-5 -40h-228l5 40l55 20q35 11 49 45l230 580h140l115 -604q6 -29 25 -33l29 -8l-5 -40h-303l5 40l37 8q16 3 19.5 14.5t-0.5 22.5zM238 280h138l-38 249h-2z" />
    <glyph glyph-name="B" unicode="B" horiz-adv-x="587" 
d="M304 335l-41 -289h45q37 0 61.5 29t32.5 66t8 82q0 112 -80 112h-26zM373 634h-27l-35 -253h26q48 0 69.5 39.5t21.5 132.5q0 81 -55 81zM354 0h-329l5 40l44 8q18 3 21 25l75 534q3 22 -14 25l-41 8l6 40h301q90 0 138.5 -40t48.5 -106q0 -68 -52.5 -116.5t-149.5 -60.5
v-2q94 -5 138 -50t44 -105q0 -88 -62.5 -144t-172.5 -56z" />
    <glyph glyph-name="C" unicode="C" horiz-adv-x="595" 
d="M571 230l42 -13q-39 -119 -108 -173t-152 -54q-128 0 -199 80.5t-71 212.5q0 174 105.5 290t264.5 116q61 0 116 -18.5t84 -40.5l-24 -170h-38q-36 105 -64.5 144.5t-72.5 39.5q-87 0 -140 -100t-53 -300t118 -200q57 0 109 45t83 141z" />
    <glyph glyph-name="D" unicode="D" horiz-adv-x="700" 
d="M263 46h48q59 0 103 31.5t69 86t37.5 121t12.5 143.5q0 206 -148 206h-39zM324 0h-299l5 40l44 8q18 3 21 25l75 534q3 22 -14 25l-41 8l6 40h299q132 0 212 -78t80 -212q0 -168 -112.5 -279t-275.5 -111z" />
    <glyph glyph-name="E" unicode="E" horiz-adv-x="555" 
d="M346 634l-38 -266h40q20 0 29 15l56 87h38l-35 -250h-38l-32 87q-4 15 -24 15h-39l-40 -276h139q16 0 29 15l98 119h38l-43 -180h-499l5 40l44 8q18 3 21 25l75 534q3 22 -14 25l-41 8l6 40h489l-26 -180h-38l-48 119q-6 15 -25 15h-127z" />
    <glyph glyph-name="F" unicode="F" horiz-adv-x="527" 
d="M301 312l-34 -239q-3 -22 15 -25l58 -8l-5 -40h-310l5 40l44 8q18 3 21 25l75 534q3 22 -14 25l-41 8l6 40h490l-26 -180h-38l-49 119q-6 15 -25 15h-127l-39 -276h40q20 0 29 15l56 87h38l-35 -250h-38l-32 87q-4 15 -25 15h-39z" />
    <glyph glyph-name="G" unicode="G" horiz-adv-x="657" 
d="M88 340q21 154 122 251.5t243 97.5q61 0 116 -18.5t83 -40.5l-23 -170h-38q-36 104 -65 144t-72 40q-89 0 -144 -106.5t-55 -329.5q0 -84 23.5 -128t78.5 -44q37 0 66 19l27 193q3 22 -15 25l-31 5l5 40h275l-5 -40l-36 -5q-18 -3 -21 -25l-35 -248h-33l-59 21
q-77 -31 -155 -31q-141 0 -207.5 97t-44.5 253z" />
    <glyph glyph-name="H" unicode="H" horiz-adv-x="720" 
d="M302 319l-35 -246q-3 -22 15 -25l40 -8l-5 -40h-292l5 40l44 8q18 3 21 25l75 534q3 22 -14 25l-41 8l6 40h292l-6 -40l-43 -8q-19 -3 -22 -25l-33 -236h205l33 236q3 21 -14 25l-41 8l6 40h293l-6 -40l-43 -8q-19 -4 -22 -25l-75 -534q-3 -21 15 -25l40 -8l-5 -40h-293
l5 40l44 8q18 4 21 25l35 246h-205z" />
    <glyph glyph-name="I" unicode="I" horiz-adv-x="342" 
d="M342 607l-75 -534q-3 -22 15 -25l40 -8l-5 -40h-292l5 40l44 8q18 3 21 25l75 534q3 22 -14 25l-41 8l6 40h292l-6 -40l-43 -8q-19 -3 -22 -25z" />
    <glyph glyph-name="J" unicode="J" horiz-adv-x="327" 
d="M335 607l-78 -560q-31 -211 -255 -247l-11 30q38 23 57 61.5t29 108.5l85 607q3 21 -14 25l-41 8l6 40h293l-6 -40l-43 -8q-19 -4 -22 -25z" />
    <glyph glyph-name="K" unicode="K" horiz-adv-x="720" 
d="M338 318l-42 -42l-29 -203q-3 -22 15 -25l40 -8l-5 -40h-292l5 40l44 8q18 3 21 25l75 534q3 22 -14 25l-41 8l6 40h292l-6 -40l-43 -8q-19 -3 -22 -25l-36 -256l228 227q10 9 9.5 21t-12.5 18l-41 23l6 40h255l-6 -40l-64 -21q-55 -18 -92 -55l-111 -113l174 -372
q12 -24 36 -31l27 -8l-5 -40h-305l5 40l19 6q18 8 6 37z" />
    <glyph glyph-name="L" unicode="L" horiz-adv-x="542" 
d="M342 607l-79 -561h129q16 0 29 15l98 119h38l-43 -180h-489l5 40l44 8q18 3 21 25l75 534q3 22 -14 25l-41 8l6 40h292l-6 -40l-43 -8q-19 -3 -22 -25z" />
    <glyph glyph-name="M" unicode="M" horiz-adv-x="810" 
d="M628 540l-232 -545h-41l-116 547l-63 -441q-4 -28 22 -38l59 -23l-5 -40h-232l5 40l67 23q31 12 34 38l70 506q3 22 -14 25l-72 8l6 40h275l79 -387l167 387h244l-6 -40l-43 -8q-19 -4 -22 -25l-75 -534q-3 -21 15 -25l40 -8l-5 -40h-293l5 40l44 8q18 4 21 25z" />
    <glyph glyph-name="N" unicode="N" horiz-adv-x="697" 
d="M538 -5l-295 581l-67 -475q-4 -29 21 -38l60 -23l-5 -40h-232l5 40l66 23q31 12 34 38l71 506q3 22 -14 25l-72 8l6 40h277l192 -373l38 269q4 28 -23 38l-61 26l6 40h236l-6 -40l-67 -26q-30 -11 -34 -38l-82 -581h-54z" />
    <glyph glyph-name="O" unicode="O" horiz-adv-x="732" 
d="M83 289q0 92 33 169t86.5 127t121 77.5t138.5 27.5q119 0 200.5 -81t81.5 -219q0 -121 -57 -214.5t-142.5 -139.5t-181.5 -46q-119 0 -199.5 80.5t-80.5 218.5zM257 223q0 -187 113 -187q93 0 146 100.5t53 317.5q0 190 -114 190q-92 0 -145 -101t-53 -320z" />
    <glyph glyph-name="P" unicode="P" horiz-adv-x="580" 
d="M346 634l-43 -306h41q109 0 109 208q0 98 -66 98h-41zM386 282h-89l-30 -209q-3 -22 15 -25l58 -8l-5 -40h-310l5 40l44 8q18 3 21 25l75 534q3 22 -14 25l-41 8l6 40h321q93 0 141.5 -48t48.5 -123q0 -93 -66 -160t-180 -67z" />
    <glyph glyph-name="Q" unicode="Q" horiz-adv-x="732" 
d="M83 289q0 92 33 169t86.5 127t121 77.5t138.5 27.5q119 0 200.5 -81t81.5 -219q0 -156 -89 -261t-217 -131q-6 -45 17.5 -73.5t60 -30.5t74.5 15l8 -31q-29 -26 -76.5 -42t-89.5 -16q-64 0 -110.5 45t-38.5 135q-89 25 -144.5 100t-55.5 189zM257 223q0 -187 113 -187
q93 0 146 100.5t53 317.5q0 190 -114 190q-92 0 -145 -101t-53 -320z" />
    <glyph glyph-name="R" unicode="R" horiz-adv-x="655" 
d="M306 353h41q50 0 78.5 47t28.5 138q0 96 -67 96h-41zM427 328v-2q123 -23 142 -101l34 -148q4 -21 25 -29l24 -8l-5 -40q-102 -10 -141 -10q-30 0 -49.5 6t-29 19t-13.5 24t-8 31l-39 194q-5 27 -14.5 35t-26.5 8h-26l-33 -234q-3 -22 15 -25l58 -8l-5 -40h-310l5 40
l44 8q18 3 21 25l75 534q3 22 -14 25l-41 8l6 40h316q96 0 146.5 -42t50.5 -114q0 -85 -63 -137t-144 -59z" />
    <glyph glyph-name="S" unicode="S" horiz-adv-x="497" 
d="M228 -10q-47 0 -86 11.5t-53 20.5t-39 28l7 180h38q41 -112 72.5 -153t71.5 -41q52 0 78 29.5t26 77.5q0 75 -87 122q-72 38 -113 83t-41 118q0 102 74 163t175 61q95 0 175 -60l-24 -170h-38q-31 106 -56 145t-66 39q-31 0 -54.5 -20t-23.5 -67q0 -35 26 -64t89 -63
q55 -29 90 -80t35 -117q0 -117 -82 -180t-194 -63z" />
    <glyph glyph-name="T" unicode="T" horiz-adv-x="547" 
d="M276 634h-45q-19 0 -29 -14l-82 -120h-38l25 180h523l-25 -180h-38l-50 119q-6 15 -25 15h-43l-79 -561q-3 -21 15 -25l40 -8l-5 -40h-292l5 40l43 8q18 4 21 25z" />
    <glyph glyph-name="U" unicode="U" horiz-adv-x="695" 
d="M576 255l45 318q4 31 -21 41l-62 26l5 40h235l-5 -40l-67 -26q-31 -13 -35 -41l-45 -317q-18 -128 -91 -197t-189 -69q-132 0 -191 70t-41 197l49 350q3 21 -15 25l-40 8l5 40h293l-5 -40l-44 -8q-18 -4 -21 -25l-50 -356q-15 -99 11.5 -146.5t100.5 -47.5q73 0 119 53.5
t59 144.5z" />
    <glyph glyph-name="V" unicode="V" horiz-adv-x="677" 
d="M345 595l77 -448h2l180 430q11 28 -20 40l-52 23l5 40h228l-5 -40l-55 -20q-34 -11 -48 -45l-244 -580h-140l-121 604q-8 29 -25 33l-30 8l5 40h303l-5 -40l-37 -8q-25 -5 -18 -37z" />
    <glyph glyph-name="W" unicode="W" horiz-adv-x="992" 
d="M413 170l120 273l-26 159q-3 24 -21 30l-24 8l5 40h295l-5 -40l-38 -8q-24 -6 -19 -40l55 -422h2l162 405q12 31 -18 42l-64 23l5 40h238l-5 -40l-61 -23q-34 -13 -47 -44l-229 -578h-137l-55 365l-160 -365h-130l-103 605q-4 28 -21 32l-35 8l5 40h305l-5 -39l-37 -9
q-16 -5 -19.5 -17.5t0.5 -22.5l65 -422h2z" />
    <glyph glyph-name="X" unicode="X" horiz-adv-x="682" 
d="M455 442l107 141q20 25 -7 37l-43 20l6 40h228l-6 -40l-69 -26q-34 -11 -56 -40l-138 -184l137 -309q13 -29 30 -33l33 -8l-5 -40h-316l5 40l31 8q26 6 15 32l-86 190l-124 -171q-19 -26 12 -41l38 -18l-5 -40h-232l5 40l63 22q40 14 64 47l158 213l-114 278
q-10 25 -33 32l-31 8l6 40h320l-6 -40l-33 -8q-26 -6 -14 -32z" />
    <glyph glyph-name="Y" unicode="Y" horiz-adv-x="657" 
d="M629 576l-178 -318l-26 -185q-3 -21 15 -25l40 -8l-5 -40h-293l5 40l44 8q18 4 21 25l25 179l-123 345q-10 28 -24 33l-33 10l5 40h295l-5 -40l-26 -6q-29 -9 -19 -41l89 -261h1l136 247q14 26 -15 38l-51 23l5 40h233l-5 -40l-63 -23q-33 -12 -48 -41z" />
    <glyph glyph-name="Z" unicode="Z" horiz-adv-x="542" 
d="M17 40l387 592v2h-154q-19 0 -29 -15l-83 -119h-38l26 180h488l-7 -40l-386 -594h170q17 0 29 15l98 119h37l-43 -180h-500z" />
    <glyph glyph-name="bracketleft" unicode="[" horiz-adv-x="372" 
d="M326 -80h-251l118 840h251l-6 -46h-78l-106 -748h78z" />
    <glyph glyph-name="backslash" unicode="\" horiz-adv-x="396" 
d="M182 700h38l88 -720h-38z" />
    <glyph glyph-name="bracketright" unicode="]" horiz-adv-x="372" 
d="M275 -80h-252l6 46h79l106 748h-79l6 46h252z" />
    <glyph glyph-name="asciicircum" unicode="^" horiz-adv-x="423" 
d="M271 425l-98 -75h-44l133 180h46l84 -180h-45z" />
    <glyph glyph-name="underscore" unicode="_" horiz-adv-x="585" 
d="M83 -45h405l-5 -40h-405z" />
    <glyph glyph-name="grave" unicode="`" horiz-adv-x="342" 
d="M253 672l92 -104l-16 -25l-125 45q-43 16 -36 54q5 30 35 41t50 -11z" />
    <glyph glyph-name="a" unicode="a" horiz-adv-x="550" 
d="M341 30l8 56h-1q-47 -96 -139 -96q-73 0 -113.5 53t-40.5 150q0 136 69.5 226.5t169.5 90.5q63 0 108 -41h1l125 41h34l-62 -440q-3 -22 14 -25l34 -5l-6 -40q-114 -10 -152 -10q-56 0 -49 40zM366 206l31 221q-20 12 -54 12q-129 0 -129 -252q0 -114 62 -114
q26 0 52.5 29t37.5 104z" />
    <glyph glyph-name="b" unicode="b" horiz-adv-x="556" 
d="M66 -10l87 624q3 20 -15 20h-32l6 40l207 36l6 -8q-8 -20 -18 -74l-30 -216h2q24 51 62.5 74.5t77.5 23.5q72 0 111.5 -52.5t39.5 -148.5q0 -137 -68 -228t-168 -91q-64 0 -109 41h-2l-125 -41h-32zM260 294l-31 -221q22 -12 56 -12q126 0 126 254q0 112 -61 112
q-9 0 -20 -5t-25.5 -18t-26.5 -41.5t-18 -68.5z" />
    <glyph glyph-name="c" unicode="c" horiz-adv-x="470" 
d="M260 -10q-104 0 -160.5 68.5t-40.5 186.5q17 121 104 193t189 72q75 0 116.5 -28t41.5 -66q0 -31 -20 -50.5t-44 -19t-36 20.5q-7 11 -14.5 38.5t-19 43t-36.5 15.5q-57 0 -88.5 -72.5t-31.5 -158.5q0 -73 28.5 -113.5t84.5 -40.5q55 0 118 49l15 -27q-30 -43 -84.5 -77
t-121.5 -34z" />
    <glyph glyph-name="d" unicode="d" horiz-adv-x="550" 
d="M577 616l-77 -546q-3 -22 14 -25l34 -5l-6 -40q-114 -10 -152 -10q-55 0 -49 40l8 57h-1q-47 -97 -139 -97q-73 0 -113.5 53t-40.5 150q0 136 69.5 226.5t169.5 90.5q63 0 108 -41h1l20 145q3 20 -15 20h-32l6 40l208 36l5 -8q-13 -42 -18 -86zM366 206l31 221
q-20 12 -54 12q-129 0 -129 -250q0 -116 64 -116q9 0 20 5t25 18t25.5 41.5t17.5 68.5z" />
    <glyph glyph-name="e" unicode="e" horiz-adv-x="470" 
d="M335 464q-42 0 -72 -55.5t-41 -150.5q60 24 103.5 65t43.5 100q0 41 -34 41zM222 219q-5 -53 25.5 -96.5t86.5 -43.5q58 0 119 49l16 -27q-31 -43 -86.5 -77t-121.5 -34q-88 0 -145.5 53.5t-57.5 149.5q0 124 79.5 220.5t206.5 96.5q57 0 98.5 -31.5t41.5 -80.5
q0 -62 -58 -108t-204 -71z" />
    <glyph glyph-name="f" unicode="f" horiz-adv-x="325" 
d="M53 -97l78 550h-50l4 33l52 14l3 16q13 93 80.5 143.5t154.5 50.5q47 0 81 -16.5t34 -50.5q0 -32 -18.5 -49t-43.5 -17q-18 0 -33.5 12.5t-24 27t-18.5 27t-18 12.5q-22 0 -27 -40l-17 -116h97l-6 -47h-97l-66 -459q-13 -91 -80.5 -142.5t-147.5 -51.5q-97 0 -97 68
q0 30 19.5 47t42.5 17q22 0 35.5 -18.5t21.5 -37.5t17 -19q18 0 24 46z" />
    <glyph glyph-name="g" unicode="g" horiz-adv-x="542" 
d="M342 30l7 56h-1q-47 -96 -139 -96q-73 0 -113.5 53t-40.5 150q0 136 69.5 226.5t169.5 90.5q63 0 108 -41h1l125 41h34l-62 -445q-17 -121 -103.5 -193t-188.5 -72q-81 0 -123 31t-36 71q6 43 44 56.5t56 -15.5q7 -11 14.5 -39t19.5 -43t37 -15q45 0 78.5 53t43.5 131z
M366 206l31 221q-20 12 -54 12q-129 0 -129 -252q0 -114 62 -114q26 0 52.5 29t37.5 104z" />
    <glyph glyph-name="h" unicode="h" horiz-adv-x="567" 
d="M557 350l-39 -280q-3 -25 15 -25h32l-6 -40q-19 -2 -74.5 -8.5t-76.5 -6.5q-55 0 -49 40l43 307q4 29 -7 46.5t-36 17.5q-38 0 -65.5 -37t-34.5 -88l-40 -276h-153l87 614q3 20 -15 20h-32l6 40l207 36l7 -8q-13 -39 -19 -86l-33 -233h2q61 127 175 127q55 0 86 -41
t20 -119z" />
    <glyph glyph-name="i" unicode="i" horiz-adv-x="277" 
d="M147 640q5 37 33 58.5t65 21.5q36 0 57 -21.5t16 -58.5t-32.5 -58.5t-63.5 -21.5q-37 0 -58.5 21.5t-16.5 58.5zM71 30l54 384q3 20 -15 20h-32l5 40l208 36l6 -8q-11 -32 -19 -86l-49 -346q-3 -25 15 -25h32l-5 -40q-141 -15 -152 -15q-54 0 -48 40z" />
    <glyph glyph-name="j" unicode="j" horiz-adv-x="262" 
d="M147 629q0 41 28.5 66t68.5 25q34 0 55 -18.5t21 -50.5q0 -41 -29 -66t-69 -25q-33 0 -54 18.5t-21 50.5zM278 416l-53 -371q-5 -34 -11 -59.5t-22.5 -58.5t-39.5 -56t-63.5 -42.5t-94.5 -28.5l-7 30q34 19 52 58.5t28 111.5l58 414q3 20 -15 20h-32l5 40l208 36l6 -8
q-13 -39 -19 -86z" />
    <glyph glyph-name="k" unicode="k" horiz-adv-x="587" 
d="M429 355l115 -295q6 -15 23 -15h26l-5 -40q-117 -15 -146 -15q-32 0 -49 10t-27 36l-72 206l-46 -38l-28 -204h-153l86 614q3 20 -15 20h-32l5 40l208 36l7 -8q-12 -30 -20 -86l-49 -353l174 140q24 24 -11 41l-38 16l6 40h235l-6 -40l-54 -19q-52 -19 -93 -52z" />
    <glyph glyph-name="l" unicode="l" horiz-adv-x="277" 
d="M71 30l82 584q3 20 -15 20h-32l5 40l208 36l7 -8q-12 -30 -20 -86l-77 -546q-3 -25 15 -25h32l-5 -40q-141 -15 -152 -15q-54 0 -48 40z" />
    <glyph glyph-name="m" unicode="m" horiz-adv-x="855" 
d="M647 30l43 307q4 29 -7 46.5t-36 17.5q-38 0 -66 -37t-35 -88l-39 -276h-153l48 337q4 29 -7 46.5t-36 17.5q-38 0 -66 -37t-35 -88l-39 -276h-153l59 414q3 20 -15 20h-32l5 40l208 36l6 -8q-11 -32 -19 -86l-4 -33h2q61 127 175 127q51 0 80.5 -33.5t29.5 -93.5h2
q61 127 176 127q55 0 86 -41t20 -119l-40 -280q-3 -25 15 -25h32l-5 -40q-141 -15 -152 -15q-54 0 -48 40z" />
    <glyph glyph-name="n" unicode="n" horiz-adv-x="567" 
d="M359 30l43 307q4 29 -7 46.5t-36 17.5q-38 0 -66 -37t-35 -88l-39 -276h-153l59 414q3 20 -15 20h-32l5 40l208 36l6 -8q-11 -32 -19 -86l-4 -33h2q61 127 175 127q55 0 86 -41t20 -119l-40 -280q-3 -25 15 -25h32l-5 -40q-141 -15 -152 -15q-54 0 -48 40z" />
    <glyph glyph-name="o" unicode="o" horiz-adv-x="520" 
d="M328 464q-50 0 -83.5 -73.5t-33.5 -232.5q0 -122 56 -122q49 0 81.5 74.5t32.5 236.5q0 117 -53 117zM261 -10q-91 0 -147.5 61t-56.5 161q0 130 81 214t196 84q89 0 144.5 -60.5t55.5 -160.5q0 -130 -80 -214.5t-193 -84.5z" />
    <glyph glyph-name="p" unicode="p" horiz-adv-x="555" 
d="M49 -127l76 541q3 20 -15 20h-32l5 40l208 36l6 -8q-13 -35 -18 -74l-2 -16h2q24 51 62.5 74.5t77.5 23.5q72 0 111 -52.5t39 -148.5q0 -137 -67.5 -228t-167.5 -91q-64 0 -109 41h-2l-22 -158q-3 -22 15 -25l49 -8l-5 -40h-271l5 40l34 8q18 5 21 25zM260 294l-31 -221
q22 -12 56 -12q125 0 125 254q0 112 -61 112q-9 0 -20 -5t-25 -18t-26 -41.5t-18 -68.5z" />
    <glyph glyph-name="q" unicode="q" horiz-adv-x="542" 
d="M319 -127l30 213h-1q-47 -96 -139 -96q-73 0 -113.5 53t-40.5 150q0 136 69.5 226.5t169.5 90.5q63 0 108 -41h1l125 41h34l-90 -637q-3 -21 15 -25l32 -8l-5 -40h-272l5 40l51 8q18 3 21 25zM366 206l31 221q-20 12 -54 12q-129 0 -129 -252q0 -114 62 -114
q26 0 52.5 29t37.5 104z" />
    <glyph glyph-name="r" unicode="r" horiz-adv-x="420" 
d="M273 381h2q56 129 133 129q29 0 47.5 -18t18.5 -48q0 -36 -22.5 -61t-55.5 -25q-18 0 -37 10t-26 10q-26 0 -47 -27t-28 -75l-39 -276h-153l59 414q3 20 -15 20h-32l5 40l208 36l6 -8q-11 -32 -19 -86z" />
    <glyph glyph-name="s" unicode="s" horiz-adv-x="407" 
d="M278 464q-27 0 -43 -18t-16 -46q0 -22 19 -40t46 -33.5t54 -34t46 -48t19 -68.5q0 -82 -61 -134t-147 -52q-91 0 -134 28.5t-43 66.5q0 31 21 49t45 18q22 0 34.5 -18t16.5 -40t17.5 -40t38.5 -18q29 0 47.5 18.5t18.5 51.5q0 26 -18.5 45.5t-44.5 34t-52 31.5t-44.5 47
t-18.5 70q0 75 52.5 125.5t149.5 50.5q79 0 120.5 -28.5t41.5 -64.5q0 -27 -18.5 -48t-46.5 -21q-22 0 -34.5 18t-16 40t-15.5 40t-34 18z" />
    <glyph glyph-name="t" unicode="t" horiz-adv-x="330" 
d="M87 488l45 5q28 3 52 30l88 97h35l-17 -120h98l-7 -47h-98l-46 -331q-5 -39 7 -52.5t38 -13.5q22 0 49 12l-3 -43q-66 -35 -147 -35q-58 0 -83 24.5t-16 85.5l49 353h-50z" />
    <glyph glyph-name="u" unicode="u" horiz-adv-x="572" 
d="M87 150l38 264q3 20 -15 20h-32l5 40l207 36l7 -8q-13 -37 -20 -86l-35 -253q-5 -28 6.5 -46t36.5 -18q39 0 66.5 37.5t33.5 87.5l27 190q3 20 -15 20h-50l5 40l226 36l6 -8q-11 -32 -19 -86l-48 -346q-3 -22 14 -25l34 -5l-7 -40q-110 -10 -151 -10q-55 0 -49 40l12 86
h-1q-62 -126 -176 -126q-55 0 -86 41t-20 119z" />
    <glyph glyph-name="v" unicode="v" horiz-adv-x="550" 
d="M443 191l-118 -196h-103l-108 441q-4 19 -29 19h-18l6 40q105 15 135 15q32 0 50.5 -11t24.5 -39l74 -332h2l24 39q26 41 27.5 93t-10 108t-11.5 70q0 33 19.5 52.5t52.5 19.5q29 0 51.5 -18.5t22.5 -54.5q0 -90 -92 -246z" />
    <glyph glyph-name="w" unicode="w" horiz-adv-x="810" 
d="M434 251l-45 185q-4 19 -29 19h-18l6 40q105 15 135 15q32 0 50.5 -11t24.5 -39l74 -332h2l24 39q26 41 27.5 93t-10 108t-11.5 70q0 33 19.5 52.5t52.5 19.5q29 0 51.5 -18.5t22.5 -54.5q0 -90 -92 -246l-118 -196h-103l-50 201l-122 -201h-103l-108 441q-4 19 -29 19
h-18l6 40q105 15 135 15q32 0 50.5 -11t24.5 -39l74 -332h2z" />
    <glyph glyph-name="x" unicode="x" horiz-adv-x="532" 
d="M228 218l-99 218q-8 19 -29 19h-17l5 40q111 15 135 15q31 0 48 -11t29 -37l58 -132l64 75q18 21 0 35l-24 20l6 40h177l-6 -40l-56 -24q-28 -11 -52 -39l-90 -102l101 -231q10 -19 30 -19h17l-5 -40q-111 -15 -135 -15q-31 0 -48 10t-29 36l-65 145l-70 -87
q-19 -22 3 -35l29 -19l-5 -40h-188l5 40l54 21q31 11 57 42z" />
    <glyph glyph-name="y" unicode="y" horiz-adv-x="550" 
d="M236 -67l-122 503q-4 19 -29 19h-18l6 40q105 15 135 15q32 0 50.5 -11t24.5 -39l74 -332h2l24 39q26 41 27.5 93t-10 108t-11.5 70q0 33 19.5 52.5t52.5 19.5q29 0 51.5 -18.5t22.5 -54.5q0 -90 -92 -246l-112 -186q-61 -104 -112 -154.5t-111 -50.5q-33 0 -55.5 17
t-17.5 53q6 37 39 45t59 -15q56 -45 103 33z" />
    <glyph glyph-name="z" unicode="z" horiz-adv-x="460" 
d="M38 0l-14 34l327 334v2h-191q-18 0 -29 -15l-21 -30h-31l36 175h387v-33l-330 -341l1 -2q44 19 94 19q23 0 59.5 -8t50.5 -8q32 0 50 23l20 25h31l-31 -101q-25 -84 -103 -84q-27 0 -99.5 14t-112.5 14q-55 0 -94 -18z" />
    <glyph glyph-name="braceleft" unicode="{" horiz-adv-x="396" 
d="M212 341v-2q120 -8 120 -78q0 -47 -29 -117t-29 -119q0 -59 43 -59l-6 -46q-109 0 -154.5 25t-45.5 83q0 45 29 125.5t29 109.5q0 30 -12.5 42t-41.5 12l6 46q39 0 57 22t18 75q0 14 -2.5 58t-2.5 67q0 100 49 137.5t189 37.5l-7 -46q-67 0 -67 -118q0 -19 2.5 -60
t2.5 -62q0 -67 -35 -96.5t-113 -36.5z" />
    <glyph glyph-name="bar" unicode="|" horiz-adv-x="243" 
d="M98 -20l101 720h41l-101 -720h-41z" />
    <glyph glyph-name="braceright" unicode="}" horiz-adv-x="396" 
d="M280 339v2q-121 12 -121 79q0 47 29 116.5t29 118.5q0 59 -43 59l6 46q109 0 154.5 -25t45.5 -83q0 -45 -29 -125.5t-29 -109.5q0 -30 12.5 -42t41.5 -12l-6 -46q-39 0 -57 -22t-18 -75q0 -14 2.5 -58t2.5 -67q0 -99 -48.5 -137t-189.5 -38l6 46q68 0 68 118
q0 19 -2.5 60t-2.5 62q0 67 35 97.5t114 35.5z" />
    <glyph glyph-name="asciitilde" unicode="~" horiz-adv-x="497" 
d="M157 348l-25 19q17 52 49 92.5t68 40.5q28 0 78 -25t76 -25q18 0 28.5 8t28.5 30l23 -18q-47 -126 -113 -126q-26 0 -73 25t-74 25q-8 0 -15.5 -2.5t-12 -4.5t-12 -9t-9 -9t-9.5 -11z" />
    <glyph glyph-name="exclamdown" unicode="&#xa1;" horiz-adv-x="245" 
d="M114 428q0 33 24.5 57.5t55.5 24.5q25 0 42 -18.5t17 -45.5q0 -33 -24.5 -57.5t-54.5 -24.5q-26 0 -43 18.5t-17 45.5zM146 310h38l2 -417q0 -32 -25 -57.5t-65 -25.5q-41 0 -59 25.5t-9 57.5z" />
    <glyph glyph-name="cent" unicode="&#xa2;" 
d="M301 -56l6 48q-111 0 -172 65t-61 172q0 138 87.5 229.5t224.5 92.5l7 49h22l-7 -50q45 -3 86 -18.5t61 -30.5l-20 -140h-36q-27 72 -49.5 105.5t-47.5 40.5l-65 -464q42 1 82.5 37t64.5 111l41 -13q-29 -89 -80.5 -134t-114.5 -51l-7 -49h-22zM250 185q0 -125 65 -140
l65 464q-61 -5 -95.5 -86t-34.5 -238z" />
    <glyph glyph-name="sterling" unicode="&#xa3;" horiz-adv-x="570" 
d="M99 345h63q-5 55 -4 88q0 65 22 116.5t59 81t79 44.5t85 15q93 0 173 -60l-24 -170h-38q-30 106 -54 145t-66 39q-41 0 -67 -40t-25 -114q0 -23 4.5 -71.5t4.5 -73.5h124l-5 -40h-121q-14 -131 -173 -213v-2h295q20 0 29 15l44 75h38l-43 -180h-449l13 90
q34 12 56.5 34.5t32 53t12.5 60t1 67.5h-71z" />
    <glyph glyph-name="currency" unicode="&#xa4;" horiz-adv-x="461" 
d="M123 228q0 77 61 135l-57 90l8 8l58 -90q44 36 95 36q50 0 84 -36l83 90l7 -8l-83 -89q31 -37 31 -95q0 -79 -62 -134l57 -86l-10 -9l-57 87q-43 -35 -94 -35q-52 0 -85 35l-80 -87l-7 9l80 86q-29 37 -29 93zM135 231q0 -53 31.5 -90t79.5 -37q59 0 106 49.5t47 113.5
q0 53 -32 90.5t-80 37.5q-59 0 -105.5 -49.5t-46.5 -114.5z" />
    <glyph glyph-name="yen" unicode="&#xa5;" horiz-adv-x="657" 
d="M629 576l-178 -318l-3 -21h102l-6 -40h-102l-17 -124q-3 -21 15 -25l40 -8l-5 -40h-293l5 40l44 8q18 4 21 25l17 124h-99l6 40h99l2 15l-123 345q-10 28 -24 33l-33 10l5 40h295l-5 -40l-26 -6q-29 -9 -19 -41l89 -261h1l136 247q14 26 -15 38l-51 23l5 40h233l-5 -40
l-63 -23q-33 -12 -48 -41z" />
    <glyph glyph-name="brokenbar" unicode="&#xa6;" horiz-adv-x="243" 
d="M98 -20l45 320h41l-45 -320h-41zM154 380l45 320h41l-45 -320h-41z" />
    <glyph glyph-name="section" unicode="&#xa7;" horiz-adv-x="478" 
d="M343 315l-26 19q31 28 33.5 54.5t-17.5 47.5t-49.5 45.5t-59.5 47t-51 54t-21 65.5q0 66 51 114t145 48q47 0 138 -20l-14 -140h-38q-11 40 -18.5 60t-24.5 37t-41 17t-40.5 -16.5t-16.5 -44.5q0 -23 19 -45.5t44 -41t52.5 -39t42.5 -45t15 -54.5t-30.5 -71.5
t-92.5 -91.5zM245 485l27 -19q-31 -28 -33.5 -54.5t17.5 -47.5t50 -45.5t60 -47t51.5 -54t21.5 -65.5q0 -66 -52.5 -114t-145.5 -48q-48 0 -139 20l14 140h39q8 -30 13.5 -46t15 -34.5t23 -26t32.5 -7.5q24 0 41.5 16.5t17.5 44.5q0 23 -19 45.5t-44.5 41t-53 39t-43 45
t-16 54.5t30 71.5t92.5 91.5z" />
    <glyph glyph-name="dieresis" unicode="&#xa8;" horiz-adv-x="452" 
d="M152 631q0 34 24.5 55.5t58.5 21.5q29 0 47 -16t18 -43q0 -35 -24.5 -56.5t-59.5 -21.5q-28 0 -46 16.5t-18 43.5zM332 631q0 34 24.5 55.5t58.5 21.5q29 0 47 -16t18 -43q0 -35 -24.5 -56.5t-59.5 -21.5q-28 0 -46 16.5t-18 43.5z" />
    <glyph glyph-name="copyright" unicode="&#xa9;" horiz-adv-x="720" 
d="M499 284l22 -6q-38 -113 -131 -113q-64 0 -99.5 40.5t-35.5 106.5q0 86 53 144t133 58q61 0 100 -29l-12 -85h-19q-22 53 -35.5 72.5t-31.5 19.5q-45 0 -72 -50t-27 -150q0 -99 60 -99q65 0 95 91zM98 297q0 154 108.5 268.5t249.5 114.5q113 0 187.5 -85.5t74.5 -211.5
q0 -154 -109 -268.5t-249 -114.5q-114 0 -188 85.5t-74 211.5zM127 299q0 -115 66.5 -193.5t169.5 -78.5q129 0 227 105.5t98 248.5q0 115 -66.5 193.5t-169.5 78.5q-129 0 -227 -105.5t-98 -248.5z" />
    <glyph glyph-name="ordfeminine" unicode="&#xaa;" horiz-adv-x="305" 
d="M225 398l5 34h-1q-28 -58 -84 -58q-52 0 -75.5 41t-13.5 115q10 68 49 112t91 44q39 0 65 -25h1l75 25h20l-37 -264q-2 -15 9 -15h19l-3 -24q-84 -9 -91 -9q-15 0 -23 4.5t-6 19.5zM240 504l19 132q-12 7 -34 7q-55 0 -71 -113q-16 -106 33 -106q8 0 17 5t20.5 24.5
t15.5 50.5zM61 325h273l-4 -28h-273z" />
    <glyph glyph-name="guillemotleft" unicode="&#xab;" horiz-adv-x="650" 
d="M391 432l-129 -162l84 -162l-26 -33l-195 172l6 46l244 172zM620 432l-129 -162l84 -162l-26 -33l-195 172l6 46l244 172z" />
    <glyph glyph-name="logicalnot" unicode="&#xac;" horiz-adv-x="526" 
d="M477 290l-28 -197h-46l21 151h-300l7 46h346z" />
    <glyph glyph-name="uni00AD" unicode="&#xad;" horiz-adv-x="495" 
d="M130 285h315l-5 -40h-315z" />
    <glyph glyph-name="registered" unicode="&#xae;" horiz-adv-x="720" 
d="M382 343h20q54 0 54 93q0 48 -34 48h-20zM442 331v-1q62 -13 71 -51l17 -74q4 -12 13 -14l12 -4l-3 -20q-42 -5 -70 -5q-20 0 -31 6t-14 13t-6 21l-18 97q-4 21 -21 21h-13l-17 -117q-2 -12 7 -12l30 -4l-3 -20h-155l3 20l21 4q9 1 11 12l38 267q1 12 -7 13l-20 4l2 20
h158q48 0 73.5 -21.5t25.5 -56.5q0 -43 -31.5 -69t-72.5 -29zM98 297q0 154 108.5 268.5t249.5 114.5q113 0 187.5 -85.5t74.5 -211.5q0 -154 -109 -268.5t-249 -114.5q-114 0 -188 85.5t-74 211.5zM127 299q0 -115 66.5 -193.5t169.5 -78.5q129 0 227 105.5t98 248.5
q0 115 -66.5 193.5t-169.5 78.5q-129 0 -227 -105.5t-98 -248.5z" />
    <glyph glyph-name="macron" unicode="&#xaf;" horiz-adv-x="423" 
d="M177 625h243l-5 -40h-243z" />
    <glyph glyph-name="degree" unicode="&#xb0;" horiz-adv-x="328" 
d="M177 616q0 41 25 67.5t62 26.5q28 0 45.5 -19.5t17.5 -50.5q0 -41 -25.5 -68t-61.5 -27q-28 0 -45.5 19.5t-17.5 51.5zM204 618q0 -46 40 -46q28 0 42 20.5t14 44.5q0 46 -40 46q-28 0 -42 -20t-14 -45z" />
    <glyph glyph-name="plusminus" unicode="&#xb1;" horiz-adv-x="495" 
d="M240 90l21 155h-137l6 40h137l22 155h40l-22 -155h138l-6 -40h-138l-21 -155h-40zM100 73h315l-6 -40h-315z" />
    <glyph glyph-name="twosuperior" unicode="&#xb2;" horiz-adv-x="306" 
d="M331 515h-217l3 24q96 66 128 126.5t32 121.5q0 26 -5 38q-6 11 -16 11q-12 0 -20 -7.5t-16 -21.5t-13 -20q-18 -21 -36 -6t-6 39q7 17 31 28.5t60 11.5q57 0 82 -27t25 -63q0 -97 -158 -185h99q12 0 15 7l10 26h20z" />
    <glyph glyph-name="threesuperior" unicode="&#xb3;" horiz-adv-x="301" 
d="M264 860q45 0 69 -20t24 -51q0 -35 -26 -61.5t-77 -31.5q39 -5 64.5 -24t25.5 -53q0 -48 -40 -78.5t-100 -30.5q-40 0 -61.5 14t-21.5 33q0 25 21.5 33.5t32.5 -8.5q3 -5 7.5 -19t11 -21.5t18.5 -7.5q43 0 43 92q0 58 -33 58h-9l4 24h7q52 0 52 80q0 42 -32 42
q-29 0 -61 -30l-12 17q37 43 93 43z" />
    <glyph glyph-name="acute" unicode="&#xb4;" horiz-adv-x="342" 
d="M155 568l122 104q24 21 50.5 11.5t26.5 -37.5q0 -41 -51 -58l-138 -45z" />
    <glyph glyph-name="mu" unicode="&#xb5;" horiz-adv-x="559" 
d="M56 -27l62 441q3 20 -15 20h-32l5 40l208 36l6 -8q-13 -39 -19 -86l-36 -253q-4 -29 7 -46.5t36 -17.5q38 0 65.5 37t35.5 88l26 190q3 20 -15 20h-50l5 40l227 36l5 -8q-12 -34 -18 -86l-49 -346q-3 -22 14 -25l33 -5l-5 -40q-114 -10 -152 -10q-55 0 -49 40l12 86h-1
q-56 -114 -151 -124q-7 -39 -19.5 -69.5t-37.5 -62.5t-68.5 -54.5t-104.5 -32.5l-7 30q35 19 53.5 59t28.5 111z" />
    <glyph glyph-name="paragraph" unicode="&#xb6;" horiz-adv-x="696" 
d="M468 680l-96 -680h-18q-127 0 -199.5 77.5t-72.5 208.5q0 183 100.5 288.5t267.5 105.5h18zM694 607l-75 -534q-3 -22 15 -25l41 -8l-5 -40h-244l96 680h244l-6 -40l-44 -8q-19 -3 -22 -25z" />
    <glyph glyph-name="periodcentered" unicode="&#xb7;" horiz-adv-x="292" 
d="M116 271q0 33 23 53.5t56 20.5q26 0 43 -15.5t17 -41.5q0 -32 -23.5 -52.5t-54.5 -20.5q-27 0 -44 15t-17 41z" />
    <glyph glyph-name="cedilla" unicode="&#xb8;" horiz-adv-x="336" 
d="M125 -56l8 56h29l-5 -42q36 -3 60 -20.5t24 -47.5q0 -90 -123 -90q-32 0 -64 12l10 24q22 -10 44 -10q27 0 43.5 17.5t16.5 47.5q0 43 -43 53z" />
    <glyph glyph-name="onesuperior" unicode="&#xb9;" horiz-adv-x="268" 
d="M295 857l-43 -305q-2 -11 7 -12l41 -4l-3 -21h-183l3 21l42 4q10 2 11 12l34 244q1 5 -1 8t-6 2l-37 -5v25l118 31h17z" />
    <glyph glyph-name="ordmasculine" unicode="&#xba;" horiz-adv-x="315" 
d="M64 325h272l-4 -28h-272zM249 658q-29 0 -48 -44.5t-19 -142.5q0 -69 31 -69q30 0 49 44.5t19 141.5q0 70 -32 70zM209 374q-54 0 -87.5 36.5t-33.5 96.5q0 78 48.5 128.5t116.5 50.5q54 0 88 -36.5t34 -96.5q0 -78 -49 -128.5t-117 -50.5z" />
    <glyph glyph-name="guillemotright" unicode="&#xbb;" horiz-adv-x="650" 
d="M235 270l-84 162l26 33l195 -172l-6 -46l-244 -172l-16 33zM464 270l-84 162l26 33l195 -172l-6 -46l-244 -172l-16 33z" />
    <glyph glyph-name="onequarter" unicode="&#xbc;" horiz-adv-x="705" 
d="M556 37l6 43h-127l3 18l205 244h39l-33 -236h28l-4 -26h-28l-6 -43q-1 -9 7 -12l19 -4l-3 -21h-139l3 21l19 4q10 3 11 12zM271 682l-43 -305q-2 -11 7 -12l41 -4l-3 -21h-183l3 21l42 4q10 2 11 12l34 244q1 5 -1 8t-6 2l-37 -5v25l118 31h17zM541 700h30l-281 -720h-30
zM585 238l-113 -131v-1h94z" />
    <glyph glyph-name="onehalf" unicode="&#xbd;" horiz-adv-x="705" 
d="M512 700h30l-281 -720h-30zM658 0h-217l3 24q51 35 85 70.5t49.5 68.5t20.5 58t5 53q0 47 -20 47q-12 0 -20 -7.5t-16 -21.5t-13 -20q-17 -18 -35 -6.5t-9 33.5q4 19 29 32.5t64 13.5q56 0 81 -27t25 -63q0 -97 -158 -185h99q11 0 15 7l11 26h20zM271 682l-43 -305
q-2 -11 7 -12l41 -4l-3 -21h-183l3 21l42 4q10 2 11 12l34 244q1 5 -1 8t-6 2l-37 -5v25l118 31h17z" />
    <glyph glyph-name="threequarters" unicode="&#xbe;" horiz-adv-x="705" 
d="M556 37l6 43h-127l3 18l205 244h39l-33 -236h28l-4 -26h-28l-6 -43q-1 -9 7 -12l18 -4l-2 -21h-139l2 21l20 4q10 3 11 12zM239 685q45 0 69 -20t24 -51q0 -35 -26 -61.5t-77 -31.5q39 -5 64.5 -24t25.5 -53q0 -48 -40 -78.5t-100 -30.5q-40 0 -61.5 14t-21.5 33
q0 25 22 33.5t32 -8.5q3 -5 7.5 -19t10.5 -21.5t19 -7.5q43 0 43 92q0 58 -33 58h-9l4 24h7q52 0 52 80q0 42 -32 42q-29 0 -61 -30l-12 17q37 43 93 43zM545 700h30l-280 -720h-30zM584 238l-112 -131v-1h94z" />
    <glyph glyph-name="questiondown" unicode="&#xbf;" horiz-adv-x="461" 
d="M223 -144q26 0 44 13t40.5 44t27.5 37q24 27 56.5 16.5t32.5 -48.5q0 -44 -60 -76t-163 -32q-93 0 -136.5 45t-43.5 111q0 24 4.5 47t19 51t38 50t66 40.5t98.5 25.5l28 130h38l-14 -154q-62 -24 -94.5 -80.5t-32.5 -125.5q0 -44 13.5 -69t37.5 -25zM383 446
q0 -33 -24.5 -57.5t-55.5 -24.5q-25 0 -42 18.5t-17 45.5q0 33 24.5 57.5t54.5 24.5q26 0 43 -18.5t17 -45.5z" />
    <glyph glyph-name="Agrave" unicode="&#xc0;" horiz-adv-x="657" 
d="M383 229h-164l-49 -126q-11 -27 20 -40l50 -23l-5 -40h-228l5 40l55 20q35 11 49 45l230 580h140l115 -604q6 -29 25 -33l29 -8l-5 -40h-303l5 40l37 8q16 3 19.5 14.5t-0.5 22.5zM238 280h138l-38 249h-2zM359 852l92 -104l-16 -25l-125 45q-43 16 -36 54q5 30 35 41
t50 -11z" />
    <glyph glyph-name="Aacute" unicode="&#xc1;" horiz-adv-x="657" 
d="M383 229h-164l-49 -126q-11 -27 20 -40l50 -23l-5 -40h-228l5 40l55 20q35 11 49 45l230 580h140l115 -604q6 -29 25 -33l29 -8l-5 -40h-303l5 40l37 8q16 3 19.5 14.5t-0.5 22.5zM238 280h138l-38 249h-2zM393 748l122 104q24 21 50.5 11.5t26.5 -37.5q0 -41 -51 -58
l-138 -45z" />
    <glyph glyph-name="Acircumflex" unicode="&#xc2;" horiz-adv-x="657" 
d="M383 229h-164l-49 -126q-11 -27 20 -40l50 -23l-5 -40h-228l5 40l55 20q35 11 49 45l230 580h140l115 -604q6 -29 25 -33l29 -8l-5 -40h-303l5 40l37 8q16 3 19.5 14.5t-0.5 22.5zM238 280h138l-38 249h-2zM440 805l-98 -75h-44l133 180h46l84 -180h-45z" />
    <glyph glyph-name="Atilde" unicode="&#xc3;" horiz-adv-x="657" 
d="M383 229h-164l-49 -126q-11 -27 20 -40l50 -23l-5 -40h-228l5 40l55 20q35 11 49 45l230 580h140l115 -604q6 -29 25 -33l29 -8l-5 -40h-303l5 40l37 8q16 3 19.5 14.5t-0.5 22.5zM238 280h138l-38 249h-2zM289 728l-25 19q17 52 49 92.5t68 40.5q28 0 78 -25t76 -25
q18 0 28.5 8t28.5 30l23 -18q-47 -126 -113 -126q-26 0 -73 25t-74 25q-8 0 -15.5 -2.5t-12 -4.5t-12 -9t-9 -9t-9.5 -11z" />
    <glyph glyph-name="Adieresis" unicode="&#xc4;" horiz-adv-x="657" 
d="M383 229h-164l-49 -126q-11 -27 20 -40l50 -23l-5 -40h-228l5 40l55 20q35 11 49 45l230 580h140l115 -604q6 -29 25 -33l29 -8l-5 -40h-303l5 40l37 8q16 3 19.5 14.5t-0.5 22.5zM238 280h138l-38 249h-2zM277 811q0 34 24.5 55.5t58.5 21.5q29 0 47 -16t18 -43
q0 -35 -24.5 -56.5t-59.5 -21.5q-28 0 -46 16.5t-18 43.5zM457 811q0 34 24.5 55.5t58.5 21.5q29 0 47 -16t18 -43q0 -35 -24.5 -56.5t-59.5 -21.5q-28 0 -46 16.5t-18 43.5z" />
    <glyph glyph-name="Aring" unicode="&#xc5;" horiz-adv-x="657" 
d="M383 229h-164l-49 -126q-11 -27 20 -40l50 -23l-5 -40h-228l5 40l55 20q35 11 49 45l230 580h140l115 -604q6 -29 25 -33l29 -8l-5 -40h-303l5 40l37 8q16 3 19.5 14.5t-0.5 22.5zM238 280h138l-38 249h-2zM357 794q0 43 27.5 72t68.5 29q33 0 52.5 -21.5t19.5 -54.5
q0 -43 -27.5 -71t-68.5 -28q-33 0 -52.5 20.5t-19.5 53.5zM406 788q0 -46 26 -46q22 0 33.5 26t11.5 58q0 47 -27 47q-21 0 -32.5 -26t-11.5 -59z" />
    <glyph glyph-name="AE" unicode="&#xc6;" horiz-adv-x="870" 
d="M410 73l23 159h-184l-75 -129q-14 -24 20 -40l47 -23l-5 -40h-229l5 40l59 23q29 11 48 42l347 575h460l-26 -180h-38l-49 119q-7 15 -25 15h-126l-38 -266h40q20 0 30 15l55 87h37l-35 -250h-37l-31 87q-6 15 -25 15h-39l-40 -276h138q17 0 29 15l98 119h38l-43 -180
h-499l5 40l44 8q18 4 21 25zM281 283h159l48 342h-1z" />
    <glyph glyph-name="Ccedilla" unicode="&#xc7;" horiz-adv-x="595" 
d="M571 230l42 -13q-37 -115 -102.5 -169t-145.5 -57l-4 -33q36 -3 59.5 -20.5t23.5 -47.5q0 -90 -123 -90q-33 0 -64 12l11 24q22 -10 44 -10q26 0 42.5 17.5t16.5 47.5q0 43 -41 53l6 47q-120 5 -186.5 84.5t-66.5 207.5q0 174 105.5 290t264.5 116q61 0 116 -18.5
t84 -40.5l-24 -170h-38q-36 105 -64.5 144.5t-72.5 39.5q-87 0 -140 -100t-53 -300t118 -200q57 0 109 45t83 141z" />
    <glyph glyph-name="Egrave" unicode="&#xc8;" horiz-adv-x="555" 
d="M346 634l-38 -266h40q20 0 29 15l56 87h38l-35 -250h-38l-32 87q-4 15 -24 15h-39l-40 -276h139q16 0 29 15l98 119h38l-43 -180h-499l5 40l44 8q18 3 21 25l75 534q3 22 -14 25l-41 8l6 40h489l-26 -180h-38l-48 119q-6 15 -25 15h-127zM365 852l92 -104l-16 -25
l-125 45q-43 16 -36 54q5 30 35 41t50 -11z" />
    <glyph glyph-name="Eacute" unicode="&#xc9;" horiz-adv-x="555" 
d="M346 634l-38 -266h40q20 0 29 15l56 87h38l-35 -250h-38l-32 87q-4 15 -24 15h-39l-40 -276h139q16 0 29 15l98 119h38l-43 -180h-499l5 40l44 8q18 3 21 25l75 534q3 22 -14 25l-41 8l6 40h489l-26 -180h-38l-48 119q-6 15 -25 15h-127zM364 748l122 104
q24 21 50.5 11.5t26.5 -37.5q0 -41 -51 -58l-138 -45z" />
    <glyph glyph-name="Ecircumflex" unicode="&#xca;" horiz-adv-x="555" 
d="M346 634l-38 -266h40q20 0 29 15l56 87h38l-35 -250h-38l-32 87q-4 15 -24 15h-39l-40 -276h139q16 0 29 15l98 119h38l-43 -180h-499l5 40l44 8q18 3 21 25l75 534q3 22 -14 25l-41 8l6 40h489l-26 -180h-38l-48 119q-6 15 -25 15h-127zM407 805l-98 -75h-44l133 180h46
l84 -180h-45z" />
    <glyph glyph-name="Edieresis" unicode="&#xcb;" horiz-adv-x="555" 
d="M346 634l-38 -266h40q20 0 29 15l56 87h38l-35 -250h-38l-32 87q-4 15 -24 15h-39l-40 -276h139q16 0 29 15l98 119h38l-43 -180h-499l5 40l44 8q18 3 21 25l75 534q3 22 -14 25l-41 8l6 40h489l-26 -180h-38l-48 119q-6 15 -25 15h-127zM254 811q0 34 24.5 55.5
t58.5 21.5q29 0 47 -16t18 -43q0 -35 -24.5 -56.5t-59.5 -21.5q-28 0 -46 16.5t-18 43.5zM434 811q0 34 24.5 55.5t58.5 21.5q29 0 47 -16t18 -43q0 -35 -24.5 -56.5t-59.5 -21.5q-28 0 -46 16.5t-18 43.5z" />
    <glyph glyph-name="Igrave" unicode="&#xcc;" horiz-adv-x="342" 
d="M342 607l-75 -534q-3 -22 15 -25l40 -8l-5 -40h-292l5 40l44 8q18 3 21 25l75 534q3 22 -14 25l-41 8l6 40h292l-6 -40l-43 -8q-19 -3 -22 -25zM209 852l92 -104l-16 -25l-125 45q-43 16 -36 54q5 30 35 41t50 -11z" />
    <glyph glyph-name="Iacute" unicode="&#xcd;" horiz-adv-x="342" 
d="M342 607l-75 -534q-3 -22 15 -25l40 -8l-5 -40h-292l5 40l44 8q18 3 21 25l75 534q3 22 -14 25l-41 8l6 40h292l-6 -40l-43 -8q-19 -3 -22 -25zM251 748l122 104q24 21 50.5 11.5t26.5 -37.5q0 -41 -51 -58l-138 -45z" />
    <glyph glyph-name="Icircumflex" unicode="&#xce;" horiz-adv-x="342" 
d="M342 607l-75 -534q-3 -22 15 -25l40 -8l-5 -40h-292l5 40l44 8q18 3 21 25l75 534q3 22 -14 25l-41 8l6 40h292l-6 -40l-43 -8q-19 -3 -22 -25zM286 805l-98 -75h-44l133 180h46l84 -180h-45z" />
    <glyph glyph-name="Idieresis" unicode="&#xcf;" horiz-adv-x="342" 
d="M342 607l-75 -534q-3 -22 15 -25l40 -8l-5 -40h-292l5 40l44 8q18 3 21 25l75 534q3 22 -14 25l-41 8l6 40h292l-6 -40l-43 -8q-19 -3 -22 -25zM123 811q0 34 24.5 55.5t58.5 21.5q29 0 47 -16t18 -43q0 -35 -24.5 -56.5t-59.5 -21.5q-28 0 -46 16.5t-18 43.5zM303 811
q0 34 24.5 55.5t58.5 21.5q29 0 47 -16t18 -43q0 -35 -24.5 -56.5t-59.5 -21.5q-28 0 -46 16.5t-18 43.5z" />
    <glyph glyph-name="Eth" unicode="&#xd0;" horiz-adv-x="700" 
d="M324 0h-299l5 40l44 8q18 3 21 25l34 242h-60l6 40h59l36 252q3 22 -14 25l-41 8l6 40h299q132 0 212 -78t80 -212q0 -168 -112.5 -279t-275.5 -111zM263 46h48q59 0 103 31.5t69 86t37.5 121t12.5 143.5q0 206 -148 206h-39l-40 -279h92l-6 -40h-91z" />
    <glyph glyph-name="Ntilde" unicode="&#xd1;" horiz-adv-x="697" 
d="M538 -5l-295 581l-67 -475q-4 -29 21 -38l60 -23l-5 -40h-232l5 40l66 23q31 12 34 38l71 506q3 22 -14 25l-72 8l6 40h277l192 -373l38 269q4 28 -23 38l-61 26l6 40h236l-6 -40l-67 -26q-30 -11 -34 -38l-82 -581h-54zM311 728l-25 19q17 52 49 92.5t68 40.5
q28 0 78 -25t76 -25q18 0 28.5 8t28.5 30l23 -18q-47 -126 -113 -126q-26 0 -73 25t-74 25q-8 0 -15.5 -2.5t-12 -4.5t-12 -9t-9 -9t-9.5 -11z" />
    <glyph glyph-name="Ograve" unicode="&#xd2;" horiz-adv-x="732" 
d="M83 289q0 92 33 169t86.5 127t121 77.5t138.5 27.5q119 0 200.5 -81t81.5 -219q0 -121 -57 -214.5t-142.5 -139.5t-181.5 -46q-119 0 -199.5 80.5t-80.5 218.5zM257 223q0 -187 113 -187q93 0 146 100.5t53 317.5q0 190 -114 190q-92 0 -145 -101t-53 -320zM404 852
l92 -104l-16 -25l-125 45q-43 16 -36 54q5 30 35 41t50 -11z" />
    <glyph glyph-name="Oacute" unicode="&#xd3;" horiz-adv-x="732" 
d="M83 289q0 92 33 169t86.5 127t121 77.5t138.5 27.5q119 0 200.5 -81t81.5 -219q0 -121 -57 -214.5t-142.5 -139.5t-181.5 -46q-119 0 -199.5 80.5t-80.5 218.5zM257 223q0 -187 113 -187q93 0 146 100.5t53 317.5q0 190 -114 190q-92 0 -145 -101t-53 -320zM437 748
l122 104q24 21 50.5 11.5t26.5 -37.5q0 -41 -51 -58l-138 -45z" />
    <glyph glyph-name="Ocircumflex" unicode="&#xd4;" horiz-adv-x="732" 
d="M83 289q0 92 33 169t86.5 127t121 77.5t138.5 27.5q119 0 200.5 -81t81.5 -219q0 -121 -57 -214.5t-142.5 -139.5t-181.5 -46q-119 0 -199.5 80.5t-80.5 218.5zM257 223q0 -187 113 -187q93 0 146 100.5t53 317.5q0 190 -114 190q-92 0 -145 -101t-53 -320zM479 805
l-98 -75h-44l133 180h46l84 -180h-45z" />
    <glyph glyph-name="Otilde" unicode="&#xd5;" horiz-adv-x="732" 
d="M83 289q0 92 33 169t86.5 127t121 77.5t138.5 27.5q119 0 200.5 -81t81.5 -219q0 -121 -57 -214.5t-142.5 -139.5t-181.5 -46q-119 0 -199.5 80.5t-80.5 218.5zM257 223q0 -187 113 -187q93 0 146 100.5t53 317.5q0 190 -114 190q-92 0 -145 -101t-53 -320zM327 728
l-25 19q17 52 49 92.5t68 40.5q28 0 78 -25t76 -25q18 0 28.5 8t28.5 30l23 -18q-47 -126 -113 -126q-26 0 -73 25t-74 25q-8 0 -15.5 -2.5t-12 -4.5t-12 -9t-9 -9t-9.5 -11z" />
    <glyph glyph-name="Odieresis" unicode="&#xd6;" horiz-adv-x="732" 
d="M83 289q0 92 33 169t86.5 127t121 77.5t138.5 27.5q119 0 200.5 -81t81.5 -219q0 -121 -57 -214.5t-142.5 -139.5t-181.5 -46q-119 0 -199.5 80.5t-80.5 218.5zM257 223q0 -187 113 -187q93 0 146 100.5t53 317.5q0 190 -114 190q-92 0 -145 -101t-53 -320zM316 811
q0 34 24.5 55.5t58.5 21.5q29 0 47 -16t18 -43q0 -35 -24.5 -56.5t-59.5 -21.5q-28 0 -46 16.5t-18 43.5zM496 811q0 34 24.5 55.5t58.5 21.5q29 0 47 -16t18 -43q0 -35 -24.5 -56.5t-59.5 -21.5q-28 0 -46 16.5t-18 43.5z" />
    <glyph glyph-name="multiply" unicode="&#xd7;" horiz-adv-x="480" 
d="M372 106l-99 131l-136 -131l-21 28l136 131l-99 131l29 28l99 -131l136 131l22 -28l-137 -131l100 -131z" />
    <glyph glyph-name="Oslash" unicode="&#xd8;" horiz-adv-x="732" 
d="M83 289q0 92 33 169t86.5 127t121 77.5t138.5 27.5q76 0 140 -35l38 55l28 -19l-37 -55q113 -83 113 -246q0 -121 -57 -214.5t-142.5 -139.5t-181.5 -46q-83 0 -148 39l-41 -59l-28 19l41 60q-104 83 -104 240zM569 454q0 48 -7 82l-291 -425q25 -75 99 -75
q93 0 146 100.5t53 317.5zM257 223q0 -39 4 -66l289 422q-29 65 -95 65q-92 0 -145 -101t-53 -320z" />
    <glyph glyph-name="Ugrave" unicode="&#xd9;" horiz-adv-x="695" 
d="M576 255l45 318q4 31 -21 41l-62 26l5 40h235l-5 -40l-67 -26q-31 -13 -35 -41l-45 -317q-18 -128 -91 -197t-189 -69q-132 0 -191 70t-41 197l49 350q3 21 -15 25l-40 8l5 40h293l-5 -40l-44 -8q-18 -4 -21 -25l-50 -356q-15 -99 11.5 -146.5t100.5 -47.5q73 0 119 53.5
t59 144.5zM411 852l92 -104l-16 -25l-125 45q-43 16 -36 54q5 30 35 41t50 -11z" />
    <glyph glyph-name="Uacute" unicode="&#xda;" horiz-adv-x="695" 
d="M576 255l45 318q4 31 -21 41l-62 26l5 40h235l-5 -40l-67 -26q-31 -13 -35 -41l-45 -317q-18 -128 -91 -197t-189 -69q-132 0 -191 70t-41 197l49 350q3 21 -15 25l-40 8l5 40h293l-5 -40l-44 -8q-18 -4 -21 -25l-50 -356q-15 -99 11.5 -146.5t100.5 -47.5q73 0 119 53.5
t59 144.5zM459 748l122 104q24 21 50.5 11.5t26.5 -37.5q0 -41 -51 -58l-138 -45z" />
    <glyph glyph-name="Ucircumflex" unicode="&#xdb;" horiz-adv-x="695" 
d="M576 255l45 318q4 31 -21 41l-62 26l5 40h235l-5 -40l-67 -26q-31 -13 -35 -41l-45 -317q-18 -128 -91 -197t-189 -69q-132 0 -191 70t-41 197l49 350q3 21 -15 25l-40 8l5 40h293l-5 -40l-44 -8q-18 -4 -21 -25l-50 -356q-15 -99 11.5 -146.5t100.5 -47.5q73 0 119 53.5
t59 144.5zM480 805l-98 -75h-44l133 180h46l84 -180h-45z" />
    <glyph glyph-name="Udieresis" unicode="&#xdc;" horiz-adv-x="695" 
d="M576 255l45 318q4 31 -21 41l-62 26l5 40h235l-5 -40l-67 -26q-31 -13 -35 -41l-45 -317q-18 -128 -91 -197t-189 -69q-132 0 -191 70t-41 197l49 350q3 21 -15 25l-40 8l5 40h293l-5 -40l-44 -8q-18 -4 -21 -25l-50 -356q-15 -99 11.5 -146.5t100.5 -47.5q73 0 119 53.5
t59 144.5zM318 811q0 34 24.5 55.5t58.5 21.5q29 0 47 -16t18 -43q0 -35 -24.5 -56.5t-59.5 -21.5q-28 0 -46 16.5t-18 43.5zM498 811q0 34 24.5 55.5t58.5 21.5q29 0 47 -16t18 -43q0 -35 -24.5 -56.5t-59.5 -21.5q-28 0 -46 16.5t-18 43.5z" />
    <glyph glyph-name="Yacute" unicode="&#xdd;" horiz-adv-x="657" 
d="M629 576l-178 -318l-26 -185q-3 -21 15 -25l40 -8l-5 -40h-293l5 40l44 8q18 4 21 25l25 179l-123 345q-10 28 -24 33l-33 10l5 40h295l-5 -40l-26 -6q-29 -9 -19 -41l89 -261h1l136 247q14 26 -15 38l-51 23l5 40h233l-5 -40l-63 -23q-33 -12 -48 -41zM442 748l122 104
q24 21 50.5 11.5t26.5 -37.5q0 -41 -51 -58l-138 -45z" />
    <glyph glyph-name="Thorn" unicode="&#xde;" horiz-adv-x="580" 
d="M325 484l-42 -300h41q108 0 108 202q0 98 -66 98h-41zM342 607l-11 -77h89q93 0 142 -48t49 -123q0 -92 -65.5 -156.5t-180.5 -64.5h-89l-9 -65q-3 -22 15 -25l40 -8l-5 -40h-292l5 40l44 8q18 3 21 25l75 534q3 22 -14 25l-41 8l6 40h292l-6 -40l-43 -8q-19 -3 -22 -25z
" />
    <glyph glyph-name="germandbls" unicode="&#xdf;" horiz-adv-x="595" 
d="M299 564l-81 -570q-13 -91 -80.5 -142.5t-147.5 -51.5q-97 0 -97 68q0 30 19.5 47t42.5 17q22 0 35.5 -18.5t21.5 -37.5t17 -19q18 0 24 46l78 550h-50l4 33l52 14l3 16q9 66 51.5 111.5t93.5 64t104 18.5q81 0 130.5 -32.5t49.5 -89.5q0 -41 -21.5 -70t-47.5 -41
t-47.5 -29t-21.5 -37q0 -22 37 -55l71 -61q51 -47 51 -118q0 -77 -61 -132t-139 -55q-70 0 -136 20l9 149h38q11 -32 19 -50t19.5 -37t26.5 -27.5t34 -8.5q24 0 40.5 18.5t16.5 48.5q0 35 -37 70l-67 62q-14 13 -21 27.5t-6 30.5t4 29t13.5 32t17.5 30.5t22 32.5t21 30
q44 69 44 143q0 32 -13.5 53t-42.5 21q-42 0 -64.5 -28.5t-28.5 -71.5z" />
    <glyph glyph-name="agrave" unicode="&#xe0;" horiz-adv-x="550" 
d="M341 30l8 56h-1q-47 -96 -139 -96q-73 0 -113.5 53t-40.5 150q0 136 69.5 226.5t169.5 90.5q63 0 108 -41h1l125 41h34l-62 -440q-3 -22 14 -25l34 -5l-6 -40q-114 -10 -152 -10q-56 0 -49 40zM366 206l31 221q-20 12 -54 12q-129 0 -129 -252q0 -114 62 -114
q26 0 52.5 29t37.5 104zM324 672l92 -104l-16 -25l-125 45q-43 16 -36 54q5 30 35 41t50 -11z" />
    <glyph glyph-name="aacute" unicode="&#xe1;" horiz-adv-x="550" 
d="M341 30l8 56h-1q-47 -96 -139 -96q-73 0 -113.5 53t-40.5 150q0 136 69.5 226.5t169.5 90.5q63 0 108 -41h1l125 41h34l-62 -440q-3 -22 14 -25l34 -5l-6 -40q-114 -10 -152 -10q-56 0 -49 40zM366 206l31 221q-20 12 -54 12q-129 0 -129 -252q0 -114 62 -114
q26 0 52.5 29t37.5 104zM316 568l122 104q24 21 50.5 11.5t26.5 -37.5q0 -41 -51 -58l-138 -45z" />
    <glyph glyph-name="acircumflex" unicode="&#xe2;" horiz-adv-x="550" 
d="M341 30l8 56h-1q-47 -96 -139 -96q-73 0 -113.5 53t-40.5 150q0 136 69.5 226.5t169.5 90.5q63 0 108 -41h1l125 41h34l-62 -440q-3 -22 14 -25l34 -5l-6 -40q-114 -10 -152 -10q-56 0 -49 40zM366 206l31 221q-20 12 -54 12q-129 0 -129 -252q0 -114 62 -114
q26 0 52.5 29t37.5 104zM364 625l-98 -75h-44l133 180h46l84 -180h-45z" />
    <glyph glyph-name="atilde" unicode="&#xe3;" horiz-adv-x="550" 
d="M341 30l8 56h-1q-47 -96 -139 -96q-73 0 -113.5 53t-40.5 150q0 136 69.5 226.5t169.5 90.5q63 0 108 -41h1l125 41h34l-62 -440q-3 -22 14 -25l34 -5l-6 -40q-114 -10 -152 -10q-56 0 -49 40zM366 206l31 221q-20 12 -54 12q-129 0 -129 -252q0 -114 62 -114
q26 0 52.5 29t37.5 104zM220 548l-25 19q17 52 49 92.5t68 40.5q28 0 78 -25t76 -25q18 0 28.5 8t28.5 30l23 -18q-47 -126 -113 -126q-26 0 -73 25t-74 25q-8 0 -15.5 -2.5t-12 -4.5t-12 -9t-9 -9t-9.5 -11z" />
    <glyph glyph-name="adieresis" unicode="&#xe4;" horiz-adv-x="550" 
d="M341 30l8 56h-1q-47 -96 -139 -96q-73 0 -113.5 53t-40.5 150q0 136 69.5 226.5t169.5 90.5q63 0 108 -41h1l125 41h34l-62 -440q-3 -22 14 -25l34 -5l-6 -40q-114 -10 -152 -10q-56 0 -49 40zM366 206l31 221q-20 12 -54 12q-129 0 -129 -252q0 -114 62 -114
q26 0 52.5 29t37.5 104zM212 631q0 34 24.5 55.5t58.5 21.5q29 0 47 -16t18 -43q0 -35 -24.5 -56.5t-59.5 -21.5q-28 0 -46 16.5t-18 43.5zM392 631q0 34 24.5 55.5t58.5 21.5q29 0 47 -16t18 -43q0 -35 -24.5 -56.5t-59.5 -21.5q-28 0 -46 16.5t-18 43.5z" />
    <glyph glyph-name="aring" unicode="&#xe5;" horiz-adv-x="550" 
d="M341 30l8 56h-1q-47 -96 -139 -96q-73 0 -113.5 53t-40.5 150q0 136 69.5 226.5t169.5 90.5q63 0 108 -41h1l125 41h34l-62 -440q-3 -22 14 -25l34 -5l-6 -40q-114 -10 -152 -10q-56 0 -49 40zM366 206l31 221q-20 12 -54 12q-129 0 -129 -252q0 -114 62 -114
q26 0 52.5 29t37.5 104zM305 614q0 43 27.5 72t68.5 29q33 0 52.5 -21.5t19.5 -54.5q0 -43 -27.5 -71t-68.5 -28q-33 0 -52.5 20.5t-19.5 53.5zM354 608q0 -46 26 -46q22 0 33.5 26t11.5 58q0 47 -27 47q-21 0 -32.5 -26t-11.5 -59z" />
    <glyph glyph-name="ae" unicode="&#xe6;" horiz-adv-x="719" 
d="M470 219q-4 -53 26.5 -96.5t86.5 -43.5q58 0 119 49l16 -27q-32 -44 -87.5 -77.5t-120.5 -33.5q-69 0 -120.5 33.5t-71.5 95.5q-63 -129 -179 -129q-46 0 -72.5 29t-26.5 77q0 124 151 164l124 34l6 42q6 39 -15.5 60t-53.5 21q-66 0 -121 -37l-16 26q81 104 206 104
q78 0 122 -45q66 45 150 45q57 0 98.5 -31.5t41.5 -80.5q0 -134 -263 -179zM584 464q-42 0 -72 -55.5t-41 -150.5q60 24 103.5 65t43.5 100q0 41 -34 41zM299 179l11 75l-32 -13q-80 -33 -80 -103q0 -23 10 -36t26 -13q53 0 65 90z" />
    <glyph glyph-name="ccedilla" unicode="&#xe7;" horiz-adv-x="470" 
d="M240 -56l6 46q-86 5 -138 62t-52 153q0 93 45.5 164.5t112 106t138.5 34.5q76 0 117 -28t41 -66q0 -31 -20 -50.5t-44 -19t-36 20.5q-7 11 -14.5 38.5t-19 43t-36.5 15.5q-57 0 -88.5 -72.5t-31.5 -158.5q0 -73 29 -113.5t84 -40.5t118 49l15 -27q-28 -40 -78.5 -73
t-112.5 -37l-4 -33q37 -3 61 -20.5t24 -47.5q0 -90 -123 -90q-34 0 -64 12l9 24q24 -10 44 -10q27 0 43.5 17.5t16.5 47.5q0 43 -42 53z" />
    <glyph glyph-name="egrave" unicode="&#xe8;" horiz-adv-x="470" 
d="M333 464q-42 0 -72 -55.5t-41 -150.5q60 24 103.5 65t43.5 100q0 41 -34 41zM220 219q-5 -53 25.5 -96.5t86.5 -43.5q58 0 119 49l16 -27q-31 -43 -86.5 -77t-121.5 -34q-88 0 -145.5 53.5t-57.5 149.5q0 124 79.5 220.5t206.5 96.5q57 0 98.5 -31.5t41.5 -80.5
q0 -62 -58 -108t-204 -71zM304 672l92 -104l-16 -25l-125 45q-43 16 -36 54q5 30 35 41t50 -11z" />
    <glyph glyph-name="eacute" unicode="&#xe9;" horiz-adv-x="470" 
d="M333 464q-42 0 -72 -55.5t-41 -150.5q60 24 103.5 65t43.5 100q0 41 -34 41zM220 219q-5 -53 25.5 -96.5t86.5 -43.5q58 0 119 49l16 -27q-31 -43 -86.5 -77t-121.5 -34q-88 0 -145.5 53.5t-57.5 149.5q0 124 79.5 220.5t206.5 96.5q57 0 98.5 -31.5t41.5 -80.5
q0 -62 -58 -108t-204 -71zM296 568l122 104q24 21 50.5 11.5t26.5 -37.5q0 -41 -51 -58l-138 -45z" />
    <glyph glyph-name="ecircumflex" unicode="&#xea;" horiz-adv-x="470" 
d="M333 464q-42 0 -72 -55.5t-41 -150.5q60 24 103.5 65t43.5 100q0 41 -34 41zM220 219q-5 -53 25.5 -96.5t86.5 -43.5q58 0 119 49l16 -27q-31 -43 -86.5 -77t-121.5 -34q-88 0 -145.5 53.5t-57.5 149.5q0 124 79.5 220.5t206.5 96.5q57 0 98.5 -31.5t41.5 -80.5
q0 -62 -58 -108t-204 -71zM334 625l-98 -75h-44l133 180h46l84 -180h-45z" />
    <glyph glyph-name="edieresis" unicode="&#xeb;" horiz-adv-x="470" 
d="M333 464q-42 0 -72 -55.5t-41 -150.5q60 24 103.5 65t43.5 100q0 41 -34 41zM220 219q-5 -53 25.5 -96.5t86.5 -43.5q58 0 119 49l16 -27q-31 -43 -86.5 -77t-121.5 -34q-88 0 -145.5 53.5t-57.5 149.5q0 124 79.5 220.5t206.5 96.5q57 0 98.5 -31.5t41.5 -80.5
q0 -62 -58 -108t-204 -71zM172 631q0 34 24.5 55.5t58.5 21.5q29 0 47 -16t18 -43q0 -35 -24.5 -56.5t-59.5 -21.5q-28 0 -46 16.5t-18 43.5zM352 631q0 34 24.5 55.5t58.5 21.5q29 0 47 -16t18 -43q0 -35 -24.5 -56.5t-59.5 -21.5q-28 0 -46 16.5t-18 43.5z" />
    <glyph glyph-name="igrave" unicode="&#xec;" horiz-adv-x="277" 
d="M169 672l92 -104l-16 -25l-125 45q-43 16 -36 54q5 30 35 41t50 -11zM71 30l54 384q3 20 -15 20h-32l5 40l208 36l6 -8q-11 -32 -19 -86l-49 -346q-3 -25 15 -25h32l-5 -40q-141 -15 -152 -15q-54 0 -48 40z" />
    <glyph glyph-name="iacute" unicode="&#xed;" horiz-adv-x="277" 
d="M171 568l122 104q24 21 50.5 11.5t26.5 -37.5q0 -41 -51 -58l-138 -45zM71 30l54 384q3 20 -15 20h-32l5 40l208 36l6 -8q-11 -32 -19 -86l-49 -346q-3 -25 15 -25h32l-5 -40q-141 -15 -152 -15q-54 0 -48 40z" />
    <glyph glyph-name="icircumflex" unicode="&#xee;" horiz-adv-x="277" 
d="M71 30l54 384q3 20 -15 20h-32l5 40l208 36l6 -8q-11 -32 -19 -86l-49 -346q-3 -25 15 -25h32l-5 -40q-141 -15 -152 -15q-54 0 -48 40zM229 625l-98 -75h-44l133 180h46l84 -180h-45z" />
    <glyph glyph-name="idieresis" unicode="&#xef;" horiz-adv-x="277" 
d="M67 631q0 34 24.5 55.5t58.5 21.5q29 0 47 -16t18 -43q0 -35 -24.5 -56.5t-59.5 -21.5q-28 0 -46 16.5t-18 43.5zM247 631q0 34 24.5 55.5t58.5 21.5q29 0 47 -16t18 -43q0 -35 -24.5 -56.5t-59.5 -21.5q-28 0 -46 16.5t-18 43.5zM72 30l54 384q3 20 -15 20h-32l5 40
l208 36l6 -8q-11 -32 -19 -86l-49 -346q-3 -25 15 -25h32l-5 -40q-141 -15 -152 -15q-54 0 -48 40z" />
    <glyph glyph-name="eth" unicode="&#xf0;" horiz-adv-x="520" 
d="M372 505l2 1q-14 45 -49 87l-120 -69l-12 32l108 62q-54 47 -123 61l14 31q93 -12 166 -60l91 53l12 -32l-73 -42q71 -57 109 -142t38 -182q0 -141 -80 -228t-194 -87q-91 0 -147.5 61t-56.5 161q0 130 81 214t196 84q20 0 38 -5zM328 464q-50 0 -83.5 -73.5
t-33.5 -232.5q0 -122 56 -122q49 0 81.5 74.5t32.5 236.5q0 117 -53 117z" />
    <glyph glyph-name="ntilde" unicode="&#xf1;" horiz-adv-x="567" 
d="M359 30l43 307q4 29 -7 46.5t-36 17.5q-38 0 -66 -37t-35 -88l-39 -276h-153l59 414q3 20 -15 20h-32l5 40l208 36l6 -8q-11 -32 -19 -86l-4 -33h2q61 127 175 127q55 0 86 -41t20 -119l-40 -280q-3 -25 15 -25h32l-5 -40q-141 -15 -152 -15q-54 0 -48 40zM225 548
l-25 19q17 52 49 92.5t68 40.5q28 0 78 -25t76 -25q18 0 28.5 8t28.5 30l23 -18q-47 -126 -113 -126q-26 0 -73 25t-74 25q-8 0 -15.5 -2.5t-12 -4.5t-12 -9t-9 -9t-9.5 -11z" />
    <glyph glyph-name="ograve" unicode="&#xf2;" horiz-adv-x="520" 
d="M328 464q-50 0 -83.5 -73.5t-33.5 -232.5q0 -122 56 -122q49 0 81.5 74.5t32.5 236.5q0 117 -53 117zM261 -10q-91 0 -147.5 61t-56.5 161q0 130 81 214t196 84q89 0 144.5 -60.5t55.5 -160.5q0 -130 -80 -214.5t-193 -84.5zM304 672l92 -104l-16 -25l-125 45
q-43 16 -36 54q5 30 35 41t50 -11z" />
    <glyph glyph-name="oacute" unicode="&#xf3;" horiz-adv-x="520" 
d="M328 464q-50 0 -83.5 -73.5t-33.5 -232.5q0 -122 56 -122q49 0 81.5 74.5t32.5 236.5q0 117 -53 117zM261 -10q-91 0 -147.5 61t-56.5 161q0 130 81 214t196 84q89 0 144.5 -60.5t55.5 -160.5q0 -130 -80 -214.5t-193 -84.5zM300 568l122 104q24 21 50.5 11.5t26.5 -37.5
q0 -41 -51 -58l-138 -45z" />
    <glyph glyph-name="ocircumflex" unicode="&#xf4;" horiz-adv-x="520" 
d="M328 464q-50 0 -83.5 -73.5t-33.5 -232.5q0 -122 56 -122q49 0 81.5 74.5t32.5 236.5q0 117 -53 117zM261 -10q-91 0 -147.5 61t-56.5 161q0 130 81 214t196 84q89 0 144.5 -60.5t55.5 -160.5q0 -130 -80 -214.5t-193 -84.5zM349 625l-98 -75h-44l133 180h46l84 -180h-45
z" />
    <glyph glyph-name="otilde" unicode="&#xf5;" horiz-adv-x="520" 
d="M328 464q-50 0 -83.5 -73.5t-33.5 -232.5q0 -122 56 -122q49 0 81.5 74.5t32.5 236.5q0 117 -53 117zM261 -10q-91 0 -147.5 61t-56.5 161q0 130 81 214t196 84q89 0 144.5 -60.5t55.5 -160.5q0 -130 -80 -214.5t-193 -84.5zM198 548l-25 19q17 52 49 92.5t68 40.5
q28 0 78 -25t76 -25q18 0 28.5 8t28.5 30l23 -18q-47 -126 -113 -126q-26 0 -73 25t-74 25q-8 0 -15.5 -2.5t-12 -4.5t-12 -9t-9 -9t-9.5 -11z" />
    <glyph glyph-name="odieresis" unicode="&#xf6;" horiz-adv-x="520" 
d="M328 464q-50 0 -83.5 -73.5t-33.5 -232.5q0 -122 56 -122q49 0 81.5 74.5t32.5 236.5q0 117 -53 117zM261 -10q-91 0 -147.5 61t-56.5 161q0 130 81 214t196 84q89 0 144.5 -60.5t55.5 -160.5q0 -130 -80 -214.5t-193 -84.5zM187 631q0 34 24.5 55.5t58.5 21.5
q29 0 47 -16t18 -43q0 -35 -24.5 -56.5t-59.5 -21.5q-28 0 -46 16.5t-18 43.5zM367 631q0 34 24.5 55.5t58.5 21.5q29 0 47 -16t18 -43q0 -35 -24.5 -56.5t-59.5 -21.5q-28 0 -46 16.5t-18 43.5z" />
    <glyph glyph-name="divide" unicode="&#xf7;" horiz-adv-x="513" 
d="M130 285h333l-5 -40h-333zM251 437q0 33 24.5 57.5t54.5 24.5q26 0 43 -18.5t17 -45.5q0 -33 -24.5 -57.5t-55.5 -24.5q-25 0 -42 18.5t-17 45.5zM200 75q0 33 24.5 57.5t54.5 24.5q26 0 42.5 -18.5t16.5 -45.5q0 -33 -24 -57.5t-56 -24.5q-25 0 -41.5 19t-16.5 45z" />
    <glyph glyph-name="oslash" unicode="&#xf8;" horiz-adv-x="520" 
d="M261 -10q-60 0 -107 28l-33 -48l-29 19l34 49q-69 61 -69 174q0 130 81 214t196 84q54 0 98 -25l31 45l29 -19l-31 -45q73 -63 73 -177q0 -130 -80 -214.5t-193 -84.5zM267 36q49 0 81.5 74.5t32.5 236.5v2l-167 -243q9 -70 53 -70zM328 464q-50 0 -83 -72.5t-34 -229.5
l165 242q-11 60 -48 60z" />
    <glyph glyph-name="ugrave" unicode="&#xf9;" horiz-adv-x="572" 
d="M87 150l38 264q3 20 -15 20h-32l5 40l207 36l7 -8q-13 -37 -20 -86l-35 -253q-5 -28 6.5 -46t36.5 -18q39 0 66.5 37.5t33.5 87.5l27 190q3 20 -15 20h-50l5 40l226 36l6 -8q-11 -32 -19 -86l-48 -346q-3 -22 14 -25l34 -5l-7 -40q-110 -10 -151 -10q-55 0 -49 40l12 86
h-1q-62 -126 -176 -126q-55 0 -86 41t-20 119zM274 672l92 -104l-16 -25l-125 45q-43 16 -36 54q5 30 35 41t50 -11z" />
    <glyph glyph-name="uacute" unicode="&#xfa;" horiz-adv-x="572" 
d="M87 150l38 264q3 20 -15 20h-32l5 40l207 36l7 -8q-13 -37 -20 -86l-35 -253q-5 -28 6.5 -46t36.5 -18q39 0 66.5 37.5t33.5 87.5l27 190q3 20 -15 20h-50l5 40l226 36l6 -8q-11 -32 -19 -86l-48 -346q-3 -22 14 -25l34 -5l-7 -40q-110 -10 -151 -10q-55 0 -49 40l12 86
h-1q-62 -126 -176 -126q-55 0 -86 41t-20 119zM306 568l122 104q24 21 50.5 11.5t26.5 -37.5q0 -41 -51 -58l-138 -45z" />
    <glyph glyph-name="ucircumflex" unicode="&#xfb;" horiz-adv-x="572" 
d="M87 150l38 264q3 20 -15 20h-32l5 40l207 36l7 -8q-13 -37 -20 -86l-35 -253q-5 -28 6.5 -46t36.5 -18q39 0 66.5 37.5t33.5 87.5l27 190q3 20 -15 20h-50l5 40l226 36l6 -8q-11 -32 -19 -86l-48 -346q-3 -22 14 -25l34 -5l-7 -40q-110 -10 -151 -10q-55 0 -49 40l12 86
h-1q-62 -126 -176 -126q-55 0 -86 41t-20 119zM367 625l-98 -75h-44l133 180h46l84 -180h-45z" />
    <glyph glyph-name="udieresis" unicode="&#xfc;" horiz-adv-x="572" 
d="M87 150l38 264q3 20 -15 20h-32l5 40l207 36l7 -8q-13 -37 -20 -86l-35 -253q-5 -28 6.5 -46t36.5 -18q39 0 66.5 37.5t33.5 87.5l27 190q3 20 -15 20h-50l5 40l226 36l6 -8q-11 -32 -19 -86l-48 -346q-3 -22 14 -25l34 -5l-7 -40q-110 -10 -151 -10q-55 0 -49 40l12 86
h-1q-62 -126 -176 -126q-55 0 -86 41t-20 119zM205 631q0 34 24.5 55.5t58.5 21.5q29 0 47 -16t18 -43q0 -35 -24.5 -56.5t-59.5 -21.5q-28 0 -46 16.5t-18 43.5zM385 631q0 34 24.5 55.5t58.5 21.5q29 0 47 -16t18 -43q0 -35 -24.5 -56.5t-59.5 -21.5q-28 0 -46 16.5
t-18 43.5z" />
    <glyph glyph-name="yacute" unicode="&#xfd;" horiz-adv-x="550" 
d="M236 -67l-122 503q-4 19 -29 19h-18l6 40q105 15 135 15q32 0 50.5 -11t24.5 -39l74 -332h2l24 39q26 41 27.5 93t-10 108t-11.5 70q0 33 19.5 52.5t52.5 19.5q29 0 51.5 -18.5t22.5 -54.5q0 -90 -92 -246l-112 -186q-61 -104 -112 -154.5t-111 -50.5q-33 0 -55.5 17
t-17.5 53q6 37 39 45t59 -15q56 -45 103 33zM356 568l122 104q24 21 50.5 11.5t26.5 -37.5q0 -41 -51 -58l-138 -45z" />
    <glyph glyph-name="thorn" unicode="&#xfe;" horiz-adv-x="556" 
d="M49 -127l104 741q3 20 -15 20h-32l6 40l207 36l6 -8q-13 -35 -18 -74l-30 -216h2q24 52 63 75t78 23q72 0 111 -52.5t39 -148.5q0 -137 -68 -228t-168 -91q-64 0 -109 41h-2l-22 -158q-3 -22 15 -25l49 -8l-5 -40h-271l5 40l34 8q18 5 21 25zM260 294l-31 -221
q22 -12 56 -12q125 0 125 254q0 112 -61 112q-9 0 -20 -5t-25 -18t-26 -41.5t-18 -68.5z" />
    <glyph glyph-name="ydieresis" unicode="&#xff;" horiz-adv-x="550" 
d="M236 -67l-122 503q-4 19 -29 19h-18l6 40q105 15 135 15q32 0 50.5 -11t24.5 -39l74 -332h2l24 39q26 41 27.5 93t-10 108t-11.5 70q0 33 19.5 52.5t52.5 19.5q29 0 51.5 -18.5t22.5 -54.5q0 -90 -92 -246l-112 -186q-61 -104 -112 -154.5t-111 -50.5q-33 0 -55.5 17
t-17.5 53q6 37 39 45t59 -15q56 -45 103 33zM226 631q0 34 24.5 55.5t58.5 21.5q29 0 47 -16t18 -43q0 -35 -24.5 -56.5t-59.5 -21.5q-28 0 -46 16.5t-18 43.5zM406 631q0 34 24.5 55.5t58.5 21.5q29 0 47 -16t18 -43q0 -35 -24.5 -56.5t-59.5 -21.5q-28 0 -46 16.5
t-18 43.5z" />
    <glyph glyph-name="Amacron" unicode="&#x100;" horiz-adv-x="657" 
d="M383 229h-164l-49 -126q-11 -27 20 -40l50 -23l-5 -40h-228l5 40l55 20q35 11 49 45l230 580h140l115 -604q6 -29 25 -33l29 -8l-5 -40h-303l5 40l37 8q16 3 19.5 14.5t-0.5 22.5zM238 280h138l-38 249h-2zM314 805h243l-5 -40h-243z" />
    <glyph glyph-name="amacron" unicode="&#x101;" horiz-adv-x="550" 
d="M341 30l8 56h-1q-47 -96 -139 -96q-73 0 -113.5 53t-40.5 150q0 136 69.5 226.5t169.5 90.5q63 0 108 -41h1l125 41h34l-62 -440q-3 -22 14 -25l34 -5l-6 -40q-114 -10 -152 -10q-56 0 -49 40zM366 206l31 221q-20 12 -54 12q-129 0 -129 -252q0 -114 62 -114
q26 0 52.5 29t37.5 104zM262 625h243l-5 -40h-243z" />
    <glyph glyph-name="Abreve" unicode="&#x102;" horiz-adv-x="657" 
d="M383 229h-164l-49 -126q-11 -27 20 -40l50 -23l-5 -40h-228l5 40l55 20q35 11 49 45l230 580h140l115 -604q6 -29 25 -33l29 -8l-5 -40h-303l5 40l37 8q16 3 19.5 14.5t-0.5 22.5zM238 280h138l-38 249h-2zM428 730q-38 0 -60.5 25.5t-25.5 61t0 73.5h31q1 -28 19 -49
t48 -21q31 0 55 21.5t31 48.5h32q-9 -64 -41.5 -112t-88.5 -48z" />
    <glyph glyph-name="abreve" unicode="&#x103;" horiz-adv-x="550" 
d="M341 30l8 56h-1q-47 -96 -139 -96q-73 0 -113.5 53t-40.5 150q0 136 69.5 226.5t169.5 90.5q63 0 108 -41h1l125 41h34l-62 -440q-3 -22 14 -25l34 -5l-6 -40q-114 -10 -152 -10q-56 0 -49 40zM366 206l31 221q-20 12 -54 12q-129 0 -129 -252q0 -114 62 -114
q26 0 52.5 29t37.5 104zM366 550q-38 0 -60.5 25.5t-25.5 61t0 73.5h31q1 -28 19 -49t48 -21q31 0 55 21.5t31 48.5h32q-9 -64 -41.5 -112t-88.5 -48z" />
    <glyph glyph-name="Aogonek" unicode="&#x104;" horiz-adv-x="657" 
d="M383 229h-164l-49 -126q-11 -27 20 -40l50 -23l-5 -40h-228l5 40l55 20q35 11 49 45l230 580h140l115 -604q6 -29 25 -33l29 -8l-5 -40h-132q-56 -59 -43 -104q9 -32 44 -28l22 6l9 -26q-39 -48 -89 -48q-59 0 -73 47q-14 49 30 100q28 33 74 53h-145l5 40l37 8
q16 3 19.5 14.5t-0.5 22.5zM238 280h138l-38 249h-2z" />
    <glyph glyph-name="aogonek" unicode="&#x105;" horiz-adv-x="550" 
d="M388 -10q-54 0 -47 40l8 56h-1q-47 -96 -139 -96q-73 0 -113.5 53t-40.5 150q0 136 69.5 226.5t169.5 90.5q63 0 108 -41h1l125 41h34l-62 -440q-3 -22 14 -25l35 -5l-6 -40q-96 -5 -129 -59q-21 -34 -1 -59q19 -25 59 -8l8 -26q-38 -48 -88 -48q-58 0 -72 46
q-15 46 25 93q31 36 83 53q-19 -2 -40 -2zM366 206l31 221q-20 12 -54 12q-129 0 -129 -252q0 -114 62 -114q26 0 52.5 29t37.5 104z" />
    <glyph glyph-name="Cacute" unicode="&#x106;" horiz-adv-x="595" 
d="M571 230l42 -13q-39 -119 -108 -173t-152 -54q-128 0 -199 80.5t-71 212.5q0 174 105.5 290t264.5 116q61 0 116 -18.5t84 -40.5l-24 -170h-38q-36 105 -64.5 144.5t-72.5 39.5q-87 0 -140 -100t-53 -300t118 -200q57 0 109 45t83 141zM407 748l122 104q24 21 50.5 11.5
t26.5 -37.5q0 -41 -51 -58l-138 -45z" />
    <glyph glyph-name="cacute" unicode="&#x107;" horiz-adv-x="470" 
d="M260 -10q-104 0 -160.5 68.5t-40.5 186.5q17 121 104 193t189 72q75 0 116.5 -28t41.5 -66q0 -31 -20 -50.5t-44 -19t-36 20.5q-7 11 -14.5 38.5t-19 43t-36.5 15.5q-57 0 -88.5 -72.5t-31.5 -158.5q0 -73 28.5 -113.5t84.5 -40.5q55 0 118 49l15 -27q-30 -43 -84.5 -77
t-121.5 -34zM312 568l122 104q24 21 50.5 11.5t26.5 -37.5q0 -41 -51 -58l-138 -45z" />
    <glyph glyph-name="Ccircumflex" unicode="&#x108;" horiz-adv-x="595" 
d="M571 230l42 -13q-39 -119 -108 -173t-152 -54q-128 0 -199 80.5t-71 212.5q0 174 105.5 290t264.5 116q61 0 116 -18.5t84 -40.5l-24 -170h-38q-36 105 -64.5 144.5t-72.5 39.5q-87 0 -140 -100t-53 -300t118 -200q57 0 109 45t83 141zM455 805l-98 -75h-44l133 180h46
l84 -180h-45z" />
    <glyph glyph-name="ccircumflex" unicode="&#x109;" horiz-adv-x="470" 
d="M260 -10q-104 0 -160.5 68.5t-40.5 186.5q17 121 104 193t189 72q75 0 116.5 -28t41.5 -66q0 -31 -20 -50.5t-44 -19t-36 20.5q-7 11 -14.5 38.5t-19 43t-36.5 15.5q-57 0 -88.5 -72.5t-31.5 -158.5q0 -73 28.5 -113.5t84.5 -40.5q55 0 118 49l15 -27q-30 -43 -84.5 -77
t-121.5 -34zM364 625l-98 -75h-44l133 180h46l84 -180h-45z" />
    <glyph glyph-name="Cdotaccent" unicode="&#x10a;" horiz-adv-x="595" 
d="M571 230l42 -13q-39 -119 -108 -173t-152 -54q-128 0 -199 80.5t-71 212.5q0 174 105.5 290t264.5 116q61 0 116 -18.5t84 -40.5l-24 -170h-38q-36 105 -64.5 144.5t-72.5 39.5q-87 0 -140 -100t-53 -300t118 -200q57 0 109 45t83 141zM391 811q0 33 23 53.5t56 20.5
q26 0 43 -15.5t17 -41.5q0 -32 -23.5 -52.5t-54.5 -20.5q-27 0 -44 15t-17 41z" />
    <glyph glyph-name="cdotaccent" unicode="&#x10b;" horiz-adv-x="470" 
d="M260 -10q-104 0 -160.5 68.5t-40.5 186.5q17 121 104 193t189 72q75 0 116.5 -28t41.5 -66q0 -31 -20 -50.5t-44 -19t-36 20.5q-7 11 -14.5 38.5t-19 43t-36.5 15.5q-57 0 -88.5 -72.5t-31.5 -158.5q0 -73 28.5 -113.5t84.5 -40.5q55 0 118 49l15 -27q-30 -43 -84.5 -77
t-121.5 -34zM281 631q0 33 23 53.5t56 20.5q26 0 43 -15.5t17 -41.5q0 -32 -23.5 -52.5t-54.5 -20.5q-27 0 -44 15t-17 41z" />
    <glyph glyph-name="Ccaron" unicode="&#x10c;" horiz-adv-x="595" 
d="M571 230l42 -13q-39 -119 -108 -173t-152 -54q-128 0 -199 80.5t-71 212.5q0 174 105.5 290t264.5 116q61 0 116 -18.5t84 -40.5l-24 -170h-38q-36 105 -64.5 144.5t-72.5 39.5q-87 0 -140 -100t-53 -300t118 -200q57 0 109 45t83 141zM382 910l76 -75l98 75h45
l-134 -180h-46l-83 180h44z" />
    <glyph glyph-name="ccaron" unicode="&#x10d;" horiz-adv-x="470" 
d="M260 -10q-104 0 -160.5 68.5t-40.5 186.5q17 121 104 193t189 72q75 0 116.5 -28t41.5 -66q0 -31 -20 -50.5t-44 -19t-36 20.5q-7 11 -14.5 38.5t-19 43t-36.5 15.5q-57 0 -88.5 -72.5t-31.5 -158.5q0 -73 28.5 -113.5t84.5 -40.5q55 0 118 49l15 -27q-30 -43 -84.5 -77
t-121.5 -34zM283 730l76 -75l98 75h45l-134 -180h-46l-83 180h44z" />
    <glyph glyph-name="Dcaron" unicode="&#x10e;" horiz-adv-x="700" 
d="M263 46h48q59 0 103 31.5t69 86t37.5 121t12.5 143.5q0 206 -148 206h-39zM324 0h-299l5 40l44 8q18 3 21 25l75 534q3 22 -14 25l-41 8l6 40h299q132 0 212 -78t80 -212q0 -168 -112.5 -279t-275.5 -111zM379 910l76 -75l98 75h45l-134 -180h-46l-83 180h44z" />
    <glyph glyph-name="dcaron" unicode="&#x10f;" horiz-adv-x="676" 
d="M567 616l-77 -546q-3 -22 14 -25l34 -5l-6 -40q-114 -10 -152 -10q-55 0 -49 40l8 57h-1q-47 -97 -139 -97q-73 0 -113.5 53t-40.5 150q0 136 69.5 226.5t169.5 90.5q63 0 108 -41h1l20 145q3 20 -15 20h-32l6 40l208 36l5 -8q-13 -42 -18 -86zM356 206l31 221
q-20 12 -54 12q-129 0 -129 -250q0 -116 64 -116q9 0 20 5t25 18t25.5 41.5t17.5 68.5zM655 589q-23 0 -35 16t-12 38q0 27 20.5 52t56.5 25q32 0 51.5 -25t19.5 -58q0 -119 -143 -192l-16 31q83 48 83 91q0 22 -25 22z" />
    <glyph glyph-name="Dcroat" unicode="&#x110;" horiz-adv-x="700" 
d="M324 0h-299l5 40l44 8q18 3 21 25l34 242h-60l6 40h59l36 252q3 22 -14 25l-41 8l6 40h299q132 0 212 -78t80 -212q0 -168 -112.5 -279t-275.5 -111zM263 46h48q59 0 103 31.5t69 86t37.5 121t12.5 143.5q0 206 -148 206h-39l-40 -279h92l-6 -40h-91z" />
    <glyph glyph-name="dcroat" unicode="&#x111;" horiz-adv-x="550" 
d="M577 616l-8 -51h53l-5 -40h-53l-64 -455q-3 -22 14 -25l34 -5l-6 -40q-114 -10 -152 -10q-55 0 -49 40l8 57h-1q-47 -97 -139 -97q-73 0 -113.5 53t-40.5 150q0 136 69.5 226.5t169.5 90.5q63 0 108 -41h1l7 56h-49l5 40h50l7 49q3 20 -15 20h-32l6 40l208 36l5 -8
q-13 -42 -18 -86zM366 206l31 221q-20 12 -54 12q-129 0 -129 -250q0 -116 64 -116q9 0 20 5t25 18t25.5 41.5t17.5 68.5z" />
    <glyph glyph-name="Emacron" unicode="&#x112;" horiz-adv-x="555" 
d="M346 634l-38 -266h40q20 0 29 15l56 87h38l-35 -250h-38l-32 87q-4 15 -24 15h-39l-40 -276h139q16 0 29 15l98 119h38l-43 -180h-499l5 40l44 8q18 3 21 25l75 534q3 22 -14 25l-41 8l6 40h489l-26 -180h-38l-48 119q-6 15 -25 15h-127zM285 805h243l-5 -40h-243z" />
    <glyph glyph-name="emacron" unicode="&#x113;" horiz-adv-x="470" 
d="M333 464q-42 0 -72 -55.5t-41 -150.5q60 24 103.5 65t43.5 100q0 41 -34 41zM220 219q-5 -53 25.5 -96.5t86.5 -43.5q58 0 119 49l16 -27q-31 -43 -86.5 -77t-121.5 -34q-88 0 -145.5 53.5t-57.5 149.5q0 124 79.5 220.5t206.5 96.5q57 0 98.5 -31.5t41.5 -80.5
q0 -62 -58 -108t-204 -71zM232 625h243l-5 -40h-243z" />
    <glyph glyph-name="Ebreve" unicode="&#x114;" horiz-adv-x="555" 
d="M346 634l-38 -266h40q20 0 29 15l56 87h38l-35 -250h-38l-32 87q-4 15 -24 15h-39l-40 -276h139q16 0 29 15l98 119h38l-43 -180h-499l5 40l44 8q18 3 21 25l75 534q3 22 -14 25l-41 8l6 40h489l-26 -180h-38l-48 119q-6 15 -25 15h-127zM403 730q-38 0 -60.5 25.5
t-25.5 61t0 73.5h31q1 -28 19 -49t48 -21q31 0 55 21.5t31 48.5h32q-9 -64 -41.5 -112t-88.5 -48z" />
    <glyph glyph-name="ebreve" unicode="&#x115;" horiz-adv-x="470" 
d="M333 464q-42 0 -72 -55.5t-41 -150.5q60 24 103.5 65t43.5 100q0 41 -34 41zM220 219q-5 -53 25.5 -96.5t86.5 -43.5q58 0 119 49l16 -27q-31 -43 -86.5 -77t-121.5 -34q-88 0 -145.5 53.5t-57.5 149.5q0 124 79.5 220.5t206.5 96.5q57 0 98.5 -31.5t41.5 -80.5
q0 -62 -58 -108t-204 -71zM346 550q-38 0 -60.5 25.5t-25.5 61t0 73.5h31q1 -28 19 -49t48 -21q31 0 55 21.5t31 48.5h32q-9 -64 -41.5 -112t-88.5 -48z" />
    <glyph glyph-name="Edotaccent" unicode="&#x116;" horiz-adv-x="555" 
d="M346 634l-38 -266h40q20 0 29 15l56 87h38l-35 -250h-38l-32 87q-4 15 -24 15h-39l-40 -276h139q16 0 29 15l98 119h38l-43 -180h-499l5 40l44 8q18 3 21 25l75 534q3 22 -14 25l-41 8l6 40h489l-26 -180h-38l-48 119q-6 15 -25 15h-127zM348 811q0 33 23 53.5t56 20.5
q26 0 43 -15.5t17 -41.5q0 -32 -23.5 -52.5t-54.5 -20.5q-27 0 -44 15t-17 41z" />
    <glyph glyph-name="edotaccent" unicode="&#x117;" horiz-adv-x="470" 
d="M333 464q-42 0 -72 -55.5t-41 -150.5q60 24 103.5 65t43.5 100q0 41 -34 41zM220 219q-5 -53 25.5 -96.5t86.5 -43.5q58 0 119 49l16 -27q-31 -43 -86.5 -77t-121.5 -34q-88 0 -145.5 53.5t-57.5 149.5q0 124 79.5 220.5t206.5 96.5q57 0 98.5 -31.5t41.5 -80.5
q0 -62 -58 -108t-204 -71zM306 631q0 33 23 53.5t56 20.5q26 0 43 -15.5t17 -41.5q0 -32 -23.5 -52.5t-54.5 -20.5q-27 0 -44 15t-17 41z" />
    <glyph glyph-name="Eogonek" unicode="&#x118;" horiz-adv-x="555" 
d="M346 634l-38 -266h40q20 0 29 15l56 87h38l-35 -250h-38l-32 87q-4 15 -24 15h-39l-40 -276h139q16 0 29 15l98 119h38l-43 -180q-56 -59 -42 -104q9 -32 43 -28q11 1 22 6l8 -26q-38 -48 -88 -48q-59 0 -73 47q-14 49 30 100q28 33 74 53h-473l5 40l44 8q18 3 21 25
l75 534q3 22 -14 25l-41 8l6 40h489l-26 -180h-38l-48 119q-6 15 -25 15h-127z" />
    <glyph glyph-name="eogonek" unicode="&#x119;" horiz-adv-x="470" 
d="M335 464q-42 0 -72 -55.5t-41 -150.5q60 24 103.5 65t43.5 100q0 41 -34 41zM333 79q58 0 119 49l15 -27q-10 -14 -56 -58q-87 -77 -80 -136q4 -34 35 -38q15 -3 32 5q7 -20 8 -26q-38 -48 -89 -48q-36 0 -57 24t-3.5 74t86.5 108q-40 -16 -82 -16q-88 0 -145.5 53.5
t-57.5 149.5q0 124 79.5 220.5t206.5 96.5q57 0 98.5 -31.5t41.5 -80.5q0 -62 -58 -108t-204 -71q-5 -53 25.5 -96.5t85.5 -43.5z" />
    <glyph glyph-name="Ecaron" unicode="&#x11a;" horiz-adv-x="555" 
d="M346 634l-38 -266h40q20 0 29 15l56 87h38l-35 -250h-38l-32 87q-4 15 -24 15h-39l-40 -276h139q16 0 29 15l98 119h38l-43 -180h-499l5 40l44 8q18 3 21 25l75 534q3 22 -14 25l-41 8l6 40h489l-26 -180h-38l-48 119q-6 15 -25 15h-127zM339 910l76 -75l98 75h45
l-134 -180h-46l-83 180h44z" />
    <glyph glyph-name="ecaron" unicode="&#x11b;" horiz-adv-x="470" 
d="M333 464q-42 0 -72 -55.5t-41 -150.5q60 24 103.5 65t43.5 100q0 41 -34 41zM220 219q-5 -53 25.5 -96.5t86.5 -43.5q58 0 119 49l16 -27q-31 -43 -86.5 -77t-121.5 -34q-88 0 -145.5 53.5t-57.5 149.5q0 124 79.5 220.5t206.5 96.5q57 0 98.5 -31.5t41.5 -80.5
q0 -62 -58 -108t-204 -71zM267 730l76 -75l98 75h45l-134 -180h-46l-83 180h44z" />
    <glyph glyph-name="Gcircumflex" unicode="&#x11c;" horiz-adv-x="657" 
d="M88 340q21 154 122 251.5t243 97.5q61 0 116 -18.5t83 -40.5l-23 -170h-38q-36 104 -65 144t-72 40q-89 0 -144 -106.5t-55 -329.5q0 -84 23.5 -128t78.5 -44q37 0 66 19l27 193q3 22 -15 25l-31 5l5 40h275l-5 -40l-36 -5q-18 -3 -21 -25l-35 -248h-33l-59 21
q-77 -31 -155 -31q-141 0 -207.5 97t-44.5 253zM460 805l-98 -75h-44l133 180h46l84 -180h-45z" />
    <glyph glyph-name="gcircumflex" unicode="&#x11d;" horiz-adv-x="542" 
d="M342 30l7 56h-1q-47 -96 -139 -96q-73 0 -113.5 53t-40.5 150q0 136 69.5 226.5t169.5 90.5q63 0 108 -41h1l125 41h34l-62 -445q-17 -121 -103.5 -193t-188.5 -72q-81 0 -123 31t-36 71q6 43 44 56.5t56 -15.5q7 -11 14.5 -39t19.5 -43t37 -15q45 0 78.5 53t43.5 131z
M366 206l31 221q-20 12 -54 12q-129 0 -129 -252q0 -114 62 -114q26 0 52.5 29t37.5 104zM364 625l-98 -75h-44l133 180h46l84 -180h-45z" />
    <glyph glyph-name="Gbreve" unicode="&#x11e;" horiz-adv-x="657" 
d="M88 340q21 154 122 251.5t243 97.5q61 0 116 -18.5t83 -40.5l-23 -170h-38q-36 104 -65 144t-72 40q-89 0 -144 -106.5t-55 -329.5q0 -84 23.5 -128t78.5 -44q37 0 66 19l27 193q3 22 -15 25l-31 5l5 40h275l-5 -40l-36 -5q-18 -3 -21 -25l-35 -248h-33l-59 21
q-77 -31 -155 -31q-141 0 -207.5 97t-44.5 253zM451 730q-38 0 -60.5 25.5t-25.5 61t0 73.5h31q1 -28 19 -49t48 -21q31 0 55 21.5t31 48.5h32q-9 -64 -41.5 -112t-88.5 -48z" />
    <glyph glyph-name="gbreve" unicode="&#x11f;" horiz-adv-x="542" 
d="M342 30l7 56h-1q-47 -96 -139 -96q-73 0 -113.5 53t-40.5 150q0 136 69.5 226.5t169.5 90.5q63 0 108 -41h1l125 41h34l-62 -445q-17 -121 -103.5 -193t-188.5 -72q-81 0 -123 31t-36 71q6 43 44 56.5t56 -15.5q7 -11 14.5 -39t19.5 -43t37 -15q45 0 78.5 53t43.5 131z
M366 206l31 221q-20 12 -54 12q-129 0 -129 -252q0 -114 62 -114q26 0 52.5 29t37.5 104zM353 550q-38 0 -60.5 25.5t-25.5 61t0 73.5h31q1 -28 19 -49t48 -21q31 0 55 21.5t31 48.5h32q-9 -64 -41.5 -112t-88.5 -48z" />
    <glyph glyph-name="Gdotaccent" unicode="&#x120;" horiz-adv-x="657" 
d="M88 340q21 154 122 251.5t243 97.5q61 0 116 -18.5t83 -40.5l-23 -170h-38q-36 104 -65 144t-72 40q-89 0 -144 -106.5t-55 -329.5q0 -84 23.5 -128t78.5 -44q37 0 66 19l27 193q3 22 -15 25l-31 5l5 40h275l-5 -40l-36 -5q-18 -3 -21 -25l-35 -248h-33l-59 21
q-77 -31 -155 -31q-141 0 -207.5 97t-44.5 253zM396 811q0 33 23 53.5t56 20.5q26 0 43 -15.5t17 -41.5q0 -32 -23.5 -52.5t-54.5 -20.5q-27 0 -44 15t-17 41z" />
    <glyph glyph-name="gdotaccent" unicode="&#x121;" horiz-adv-x="542" 
d="M342 30l7 56h-1q-47 -96 -139 -96q-73 0 -113.5 53t-40.5 150q0 136 69.5 226.5t169.5 90.5q63 0 108 -41h1l125 41h34l-62 -445q-17 -121 -103.5 -193t-188.5 -72q-81 0 -123 31t-36 71q6 43 44 56.5t56 -15.5q7 -11 14.5 -39t19.5 -43t37 -15q45 0 78.5 53t43.5 131z
M366 206l31 221q-20 12 -54 12q-129 0 -129 -252q0 -114 62 -114q26 0 52.5 29t37.5 104zM308 631q0 33 23 53.5t56 20.5q26 0 43 -15.5t17 -41.5q0 -32 -23.5 -52.5t-54.5 -20.5q-27 0 -44 15t-17 41z" />
    <glyph glyph-name="Gcommaaccent" unicode="&#x122;" horiz-adv-x="657" 
d="M88 340q21 154 122 251.5t243 97.5q61 0 116 -18.5t83 -40.5l-23 -170h-38q-36 104 -65 144t-72 40q-89 0 -144 -106.5t-55 -329.5q0 -84 23.5 -128t78.5 -44q37 0 66 19l27 193q3 22 -15 25l-31 5l5 40h275l-5 -40l-36 -5q-18 -3 -21 -25l-35 -248h-33l-59 21
q-77 -31 -155 -31q-141 0 -207.5 97t-44.5 253zM303 -166q-23 0 -35 16t-12 38q0 27 20.5 52t56.5 25q32 0 51.5 -25t19.5 -58q0 -119 -143 -192l-16 31q83 48 83 91q0 22 -25 22z" />
    <glyph glyph-name="gcommaaccent" unicode="&#x123;" horiz-adv-x="542" 
d="M342 30l7 56h-1q-47 -96 -139 -96q-73 0 -113.5 53t-40.5 150q0 136 69.5 226.5t169.5 90.5q63 0 108 -41h1l125 41h34l-62 -445q-17 -121 -103.5 -193t-188.5 -72q-81 0 -123 31t-36 71q6 43 44 56.5t56 -15.5q7 -11 14.5 -39t19.5 -43t37 -15q45 0 78.5 53t43.5 131z
M366 206l31 221q-20 12 -54 12q-129 0 -129 -252q0 -114 62 -114q26 0 52.5 29t37.5 104zM368 694q23 0 35 -16t12 -38q0 -27 -20.5 -52t-56.5 -25q-32 0 -51.5 25t-19.5 58q0 119 143 192l16 -31q-83 -49 -83 -91q0 -22 25 -22z" />
    <glyph glyph-name="Hcircumflex" unicode="&#x124;" horiz-adv-x="720" 
d="M302 319l-35 -246q-3 -22 15 -25l40 -8l-5 -40h-292l5 40l44 8q18 3 21 25l75 534q3 22 -14 25l-41 8l6 40h292l-6 -40l-43 -8q-19 -3 -22 -25l-33 -236h205l33 236q3 21 -14 25l-41 8l6 40h293l-6 -40l-43 -8q-19 -4 -22 -25l-75 -534q-3 -21 15 -25l40 -8l-5 -40h-293
l5 40l44 8q18 4 21 25l35 246h-205zM474 805l-98 -75h-44l133 180h46l84 -180h-45z" />
    <glyph glyph-name="hcircumflex" unicode="&#x125;" horiz-adv-x="567" 
d="M557 350l-39 -280q-3 -25 15 -25h32l-6 -40q-19 -2 -74.5 -8.5t-76.5 -6.5q-55 0 -49 40l43 307q4 29 -7 46.5t-36 17.5q-38 0 -65.5 -37t-34.5 -88l-40 -276h-153l87 614q3 20 -15 20h-32l6 40l207 36l7 -8q-13 -39 -19 -86l-33 -233h2q61 127 175 127q55 0 86 -41
t20 -119zM259 825l-98 -75h-44l133 180h46l84 -180h-45z" />
    <glyph glyph-name="Hbar" unicode="&#x126;" horiz-adv-x="720" 
d="M302 319l-35 -246q-3 -22 15 -25l40 -8l-5 -40h-292l5 40l44 8q18 3 21 25l59 422h-59l5 40h60l10 72q3 22 -14 25l-41 8l6 40h292l-6 -40l-43 -8q-19 -3 -22 -25l-10 -72h205l10 72q3 21 -14 25l-41 8l6 40h293l-6 -40l-43 -8q-19 -4 -22 -25l-10 -72h60l-5 -40h-61
l-59 -422q-3 -21 15 -25l40 -8l-5 -40h-293l5 40l44 8q18 4 21 25l35 246h-205zM309 371h205l17 124h-205z" />
    <glyph glyph-name="hbar" unicode="&#x127;" horiz-adv-x="567" 
d="M557 350l-39 -280q-3 -25 15 -25h32l-6 -40q-19 -2 -74.5 -8.5t-76.5 -6.5q-55 0 -49 40l43 307q4 29 -7 46.5t-36 17.5q-38 0 -65.5 -37t-34.5 -88l-40 -276h-153l74 525h-41l5 40h42l7 49q3 20 -15 20h-32l6 40l207 36l7 -8q-13 -39 -19 -86l-8 -51h62l-5 -40h-62
l-20 -142h2q61 127 175 127q55 0 86 -41t20 -119z" />
    <glyph glyph-name="Itilde" unicode="&#x128;" horiz-adv-x="342" 
d="M342 607l-75 -534q-3 -22 15 -25l40 -8l-5 -40h-292l5 40l44 8q18 3 21 25l75 534q3 22 -14 25l-41 8l6 40h292l-6 -40l-43 -8q-19 -3 -22 -25zM134 728l-25 19q17 52 49 92.5t68 40.5q28 0 78 -25t76 -25q18 0 28.5 8t28.5 30l23 -18q-47 -126 -113 -126q-26 0 -73 25
t-74 25q-8 0 -15.5 -2.5t-12 -4.5t-12 -9t-9 -9t-9.5 -11z" />
    <glyph glyph-name="itilde" unicode="&#x129;" horiz-adv-x="277" 
d="M80 548l-25 19q17 52 49 92.5t68 40.5q28 0 78 -25t76 -25q18 0 28.5 8t28.5 30l23 -18q-47 -126 -113 -126q-26 0 -73 25t-74 25q-8 0 -15.5 -2.5t-12 -4.5t-12 -9t-9 -9t-9.5 -11zM71 30l54 384q3 20 -15 20h-32l5 40l208 36l6 -8q-11 -32 -19 -86l-49 -346
q-3 -25 15 -25h32l-5 -40q-141 -15 -152 -15q-54 0 -48 40z" />
    <glyph glyph-name="Imacron" unicode="&#x12a;" horiz-adv-x="342" 
d="M342 607l-75 -534q-3 -22 15 -25l40 -8l-5 -40h-292l5 40l44 8q18 3 21 25l75 534q3 22 -14 25l-41 8l6 40h292l-6 -40l-43 -8q-19 -3 -22 -25zM164 805h243l-5 -40h-243z" />
    <glyph glyph-name="imacron" unicode="&#x12b;" horiz-adv-x="277" 
d="M107 625h243l-5 -40h-243zM71 30l54 384q3 20 -15 20h-32l5 40l208 36l6 -8q-11 -32 -19 -86l-49 -346q-3 -25 15 -25h32l-5 -40q-141 -15 -152 -15q-54 0 -48 40z" />
    <glyph glyph-name="Ibreve" unicode="&#x12c;" horiz-adv-x="342" 
d="M342 607l-75 -534q-3 -22 15 -25l40 -8l-5 -40h-292l5 40l44 8q18 3 21 25l75 534q3 22 -14 25l-41 8l6 40h292l-6 -40l-43 -8q-19 -3 -22 -25zM275 730q-38 0 -60.5 25.5t-25.5 61t0 73.5h31q1 -28 19 -49t48 -21q31 0 55 21.5t31 48.5h32q-9 -64 -41.5 -112t-88.5 -48z
" />
    <glyph glyph-name="ibreve" unicode="&#x12d;" horiz-adv-x="277" 
d="M221 550q-38 0 -60.5 25.5t-25.5 61t0 73.5h31q1 -28 19 -49t48 -21q31 0 55 21.5t31 48.5h32q-9 -64 -41.5 -112t-88.5 -48zM71 30l54 384q3 20 -15 20h-32l5 40l208 36l6 -8q-11 -32 -19 -86l-49 -346q-3 -25 15 -25h32l-5 -40q-141 -15 -152 -15q-54 0 -48 40z" />
    <glyph glyph-name="Iogonek" unicode="&#x12e;" horiz-adv-x="342" 
d="M342 607l-75 -534q-3 -22 15 -25l41 -8l-6 -40h-122q-56 -59 -43 -104q9 -32 44 -28q10 1 22 6q7 -20 8 -26q-39 -48 -89 -48q-58 0 -72 47q-14 49 30 100q28 33 74 53h-144l6 40l43 8q18 3 21 25l75 534q3 22 -14 25l-41 8l6 40h292l-6 -40l-43 -8q-19 -3 -22 -25z" />
    <glyph glyph-name="iogonek" unicode="&#x12f;" horiz-adv-x="277" 
d="M71 30l54 384q3 20 -15 20h-32l5 40l208 36l6 -8q-11 -32 -19 -86l-49 -346q-3 -25 15 -25h32l-5 -40q-9 -1 -55.5 -6.5t-68.5 -7.5q-50 -57 -34 -98q11 -32 47 -24q9 1 17 5l9 -26q-39 -48 -89 -48q-49 0 -67.5 34t3 80t75.5 76q-43 4 -37 40zM147 640q5 37 33 58.5
t65 21.5q36 0 57 -21.5t16 -58.5t-32.5 -58.5t-63.5 -21.5q-37 0 -58.5 21.5t-16.5 58.5z" />
    <glyph glyph-name="Idotaccent" unicode="&#x130;" horiz-adv-x="342" 
d="M342 607l-75 -534q-3 -22 15 -25l40 -8l-5 -40h-292l5 40l44 8q18 3 21 25l75 534q3 22 -14 25l-41 8l6 40h292l-6 -40l-43 -8q-19 -3 -22 -25zM217 811q0 33 23 53.5t56 20.5q26 0 43 -15.5t17 -41.5q0 -32 -23.5 -52.5t-54.5 -20.5q-27 0 -44 15t-17 41z" />
    <glyph glyph-name="dotlessi" unicode="&#x131;" horiz-adv-x="277" 
d="M71 30l54 384q3 20 -15 20h-32l5 40l208 36l6 -8q-11 -32 -19 -86l-49 -346q-3 -25 15 -25h32l-5 -40q-141 -15 -152 -15q-54 0 -48 40z" />
    <glyph glyph-name="IJ" unicode="&#x132;" horiz-adv-x="657" 
d="M342 607l-75 -534q-3 -22 15 -25l40 -8l-5 -40h-292l5 40l44 8q18 3 21 25l75 534q3 22 -14 25l-41 8l6 40h292l-6 -40l-43 -8q-19 -3 -22 -25zM665 607l-78 -560q-31 -211 -255 -247l-11 30q38 23 57 61.5t29 108.5l85 607q3 21 -14 25l-41 8l6 40h293l-6 -40l-43 -8
q-19 -4 -22 -25z" />
    <glyph glyph-name="ij" unicode="&#x133;" horiz-adv-x="542" 
d="M420 629q0 41 28.5 66t68.5 25q34 0 55 -18.5t21 -50.5q0 -41 -28.5 -66t-69.5 -25q-33 0 -54 18.5t-21 50.5zM551 416l-53 -371q-5 -34 -11 -59.5t-22.5 -58.5t-39.5 -56t-63.5 -42.5t-94.5 -28.5l-7 30q34 19 52 58.5t28 111.5l58 414q3 20 -15 20h-32l5 40l208 36
l6 -8q-13 -39 -19 -86zM147 640q5 37 33 58.5t65 21.5q36 0 57 -21.5t16 -58.5t-32.5 -58.5t-63.5 -21.5q-37 0 -58.5 21.5t-16.5 58.5zM71 30l54 384q3 20 -15 20h-32l5 40l208 36l6 -8q-11 -32 -19 -86l-49 -346q-3 -25 15 -25h32l-5 -40q-141 -15 -152 -15q-54 0 -48 40z
" />
    <glyph glyph-name="Jcircumflex" unicode="&#x134;" horiz-adv-x="327" 
d="M335 607l-78 -560q-31 -211 -255 -247l-11 30q38 23 57 61.5t29 108.5l85 607q3 21 -14 25l-41 8l6 40h293l-6 -40l-43 -8q-19 -4 -22 -25zM277 805l-98 -75h-44l133 180h46l84 -180h-45z" />
    <glyph glyph-name="jcircumflex" unicode="&#x135;" horiz-adv-x="262" 
d="M271 416l-53 -371q-5 -34 -11 -59.5t-22.5 -58.5t-39.5 -56t-63.5 -42.5t-94.5 -28.5l-7 30q34 19 52 58.5t28 111.5l58 414q3 20 -15 20h-32l5 40l208 36l6 -8q-13 -39 -19 -86zM214 625l-98 -75h-44l133 180h46l84 -180h-45z" />
    <glyph glyph-name="Kcommaaccent" unicode="&#x136;" horiz-adv-x="720" 
d="M338 318l-42 -42l-29 -203q-3 -22 15 -25l40 -8l-5 -40h-292l5 40l44 8q18 3 21 25l75 534q3 22 -14 25l-41 8l6 40h292l-6 -40l-43 -8q-19 -3 -22 -25l-36 -256l228 227q10 9 9.5 21t-12.5 18l-41 23l6 40h255l-6 -40l-64 -21q-55 -18 -92 -55l-111 -113l174 -372
q12 -24 36 -31l27 -8l-5 -40h-305l5 40l19 6q18 8 6 37zM324 -159q-23 0 -35 16t-12 38q0 27 20.5 52t56.5 25q32 0 51.5 -25t19.5 -58q0 -119 -143 -192l-16 31q83 48 83 91q0 22 -25 22z" />
    <glyph glyph-name="kcommaaccent" unicode="&#x137;" horiz-adv-x="587" 
d="M429 355l115 -295q6 -15 23 -15h26l-5 -40q-117 -15 -146 -15q-32 0 -49 10t-27 36l-72 206l-46 -38l-28 -204h-153l86 614q3 20 -15 20h-32l5 40l208 36l7 -8q-12 -30 -20 -86l-49 -353l174 140q24 24 -11 41l-38 16l6 40h235l-6 -40l-54 -19q-52 -19 -93 -52zM252 -166
q-23 0 -35 16t-12 38q0 27 20.5 52t56.5 25q32 0 51.5 -25t19.5 -58q0 -119 -143 -192l-16 31q83 48 83 91q0 22 -25 22z" />
    <glyph glyph-name="kgreenlandic" unicode="&#x138;" horiz-adv-x="587" 
d="M429 355l115 -295q6 -15 23 -15h26l-5 -40q-117 -15 -146 -15q-32 0 -49 10t-27 36l-72 206l-46 -38l-28 -204h-153l58 414q4 20 -15 20h-32l6 40l208 36l6 -8q-11 -32 -19 -86l-22 -153l174 140q24 24 -11 41l-38 16l6 40h235l-6 -40l-54 -19q-52 -19 -93 -52z" />
    <glyph glyph-name="Lacute" unicode="&#x139;" horiz-adv-x="542" 
d="M342 607l-79 -561h129q16 0 29 15l98 119h38l-43 -180h-489l5 40l44 8q18 3 21 25l75 534q3 22 -14 25l-41 8l6 40h292l-6 -40l-43 -8q-19 -3 -22 -25zM264 748l122 104q24 21 50.5 11.5t26.5 -37.5q0 -41 -51 -58l-138 -45z" />
    <glyph glyph-name="lacute" unicode="&#x13a;" horiz-adv-x="277" 
d="M71 30l82 584q3 20 -15 20h-32l5 40l208 36l7 -8q-12 -30 -20 -86l-77 -546q-3 -25 15 -25h32l-5 -40q-141 -15 -152 -15q-54 0 -48 40zM206 788l122 104q24 21 50.5 11.5t26.5 -37.5q0 -41 -51 -58l-138 -45z" />
    <glyph glyph-name="Lcommaaccent" unicode="&#x13b;" horiz-adv-x="542" 
d="M342 607l-79 -561h129q16 0 29 15l98 119h38l-43 -180h-489l5 40l44 8q18 3 21 25l75 534q3 22 -14 25l-41 8l6 40h292l-6 -40l-43 -8q-19 -3 -22 -25zM234 -158q-23 0 -35 16t-12 38q0 27 20.5 52t56.5 25q32 0 51.5 -25t19.5 -58q0 -119 -143 -192l-16 31q83 48 83 91
q0 22 -25 22z" />
    <glyph glyph-name="lcommaaccent" unicode="&#x13c;" horiz-adv-x="277" 
d="M71 30l82 584q3 20 -15 20h-32l5 40l208 36l7 -8q-12 -30 -20 -86l-77 -546q-3 -25 15 -25h32l-5 -40q-141 -15 -152 -15q-54 0 -48 40zM104 -166q-23 0 -35 16t-12 38q0 27 20.5 52t56.5 25q32 0 51.5 -25t19.5 -58q0 -119 -143 -192l-16 31q83 48 83 91q0 22 -25 22z
" />
    <glyph glyph-name="Lcaron" unicode="&#x13d;" horiz-adv-x="542" 
d="M342 607l-79 -561h129q16 0 29 15l98 119h38l-43 -180h-489l5 40l44 8q18 3 21 25l75 534q3 22 -14 25l-41 8l6 40h292l-6 -40l-43 -8q-19 -3 -22 -25zM479 564q-23 0 -35 16t-12 38q0 27 20.5 52t56.5 25q32 0 51.5 -25t19.5 -58q0 -119 -143 -192l-16 31q83 48 83 91
q0 22 -25 22z" />
    <glyph glyph-name="lcaron" unicode="&#x13e;" horiz-adv-x="417" 
d="M71 30l82 584q3 20 -15 20h-32l5 40l208 36l7 -8q-12 -30 -20 -86l-77 -546q-3 -25 15 -25h32l-5 -40q-141 -15 -152 -15q-54 0 -48 40zM396 589q-23 0 -35 16t-12 38q0 27 20.5 52t56.5 25q32 0 51.5 -25t19.5 -58q0 -119 -143 -192l-16 31q83 48 83 91q0 22 -25 22z
" />
    <glyph glyph-name="Ldot" unicode="&#x13f;" horiz-adv-x="542" 
d="M342 607l-79 -561h129q16 0 29 15l98 119h38l-43 -180h-489l5 40l44 8q18 3 21 25l75 534q3 22 -14 25l-41 8l6 40h292l-6 -40l-43 -8q-19 -3 -22 -25zM356 361q0 33 23 53.5t56 20.5q26 0 43 -15.5t17 -41.5q0 -32 -23.5 -52.5t-54.5 -20.5q-27 0 -44 15t-17 41z" />
    <glyph glyph-name="ldot" unicode="&#x140;" horiz-adv-x="398" 
d="M71 30l82 584q3 20 -15 20h-32l5 40l208 36l7 -8q-12 -30 -20 -86l-77 -546q-3 -25 15 -25h32l-5 -40q-141 -15 -152 -15q-54 0 -48 40zM291 351q0 33 23 53.5t56 20.5q26 0 43 -15.5t17 -41.5q0 -32 -23.5 -52.5t-54.5 -20.5q-27 0 -44 15t-17 41z" />
    <glyph glyph-name="Lslash" unicode="&#x141;" horiz-adv-x="542" 
d="M342 607l-30 -211l96 29l-6 -40l-95 -29l-44 -310h129q16 0 29 15l98 119h38l-43 -180h-489l5 40l44 8q18 3 21 25l32 230l-62 -18l6 40l62 18l37 264q3 22 -14 25l-41 8l6 40h292l-6 -40l-43 -8q-19 -3 -22 -25z" />
    <glyph glyph-name="lslash" unicode="&#x142;" horiz-adv-x="277" 
d="M71 30l38 274l-52 -19l6 40l52 19l38 270q3 20 -15 20h-32l5 40l208 36l7 -8q-12 -30 -20 -86l-30 -211l54 20l-6 -40l-54 -20l-41 -295q-3 -25 15 -25h32l-5 -40q-141 -15 -152 -15q-54 0 -48 40z" />
    <glyph glyph-name="Nacute" unicode="&#x143;" horiz-adv-x="697" 
d="M538 -5l-295 581l-67 -475q-4 -29 21 -38l60 -23l-5 -40h-232l5 40l66 23q31 12 34 38l71 506q3 22 -14 25l-72 8l6 40h277l192 -373l38 269q4 28 -23 38l-61 26l6 40h236l-6 -40l-67 -26q-30 -11 -34 -38l-82 -581h-54zM419 748l122 104q24 21 50.5 11.5t26.5 -37.5
q0 -41 -51 -58l-138 -45z" />
    <glyph glyph-name="nacute" unicode="&#x144;" horiz-adv-x="567" 
d="M359 30l43 307q4 29 -7 46.5t-36 17.5q-38 0 -66 -37t-35 -88l-39 -276h-153l59 414q3 20 -15 20h-32l5 40l208 36l6 -8q-11 -32 -19 -86l-4 -33h2q61 127 175 127q55 0 86 -41t20 -119l-40 -280q-3 -25 15 -25h32l-5 -40q-141 -15 -152 -15q-54 0 -48 40zM325 568
l122 104q24 21 50.5 11.5t26.5 -37.5q0 -41 -51 -58l-138 -45z" />
    <glyph glyph-name="Ncommaaccent" unicode="&#x145;" horiz-adv-x="697" 
d="M538 -5l-295 581l-67 -475q-4 -29 21 -38l60 -23l-5 -40h-232l5 40l66 23q31 12 34 38l71 506q3 22 -14 25l-72 8l6 40h277l192 -373l38 269q4 28 -23 38l-61 26l6 40h236l-6 -40l-67 -26q-30 -11 -34 -38l-82 -581h-54zM306 -166q-23 0 -35 16t-12 38q0 27 20.5 52
t56.5 25q32 0 51.5 -25t19.5 -58q0 -119 -143 -192l-16 31q83 48 83 91q0 22 -25 22z" />
    <glyph glyph-name="ncommaaccent" unicode="&#x146;" horiz-adv-x="567" 
d="M359 30l43 307q4 29 -7 46.5t-36 17.5q-38 0 -66 -37t-35 -88l-39 -276h-153l59 414q3 20 -15 20h-32l5 40l208 36l6 -8q-11 -32 -19 -86l-4 -33h2q61 127 175 127q55 0 86 -41t20 -119l-40 -280q-3 -25 15 -25h32l-5 -40q-141 -15 -152 -15q-54 0 -48 40zM278 -166
q-23 0 -35 16t-12 38q0 27 20.5 52t56.5 25q32 0 51.5 -25t19.5 -58q0 -119 -143 -192l-16 31q83 48 83 91q0 22 -25 22z" />
    <glyph glyph-name="Ncaron" unicode="&#x147;" horiz-adv-x="697" 
d="M538 -5l-295 581l-67 -475q-4 -29 21 -38l60 -23l-5 -40h-232l5 40l66 23q31 12 34 38l71 506q3 22 -14 25l-72 8l6 40h277l192 -373l38 269q4 28 -23 38l-61 26l6 40h236l-6 -40l-67 -26q-30 -11 -34 -38l-82 -581h-54zM390 910l76 -75l98 75h45l-134 -180h-46l-83 180
h44z" />
    <glyph glyph-name="ncaron" unicode="&#x148;" horiz-adv-x="567" 
d="M359 30l43 307q4 29 -7 46.5t-36 17.5q-38 0 -66 -37t-35 -88l-39 -276h-153l59 414q3 20 -15 20h-32l5 40l208 36l6 -8q-11 -32 -19 -86l-4 -33h2q61 127 175 127q55 0 86 -41t20 -119l-40 -280q-3 -25 15 -25h32l-5 -40q-141 -15 -152 -15q-54 0 -48 40zM303 730
l76 -75l98 75h45l-134 -180h-46l-83 180h44z" />
    <glyph glyph-name="napostrophe" unicode="&#x149;" horiz-adv-x="567" 
d="M359 30l43 307q4 29 -7 46.5t-36 17.5q-38 0 -66 -37t-35 -88l-39 -276h-153l59 414q3 20 -15 20h-32l5 40l208 36l6 -8q-11 -32 -19 -86l-4 -33h2q61 127 175 127q55 0 86 -41t20 -119l-40 -280q-3 -25 15 -25h32l-5 -40q-141 -15 -152 -15q-54 0 -48 40zM182 687
q-23 0 -35 16t-12 38q0 27 20.5 52t56.5 25q32 0 51.5 -25t19.5 -58q0 -119 -143 -192l-16 31q83 48 83 91q0 22 -25 22z" />
    <glyph glyph-name="Eng" unicode="&#x14a;" horiz-adv-x="696" 
d="M674 576l-82 -581q-3 -20 -10.5 -40.5t-24.5 -46t-42 -46t-65.5 -38t-90.5 -24.5l-7 30q77 16 127.5 58t59.5 107l-295 581l-67 -475q-4 -29 21 -38l60 -23l-5 -40h-232l5 40l66 23q30 11 34 38l71 506q3 22 -14 25l-72 8l6 40h276l192 -373l37 269q4 26 -23 38l-61 26
l6 40h235l-6 -40l-66 -26q-30 -13 -33 -38z" />
    <glyph glyph-name="eng" unicode="&#x14b;" horiz-adv-x="558" 
d="M557 350l-43 -305q-6 -43 -16.5 -75.5t-34.5 -70t-70 -63t-113 -36.5l-6 30q34 19 52.5 59.5t28.5 110.5l47 337q5 29 -6 46.5t-37 17.5q-38 0 -66 -37t-35 -88l-39 -276h-153l59 414q3 20 -15 20h-32l5 40l208 36l6 -8q-11 -32 -19 -86l-4 -33h2q61 127 180 127
q52 0 82 -41t19 -119z" />
    <glyph glyph-name="Omacron" unicode="&#x14c;" horiz-adv-x="732" 
d="M83 289q0 92 33 169t86.5 127t121 77.5t138.5 27.5q119 0 200.5 -81t81.5 -219q0 -121 -57 -214.5t-142.5 -139.5t-181.5 -46q-119 0 -199.5 80.5t-80.5 218.5zM257 223q0 -187 113 -187q93 0 146 100.5t53 317.5q0 190 -114 190q-92 0 -145 -101t-53 -320zM357 805h243
l-5 -40h-243z" />
    <glyph glyph-name="omacron" unicode="&#x14d;" horiz-adv-x="520" 
d="M328 464q-50 0 -83.5 -73.5t-33.5 -232.5q0 -122 56 -122q49 0 81.5 74.5t32.5 236.5q0 117 -53 117zM261 -10q-91 0 -147.5 61t-56.5 161q0 130 81 214t196 84q89 0 144.5 -60.5t55.5 -160.5q0 -130 -80 -214.5t-193 -84.5zM227 625h243l-5 -40h-243z" />
    <glyph glyph-name="Obreve" unicode="&#x14e;" horiz-adv-x="732" 
d="M83 289q0 92 33 169t86.5 127t121 77.5t138.5 27.5q119 0 200.5 -81t81.5 -219q0 -121 -57 -214.5t-142.5 -139.5t-181.5 -46q-119 0 -199.5 80.5t-80.5 218.5zM257 223q0 -187 113 -187q93 0 146 100.5t53 317.5q0 190 -114 190q-92 0 -145 -101t-53 -320zM468 730
q-38 0 -60.5 25.5t-25.5 61t0 73.5h31q1 -28 19 -49t48 -21q31 0 55 21.5t31 48.5h32q-9 -64 -41.5 -112t-88.5 -48z" />
    <glyph glyph-name="obreve" unicode="&#x14f;" horiz-adv-x="520" 
d="M328 464q-50 0 -83.5 -73.5t-33.5 -232.5q0 -122 56 -122q49 0 81.5 74.5t32.5 236.5q0 117 -53 117zM261 -10q-91 0 -147.5 61t-56.5 161q0 130 81 214t196 84q89 0 144.5 -60.5t55.5 -160.5q0 -130 -80 -214.5t-193 -84.5zM339 550q-38 0 -60.5 25.5t-25.5 61t0 73.5
h31q1 -28 19 -49t48 -21q31 0 55 21.5t31 48.5h32q-9 -64 -41.5 -112t-88.5 -48z" />
    <glyph glyph-name="Ohungarumlaut" unicode="&#x150;" horiz-adv-x="732" 
d="M83 289q0 92 33 169t86.5 127t121 77.5t138.5 27.5q119 0 200.5 -81t81.5 -219q0 -121 -57 -214.5t-142.5 -139.5t-181.5 -46q-119 0 -199.5 80.5t-80.5 218.5zM257 223q0 -187 113 -187q93 0 146 100.5t53 317.5q0 190 -114 190q-92 0 -145 -101t-53 -320zM356 730
l106 123q14 17 34 20.5t34.5 -6t15.5 -28.5q1 -36 -43 -60l-132 -70zM531 730l105 123q14 16 34 20t34.5 -5.5t15.5 -28.5q1 -36 -43 -60l-132 -70z" />
    <glyph glyph-name="ohungarumlaut" unicode="&#x151;" horiz-adv-x="520" 
d="M328 464q-50 0 -83.5 -73.5t-33.5 -232.5q0 -122 56 -122q49 0 81.5 74.5t32.5 236.5q0 117 -53 117zM261 -10q-91 0 -147.5 61t-56.5 161q0 130 81 214t196 84q89 0 144.5 -60.5t55.5 -160.5q0 -130 -80 -214.5t-193 -84.5zM212 550l106 123q23 26 52.5 20.5t31.5 -34.5
q1 -37 -43 -60l-131 -70zM387 550l105 123q14 16 34 20t35 -5.5t15 -28.5q1 -36 -42 -60l-132 -70z" />
    <glyph glyph-name="OE" unicode="&#x152;" horiz-adv-x="915" 
d="M258 227q0 -191 113 -191q47 0 68.5 37t29.5 98l46 332q5 38 5 69.5t-15.5 51.5t-47.5 20q-102 0 -150.5 -104t-48.5 -313zM970 680l-26 -180h-38l-48 119q-6 15 -25 15h-126l-38 -266h39q20 0 30 15l55 87h38l-35 -250h-38l-31 87q-5 15 -25 15h-38l-40 -276h139
q17 0 29 15l97 119h38l-43 -180h-438q-35 -10 -81 -10q-131 0 -206.5 80.5t-75.5 215.5q0 178 106.5 291t273.5 113q46 0 79 -10h428z" />
    <glyph glyph-name="oe" unicode="&#x153;" horiz-adv-x="788" 
d="M539 219q-4 -53 26.5 -96.5t86.5 -43.5t119 49l15 -27q-31 -43 -86.5 -77t-121.5 -34q-95 0 -151 59q-73 -59 -167 -59q-90 0 -146.5 61t-56.5 161q0 130 81 214t195 84q95 0 151 -67q75 67 177 67q57 0 99 -31.5t42 -80.5q0 -134 -263 -179zM327 464q-50 0 -82 -74.5
t-32 -237.5q0 -116 53 -116q50 0 82 74t32 237q0 117 -53 117zM653 464q-42 0 -72 -55.5t-41 -150.5q60 24 103.5 65t43.5 100q0 41 -34 41z" />
    <glyph glyph-name="Racute" unicode="&#x154;" horiz-adv-x="655" 
d="M306 353h41q50 0 78.5 47t28.5 138q0 96 -67 96h-41zM427 328v-2q123 -23 142 -101l34 -148q4 -21 25 -29l24 -8l-5 -40q-102 -10 -141 -10q-30 0 -49.5 6t-29 19t-13.5 24t-8 31l-39 194q-5 27 -14.5 35t-26.5 8h-26l-33 -234q-3 -22 15 -25l58 -8l-5 -40h-310l5 40
l44 8q18 3 21 25l75 534q3 22 -14 25l-41 8l6 40h316q96 0 146.5 -42t50.5 -114q0 -85 -63 -137t-144 -59zM357 748l122 104q24 21 50.5 11.5t26.5 -37.5q0 -41 -51 -58l-138 -45z" />
    <glyph glyph-name="racute" unicode="&#x155;" horiz-adv-x="420" 
d="M273 381h2q56 129 133 129q29 0 47.5 -18t18.5 -48q0 -36 -22.5 -61t-55.5 -25q-18 0 -37 10t-26 10q-26 0 -47 -27t-28 -75l-39 -276h-153l59 414q3 20 -15 20h-32l5 40l208 36l6 -8q-11 -32 -19 -86zM221 568l122 104q24 21 50.5 11.5t26.5 -37.5q0 -41 -51 -58
l-138 -45z" />
    <glyph glyph-name="Rcommaaccent" unicode="&#x156;" horiz-adv-x="655" 
d="M306 353h41q50 0 78.5 47t28.5 138q0 96 -67 96h-41zM427 328v-2q123 -23 142 -101l34 -148q4 -21 25 -29l24 -8l-5 -40q-102 -10 -141 -10q-30 0 -49.5 6t-29 19t-13.5 24t-8 31l-39 194q-5 27 -14.5 35t-26.5 8h-26l-33 -234q-3 -22 15 -25l58 -8l-5 -40h-310l5 40
l44 8q18 3 21 25l75 534q3 22 -14 25l-41 8l6 40h316q96 0 146.5 -42t50.5 -114q0 -85 -63 -137t-144 -59zM310 -160q-23 0 -35 16t-12 38q0 27 20.5 52t56.5 25q32 0 51.5 -25t19.5 -58q0 -119 -143 -192l-16 31q83 48 83 91q0 22 -25 22z" />
    <glyph glyph-name="rcommaaccent" unicode="&#x157;" horiz-adv-x="420" 
d="M273 381h2q56 129 133 129q29 0 47.5 -18t18.5 -48q0 -36 -22.5 -61t-55.5 -25q-18 0 -37 10t-26 10q-26 0 -47 -27t-28 -75l-39 -276h-153l59 414q3 20 -15 20h-32l5 40l208 36l6 -8q-11 -32 -19 -86zM102 -166q-23 0 -35 16t-12 38q0 27 20.5 52t56.5 25q32 0 51.5 -25
t19.5 -58q0 -119 -143 -192l-16 31q83 48 83 91q0 22 -25 22z" />
    <glyph glyph-name="Rcaron" unicode="&#x158;" horiz-adv-x="655" 
d="M306 353h41q50 0 78.5 47t28.5 138q0 96 -67 96h-41zM427 328v-2q123 -23 142 -101l34 -148q4 -21 25 -29l24 -8l-5 -40q-102 -10 -141 -10q-30 0 -49.5 6t-29 19t-13.5 24t-8 31l-39 194q-5 27 -14.5 35t-26.5 8h-26l-33 -234q-3 -22 15 -25l58 -8l-5 -40h-310l5 40
l44 8q18 3 21 25l75 534q3 22 -14 25l-41 8l6 40h316q96 0 146.5 -42t50.5 -114q0 -85 -63 -137t-144 -59zM330 910l76 -75l98 75h45l-134 -180h-46l-83 180h44z" />
    <glyph glyph-name="rcaron" unicode="&#x159;" horiz-adv-x="420" 
d="M273 381h2q56 129 133 129q29 0 47.5 -18t18.5 -48q0 -36 -22.5 -61t-55.5 -25q-18 0 -37 10t-26 10q-26 0 -47 -27t-28 -75l-39 -276h-153l59 414q3 20 -15 20h-32l5 40l208 36l6 -8q-11 -32 -19 -86zM217 730l76 -75l98 75h45l-134 -180h-46l-83 180h44z" />
    <glyph glyph-name="Sacute" unicode="&#x15a;" horiz-adv-x="497" 
d="M228 -10q-47 0 -86 11.5t-53 20.5t-39 28l7 180h38q41 -112 72.5 -153t71.5 -41q52 0 78 29.5t26 77.5q0 75 -87 122q-72 38 -113 83t-41 118q0 102 74 163t175 61q95 0 175 -60l-24 -170h-38q-31 106 -56 145t-66 39q-31 0 -54.5 -20t-23.5 -67q0 -35 26 -64t89 -63
q55 -29 90 -80t35 -117q0 -117 -82 -180t-194 -63zM317 748l122 104q24 21 50.5 11.5t26.5 -37.5q0 -41 -51 -58l-138 -45z" />
    <glyph glyph-name="sacute" unicode="&#x15b;" horiz-adv-x="407" 
d="M278 464q-27 0 -43 -18t-16 -46q0 -22 19 -40t46 -33.5t54 -34t46 -48t19 -68.5q0 -82 -61 -134t-147 -52q-91 0 -134 28.5t-43 66.5q0 31 21 49t45 18q22 0 34.5 -18t16.5 -40t17.5 -40t38.5 -18q29 0 47.5 18.5t18.5 51.5q0 26 -18.5 45.5t-44.5 34t-52 31.5t-44.5 47
t-18.5 70q0 75 52.5 125.5t149.5 50.5q79 0 120.5 -28.5t41.5 -64.5q0 -27 -18.5 -48t-46.5 -21q-22 0 -34.5 18t-16 40t-15.5 40t-34 18zM236 568l122 104q24 21 50.5 11.5t26.5 -37.5q0 -41 -51 -58l-138 -45z" />
    <glyph glyph-name="Scircumflex" unicode="&#x15c;" horiz-adv-x="497" 
d="M228 -10q-47 0 -86 11.5t-53 20.5t-39 28l7 180h38q41 -112 72.5 -153t71.5 -41q52 0 78 29.5t26 77.5q0 75 -87 122q-72 38 -113 83t-41 118q0 102 74 163t175 61q95 0 175 -60l-24 -170h-38q-31 106 -56 145t-66 39q-31 0 -54.5 -20t-23.5 -67q0 -35 26 -64t89 -63
q55 -29 90 -80t35 -117q0 -117 -82 -180t-194 -63zM363 805l-98 -75h-44l133 180h46l84 -180h-45z" />
    <glyph glyph-name="scircumflex" unicode="&#x15d;" horiz-adv-x="407" 
d="M278 464q-27 0 -43 -18t-16 -46q0 -22 19 -40t46 -33.5t54 -34t46 -48t19 -68.5q0 -82 -61 -134t-147 -52q-91 0 -134 28.5t-43 66.5q0 31 21 49t45 18q22 0 34.5 -18t16.5 -40t17.5 -40t38.5 -18q29 0 47.5 18.5t18.5 51.5q0 26 -18.5 45.5t-44.5 34t-52 31.5t-44.5 47
t-18.5 70q0 75 52.5 125.5t149.5 50.5q79 0 120.5 -28.5t41.5 -64.5q0 -27 -18.5 -48t-46.5 -21q-22 0 -34.5 18t-16 40t-15.5 40t-34 18zM290 625l-98 -75h-44l133 180h46l84 -180h-45z" />
    <glyph glyph-name="Scedilla" unicode="&#x15e;" horiz-adv-x="497" 
d="M204 -56l6 47q-41 2 -75.5 13t-48.5 20t-36 26l7 180h38q41 -112 72.5 -153t71.5 -41q52 0 78 29.5t26 77.5q0 75 -87 122q-72 38 -113 83t-41 118q0 102 74 163t175 61q95 0 175 -60l-24 -170h-38q-31 106 -56 145t-66 39q-31 0 -54.5 -20t-23.5 -67q0 -35 26 -64
t89 -63q55 -29 90 -80t35 -117q0 -114 -78.5 -177t-186.5 -66l-4 -32q36 -3 59.5 -20.5t23.5 -47.5q0 -90 -122 -90q-34 0 -64 12l10 24q22 -10 44 -10q26 0 42.5 17.5t16.5 47.5q0 43 -41 53z" />
    <glyph glyph-name="scedilla" unicode="&#x15f;" horiz-adv-x="407" 
d="M278 464q-27 0 -43 -18t-16 -46q0 -22 19 -40t46 -33.5t54 -34t46 -48t19 -68.5q0 -78 -55.5 -129t-136.5 -56l-5 -33q36 -3 60 -20.5t24 -47.5q0 -90 -123 -90q-34 0 -64 12l9 24q24 -10 45 -10q27 0 43 17.5t16 47.5q0 43 -41 53l7 46q-84 3 -124 31t-40 64q0 31 21 49
t45 18q22 0 34.5 -18t16.5 -40t17.5 -40t38.5 -18q29 0 47.5 18.5t18.5 51.5q0 26 -18.5 45.5t-44.5 34t-52 31.5t-44.5 47t-18.5 70q0 75 52.5 125.5t149.5 50.5q79 0 120.5 -28.5t41.5 -64.5q0 -27 -18.5 -48t-46.5 -21q-22 0 -34.5 18t-16 40t-15.5 40t-34 18z" />
    <glyph glyph-name="Scaron" unicode="&#x160;" horiz-adv-x="497" 
d="M228 -10q-47 0 -86 11.5t-53 20.5t-39 28l7 180h38q41 -112 72.5 -153t71.5 -41q52 0 78 29.5t26 77.5q0 75 -87 122q-72 38 -113 83t-41 118q0 102 74 163t175 61q95 0 175 -60l-24 -170h-38q-31 106 -56 145t-66 39q-31 0 -54.5 -20t-23.5 -67q0 -35 26 -64t89 -63
q55 -29 90 -80t35 -117q0 -117 -82 -180t-194 -63zM289 910l76 -75l98 75h45l-134 -180h-46l-83 180h44z" />
    <glyph glyph-name="scaron" unicode="&#x161;" horiz-adv-x="407" 
d="M278 464q-27 0 -43 -18t-16 -46q0 -22 19 -40t46 -33.5t54 -34t46 -48t19 -68.5q0 -82 -61 -134t-147 -52q-91 0 -134 28.5t-43 66.5q0 31 21 49t45 18q22 0 34.5 -18t16.5 -40t17.5 -40t38.5 -18q29 0 47.5 18.5t18.5 51.5q0 26 -18.5 45.5t-44.5 34t-52 31.5t-44.5 47
t-18.5 70q0 75 52.5 125.5t149.5 50.5q79 0 120.5 -28.5t41.5 -64.5q0 -27 -18.5 -48t-46.5 -21q-22 0 -34.5 18t-16 40t-15.5 40t-34 18zM218 730l76 -75l98 75h45l-134 -180h-46l-83 180h44z" />
    <glyph glyph-name="Tcommaaccent" unicode="&#x162;" horiz-adv-x="547" 
d="M276 634h-45q-19 0 -29 -14l-82 -120h-38l25 180h523l-25 -180h-38l-50 119q-6 15 -25 15h-43l-79 -561q-3 -21 15 -25l40 -8l-5 -40h-292l5 40l43 8q18 4 21 25zM232 -166q-23 0 -35 16t-12 38q0 27 20.5 52t56.5 25q32 0 51.5 -25t19.5 -58q0 -119 -143 -192l-16 31
q83 48 83 91q0 22 -25 22z" />
    <glyph glyph-name="tcommaaccent" unicode="&#x163;" horiz-adv-x="330" 
d="M87 488l45 5q28 3 52 30l88 97h35l-17 -120h98l-7 -47h-98l-46 -331q-5 -39 7 -52.5t38 -13.5q22 0 49 12l-3 -43q-66 -35 -147 -35q-58 0 -83 24.5t-16 85.5l49 353h-50zM127 -166q-23 0 -35 16t-12 38q0 27 20.5 52t56.5 25q32 0 51.5 -25t19.5 -58q0 -119 -143 -192
l-16 31q83 48 83 91q0 22 -25 22z" />
    <glyph glyph-name="Tcaron" unicode="&#x164;" horiz-adv-x="547" 
d="M276 634h-45q-19 0 -29 -14l-82 -120h-38l25 180h523l-25 -180h-38l-50 119q-6 15 -25 15h-43l-79 -561q-3 -21 15 -25l40 -8l-5 -40h-292l5 40l43 8q18 4 21 25zM315 910l76 -75l98 75h45l-134 -180h-46l-83 180h44z" />
    <glyph glyph-name="tcaron" unicode="&#x165;" horiz-adv-x="330" 
d="M87 488l45 5q28 3 52 30l88 97h35l-17 -120h98l-7 -47h-98l-46 -331q-5 -39 7 -52.5t38 -13.5q22 0 49 12l-3 -43q-66 -35 -147 -35q-58 0 -83 24.5t-16 85.5l49 353h-50zM373 691q-23 0 -35 16t-12 38q0 27 20.5 52t56.5 25q32 0 51.5 -25t19.5 -58q0 -119 -143 -192
l-16 31q83 48 83 91q0 22 -25 22z" />
    <glyph glyph-name="Tbar" unicode="&#x166;" horiz-adv-x="547" 
d="M276 634h-45q-19 0 -29 -14l-82 -120h-38l25 180h523l-25 -180h-38l-50 119q-6 15 -25 15h-43l-40 -279h63l-6 -40h-62l-34 -242q-3 -21 15 -25l40 -8l-5 -40h-292l5 40l43 8q18 4 21 25l34 242h-59l6 40h58z" />
    <glyph glyph-name="tbar" unicode="&#x167;" horiz-adv-x="330" 
d="M87 488l45 5q26 3 52 30l88 97h35l-17 -120h98l-7 -47h-98l-26 -188h55l-6 -40h-55l-14 -103q-5 -39 7 -52.5t37 -13.5q23 0 49 12l-2 -43q-68 -35 -147 -35q-58 0 -83 24.5t-16 85.5l17 125h-50l6 40h50l26 188h-50z" />
    <glyph glyph-name="Utilde" unicode="&#x168;" horiz-adv-x="695" 
d="M576 255l45 318q4 31 -21 41l-62 26l5 40h235l-5 -40l-67 -26q-31 -13 -35 -41l-45 -317q-18 -128 -91 -197t-189 -69q-132 0 -191 70t-41 197l49 350q3 21 -15 25l-40 8l5 40h293l-5 -40l-44 -8q-18 -4 -21 -25l-50 -356q-15 -99 11.5 -146.5t100.5 -47.5q73 0 119 53.5
t59 144.5zM335 728l-25 19q17 52 49 92.5t68 40.5q28 0 78 -25t76 -25q18 0 28.5 8t28.5 30l23 -18q-47 -126 -113 -126q-26 0 -73 25t-74 25q-8 0 -15.5 -2.5t-12 -4.5t-12 -9t-9 -9t-9.5 -11z" />
    <glyph glyph-name="utilde" unicode="&#x169;" horiz-adv-x="572" 
d="M87 150l38 264q3 20 -15 20h-32l5 40l207 36l7 -8q-13 -37 -20 -86l-35 -253q-5 -28 6.5 -46t36.5 -18q39 0 66.5 37.5t33.5 87.5l27 190q3 20 -15 20h-50l5 40l226 36l6 -8q-11 -32 -19 -86l-48 -346q-3 -22 14 -25l34 -5l-7 -40q-110 -10 -151 -10q-55 0 -49 40l12 86
h-1q-62 -126 -176 -126q-55 0 -86 41t-20 119zM216 548l-25 19q17 52 49 92.5t68 40.5q28 0 78 -25t76 -25q18 0 28.5 8t28.5 30l23 -18q-47 -126 -113 -126q-26 0 -73 25t-74 25q-8 0 -15.5 -2.5t-12 -4.5t-12 -9t-9 -9t-9.5 -11z" />
    <glyph glyph-name="Umacron" unicode="&#x16a;" horiz-adv-x="695" 
d="M576 255l45 318q4 31 -21 41l-62 26l5 40h235l-5 -40l-67 -26q-31 -13 -35 -41l-45 -317q-18 -128 -91 -197t-189 -69q-132 0 -191 70t-41 197l49 350q3 21 -15 25l-40 8l5 40h293l-5 -40l-44 -8q-18 -4 -21 -25l-50 -356q-15 -99 11.5 -146.5t100.5 -47.5q73 0 119 53.5
t59 144.5zM358 805h243l-5 -40h-243z" />
    <glyph glyph-name="umacron" unicode="&#x16b;" horiz-adv-x="572" 
d="M87 150l38 264q3 20 -15 20h-32l5 40l207 36l7 -8q-13 -37 -20 -86l-35 -253q-5 -28 6.5 -46t36.5 -18q39 0 66.5 37.5t33.5 87.5l27 190q3 20 -15 20h-50l5 40l226 36l6 -8q-11 -32 -19 -86l-48 -346q-3 -22 14 -25l34 -5l-7 -40q-110 -10 -151 -10q-55 0 -49 40l12 86
h-1q-62 -126 -176 -126q-55 0 -86 41t-20 119zM245 625h243l-5 -40h-243z" />
    <glyph glyph-name="Ubreve" unicode="&#x16c;" horiz-adv-x="695" 
d="M576 255l45 318q4 31 -21 41l-62 26l5 40h235l-5 -40l-67 -26q-31 -13 -35 -41l-45 -317q-18 -128 -91 -197t-189 -69q-132 0 -191 70t-41 197l49 350q3 21 -15 25l-40 8l5 40h293l-5 -40l-44 -8q-18 -4 -21 -25l-50 -356q-15 -99 11.5 -146.5t100.5 -47.5q73 0 119 53.5
t59 144.5zM475 730q-38 0 -60.5 25.5t-25.5 61t0 73.5h31q1 -28 19 -49t48 -21q31 0 55 21.5t31 48.5h32q-9 -64 -41.5 -112t-88.5 -48z" />
    <glyph glyph-name="ubreve" unicode="&#x16d;" horiz-adv-x="572" 
d="M87 150l38 264q3 20 -15 20h-32l5 40l207 36l7 -8q-13 -37 -20 -86l-35 -253q-5 -28 6.5 -46t36.5 -18q39 0 66.5 37.5t33.5 87.5l27 190q3 20 -15 20h-50l5 40l226 36l6 -8q-11 -32 -19 -86l-48 -346q-3 -22 14 -25l34 -5l-7 -40q-110 -10 -151 -10q-55 0 -49 40l12 86
h-1q-62 -126 -176 -126q-55 0 -86 41t-20 119zM357 550q-38 0 -60.5 25.5t-25.5 61t0 73.5h31q1 -28 19 -49t48 -21q31 0 55 21.5t31 48.5h32q-9 -64 -41.5 -112t-88.5 -48z" />
    <glyph glyph-name="Uring" unicode="&#x16e;" horiz-adv-x="695" 
d="M576 255l45 318q4 31 -21 41l-62 26l5 40h235l-5 -40l-67 -26q-31 -13 -35 -41l-45 -317q-18 -128 -91 -197t-189 -69q-132 0 -191 70t-41 197l49 350q3 21 -15 25l-40 8l5 40h293l-5 -40l-44 -8q-18 -4 -21 -25l-50 -356q-15 -99 11.5 -146.5t100.5 -47.5q73 0 119 53.5
t59 144.5zM396 794q0 43 27.5 72t68.5 29q33 0 52.5 -21.5t19.5 -54.5q0 -43 -27.5 -71t-68.5 -28q-33 0 -52.5 20.5t-19.5 53.5zM445 788q0 -46 26 -46q22 0 33.5 26t11.5 58q0 47 -27 47q-21 0 -32.5 -26t-11.5 -59z" />
    <glyph glyph-name="uring" unicode="&#x16f;" horiz-adv-x="572" 
d="M87 150l38 264q3 20 -15 20h-32l5 40l207 36l7 -8q-13 -37 -20 -86l-35 -253q-5 -28 6.5 -46t36.5 -18q39 0 66.5 37.5t33.5 87.5l27 190q3 20 -15 20h-50l5 40l226 36l6 -8q-11 -32 -19 -86l-48 -346q-3 -22 14 -25l34 -5l-7 -40q-110 -10 -151 -10q-55 0 -49 40l12 86
h-1q-62 -126 -176 -126q-55 0 -86 41t-20 119zM283 614q0 43 27.5 72t68.5 29q33 0 52.5 -21.5t19.5 -54.5q0 -43 -27.5 -71t-68.5 -28q-33 0 -52.5 20.5t-19.5 53.5zM332 608q0 -46 26 -46q22 0 33.5 26t11.5 58q0 47 -27 47q-21 0 -32.5 -26t-11.5 -59z" />
    <glyph glyph-name="Uhungarumlaut" unicode="&#x170;" horiz-adv-x="695" 
d="M576 255l45 318q4 31 -21 41l-62 26l5 40h235l-5 -40l-67 -26q-31 -13 -35 -41l-45 -317q-18 -128 -91 -197t-189 -69q-132 0 -191 70t-41 197l49 350q3 21 -15 25l-40 8l5 40h293l-5 -40l-44 -8q-18 -4 -21 -25l-50 -356q-15 -99 11.5 -146.5t100.5 -47.5q73 0 119 53.5
t59 144.5zM343 730l106 123q14 17 34 20.5t34.5 -6t15.5 -28.5q1 -36 -43 -60l-132 -70zM518 730l105 123q14 16 34 20t34.5 -5.5t15.5 -28.5q1 -36 -43 -60l-132 -70z" />
    <glyph glyph-name="uhungarumlaut" unicode="&#x171;" horiz-adv-x="572" 
d="M87 150l38 264q3 20 -15 20h-32l5 40l207 36l7 -8q-13 -37 -20 -86l-35 -253q-5 -28 6.5 -46t36.5 -18q39 0 66.5 37.5t33.5 87.5l27 190q3 20 -15 20h-50l5 40l226 36l6 -8q-11 -32 -19 -86l-48 -346q-3 -22 14 -25l34 -5l-7 -40q-110 -10 -151 -10q-55 0 -49 40l12 86
h-1q-62 -126 -176 -126q-55 0 -86 41t-20 119zM182 550l106 123q23 26 52.5 20.5t31.5 -34.5q1 -37 -43 -60l-131 -70zM357 550l105 123q14 16 34 20t35 -5.5t15 -28.5q1 -36 -42 -60l-132 -70z" />
    <glyph glyph-name="Uogonek" unicode="&#x172;" horiz-adv-x="695" 
d="M576 255l45 318q4 31 -21 41l-62 26l5 40h235l-5 -40l-67 -26q-31 -13 -35 -41l-45 -317q-17 -123 -85 -191.5t-176 -73.5q-48 -57 -32 -98q11 -32 48 -24q9 1 17 5l8 -26q-39 -48 -90 -48q-49 0 -67.5 34t3.5 80t76 76q-123 5 -177 74.5t-37 192.5l49 350q3 21 -15 25
l-40 8l5 40h293l-5 -40l-44 -8q-18 -4 -21 -25l-50 -356q-15 -99 11.5 -146.5t100.5 -47.5q73 0 119 53.5t59 144.5z" />
    <glyph glyph-name="uogonek" unicode="&#x173;" horiz-adv-x="572" 
d="M352 30l12 86h-1q-62 -126 -176 -126q-55 0 -86 41t-20 119l38 264q3 20 -16 20h-32l6 40l207 36l6 -8q-11 -32 -19 -86l-36 -253q-4 -29 7.5 -46.5t36.5 -17.5q38 0 65.5 37t34.5 88l27 190q3 20 -16 20h-50l6 40l226 36l6 -8q-10 -26 -19 -86l-49 -346q-3 -22 15 -25
l33 -5l-6 -40q-94 -5 -127 -59q-20 -35 -1 -59q19 -25 59 -8l8 -26q-38 -48 -89 -48q-58 0 -72 46t26 93q32 36 83 53q-19 -2 -41 -2q-14 0 -23.5 2t-17 11.5t-5.5 26.5z" />
    <glyph glyph-name="Wcircumflex" unicode="&#x174;" horiz-adv-x="992" 
d="M413 170l120 273l-26 159q-3 24 -21 30l-24 8l5 40h295l-5 -40l-38 -8q-24 -6 -19 -40l55 -422h2l162 405q12 31 -18 42l-64 23l5 40h238l-5 -40l-61 -23q-34 -13 -47 -44l-229 -578h-137l-55 365l-160 -365h-130l-103 605q-4 28 -21 32l-35 8l5 40h305l-5 -39l-37 -9
q-16 -5 -19.5 -17.5t0.5 -22.5l65 -422h2zM628 805l-98 -75h-44l133 180h46l84 -180h-45z" />
    <glyph glyph-name="wcircumflex" unicode="&#x175;" horiz-adv-x="810" 
d="M434 251l-45 185q-4 19 -29 19h-18l6 40q105 15 135 15q32 0 50.5 -11t24.5 -39l74 -332h2l24 39q26 41 27.5 93t-10 108t-11.5 70q0 33 19.5 52.5t52.5 19.5q29 0 51.5 -18.5t22.5 -54.5q0 -90 -92 -246l-118 -196h-103l-50 201l-122 -201h-103l-108 441q-4 19 -29 19
h-18l6 40q105 15 135 15q32 0 50.5 -11t24.5 -39l74 -332h2zM493 625l-98 -75h-44l133 180h46l84 -180h-45z" />
    <glyph glyph-name="Ycircumflex" unicode="&#x176;" horiz-adv-x="657" 
d="M629 576l-178 -318l-26 -185q-3 -21 15 -25l40 -8l-5 -40h-293l5 40l44 8q18 4 21 25l25 179l-123 345q-10 28 -24 33l-33 10l5 40h295l-5 -40l-26 -6q-29 -9 -19 -41l89 -261h1l136 247q14 26 -15 38l-51 23l5 40h233l-5 -40l-63 -23q-33 -12 -48 -41zM468 805l-98 -75
h-44l133 180h46l84 -180h-45z" />
    <glyph glyph-name="ycircumflex" unicode="&#x177;" horiz-adv-x="550" 
d="M236 -67l-122 503q-4 19 -29 19h-18l6 40q105 15 135 15q32 0 50.5 -11t24.5 -39l74 -332h2l24 39q26 41 27.5 93t-10 108t-11.5 70q0 33 19.5 52.5t52.5 19.5q29 0 51.5 -18.5t22.5 -54.5q0 -90 -92 -246l-112 -186q-61 -104 -112 -154.5t-111 -50.5q-33 0 -55.5 17
t-17.5 53q6 37 39 45t59 -15q56 -45 103 33zM377 625l-98 -75h-44l133 180h46l84 -180h-45z" />
    <glyph glyph-name="Ydieresis" unicode="&#x178;" horiz-adv-x="657" 
d="M629 576l-178 -318l-26 -185q-3 -21 15 -25l40 -8l-5 -40h-293l5 40l44 8q18 4 21 25l25 179l-123 345q-10 28 -24 33l-33 10l5 40h295l-5 -40l-26 -6q-29 -9 -19 -41l89 -261h1l136 247q14 26 -15 38l-51 23l5 40h233l-5 -40l-63 -23q-33 -12 -48 -41zM305 811
q0 34 24.5 55.5t58.5 21.5q29 0 47 -16t18 -43q0 -35 -24.5 -56.5t-59.5 -21.5q-28 0 -46 16.5t-18 43.5zM485 811q0 34 24.5 55.5t58.5 21.5q29 0 47 -16t18 -43q0 -35 -24.5 -56.5t-59.5 -21.5q-28 0 -46 16.5t-18 43.5z" />
    <glyph glyph-name="Zacute" unicode="&#x179;" horiz-adv-x="542" 
d="M17 40l387 592v2h-154q-19 0 -29 -15l-83 -119h-38l26 180h488l-7 -40l-386 -594h170q17 0 29 15l98 119h37l-43 -180h-500zM335 748l122 104q24 21 50.5 11.5t26.5 -37.5q0 -41 -51 -58l-138 -45z" />
    <glyph glyph-name="zacute" unicode="&#x17a;" horiz-adv-x="460" 
d="M38 0l-14 34l327 334v2h-191q-18 0 -29 -15l-21 -30h-31l36 175h387v-33l-330 -341l1 -2q44 19 94 19q23 0 59.5 -8t50.5 -8q32 0 50 23l20 25h31l-31 -101q-25 -84 -103 -84q-27 0 -99.5 14t-112.5 14q-55 0 -94 -18zM274 568l122 104q24 21 50.5 11.5t26.5 -37.5
q0 -41 -51 -58l-138 -45z" />
    <glyph glyph-name="Zdotaccent" unicode="&#x17b;" horiz-adv-x="542" 
d="M17 40l387 592v2h-154q-19 0 -29 -15l-83 -119h-38l26 180h488l-7 -40l-386 -594h170q17 0 29 15l98 119h37l-43 -180h-500zM315 811q0 33 23 53.5t56 20.5q26 0 43 -15.5t17 -41.5q0 -32 -23.5 -52.5t-54.5 -20.5q-27 0 -44 15t-17 41z" />
    <glyph glyph-name="zdotaccent" unicode="&#x17c;" horiz-adv-x="460" 
d="M38 0l-14 34l327 334v2h-191q-18 0 -29 -15l-21 -30h-31l36 175h387v-33l-330 -341l1 -2q44 19 94 19q23 0 59.5 -8t50.5 -8q32 0 50 23l20 25h31l-31 -101q-25 -84 -103 -84q-27 0 -99.5 14t-112.5 14q-55 0 -94 -18zM250 631q0 33 23 53.5t56 20.5q26 0 43 -15.5
t17 -41.5q0 -32 -23.5 -52.5t-54.5 -20.5q-27 0 -44 15t-17 41z" />
    <glyph glyph-name="Zcaron" unicode="&#x17d;" horiz-adv-x="542" 
d="M17 40l387 592v2h-154q-19 0 -29 -15l-83 -119h-38l26 180h488l-7 -40l-386 -594h170q17 0 29 15l98 119h37l-43 -180h-500zM311 910l76 -75l98 75h45l-134 -180h-46l-83 180h44z" />
    <glyph glyph-name="zcaron" unicode="&#x17e;" horiz-adv-x="460" 
d="M38 0l-14 34l327 334v2h-191q-18 0 -29 -15l-21 -30h-31l36 175h387v-33l-330 -341l1 -2q44 19 94 19q23 0 59.5 -8t50.5 -8q32 0 50 23l20 25h31l-31 -101q-25 -84 -103 -84q-27 0 -99.5 14t-112.5 14q-55 0 -94 -18zM245 730l76 -75l98 75h45l-134 -180h-46l-83 180h44
z" />
    <glyph glyph-name="florin" unicode="&#x192;" horiz-adv-x="452" 
d="M355 453l-135 -459q-27 -91 -104.5 -142.5t-156.5 -51.5q-43 0 -69.5 16.5t-15.5 54.5q10 29 30 45t42 16t32.5 -18.5t15.5 -37.5t13 -19q17 0 31 46l164 550h-52l10 33l56 14l5 16q17 62 61.5 107.5t96.5 66t103 20.5q42 0 68.5 -16.5t14.5 -54.5q-9 -29 -29 -45
t-42 -16t-32 19t-15 37.5t-14 18.5q-17 0 -31 -46l-32 -107h96l-14 -47h-97z" />
    <glyph glyph-name="AEacute" unicode="&#x1fc;" horiz-adv-x="870" 
d="M410 73l23 159h-184l-75 -129q-14 -24 20 -40l47 -23l-5 -40h-229l5 40l59 23q29 11 48 42l347 575h460l-26 -180h-38l-49 119q-7 15 -25 15h-126l-38 -266h40q20 0 30 15l55 87h37l-35 -250h-37l-31 87q-6 15 -25 15h-39l-40 -276h138q17 0 29 15l98 119h38l-43 -180
h-499l5 40l44 8q18 4 21 25zM281 283h159l48 342h-1zM543 748l122 104q24 21 50.5 11.5t26.5 -37.5q0 -41 -51 -58l-138 -45z" />
    <glyph glyph-name="aeacute" unicode="&#x1fd;" horiz-adv-x="719" 
d="M470 219q-4 -53 26.5 -96.5t86.5 -43.5q58 0 119 49l16 -27q-32 -44 -87.5 -77.5t-120.5 -33.5q-69 0 -120.5 33.5t-71.5 95.5q-63 -129 -179 -129q-46 0 -72.5 29t-26.5 77q0 124 151 164l124 34l6 42q6 39 -15.5 60t-53.5 21q-66 0 -121 -37l-16 26q81 104 206 104
q78 0 122 -45q66 45 150 45q57 0 98.5 -31.5t41.5 -80.5q0 -134 -263 -179zM584 464q-42 0 -72 -55.5t-41 -150.5q60 24 103.5 65t43.5 100q0 41 -34 41zM299 179l11 75l-32 -13q-80 -33 -80 -103q0 -23 10 -36t26 -13q53 0 65 90zM430 568l122 104q24 21 50.5 11.5
t26.5 -37.5q0 -41 -51 -58l-138 -45z" />
    <glyph glyph-name="Oslashacute" unicode="&#x1fe;" horiz-adv-x="732" 
d="M433 748l122 104q24 21 50.5 11.5t26.5 -37.5q0 -41 -51 -58l-138 -45zM83 289q0 92 33 169t86.5 127t121 77.5t138.5 27.5q76 0 140 -35l38 55l28 -19l-37 -55q113 -83 113 -246q0 -121 -57 -214.5t-142.5 -139.5t-181.5 -46q-83 0 -148 39l-41 -59l-28 19l41 60
q-104 83 -104 240zM569 454q0 48 -7 82l-291 -425q25 -75 99 -75q93 0 146 100.5t53 317.5zM257 223q0 -39 4 -66l289 422q-29 65 -95 65q-92 0 -145 -101t-53 -320z" />
    <glyph glyph-name="oslashacute" unicode="&#x1ff;" horiz-adv-x="520" 
d="M326 568l122 104q24 21 50.5 11.5t26.5 -37.5q0 -41 -51 -58l-138 -45zM261 -10q-60 0 -107 28l-33 -48l-29 19l34 49q-69 61 -69 174q0 130 81 214t196 84q54 0 98 -25l31 45l29 -19l-31 -45q73 -63 73 -177q0 -130 -80 -214.5t-193 -84.5zM267 36q49 0 81.5 74.5
t32.5 236.5v2l-167 -243q9 -70 53 -70zM328 464q-50 0 -83 -72.5t-34 -229.5l165 242q-11 60 -48 60z" />
    <glyph glyph-name="Scommaaccent" unicode="&#x218;" horiz-adv-x="497" 
d="M228 -10q-47 0 -86 11.5t-53 20.5t-39 28l7 180h38q41 -112 72.5 -153t71.5 -41q52 0 78 29.5t26 77.5q0 75 -87 122q-72 38 -113 83t-41 118q0 102 74 163t175 61q95 0 175 -60l-24 -170h-38q-31 106 -56 145t-66 39q-31 0 -54.5 -20t-23.5 -67q0 -35 26 -64t89 -63
q55 -29 90 -80t35 -117q0 -117 -82 -180t-194 -63zM207 -166q-23 0 -35 16t-12 38q0 27 20.5 52t56.5 25q32 0 51.5 -25t19.5 -58q0 -119 -143 -192l-16 31q83 48 83 91q0 22 -25 22z" />
    <glyph glyph-name="scommaaccent" unicode="&#x219;" horiz-adv-x="407" 
d="M278 464q-27 0 -43 -18t-16 -46q0 -22 19 -40t46 -33.5t54 -34t46 -48t19 -68.5q0 -82 -61 -134t-147 -52q-91 0 -134 28.5t-43 66.5q0 31 21 49t45 18q22 0 34.5 -18t16.5 -40t17.5 -40t38.5 -18q29 0 47.5 18.5t18.5 51.5q0 26 -18.5 45.5t-44.5 34t-52 31.5t-44.5 47
t-18.5 70q0 75 52.5 125.5t149.5 50.5q79 0 120.5 -28.5t41.5 -64.5q0 -27 -18.5 -48t-46.5 -21q-22 0 -34.5 18t-16 40t-15.5 40t-34 18zM168 -166q-23 0 -35 16t-12 38q0 27 20.5 52t56.5 25q32 0 51.5 -25t19.5 -58q0 -119 -143 -192l-16 31q83 48 83 91q0 22 -25 22z
" />
    <glyph glyph-name="uni021A" unicode="&#x21a;" horiz-adv-x="547" 
d="M276 634h-45q-19 0 -29 -14l-82 -120h-38l25 180h523l-25 -180h-38l-50 119q-6 15 -25 15h-43l-79 -561q-3 -21 15 -25l40 -8l-5 -40h-292l5 40l43 8q18 4 21 25zM232 -163q-23 0 -35 16t-12 38q0 27 20.5 52t56.5 25q32 0 51.5 -25t19.5 -58q0 -119 -143 -192l-16 31
q83 48 83 91q0 22 -25 22z" />
    <glyph glyph-name="uni021B" unicode="&#x21b;" horiz-adv-x="330" 
d="M87 488l45 5q28 3 52 30l88 97h35l-17 -120h98l-7 -47h-98l-46 -331q-5 -39 7 -52.5t38 -13.5q22 0 49 12l-3 -43q-66 -35 -147 -35q-58 0 -83 24.5t-16 85.5l49 353h-50zM128 -168q-23 0 -35 16t-12 38q0 27 20.5 52t56.5 25q32 0 51.5 -25t19.5 -58q0 -119 -143 -192
l-16 31q83 48 83 91q0 22 -25 22z" />
    <glyph glyph-name="dotlessj" unicode="&#x237;" horiz-adv-x="262" 
d="M271 416l-53 -371q-5 -34 -11 -59.5t-22.5 -58.5t-39.5 -56t-63.5 -42.5t-94.5 -28.5l-7 30q34 19 52 58.5t28 111.5l58 414q3 20 -15 20h-32l5 40l208 36l6 -8q-13 -39 -19 -86z" />
    <glyph glyph-name="circumflex" unicode="&#x2c6;" horiz-adv-x="423" 
d="M299 625l-98 -75h-44l133 180h46l84 -180h-45z" />
    <glyph glyph-name="caron" unicode="&#x2c7;" horiz-adv-x="423" 
d="M227 730l76 -75l98 75h45l-134 -180h-46l-83 180h44z" />
    <glyph glyph-name="uni02C9" unicode="&#x2c9;" horiz-adv-x="423" 
d="M177 625h243l-5 -40h-243z" />
    <glyph glyph-name="breve" unicode="&#x2d8;" horiz-adv-x="396" 
d="M276 550q-38 0 -60.5 25.5t-25.5 61t0 73.5h31q1 -28 19 -49t48 -21q31 0 55 21.5t31 48.5h32q-9 -64 -41.5 -112t-88.5 -48z" />
    <glyph glyph-name="dotaccent" unicode="&#x2d9;" horiz-adv-x="292" 
d="M166 631q0 33 23 53.5t56 20.5q26 0 43 -15.5t17 -41.5q0 -32 -23.5 -52.5t-54.5 -20.5q-27 0 -44 15t-17 41z" />
    <glyph glyph-name="ring" unicode="&#x2da;" horiz-adv-x="337" 
d="M172 614q0 43 27.5 72t68.5 29q33 0 52.5 -21.5t19.5 -54.5q0 -43 -27.5 -71t-68.5 -28q-33 0 -52.5 20.5t-19.5 53.5zM221 608q0 -46 26 -46q22 0 33.5 26t11.5 58q0 47 -27 47q-21 0 -32.5 -26t-11.5 -59z" />
    <glyph glyph-name="ogonek" unicode="&#x2db;" horiz-adv-x="324" 
d="M216 -126l9 -26q-39 -48 -89 -48q-58 0 -72 47q-14 49 29 100q29 33 74 53h27q-56 -59 -43 -104q9 -32 43 -28q11 1 22 6z" />
    <glyph glyph-name="tilde" unicode="&#x2dc;" horiz-adv-x="497" 
d="M185 548l-25 19q17 52 49 92.5t68 40.5q28 0 78 -25t76 -25q18 0 28.5 8t28.5 30l23 -18q-47 -126 -113 -126q-26 0 -73 25t-74 25q-8 0 -15.5 -2.5t-12 -4.5t-12 -9t-9 -9t-9.5 -11z" />
    <glyph glyph-name="hungarumlaut" unicode="&#x2dd;" horiz-adv-x="508" 
d="M154 550l106 123q23 26 52.5 20.5t31.5 -34.5q1 -37 -43 -60l-131 -70zM329 550l105 123q14 16 34 20t35 -5.5t15 -28.5q1 -36 -42 -60l-132 -70z" />
    <glyph glyph-name="uni037E" unicode="&#x37e;" horiz-adv-x="292" 
d="M116 271q0 33 23 53.5t56 20.5q26 0 43 -15.5t17 -41.5q0 -32 -23.5 -52.5t-54.5 -20.5q-27 0 -44 15t-17 41z" />
    <glyph glyph-name="tonos" unicode="&#x384;" horiz-adv-x="342" 
d="M158 570l123 106q24 19 48.5 9t24.5 -37q0 -42 -51 -60l-138 -45z" />
    <glyph glyph-name="dieresistonos" unicode="&#x385;" horiz-adv-x="604" 
d="M149 631q0 36 26 58.5t62 22.5q30 0 49 -17t19 -45q0 -37 -25.5 -59.5t-62.5 -22.5q-30 0 -49 17t-19 46zM479 630q0 37 25.5 59.5t62.5 22.5q29 0 48 -17t19 -45q0 -37 -25.5 -59.5t-61.5 -22.5q-30 0 -49 17t-19 45zM319 605l87 140q16 26 46.5 27.5t39.5 -25.5
q9 -36 -33 -67l-122 -93z" />
    <glyph glyph-name="anoteleia" unicode="&#x387;" horiz-adv-x="452" 
d="M152 631q0 34 24.5 55.5t58.5 21.5q29 0 47 -16t18 -43q0 -35 -24.5 -56.5t-59.5 -21.5q-28 0 -46 16.5t-18 43.5zM332 631q0 34 24.5 55.5t58.5 21.5q29 0 47 -16t18 -43q0 -35 -24.5 -56.5t-59.5 -21.5q-28 0 -46 16.5t-18 43.5z" />
    <glyph glyph-name="uni03BC" unicode="&#x3bc;" horiz-adv-x="559" 
d="M56 -27l62 441q3 20 -15 20h-32l5 40l208 36l6 -8q-13 -39 -19 -86l-36 -253q-4 -29 7 -46.5t36 -17.5q38 0 65.5 37t35.5 88l26 190q3 20 -15 20h-50l5 40l227 36l5 -8q-12 -34 -18 -86l-49 -346q-3 -22 14 -25l33 -5l-5 -40q-114 -10 -152 -10q-55 0 -49 40l12 86h-1
q-56 -114 -151 -124q-7 -39 -19.5 -69.5t-37.5 -62.5t-68.5 -54.5t-104.5 -32.5l-7 30q35 19 53.5 59t28.5 111z" />
    <glyph glyph-name="pi" unicode="&#x3c0;" horiz-adv-x="595" 
d="M87 500h561l-5 -40l-44 -8q-18 -3 -21 -25l-50 -354q-3 -22 15 -25l40 -8l-5 -40h-264l5 40l35 8q18 5 21 25l54 381h-135l-54 -381q-3 -21 15 -25l31 -8l-5 -40h-264l5 40l44 8q18 3 21 25l50 354q3 22 -15 25l-40 8z" />
    <glyph glyph-name="uni03C2" unicode="&#x3c2;" horiz-adv-x="461" 
d="M125 249q9 67 59 114l-57 90l8 8l58 -90q44 36 95 36q50 0 84 -36l83 90l7 -8l-83 -89q38 -46 29 -115q-9 -68 -60 -114l57 -86l-10 -9l-57 87q-43 -35 -94 -35q-52 0 -85 35l-80 -87l-7 9l80 86q-36 46 -27 114zM136 249q-8 -59 24.5 -102t85.5 -43t98 43t53 102
t-24.5 102.5t-85.5 43.5t-98 -43.5t-53 -102.5z" />
    <glyph glyph-name="sigma" unicode="&#x3c3;" horiz-adv-x="461" 
d="M125 249q9 67 59 114l-57 90l8 8l58 -90q44 36 95 36q50 0 84 -36l83 90l7 -8l-83 -89q38 -46 29 -115q-9 -68 -60 -114l57 -86l-10 -9l-57 87q-43 -35 -94 -35q-52 0 -85 35l-80 -87l-7 9l80 86q-36 46 -27 114zM136 249q-8 -59 24.5 -102t85.5 -43t98 43t53 102
t-24.5 102.5t-85.5 43.5t-98 -43.5t-53 -102.5z" />
    <glyph glyph-name="Wgrave" unicode="&#x1e80;" horiz-adv-x="992" 
d="M413 170l120 273l-26 159q-3 24 -21 30l-24 8l5 40h295l-5 -40l-38 -8q-24 -6 -19 -40l55 -422h2l162 405q12 31 -18 42l-64 23l5 40h238l-5 -40l-61 -23q-34 -13 -47 -44l-229 -578h-137l-55 365l-160 -365h-130l-103 605q-4 28 -21 32l-35 8l5 40h305l-5 -39l-37 -9
q-16 -5 -19.5 -17.5t0.5 -22.5l65 -422h2zM555 852l92 -104l-16 -25l-125 45q-43 16 -36 54q5 30 35 41t50 -11z" />
    <glyph glyph-name="wgrave" unicode="&#x1e81;" horiz-adv-x="810" 
d="M434 251l-45 185q-4 19 -29 19h-18l6 40q105 15 135 15q32 0 50.5 -11t24.5 -39l74 -332h2l24 39q26 41 27.5 93t-10 108t-11.5 70q0 33 19.5 52.5t52.5 19.5q29 0 51.5 -18.5t22.5 -54.5q0 -90 -92 -246l-118 -196h-103l-50 201l-122 -201h-103l-108 441q-4 19 -29 19
h-18l6 40q105 15 135 15q32 0 50.5 -11t24.5 -39l74 -332h2zM442 672l92 -104l-16 -25l-125 45q-43 16 -36 54q5 30 35 41t50 -11z" />
    <glyph glyph-name="Wacute" unicode="&#x1e82;" horiz-adv-x="992" 
d="M413 170l120 273l-26 159q-3 24 -21 30l-24 8l5 40h295l-5 -40l-38 -8q-24 -6 -19 -40l55 -422h2l162 405q12 31 -18 42l-64 23l5 40h238l-5 -40l-61 -23q-34 -13 -47 -44l-229 -578h-137l-55 365l-160 -365h-130l-103 605q-4 28 -21 32l-35 8l5 40h305l-5 -39l-37 -9
q-16 -5 -19.5 -17.5t0.5 -22.5l65 -422h2zM580 748l122 104q24 21 50.5 11.5t26.5 -37.5q0 -41 -51 -58l-138 -45z" />
    <glyph glyph-name="wacute" unicode="&#x1e83;" horiz-adv-x="810" 
d="M434 251l-45 185q-4 19 -29 19h-18l6 40q105 15 135 15q32 0 50.5 -11t24.5 -39l74 -332h2l24 39q26 41 27.5 93t-10 108t-11.5 70q0 33 19.5 52.5t52.5 19.5q29 0 51.5 -18.5t22.5 -54.5q0 -90 -92 -246l-118 -196h-103l-50 201l-122 -201h-103l-108 441q-4 19 -29 19
h-18l6 40q105 15 135 15q32 0 50.5 -11t24.5 -39l74 -332h2zM477 568l122 104q24 21 50.5 11.5t26.5 -37.5q0 -41 -51 -58l-138 -45z" />
    <glyph glyph-name="Wdieresis" unicode="&#x1e84;" horiz-adv-x="992" 
d="M413 170l120 273l-26 159q-3 24 -21 30l-24 8l5 40h295l-5 -40l-38 -8q-24 -6 -19 -40l55 -422h2l162 405q12 31 -18 42l-64 23l5 40h238l-5 -40l-61 -23q-34 -13 -47 -44l-229 -578h-137l-55 365l-160 -365h-130l-103 605q-4 28 -21 32l-35 8l5 40h305l-5 -39l-37 -9
q-16 -5 -19.5 -17.5t0.5 -22.5l65 -422h2zM456 811q0 34 24.5 55.5t58.5 21.5q29 0 47 -16t18 -43q0 -35 -24.5 -56.5t-59.5 -21.5q-28 0 -46 16.5t-18 43.5zM636 811q0 34 24.5 55.5t58.5 21.5q29 0 47 -16t18 -43q0 -35 -24.5 -56.5t-59.5 -21.5q-28 0 -46 16.5t-18 43.5z
" />
    <glyph glyph-name="wdieresis" unicode="&#x1e85;" horiz-adv-x="810" 
d="M434 251l-45 185q-4 19 -29 19h-18l6 40q105 15 135 15q32 0 50.5 -11t24.5 -39l74 -332h2l24 39q26 41 27.5 93t-10 108t-11.5 70q0 33 19.5 52.5t52.5 19.5q29 0 51.5 -18.5t22.5 -54.5q0 -90 -92 -246l-118 -196h-103l-50 201l-122 -201h-103l-108 441q-4 19 -29 19
h-18l6 40q105 15 135 15q32 0 50.5 -11t24.5 -39l74 -332h2zM332 631q0 34 24.5 55.5t58.5 21.5q29 0 47 -16t18 -43q0 -35 -24.5 -56.5t-59.5 -21.5q-28 0 -46 16.5t-18 43.5zM512 631q0 34 24.5 55.5t58.5 21.5q29 0 47 -16t18 -43q0 -35 -24.5 -56.5t-59.5 -21.5
q-28 0 -46 16.5t-18 43.5z" />
    <glyph glyph-name="Ygrave" unicode="&#x1ef2;" horiz-adv-x="657" 
d="M629 576l-178 -318l-26 -185q-3 -21 15 -25l40 -8l-5 -40h-293l5 40l44 8q18 4 21 25l25 179l-123 345q-10 28 -24 33l-33 10l5 40h295l-5 -40l-26 -6q-29 -9 -19 -41l89 -261h1l136 247q14 26 -15 38l-51 23l5 40h233l-5 -40l-63 -23q-33 -12 -48 -41zM386 852l92 -104
l-16 -25l-125 45q-43 16 -36 54q5 30 35 41t50 -11z" />
    <glyph glyph-name="ygrave" unicode="&#x1ef3;" horiz-adv-x="550" 
d="M236 -67l-122 503q-4 19 -29 19h-18l6 40q105 15 135 15q32 0 50.5 -11t24.5 -39l74 -332h2l24 39q26 41 27.5 93t-10 108t-11.5 70q0 33 19.5 52.5t52.5 19.5q29 0 51.5 -18.5t22.5 -54.5q0 -90 -92 -246l-112 -186q-61 -104 -112 -154.5t-111 -50.5q-33 0 -55.5 17
t-17.5 53q6 37 39 45t59 -15q56 -45 103 33zM307 672l92 -104l-16 -25l-125 45q-43 16 -36 54q5 30 35 41t50 -11z" />
    <glyph glyph-name="thinspace" unicode="&#x2009;" horiz-adv-x="10" 
 />
    <glyph glyph-name="figuredash" unicode="&#x2012;" horiz-adv-x="585" 
d="M130 285h405l-5 -40h-405z" />
    <glyph glyph-name="endash" unicode="&#x2013;" horiz-adv-x="585" 
d="M130 285h405l-5 -40h-405z" />
    <glyph glyph-name="emdash" unicode="&#x2014;" horiz-adv-x="675" 
d="M130 285h495l-5 -40h-495z" />
    <glyph glyph-name="quoteleft" unicode="&#x2018;" horiz-adv-x="274" 
d="M235 556q23 0 35 -16t12 -38q0 -27 -20.5 -52t-56.5 -25q-32 0 -51.5 25t-19.5 58q0 119 143 192l16 -31q-83 -49 -83 -91q0 -22 25 -22z" />
    <glyph glyph-name="quoteright" unicode="&#x2019;" horiz-adv-x="274" 
d="M197 569q-23 0 -35 16t-12 38q0 27 20.5 52t56.5 25q32 0 51.5 -25t19.5 -58q0 -119 -143 -192l-16 31q83 48 83 91q0 22 -25 22z" />
    <glyph glyph-name="quotesinglbase" unicode="&#x201a;" horiz-adv-x="275" 
d="M117 0q-23 0 -35 16t-12 38q0 27 20.5 52t56.5 25q32 0 51.5 -25t19.5 -58q0 -119 -143 -192l-16 31q83 48 83 91q0 22 -25 22z" />
    <glyph glyph-name="quotedblleft" unicode="&#x201c;" horiz-adv-x="454" 
d="M235 556q23 0 35 -16t12 -38q0 -27 -20.5 -52t-56.5 -25q-32 0 -51.5 25t-19.5 58q0 119 143 192l16 -31q-83 -49 -83 -91q0 -22 25 -22zM415 556q23 0 35 -16t12 -38q0 -27 -20.5 -52t-56.5 -25q-32 0 -51.5 25t-19.5 58q0 119 143 192l16 -31q-83 -49 -83 -91
q0 -22 25 -22z" />
    <glyph glyph-name="quotedblright" unicode="&#x201d;" horiz-adv-x="454" 
d="M197 569q-23 0 -35 16t-12 38q0 27 20.5 52t56.5 25q32 0 51.5 -25t19.5 -58q0 -119 -143 -192l-16 31q83 48 83 91q0 22 -25 22zM377 569q-23 0 -35 16t-12 38q0 27 20.5 52t56.5 25q32 0 51.5 -25t19.5 -58q0 -119 -143 -192l-16 31q83 48 83 91q0 22 -25 22z" />
    <glyph glyph-name="quotedblbase" unicode="&#x201e;" horiz-adv-x="455" 
d="M117 0q-23 0 -35 16t-12 38q0 27 20.5 52t56.5 25q32 0 51.5 -25t19.5 -58q0 -119 -143 -192l-16 31q83 48 83 91q0 22 -25 22zM297 0q-23 0 -35 16t-12 38q0 27 20.5 52t56.5 25q32 0 51.5 -25t19.5 -58q0 -119 -143 -192l-16 31q83 48 83 91q0 22 -25 22z" />
    <glyph glyph-name="dagger" unicode="&#x2020;" horiz-adv-x="630" 
d="M390 450h-25l-44 157q-7 28 21.5 55.5t69.5 27.5t61.5 -27.5t4.5 -55.5zM357 390h25l9 -407q0 -32 -25 -57.5t-65 -25.5q-41 0 -59 25.5t-8 57.5zM349 434l-4 -28l-147 -69q-26 -11 -47 10t-21 59q0 49 31.5 80t59.5 17zM399 406l4 28l147 69q25 11 46.5 -10t21.5 -60
q0 -48 -32 -79t-59 -17z" />
    <glyph glyph-name="daggerdbl" unicode="&#x2021;" horiz-adv-x="631" 
d="M391 450h-25l-44 157q-8 28 20.5 55.5t69.5 27.5t61.5 -27t5.5 -56zM349 434l-3 -28l-148 -69q-25 -11 -46.5 10t-21.5 59q0 49 31.5 80t59.5 17zM400 406l3 28l147 69q25 11 47 -10.5t22 -59.5q0 -48 -32.5 -79t-59.5 -17zM308 40h25l44 -157q8 -28 -20.5 -55.5
t-69.5 -27.5t-62 27.5t-5 55.5zM300 84l-4 -28l-147 -69q-26 -11 -47 10t-21 59q0 49 31.5 80t59.5 17zM350 56l4 28l147 69q25 11 46.5 -10t21.5 -60q0 -48 -31.5 -79t-59.5 -17zM346 105h-33q-12 60 -12 106q0 21 3.5 42.5t10.5 42t12.5 34.5t14 32.5t10.5 22.5h33
q13 -55 13 -106q0 -70 -52 -174z" />
    <glyph glyph-name="bullet" unicode="&#x2022;" horiz-adv-x="357" 
d="M123 232q5 41 35 70t67 29q33 0 54.5 -25t21.5 -61q0 -45 -31.5 -78t-72.5 -33q-37 0 -58.5 28.5t-15.5 69.5z" />
    <glyph glyph-name="onedotenleader" unicode="&#x2024;" horiz-adv-x="244" 
d="M62 54q0 33 24.5 57.5t54.5 24.5q26 0 43 -18.5t17 -45.5q0 -33 -24.5 -57.5t-56.5 -24.5q-25 0 -41.5 19t-16.5 45z" />
    <glyph glyph-name="twodotenleader" unicode="&#x2025;" horiz-adv-x="424" 
d="M62 54q0 33 24.5 57.5t54.5 24.5q26 0 43 -18.5t17 -45.5q0 -33 -24.5 -57.5t-56.5 -24.5q-25 0 -41.5 19t-16.5 45zM242 54q0 33 24.5 57.5t54.5 24.5q26 0 43 -18.5t17 -45.5q0 -33 -24.5 -57.5t-56.5 -24.5q-25 0 -41.5 19t-16.5 45z" />
    <glyph glyph-name="ellipsis" unicode="&#x2026;" horiz-adv-x="604" 
d="M62 54q0 33 24.5 57.5t54.5 24.5q26 0 43 -18.5t17 -45.5q0 -33 -24.5 -57.5t-56.5 -24.5q-25 0 -41.5 19t-16.5 45zM242 54q0 33 24.5 57.5t54.5 24.5q26 0 43 -18.5t17 -45.5q0 -33 -24.5 -57.5t-56.5 -24.5q-25 0 -41.5 19t-16.5 45zM422 54q0 33 24.5 57.5t54.5 24.5
q26 0 43 -18.5t17 -45.5q0 -33 -24.5 -57.5t-56.5 -24.5q-25 0 -41.5 19t-16.5 45z" />
    <glyph glyph-name="perthousand" unicode="&#x2030;" horiz-adv-x="1228" 
d="M607 700h38l-290 -720h-38zM306 658q-30 0 -49.5 -44.5t-19.5 -142.5q0 -69 33 -69q30 0 49 44.5t19 141.5q0 70 -32 70zM266 374q-54 0 -88 36.5t-34 96.5q0 78 49 128.5t117 50.5q54 0 88 -36.5t34 -96.5q0 -78 -49 -128.5t-117 -50.5zM693 274q-30 0 -49.5 -44.5
t-19.5 -142.5q0 -69 33 -69q30 0 49 44.5t19 141.5q0 70 -32 70zM653 -10q-54 0 -88 36.5t-34 96.5q0 78 49 128.5t117 50.5q54 0 88 -36.5t34 -96.5q0 -78 -49 -128.5t-117 -50.5zM1053 274q-30 0 -49.5 -44.5t-19.5 -142.5q0 -69 33 -69q30 0 49 44.5t19 141.5
q0 70 -32 70zM1013 -10q-54 0 -88 36.5t-34 96.5q0 78 49 128.5t117 50.5q54 0 88 -36.5t34 -96.5q0 -78 -49 -128.5t-117 -50.5z" />
    <glyph glyph-name="guilsinglleft" unicode="&#x2039;" horiz-adv-x="421" 
d="M391 432l-129 -162l84 -162l-26 -33l-195 172l6 46l244 172z" />
    <glyph glyph-name="guilsinglright" unicode="&#x203a;" horiz-adv-x="421" 
d="M235 270l-84 162l26 33l195 -172l-6 -46l-244 -172l-16 33z" />
    <glyph glyph-name="exclamdbl" unicode="&#x203c;" horiz-adv-x="425" 
d="M62 54q0 33 24.5 57.5t54.5 24.5q26 0 43 -18.5t17 -45.5q0 -33 -24.5 -57.5t-56.5 -24.5q-25 0 -41.5 19t-16.5 45zM168 190h-38l-2 417q1 33 26 58t65 25q41 0 59 -25.5t8 -57.5zM242 54q0 33 24.5 57.5t54.5 24.5q26 0 43 -18.5t17 -45.5q0 -33 -24.5 -57.5
t-56.5 -24.5q-25 0 -41.5 19t-16.5 45zM348 190h-38l-2 417q1 33 26 58t65 25q41 0 59 -25.5t8 -57.5z" />
    <glyph glyph-name="fraction" unicode="&#x2044;" horiz-adv-x="396" 
d="M371 700h38l-290 -720h-38z" />
    <glyph glyph-name="zerosuperior" unicode="&#x2070;" horiz-adv-x="326" 
d="M280 836q-17 0 -31 -21t-24 -76.5t-10 -141.5q0 -63 23 -63q17 0 31 20.5t24 76t10 141.5q0 64 -23 64zM284 860q43 0 71 -38t28 -103q0 -94 -45 -151.5t-104 -57.5q-43 0 -71 38t-28 103q0 93 45.5 151t103.5 58z" />
    <glyph glyph-name="foursuperior" unicode="&#x2074;" horiz-adv-x="323" 
d="M247 552l6 43h-127l3 18l205 244h39l-33 -236h28l-4 -26h-28l-6 -43q-1 -9 7 -12l18 -4l-2 -21h-139l2 21l20 4q10 3 11 12zM275 753l-112 -131v-1h94z" />
    <glyph glyph-name="fivesuperior" unicode="&#x2075;" horiz-adv-x="301" 
d="M202 728l24 -2q61 -6 90 -33.5t29 -66.5q0 -51 -39.5 -83.5t-99.5 -32.5q-40 0 -62.5 14t-22.5 33q0 25 21.5 33.5t32.5 -8.5q2 -3 7.5 -18.5t12.5 -22.5t19 -7q42 0 42 89q0 32 -15.5 54.5t-42.5 26.5l-24 3l25 148h158l-10 -70h-136z" />
    <glyph glyph-name="sixsuperior" unicode="&#x2076;" horiz-adv-x="310" 
d="M230 716l1 -1q20 17 50 17q37 0 56 -25t19 -64q0 -59 -40.5 -96t-88.5 -37q-44 0 -70 34t-26 84q0 89 63.5 156.5t167.5 80.5l3 -16q-52 -10 -89.5 -48t-45.5 -85zM274 650q0 48 -22 48q-14 0 -26 -12q-29 -152 5 -152q19 0 31 34.5t12 81.5z" />
    <glyph glyph-name="sevensuperior" unicode="&#x2077;" horiz-adv-x="297" 
d="M312 784v1h-120q-12 0 -15 -8l-9 -25h-21l15 103h213l-3 -22q-51 -68 -80 -136t-63 -182h-86q15 55 66.5 133.5t102.5 135.5z" />
    <glyph glyph-name="eightsuperior" unicode="&#x2078;" horiz-adv-x="308" 
d="M295 800q0 36 -22 36q-16 0 -25.5 -15.5t-9.5 -34.5q0 -31 33 -61q24 41 24 75zM266 593q0 33 -45 64q-26 -45 -26 -79q0 -44 31 -44q18 0 29 17.5t11 41.5zM353 620q0 -51 -37.5 -80.5t-93.5 -29.5q-43 0 -70 17.5t-27 54.5q0 31 22.5 56.5t53.5 31.5q-41 33 -41 83
q0 48 35 77.5t80 29.5q35 0 59 -19t24 -51q0 -57 -68 -77q63 -42 63 -93z" />
    <glyph glyph-name="ninesuperior" unicode="&#x2079;" horiz-adv-x="310" 
d="M272 654h-1q-21 -16 -50 -16q-38 0 -57 25t-19 64q0 58 41 95.5t89 37.5q44 0 69.5 -34t25.5 -84q0 -90 -63 -157.5t-167 -79.5l-4 16q52 10 90 47.5t46 85.5zM230 750q-11 -78 19 -78q14 0 26 12q31 152 -5 152q-28 0 -40 -86z" />
    <glyph glyph-name="parenleftsuperior" unicode="&#x207d;" horiz-adv-x="226" 
d="M138 657q0 71 40 134t107 104h23q-40 -59 -60.5 -120t-20.5 -162q0 -84 22 -138h-23q-41 30 -64.5 78.5t-23.5 103.5z" />
    <glyph glyph-name="parenrightsuperior" unicode="&#x207e;" horiz-adv-x="226" 
d="M281 713q0 -71 -40 -134.5t-107 -103.5h-23q81 114 81 280q0 85 -22 140h23q41 -30 64.5 -79t23.5 -103z" />
    <glyph glyph-name="nsuperior" unicode="&#x207f;" horiz-adv-x="358" 
d="M215 398l26 184q5 39 -26 39q-23 0 -39.5 -22.5t-20.5 -52.5l-24 -166h-92l35 248q3 12 -8 12h-20l4 24l125 22l3 -5q-5 -14 -11 -51l-3 -20h1q37 76 106 76q33 0 51.5 -24.5t11.5 -71.5l-24 -168q-2 -15 9 -15h19l-3 -24q-84 -9 -91 -9q-15 0 -23 4.5t-6 19.5z" />
    <glyph glyph-name="zeroinferior" unicode="&#x2080;" horiz-adv-x="326" 
d="M183 146q-17 0 -31 -21t-24 -76.5t-10 -141.5q0 -63 23 -63q17 0 31 20.5t24 76t10 141.5q0 64 -23 64zM187 170q43 0 71 -38t28 -103q0 -94 -45 -151.5t-104 -57.5q-43 0 -71 38t-28 103q0 93 45.5 151t103.5 58z" />
    <glyph glyph-name="oneinferior" unicode="&#x2081;" horiz-adv-x="267" 
d="M198 167l-43 -305q-2 -11 7 -12l41 -4l-3 -21h-183l3 21l42 4q10 2 11 12l34 244q1 5 -1 8t-6 2l-37 -5v25l118 31h17z" />
    <glyph glyph-name="twoinferior" unicode="&#x2082;" horiz-adv-x="306" 
d="M234 -175h-217l3 24q51 35 85 70.5t49.5 68.5t20.5 58t5 53q0 47 -21 47q-12 0 -20 -7.5t-16 -21.5t-13 -20q-11 -13 -26 -10t-18 18q-4 5 -2 16q3 20 29 34.5t66 14.5q57 0 82 -27t25 -63q0 -97 -158 -185h99q11 0 15 7l10 26h20z" />
    <glyph glyph-name="threeinferior" unicode="&#x2083;" horiz-adv-x="301" 
d="M167 170q45 0 69 -20t24 -51q0 -35 -26 -61.5t-77 -31.5q39 -5 64.5 -24t25.5 -53q0 -48 -40 -78.5t-100 -30.5q-40 0 -61.5 14t-21.5 33q0 25 22 33.5t32 -8.5q3 -5 7.5 -19t11 -21.5t18.5 -7.5q43 0 43 92q0 58 -33 58h-9l4 24h7q52 0 52 80q0 42 -32 42q-29 0 -61 -30
l-12 17q37 43 93 43z" />
    <glyph glyph-name="fourinferior" unicode="&#x2084;" horiz-adv-x="324" 
d="M150 -138l6 43h-127l3 18l205 244h39l-33 -236h28l-4 -26h-28l-6 -43q-1 -9 7 -12l18 -4l-2 -21h-139l2 21l20 4q10 3 11 12zM178 63l-112 -131v-1h94z" />
    <glyph glyph-name="fiveinferior" unicode="&#x2085;" horiz-adv-x="301" 
d="M105 38l24 -2q61 -6 90 -33.5t29 -66.5q0 -51 -39.5 -83.5t-99.5 -32.5q-40 0 -62.5 14t-22.5 33q0 25 21.5 33.5t32.5 -8.5q2 -3 7.5 -18.5t12.5 -22.5t19 -7q42 0 42 89q0 32 -15.5 54.5t-42.5 26.5l-24 3l25 148h158l-10 -70h-136z" />
    <glyph glyph-name="sixinferior" unicode="&#x2086;" horiz-adv-x="310" 
d="M133 26l1 -1q20 17 50 17q37 0 56 -25t19 -64q0 -59 -40.5 -96t-88.5 -37q-44 0 -70 34t-26 84q0 89 63.5 156.5t167.5 80.5l3 -16q-52 -10 -89.5 -48t-45.5 -85zM177 -40q0 48 -22 48q-14 0 -26 -12q-29 -152 5 -152q19 0 31 34.5t12 81.5z" />
    <glyph glyph-name="seveninferior" unicode="&#x2087;" horiz-adv-x="297" 
d="M215 94v1h-120q-12 0 -15 -8l-9 -25h-21l15 103h213l-3 -22q-51 -68 -80 -136t-63 -182h-86q15 55 66.5 133.5t102.5 135.5z" />
    <glyph glyph-name="eightinferior" unicode="&#x2088;" horiz-adv-x="308" 
d="M198 110q0 36 -22 36q-16 0 -25.5 -15.5t-9.5 -34.5q0 -31 33 -61q24 41 24 75zM169 -97q0 33 -45 64q-26 -45 -26 -79q0 -44 31 -44q18 0 29 17.5t11 41.5zM256 -70q0 -51 -37.5 -80.5t-93.5 -29.5q-43 0 -70 17.5t-27 54.5q0 31 22.5 56.5t53.5 31.5q-41 33 -41 83
q0 48 35 77.5t80 29.5q35 0 59 -19t24 -51q0 -57 -68 -77q63 -42 63 -93z" />
    <glyph glyph-name="nineinferior" unicode="&#x2089;" horiz-adv-x="310" 
d="M175 -36h-1q-21 -16 -50 -16q-38 0 -57 25t-19 64q0 58 41 95.5t89 37.5q44 0 69.5 -34t25.5 -84q0 -90 -63 -157.5t-167 -79.5l-4 16q52 10 90 47.5t46 85.5zM133 60q-11 -78 19 -78q14 0 26 12q31 152 -5 152q-28 0 -40 -86z" />
    <glyph glyph-name="parenleftinferior" unicode="&#x208d;" horiz-adv-x="226" 
d="M41 -33q0 71 40 134t107 104h23q-40 -59 -60.5 -120t-20.5 -162q0 -84 22 -138h-23q-41 30 -64.5 78.5t-23.5 103.5z" />
    <glyph glyph-name="parenrightinferior" unicode="&#x208e;" horiz-adv-x="226" 
d="M184 23q0 -71 -40 -134.5t-107 -103.5h-23q81 114 81 280q0 85 -22 140h23q41 -30 64.5 -79t23.5 -103z" />
    <glyph glyph-name="colonmonetary" unicode="&#x20a1;" horiz-adv-x="647" 
d="M583 230l43 -13q-39 -119 -108 -173t-152 -54q-129 0 -200 80.5t-71 212.5q0 175 105 290.5t266 115.5q61 0 115.5 -18.5t84.5 -40.5l-24 -170h-38q-19 48 -31 72l-287 -395q25 -93 105 -93q57 0 109 45t83 141zM470 644q-89 0 -142.5 -99.5t-53.5 -300.5l261 358
q-30 42 -65 42zM274 218q2 -37 7 -61l285 391q-18 34 -22 40z" />
    <glyph glyph-name="franc" unicode="&#x20a3;" horiz-adv-x="672" 
d="M76 290h42q0 45 12 100h-39l5 40h44q39 118 132.5 188.5t215.5 70.5q61 0 116 -18.5t84 -40.5l-24 -170h-38q-33 101 -65 142.5t-70 41.5q-64 0 -111.5 -53.5t-68.5 -160.5h100l-5 -40h-102q-6 -39 -8 -100h95l-5 -40h-91v-6q0 -200 119 -200q56 0 108.5 45t83.5 141
l42 -13q-39 -119 -108 -173t-152 -54q-120 0 -190.5 70.5t-78.5 189.5h-48z" />
    <glyph glyph-name="lira" unicode="&#x20a4;" horiz-adv-x="672" 
d="M76 290h42q0 45 12 100h-39l5 40h44q39 118 132.5 188.5t215.5 70.5q61 0 116 -18.5t84 -40.5l-24 -170h-38q-33 101 -65 142.5t-70 41.5q-64 0 -111.5 -53.5t-68.5 -160.5h100l-5 -40h-102q-6 -39 -8 -100h95l-5 -40h-91v-6q0 -200 119 -200q56 0 108.5 45t83.5 141
l42 -13q-39 -119 -108 -173t-152 -54q-120 0 -190.5 70.5t-78.5 189.5h-48z" />
    <glyph glyph-name="peseta" unicode="&#x20a7;" horiz-adv-x="672" 
d="M76 290h42q0 45 12 100h-39l5 40h44q39 118 132.5 188.5t215.5 70.5q61 0 116 -18.5t84 -40.5l-24 -170h-38q-33 101 -65 142.5t-70 41.5q-64 0 -111.5 -53.5t-68.5 -160.5h100l-5 -40h-102q-6 -39 -8 -100h95l-5 -40h-91v-6q0 -200 119 -200q56 0 108.5 45t83.5 141
l42 -13q-39 -119 -108 -173t-152 -54q-120 0 -190.5 70.5t-78.5 189.5h-48z" />
    <glyph glyph-name="Euro" unicode="&#x20ac;" horiz-adv-x="672" 
d="M76 290h42q0 45 12 100h-39l5 40h44q39 118 132.5 188.5t215.5 70.5q61 0 116 -18.5t84 -40.5l-24 -170h-38q-33 101 -65 142.5t-70 41.5q-64 0 -111.5 -53.5t-68.5 -160.5h100l-5 -40h-102q-6 -39 -8 -100h95l-5 -40h-91v-6q0 -200 119 -200q56 0 108.5 45t83.5 141
l42 -13q-39 -119 -108 -173t-152 -54q-120 0 -190.5 70.5t-78.5 189.5h-48z" />
    <glyph glyph-name="litre" unicode="&#x2113;" horiz-adv-x="404" 
d="M59 156l-9 11l98 99l34 243q13 100 57 151q47 50 97 50q40 0 60 -27t13 -72q-6 -48 -43 -112q-37 -63 -141 -176l-24 -168q-10 -75 5 -106q17 -29 50 -29t62 29q33 28 64 103h16q-31 -82 -79 -127q-38 -35 -85 -35q-40 0 -67 24.5t-35 65.5q-5 35 5 107l7 52zM256 543
l-27 -193q141 154 154 242q6 41 -8 65t-40 24q-25 0 -47 -28q-20 -27 -32 -110z" />
    <glyph glyph-name="afii61352" unicode="&#x2116;" horiz-adv-x="1007" 
d="M939 658q-29 0 -48.5 -44.5t-19.5 -142.5q0 -69 31 -69q30 0 49.5 44.5t19.5 141.5q0 70 -32 70zM899 374q-54 0 -88 36.5t-34 96.5q0 78 48.5 128.5t116.5 50.5q54 0 87.5 -36.5t33.5 -96.5q0 -78 -48 -128.5t-116 -50.5zM751 325h273l-5 -28h-273zM538 -5l-295 581
l-67 -475q-4 -29 21 -38l60 -23l-5 -40h-232l5 40l66 23q31 12 34 38l71 506q3 22 -14 25l-72 8l6 40h277l192 -373l38 269q4 28 -23 38l-61 26l6 40h236l-6 -40l-67 -26q-30 -11 -34 -38l-82 -581h-54z" />
    <glyph glyph-name="trademark" unicode="&#x2122;" horiz-adv-x="675" 
d="M622 620l-105 -249h-19l-53 249l-28 -201q-2 -14 9 -17l29 -10l-3 -18h-104l3 18l30 10q14 6 16 17l32 228q1 10 -7 11l-33 4l2 18h124l36 -178l76 178h108l-2 -18l-20 -4q-9 -3 -10 -11l-34 -241q-2 -10 7 -11l19 -3l-3 -18h-133l3 18l20 3q8 2 10 11zM207 660h-21
q-9 0 -13 -6l-37 -55h-17l11 81h236l-11 -81h-17l-22 54q-3 7 -11 7h-20l-36 -254q-2 -10 6 -11l19 -3l-3 -18h-132l3 18l19 3q8 1 10 11z" />
    <glyph glyph-name="Omega" unicode="&#x2126;" horiz-adv-x="666" 
d="M291 0h-254l7 180h37l66 -119q9 -15 25 -15h84l10 70q-86 26 -137.5 89.5t-51.5 156.5q0 146 104 237t249 91q118 0 194.5 -69t76.5 -184q0 -122 -75.5 -205t-193.5 -116l-10 -70h85q17 0 29 15l99 119h37l-43 -180h-254l22 152q65 26 95.5 122.5t30.5 206.5
q0 163 -99 163q-51 0 -87 -31t-52.5 -84t-23.5 -105.5t-7 -113.5q0 -132 58 -158z" />
    <glyph glyph-name="estimated" unicode="&#x212e;" horiz-adv-x="662" 
d="M684 349h-475l-33 -235q62 -78 160 -78q146 0 249 157l37 -26q-73 -95 -138.5 -136t-154.5 -41q-118 0 -188 85.5t-70 218.5q0 175 104.5 295.5t255.5 120.5q127 0 199 -94.5t54 -266.5zM216 397h342l26 189q-63 77 -161 77q-99 0 -181 -77z" />
    <glyph glyph-name="onethird" unicode="&#x2153;" horiz-adv-x="705" 
d="M526 700h30l-280 -720h-31zM596 345q45 0 69 -20t24 -51q0 -35 -26.5 -61.5t-76.5 -31.5q38 -5 64 -24t26 -53q0 -48 -40 -78.5t-100 -30.5q-40 0 -61.5 14t-21.5 33q0 25 21.5 33.5t31.5 -8.5q4 -6 8.5 -19.5t10.5 -21t19 -7.5q43 0 43 92q0 58 -33 58h-9l3 24h7
q53 0 53 80q0 42 -32 42q-29 0 -61 -30l-12 17q37 43 93 43zM271 682l-43 -305q-2 -11 7 -12l41 -4l-3 -21h-183l3 21l42 4q10 2 11 12l34 244q1 5 -1 8t-6 2l-37 -5v25l118 31h17z" />
    <glyph glyph-name="twothirds" unicode="&#x2154;" horiz-adv-x="705" 
d="M307 340h-217l3 24q51 35 85 70.5t49.5 68.5t20.5 58t5 53q0 47 -21 47q-12 0 -20 -7.5t-16 -21.5t-13 -20q-11 -13 -26 -10t-18 18q-4 10 2 25q7 17 31 28.5t60 11.5q57 0 82 -27t25 -63q0 -97 -158 -185h99q12 0 15 7l10 26h20zM596 345q45 0 69 -20t24 -51
q0 -35 -26.5 -61.5t-76.5 -31.5q38 -5 64 -24t26 -53q0 -48 -40 -78.5t-100 -30.5q-40 0 -61.5 14t-21.5 33q0 25 21.5 33.5t31.5 -8.5q4 -6 8.5 -19.5t10.5 -21t19 -7.5q43 0 43 92q0 58 -33 58h-9l3 24h7q53 0 53 80q0 42 -32 42q-29 0 -61 -30l-12 17q37 43 93 43z
M536 700h30l-280 -720h-31z" />
    <glyph glyph-name="oneeighth" unicode="&#x215b;" horiz-adv-x="705" 
d="M521 700h30l-280 -720h-31zM618 286q0 35 -22 35q-17 0 -25 -16.5t-8 -33.5q0 -31 32 -61q23 49 23 76zM590 78q0 33 -45 64q-23 -55 -23 -79q0 -21 8.5 -32.5t20.5 -11.5q18 0 28.5 18t10.5 41zM676 105q0 -51 -37 -80.5t-93 -29.5q-97 0 -97 72q0 32 22.5 57t54.5 31
q-42 32 -42 82q0 49 35 78.5t81 29.5q34 0 57.5 -19t23.5 -51q0 -58 -67 -77q62 -41 62 -93zM271 682l-43 -305q-2 -11 7 -12l41 -4l-3 -21h-183l3 21l42 4q10 2 11 12l34 244q1 5 -1 8t-6 2l-37 -5v25l118 31h17z" />
    <glyph glyph-name="threeeighths" unicode="&#x215c;" horiz-adv-x="705" 
d="M524 700h31l-280 -720h-30zM617 286q0 35 -21 35q-17 0 -25.5 -16.5t-8.5 -33.5q0 -31 33 -61q1 2 6 13t7.5 18.5t5.5 20t3 24.5zM589 78q0 34 -45 64q-23 -55 -23 -79q0 -21 8.5 -32.5t21.5 -11.5q18 0 28 17.5t10 41.5zM676 105q0 -51 -37 -80.5t-94 -29.5
q-43 0 -69.5 17.5t-26.5 54.5q0 32 22.5 57t53.5 31q-41 31 -41 82q0 49 34.5 78.5t80.5 29.5q35 0 58.5 -19t23.5 -51q0 -58 -68 -77q63 -42 63 -93zM239 685q45 0 69 -20t24 -51q0 -35 -26 -61.5t-77 -31.5q39 -5 64.5 -24t25.5 -53q0 -48 -40 -78.5t-100 -30.5
q-40 0 -61.5 14t-21.5 33q0 25 22 33.5t32 -8.5q3 -5 7.5 -19t11 -21.5t18.5 -7.5q43 0 43 92q0 58 -33 58h-9l4 24h7q52 0 52 80q0 42 -32 42q-29 0 -61 -30l-12 17q37 43 93 43z" />
    <glyph glyph-name="fiveeighths" unicode="&#x215d;" horiz-adv-x="705" 
d="M524 700h31l-280 -720h-30zM617 286q0 35 -21 35q-17 0 -25.5 -16.5t-8.5 -33.5q0 -31 33 -61q1 2 6 13t7.5 18.5t5.5 20t3 24.5zM589 78q0 34 -45 64q-23 -55 -23 -79q0 -21 8.5 -32.5t21.5 -11.5q18 0 28 17.5t10 41.5zM676 105q0 -51 -37 -80.5t-94 -29.5
q-43 0 -69.5 17.5t-26.5 54.5q0 32 22.5 57t53.5 31q-41 31 -41 82q0 49 34.5 78.5t80.5 29.5q35 0 58.5 -19t23.5 -51q0 -58 -68 -77q63 -42 63 -93zM186 610l-9 -57q144 -14 144 -100q0 -52 -39.5 -85t-100.5 -33q-40 0 -62.5 14t-22.5 34q0 25 22 33t32 -9q3 -5 8 -19.5
t12 -21.5t19 -7q21 0 31.5 27t10.5 63q0 73 -82 83l25 148h158l-10 -70h-136z" />
    <glyph glyph-name="seveneighths" unicode="&#x215e;" horiz-adv-x="705" 
d="M676 105q0 -51 -37 -80.5t-93 -29.5q-97 0 -97 72q0 32 22.5 57t54.5 31q-42 32 -42 82q0 49 35 78.5t81 29.5q34 0 57.5 -19t23.5 -51q0 -58 -67 -77q62 -41 62 -93zM288 609v1h-120q-12 0 -15 -8l-9 -25h-21l15 103h213l-3 -22q-51 -68 -80 -136t-63 -182h-86
q15 55 66.5 133.5t102.5 135.5zM493 700h30l-280 -720h-31zM590 78q0 33 -45 64q-23 -55 -23 -79q0 -21 8.5 -32.5t20.5 -11.5q18 0 28.5 18t10.5 41zM618 286q0 35 -22 35q-17 0 -25 -16.5t-8 -33.5q0 -31 32 -61q23 49 23 76z" />
    <glyph glyph-name="partialdiff" unicode="&#x2202;" horiz-adv-x="515" 
d="M210 210q-52 -174 14 -174q45 0 84.5 90t68.5 214q-19 29 -49 29q-71 0 -118 -159zM392 396l1 1q26 100 -16 176t-138 96l19 31q174 -23 241.5 -142t16.5 -291q-35 -116 -121 -196.5t-185 -80.5q-86 0 -133.5 64.5t-16.5 165.5q27 91 92 151.5t150 60.5q62 0 90 -36z" />
    <glyph glyph-name="Delta" unicode="&#x2206;" horiz-adv-x="599" 
d="M411 710l134 -710h-491zM126 46h230l-55 354z" />
    <glyph glyph-name="product" unicode="&#x220f;" horiz-adv-x="721" 
d="M122 680h669l-6 -40l-43 -8q-19 -3 -22 -25l-103 -734q-3 -22 15 -25l40 -8l-5 -40h-293l5 40l44 8q18 4 21 25l107 761h-203l-107 -761q-3 -21 15 -25l40 -8l-5 -40h-293l5 40l44 8q18 3 21 25l103 734q3 22 -14 25l-41 8z" />
    <glyph glyph-name="summation" unicode="&#x2211;" horiz-adv-x="541" 
d="M222 353l-107 287l6 40h486l-26 -180h-38l-48 119q-7 15 -25 15h-155l104 -281l-198 -307h168q17 0 29 15l99 119h37l-43 -180h-499l5 40z" />
    <glyph glyph-name="minus" unicode="&#x2212;" horiz-adv-x="495" 
d="M130 285h315l-5 -40h-315z" />
    <glyph glyph-name="uni2215" unicode="&#x2215;" horiz-adv-x="396" 
d="M371 700h38l-290 -720h-38z" />
    <glyph glyph-name="uni2219" unicode="&#x2219;" horiz-adv-x="292" 
d="M116 271q0 33 23 53.5t56 20.5q26 0 43 -15.5t17 -41.5q0 -32 -23.5 -52.5t-54.5 -20.5q-27 0 -44 15t-17 41z" />
    <glyph glyph-name="radical" unicode="&#x221a;" horiz-adv-x="706" 
d="M710 680h38l-357 -680h-110l-95 380h-78l5 40h226l69 -316z" />
    <glyph glyph-name="infinity" unicode="&#x221e;" horiz-adv-x="951" 
d="M749 85q-76 0 -142 40t-102 89q-47 -48 -125 -88.5t-154 -40.5q-64 0 -101.5 39t-37.5 100q0 76 52.5 128.5t131.5 52.5q75 0 141.5 -40.5t101.5 -88.5q49 48 126.5 88.5t152.5 40.5q64 0 102 -39t38 -100q0 -76 -53 -128.5t-131 -52.5zM475 245q-32 41 -84.5 75.5
t-118.5 34.5q-56 0 -92.5 -35.5t-36.5 -89.5q0 -43 26.5 -69t72.5 -26q114 0 233 110zM545 245q31 -40 84 -75t118 -35q56 0 93 35t37 90q0 43 -27 69t-73 26q-65 0 -127 -34.5t-105 -75.5z" />
    <glyph glyph-name="integral" unicode="&#x222b;" horiz-adv-x="452" 
d="M402 607l-182 -613q-27 -91 -104.5 -142.5t-156.5 -51.5q-43 0 -69.5 16.5t-15.5 54.5q10 29 30 45t42 16t32.5 -18.5t15.5 -37.5t13 -19q17 0 31 46l183 613q27 91 104 142.5t157 51.5q42 0 68.5 -16.5t14.5 -54.5q-9 -29 -29 -45t-42 -16t-32 19t-15 37.5t-14 18.5
q-17 0 -31 -46z" />
    <glyph glyph-name="approxequal" unicode="&#x2248;" horiz-adv-x="518" 
d="M160 298l-25 19q18 53 50 93t68 40q28 0 77.5 -25t75.5 -25q18 0 29 8.5t28 29.5l23 -18q-49 -126 -113 -126q-26 0 -73 25t-74 25q-8 0 -15.5 -2.5t-12.5 -5t-11.5 -8.5t-9.5 -9t-9.5 -11t-7.5 -10zM134 114l-25 19q18 53 49.5 93t67.5 40q28 0 78 -25t75 -25q18 0 29 8
t29 30l23 -18q-49 -126 -113 -126q-26 0 -73 25t-74 25q-8 0 -15.5 -2.5t-12 -4.5t-12 -9t-9 -9t-9.5 -11z" />
    <glyph glyph-name="notequal" unicode="&#x2260;" horiz-adv-x="495" 
d="M140 355h169l100 225h38l-100 -225h108l-5 -40h-121l-45 -100h151l-5 -40h-164l-95 -215h-38l95 215h-113l5 40h126l45 100h-156z" />
    <glyph glyph-name="lessequal" unicode="&#x2264;" horiz-adv-x="495" 
d="M100 73h315l-6 -40h-315zM421 439l-213 -149l172 -149l-7 -46l-225 190l1 10l279 190z" />
    <glyph glyph-name="greaterequal" unicode="&#x2265;" horiz-adv-x="495" 
d="M100 73h315l-6 -40h-315zM369 290l-173 149l7 46l225 -190l-1 -10l-279 -190l7 46z" />
    <glyph glyph-name="lozenge" unicode="&#x25ca;" horiz-adv-x="551" 
d="M263 -10l-125 354l224 346h20l127 -346l-226 -354h-20zM213 344l78 -226l141 226l-78 218z" />
    <glyph glyph-name="Abreve.small" unicode="&#xf66d;" horiz-adv-x="570" 
d="M312 181h-126l-33 -87q-9 -22 18 -35l43 -22l-5 -37h-202l5 37l47 19q32 11 43 41l177 451h135l108 -476q6 -23 22 -28l23 -7l-5 -37h-275l5 37l28 7q22 5 15 31zM203 228h102l-32 172h-2zM359 590q-38 0 -60.5 25.5t-25.5 61t0 73.5h31q1 -28 19 -49t48 -21
q31 0 55 21.5t31 48.5h32q-9 -64 -41.5 -112t-88.5 -48z" />
    <glyph glyph-name="Amacron.small" unicode="&#xf66e;" horiz-adv-x="570" 
d="M312 181h-126l-33 -87q-9 -22 18 -35l43 -22l-5 -37h-202l5 37l47 19q32 11 43 41l177 451h135l108 -476q6 -23 22 -28l23 -7l-5 -37h-275l5 37l28 7q22 5 15 31zM203 228h102l-32 172h-2zM240 665h243l-5 -40h-243z" />
    <glyph glyph-name="AEacute.small" unicode="&#xf670;" horiz-adv-x="755" 
d="M543 255l-30 -213h99q14 0 25 11l90 97h36l-36 -150h-434l5 37l32 7q15 3 18 20l17 120h-153l-55 -90q-11 -18 19 -35l38 -22l-5 -37h-202l5 37l50 22q27 11 43 38l282 447h408l-21 -150h-36l-49 97q-5 11 -22 11h-90l-29 -205h18q16 0 25 11l52 70h35l-29 -204h-35
l-32 70q-6 11 -22 11h-17zM242 231h129l37 262h-1zM481 608l122 104q24 21 50.5 11.5t26.5 -37.5q0 -41 -51 -58l-138 -45z" />
    <glyph glyph-name="Cacute.small" unicode="&#xf671;" horiz-adv-x="524" 
d="M496 190l40 -12q-32 -97 -91 -141.5t-132 -44.5q-115 0 -177 65.5t-62 172.5q0 138 89.5 229.5t229.5 91.5q52 0 100.5 -15.5t72.5 -33.5l-20 -140h-35q-32 85 -58.5 116.5t-58.5 31.5q-69 0 -108 -79.5t-39 -238.5q0 -150 92 -150q46 0 89.5 36t67.5 112zM347 608
l122 104q24 21 50.5 11.5t26.5 -37.5q0 -41 -51 -58l-138 -45z" />
    <glyph glyph-name="Ccaron.small" unicode="&#xf672;" horiz-adv-x="524" 
d="M496 190l40 -12q-32 -97 -91 -141.5t-132 -44.5q-115 0 -177 65.5t-62 172.5q0 138 89.5 229.5t229.5 91.5q52 0 100.5 -15.5t72.5 -33.5l-20 -140h-35q-32 85 -58.5 116.5t-58.5 31.5q-69 0 -108 -79.5t-39 -238.5q0 -150 92 -150q46 0 89.5 36t67.5 112zM328 770
l76 -75l98 75h45l-134 -180h-46l-83 180h44z" />
    <glyph glyph-name="Ccircumflex.small" unicode="&#xf673;" horiz-adv-x="524" 
d="M496 190l40 -12q-32 -97 -91 -141.5t-132 -44.5q-115 0 -177 65.5t-62 172.5q0 138 89.5 229.5t229.5 91.5q52 0 100.5 -15.5t72.5 -33.5l-20 -140h-35q-32 85 -58.5 116.5t-58.5 31.5q-69 0 -108 -79.5t-39 -238.5q0 -150 92 -150q46 0 89.5 36t67.5 112zM395 665
l-98 -75h-44l133 180h46l84 -180h-45z" />
    <glyph glyph-name="Cdotaccent.small" unicode="&#xf674;" horiz-adv-x="524" 
d="M496 190l40 -12q-32 -97 -91 -141.5t-132 -44.5q-115 0 -177 65.5t-62 172.5q0 138 89.5 229.5t229.5 91.5q52 0 100.5 -15.5t72.5 -33.5l-20 -140h-35q-32 85 -58.5 116.5t-58.5 31.5q-69 0 -108 -79.5t-39 -238.5q0 -150 92 -150q46 0 89.5 36t67.5 112zM332 671
q0 33 23 53.5t56 20.5q26 0 43 -15.5t17 -41.5q0 -32 -23.5 -52.5t-54.5 -20.5q-27 0 -44 15t-17 41z" />
    <glyph glyph-name="Dcaron.small" unicode="&#xf675;" horiz-adv-x="619" 
d="M245 42h28q51 0 87 26.5t54 73t25.5 95.5t7.5 108q0 157 -118 157h-20zM287 0h-262l5 37l32 7q15 3 18 20l59 416q1 17 -13 20l-30 7l5 37h262q115 0 186 -63.5t71 -172.5q0 -133 -97.5 -220.5t-235.5 -87.5zM307 770l76 -75l98 75h45l-134 -180h-46l-83 180h44z" />
    <glyph glyph-name="Ebreve.small" unicode="&#xf677;" horiz-adv-x="487" 
d="M309 502l-29 -205h18q16 0 25 11l52 70h35l-29 -204h-35l-32 70q-6 11 -22 11h-17l-30 -213h99q15 0 25 11l90 97h37l-37 -150h-434l5 37l32 7q15 3 18 20l59 416q1 17 -13 20l-30 7l5 37h426l-21 -150h-36l-49 97q-5 11 -22 11h-90zM336 590q-38 0 -60.5 25.5t-25.5 61
t0 73.5h31q1 -28 19 -49t48 -21q31 0 55 21.5t31 48.5h32q-9 -64 -41.5 -112t-88.5 -48z" />
    <glyph glyph-name="Ecaron.small" unicode="&#xf678;" horiz-adv-x="487" 
d="M309 502l-29 -205h18q16 0 25 11l52 70h35l-29 -204h-35l-32 70q-6 11 -22 11h-17l-30 -213h99q15 0 25 11l90 97h37l-37 -150h-434l5 37l32 7q15 3 18 20l59 416q1 17 -13 20l-30 7l5 37h426l-21 -150h-36l-49 97q-5 11 -22 11h-90zM272 770l76 -75l98 75h45l-134 -180
h-46l-83 180h44z" />
    <glyph glyph-name="Edotaccent.small" unicode="&#xf679;" horiz-adv-x="487" 
d="M309 502l-29 -205h18q16 0 25 11l52 70h35l-29 -204h-35l-32 70q-6 11 -22 11h-17l-30 -213h99q15 0 25 11l90 97h37l-37 -150h-434l5 37l32 7q15 3 18 20l59 416q1 17 -13 20l-30 7l5 37h426l-21 -150h-36l-49 97q-5 11 -22 11h-90zM284 671q0 33 23 53.5t56 20.5
q26 0 43 -15.5t17 -41.5q0 -32 -23.5 -52.5t-54.5 -20.5q-27 0 -44 15t-17 41z" />
    <glyph glyph-name="Emacron.small" unicode="&#xf67a;" horiz-adv-x="487" 
d="M309 502l-29 -205h18q16 0 25 11l52 70h35l-29 -204h-35l-32 70q-6 11 -22 11h-17l-30 -213h99q15 0 25 11l90 97h37l-37 -150h-434l5 37l32 7q15 3 18 20l59 416q1 17 -13 20l-30 7l5 37h426l-21 -150h-36l-49 97q-5 11 -22 11h-90zM213 665h243l-5 -40h-243z" />
    <glyph glyph-name="Gbreve.small" unicode="&#xf67d;" horiz-adv-x="578" 
d="M74 227q0 140 89.5 232t229.5 92q52 0 100.5 -15.5t72.5 -33.5l-19 -140h-35q-33 85 -60 116.5t-58 31.5q-71 0 -111.5 -85.5t-40.5 -265.5q0 -125 73 -125q26 0 42 9l21 154q3 17 -13 20l-20 4l5 37h247l-5 -37l-28 -4q-16 -3 -19 -20l-27 -197h-31l-57 14
q-66 -22 -129 -22q-110 0 -168.5 64t-58.5 171zM389 590q-38 0 -60.5 25.5t-25.5 61t0 73.5h31q1 -28 19 -49t48 -21q31 0 55 21.5t31 48.5h32q-9 -64 -41.5 -112t-88.5 -48z" />
    <glyph glyph-name="Gcircumflex.small" unicode="&#xf67e;" horiz-adv-x="578" 
d="M74 227q0 140 89.5 232t229.5 92q52 0 100.5 -15.5t72.5 -33.5l-19 -140h-35q-33 85 -60 116.5t-58 31.5q-71 0 -111.5 -85.5t-40.5 -265.5q0 -125 73 -125q26 0 42 9l21 154q3 17 -13 20l-20 4l5 37h247l-5 -37l-28 -4q-16 -3 -19 -20l-27 -197h-31l-57 14
q-66 -22 -129 -22q-110 0 -168.5 64t-58.5 171zM393 665l-98 -75h-44l133 180h46l84 -180h-45z" />
    <glyph glyph-name="Gcommaaccent.small" unicode="&#xf67f;" horiz-adv-x="578" 
d="M74 227q0 140 89.5 232t229.5 92q52 0 100.5 -15.5t72.5 -33.5l-19 -140h-35q-33 85 -60 116.5t-58 31.5q-71 0 -111.5 -85.5t-40.5 -265.5q0 -125 73 -125q26 0 42 9l21 154q3 17 -13 20l-20 4l5 37h247l-5 -37l-28 -4q-16 -3 -19 -20l-27 -197h-31l-57 14
q-66 -22 -129 -22q-110 0 -168.5 64t-58.5 171zM249 -166q-23 0 -35 16t-12 38q0 27 20.5 52t56.5 25q32 0 51.5 -25t19.5 -58q0 -119 -143 -192l-16 31q83 48 83 91q0 22 -25 22z" />
    <glyph glyph-name="Gdotaccent.small" unicode="&#xf680;" horiz-adv-x="578" 
d="M74 227q0 140 89.5 232t229.5 92q52 0 100.5 -15.5t72.5 -33.5l-19 -140h-35q-33 85 -60 116.5t-58 31.5q-71 0 -111.5 -85.5t-40.5 -265.5q0 -125 73 -125q26 0 42 9l21 154q3 17 -13 20l-20 4l5 37h247l-5 -37l-28 -4q-16 -3 -19 -20l-27 -197h-31l-57 14
q-66 -22 -129 -22q-110 0 -168.5 64t-58.5 171zM332 671q0 33 23 53.5t56 20.5q26 0 43 -15.5t17 -41.5q0 -32 -23.5 -52.5t-54.5 -20.5q-27 0 -44 15t-17 41z" />
    <glyph glyph-name="Hcircumflex.small" unicode="&#xf682;" horiz-adv-x="632" 
d="M275 252l-27 -188q-3 -17 13 -20l30 -7l-5 -37h-261l5 37l32 7q15 3 18 20l59 416q1 17 -13 20l-30 7l5 37h261l-5 -37l-32 -7q-17 -3 -18 -20l-26 -180h153l26 180q1 17 -14 20l-30 7l5 37h262l-5 -37l-33 -7q-16 -3 -17 -20l-59 -416q-3 -17 12 -20l31 -7l-5 -37h-262
l5 37l32 7q16 3 19 20l27 188h-153zM409 665l-98 -75h-44l133 180h46l84 -180h-45z" />
    <glyph glyph-name="Ibreve.small" unicode="&#xf683;" horiz-adv-x="313" 
d="M308 480l-59 -416q-3 -17 13 -20l30 -7l-5 -37h-261l5 37l32 7q15 3 18 20l59 416q1 17 -13 20l-30 7l5 37h261l-5 -37l-32 -7q-17 -3 -18 -20zM239 590q-38 0 -60.5 25.5t-25.5 61t0 73.5h31q1 -28 19 -49t48 -21q31 0 55 21.5t31 48.5h32q-9 -64 -41.5 -112t-88.5 -48z
" />
    <glyph glyph-name="Imacron.small" unicode="&#xf685;" horiz-adv-x="313" 
d="M308 480l-59 -416q-3 -17 13 -20l30 -7l-5 -37h-261l5 37l32 7q15 3 18 20l59 416q1 17 -13 20l-30 7l5 37h261l-5 -37l-32 -7q-17 -3 -18 -20zM127 665h243l-5 -40h-243z" />
    <glyph glyph-name="Itilde.small" unicode="&#xf687;" horiz-adv-x="313" 
d="M308 480l-59 -416q-3 -17 13 -20l30 -7l-5 -37h-261l5 37l32 7q15 3 18 20l59 416q1 17 -13 20l-30 7l5 37h261l-5 -37l-32 -7q-17 -3 -18 -20zM98 588l-25 19q17 52 49 92.5t68 40.5q28 0 78 -25t76 -25q18 0 28.5 8t28.5 30l23 -18q-47 -126 -113 -126q-26 0 -73 25
t-74 25q-8 0 -15.5 -2.5t-12 -4.5t-12 -9t-9 -9t-9.5 -11z" />
    <glyph glyph-name="Jcircumflex.small" unicode="&#xf688;" horiz-adv-x="295" 
d="M299 480l-62 -438q-5 -32 -17 -61t-37 -59.5t-70 -52t-107 -29.5l-10 28q29 17 44 46t23 86l68 480q1 17 -13 20l-30 7l4 37h262l-5 -37l-32 -7q-17 -3 -18 -20zM238 665l-98 -75h-44l133 180h46l84 -180h-45z" />
    <glyph glyph-name="Kcommaaccent.small" unicode="&#xf689;" horiz-adv-x="636" 
d="M298 242l-28 -24l-22 -154q-3 -17 13 -20l30 -7l-5 -37h-261l5 37l32 7q15 3 18 20l59 416q1 17 -13 20l-30 7l5 37h261l-5 -37l-32 -7q-17 -3 -18 -20l-28 -194l178 166q8 6 7.5 16.5t-10.5 16.5l-32 22l5 37h225l-5 -37l-58 -20q-48 -19 -80 -49l-75 -67l150 -302
q9 -19 28 -25l19 -7l-5 -37h-271l5 37l11 5q12 7 3 27zM265 -166q-23 0 -35 16t-12 38q0 27 20.5 52t56.5 25q32 0 51.5 -25t19.5 -58q0 -119 -143 -192l-16 31q83 48 83 91q0 22 -25 22z" />
    <glyph glyph-name="Lacute.small" unicode="&#xf68a;" horiz-adv-x="477" 
d="M307 480l-62 -438h91q15 0 26 11l90 97h36l-37 -150h-426l5 37l32 7q15 3 18 20l59 416q1 17 -13 20l-30 7l5 37h261l-5 -37l-32 -7q-17 -3 -18 -20zM215 608l122 104q24 21 50.5 11.5t26.5 -37.5q0 -41 -51 -58l-138 -45z" />
    <glyph glyph-name="Lcaron.small" unicode="&#xf68b;" horiz-adv-x="477" 
d="M307 480l-62 -438h91q15 0 26 11l90 97h36l-37 -150h-426l5 37l32 7q15 3 18 20l59 416q1 17 -13 20l-30 7l5 37h261l-5 -37l-32 -7q-17 -3 -18 -20zM439 429q-23 0 -35 16t-12 38q0 27 20.5 52t56.5 25q32 0 51.5 -25t19.5 -58q0 -119 -143 -192l-16 31q83 48 83 91
q0 22 -25 22z" />
    <glyph glyph-name="Lcommaaccent.small" unicode="&#xf68c;" horiz-adv-x="477" 
d="M307 480l-62 -438h91q15 0 26 11l90 97h36l-37 -150h-426l5 37l32 7q15 3 18 20l59 416q1 17 -13 20l-30 7l5 37h261l-5 -37l-32 -7q-17 -3 -18 -20zM198 -166q-23 0 -35 16t-12 38q0 27 20.5 52t56.5 25q32 0 51.5 -25t19.5 -58q0 -119 -143 -192l-16 31q83 48 83 91
q0 22 -25 22z" />
    <glyph glyph-name="Ldot.small" unicode="&#xf68d;" horiz-adv-x="477" 
d="M307 480l-62 -438h91q15 0 26 11l90 97h36l-37 -150h-426l5 37l32 7q15 3 18 20l59 416q1 17 -13 20l-30 7l5 37h261l-5 -37l-32 -7q-17 -3 -18 -20zM327 291q0 33 23 53.5t56 20.5q26 0 43 -15.5t17 -41.5q0 -32 -23.5 -52.5t-54.5 -20.5q-27 0 -44 15t-17 41z" />
    <glyph glyph-name="Nacute.small" unicode="&#xf68e;" horiz-adv-x="611" 
d="M469 -4l-260 453l-51 -357q-2 -23 20 -33l51 -22l-5 -37h-204l5 37l55 22q28 11 30 33l56 388q2 19 -13 20l-62 7l5 37h258l159 -253l22 158q3 21 -21 33l-52 25l5 37h207l-5 -37l-55 -25q-28 -13 -32 -33l-63 -453h-50zM373 608l122 104q24 21 50.5 11.5t26.5 -37.5
q0 -41 -51 -58l-138 -45z" />
    <glyph glyph-name="Ncaron.small" unicode="&#xf68f;" horiz-adv-x="611" 
d="M469 -4l-260 453l-51 -357q-2 -23 20 -33l51 -22l-5 -37h-204l5 37l55 22q28 11 30 33l56 388q2 19 -13 20l-62 7l5 37h258l159 -253l22 158q3 21 -21 33l-52 25l5 37h207l-5 -37l-55 -25q-28 -13 -32 -33l-63 -453h-50zM333 770l76 -75l98 75h45l-134 -180h-46l-83 180
h44z" />
    <glyph glyph-name="Ncommaaccent.small" unicode="&#xf690;" horiz-adv-x="611" 
d="M469 -4l-260 453l-51 -357q-2 -23 20 -33l51 -22l-5 -37h-204l5 37l55 22q28 11 30 33l56 388q2 19 -13 20l-62 7l5 37h258l159 -253l22 158q3 21 -21 33l-52 25l5 37h207l-5 -37l-55 -25q-28 -13 -32 -33l-63 -453h-50zM263 -166q-23 0 -35 16t-12 38q0 27 20.5 52
t56.5 25q32 0 51.5 -25t19.5 -58q0 -119 -143 -192l-16 31q83 48 83 91q0 22 -25 22z" />
    <glyph glyph-name="Obreve.small" unicode="&#xf691;" horiz-adv-x="648" 
d="M75 234q0 74 28.5 136t75.5 101t104.5 60t118.5 21q105 0 176.5 -64t71.5 -178q0 -98 -49 -172.5t-122 -110t-156 -35.5q-104 0 -176 64.5t-72 177.5zM243 168q0 -66 19.5 -100t66.5 -34q76 0 114 79.5t38 262.5q0 65 -19 99.5t-66 34.5q-76 0 -114.5 -80t-38.5 -262z
M406 590q-38 0 -60.5 25.5t-25.5 61t0 73.5h31q1 -28 19 -49t48 -21q31 0 55 21.5t31 48.5h32q-9 -64 -41.5 -112t-88.5 -48z" />
    <glyph glyph-name="Ohungarumlaut.small" unicode="&#xf692;" horiz-adv-x="648" 
d="M75 234q0 74 28.5 136t75.5 101t104.5 60t118.5 21q105 0 176.5 -64t71.5 -178q0 -98 -49 -172.5t-122 -110t-156 -35.5q-104 0 -176 64.5t-72 177.5zM243 168q0 -66 19.5 -100t66.5 -34q76 0 114 79.5t38 262.5q0 65 -19 99.5t-66 34.5q-76 0 -114.5 -80t-38.5 -262z
M273 590l106 123q14 17 34 20.5t34.5 -6t15.5 -28.5q1 -36 -43 -60l-132 -70zM448 590l105 123q14 16 34 20t34.5 -5.5t15.5 -28.5q1 -36 -43 -60l-132 -70z" />
    <glyph glyph-name="Omacron.small" unicode="&#xf693;" horiz-adv-x="648" 
d="M75 234q0 74 28.5 136t75.5 101t104.5 60t118.5 21q105 0 176.5 -64t71.5 -178q0 -98 -49 -172.5t-122 -110t-156 -35.5q-104 0 -176 64.5t-72 177.5zM243 168q0 -66 19.5 -100t66.5 -34q76 0 114 79.5t38 262.5q0 65 -19 99.5t-66 34.5q-76 0 -114.5 -80t-38.5 -262z
M295 665h243l-5 -40h-243z" />
    <glyph glyph-name="Oslashacute.small" unicode="&#xf694;" horiz-adv-x="648" 
d="M373 608l122 104q24 21 50.5 11.5t26.5 -37.5q0 -41 -51 -58l-138 -45zM75 234q0 74 28.5 136t75.5 101t104.5 60t118.5 21q64 0 119 -26l30 42l27 -16l-30 -41q102 -65 102 -201q0 -98 -49 -172.5t-122 -110t-156 -35.5q-74 0 -130 31l-34 -47l-26 16l34 47
q-92 67 -92 195zM481 376q0 14 -2 40l-230 -316q17 -66 80 -66q76 0 114 79.5t38 262.5zM243 168v-24l227 313q-18 53 -74 53q-76 0 -114.5 -80t-38.5 -262z" />
    <glyph glyph-name="Racute.small" unicode="&#xf695;" horiz-adv-x="575" 
d="M377 265v-1q113 -19 129 -84l26 -107q7 -25 23 -30l18 -6l-5 -37q-104 -9 -125 -9q-54 0 -72 18t-25 56l-29 148q-3 21 -10 26.5t-19 5.5h-14l-26 -181q-3 -19 13 -20l45 -7l-5 -37h-276l5 37l32 7q15 3 18 20l59 416q1 17 -13 20l-30 7l5 37h280q83 0 127 -33.5
t44 -90.5q0 -68 -53.5 -108t-121.5 -47zM279 287h23q77 0 77 146q0 69 -47 69h-23zM302 608l122 104q24 21 50.5 11.5t26.5 -37.5q0 -41 -51 -58l-138 -45z" />
    <glyph glyph-name="Rcaron.small" unicode="&#xf696;" horiz-adv-x="575" 
d="M377 265v-1q113 -19 129 -84l26 -107q7 -25 23 -30l18 -6l-5 -37q-104 -9 -125 -9q-54 0 -72 18t-25 56l-29 148q-3 21 -10 26.5t-19 5.5h-14l-26 -181q-3 -19 13 -20l45 -7l-5 -37h-276l5 37l32 7q15 3 18 20l59 416q1 17 -13 20l-30 7l5 37h280q83 0 127 -33.5
t44 -90.5q0 -68 -53.5 -108t-121.5 -47zM279 287h23q77 0 77 146q0 69 -47 69h-23zM295 770l76 -75l98 75h45l-134 -180h-46l-83 180h44z" />
    <glyph glyph-name="Rcommaaccent.small" unicode="&#xf697;" horiz-adv-x="575" 
d="M377 265v-1q113 -19 129 -84l26 -107q7 -25 23 -30l18 -6l-5 -37q-104 -9 -125 -9q-54 0 -72 18t-25 56l-29 148q-3 21 -10 26.5t-19 5.5h-14l-26 -181q-3 -19 13 -20l45 -7l-5 -37h-276l5 37l32 7q15 3 18 20l59 416q1 17 -13 20l-30 7l5 37h280q83 0 127 -33.5
t44 -90.5q0 -68 -53.5 -108t-121.5 -47zM279 287h23q77 0 77 146q0 69 -47 69h-23zM251 -166q-23 0 -35 16t-12 38q0 27 20.5 52t56.5 25q32 0 51.5 -25t19.5 -58q0 -119 -143 -192l-16 31q83 48 83 91q0 22 -25 22z" />
    <glyph glyph-name="Sacute.small" unicode="&#xf698;" horiz-adv-x="442" 
d="M199 -8q-42 0 -76.5 10t-45 17t-32.5 23l7 148h36q36 -91 63 -123.5t58 -32.5q40 0 59 20.5t19 53.5q0 58 -66 87q-64 29 -101.5 67t-37.5 102q0 89 66 138.5t154 49.5q80 0 151 -50l-20 -140h-36q-28 86 -48.5 117t-54.5 31q-12 0 -23 -3t-22 -17t-11 -38
q0 -26 21.5 -46.5t77.5 -48.5q46 -24 76 -66.5t30 -97.5q0 -69 -38 -116t-91 -66t-115 -19zM272 608l122 104q24 21 50.5 11.5t26.5 -37.5q0 -41 -51 -58l-138 -45z" />
    <glyph glyph-name="Scircumflex.small" unicode="&#xf69a;" horiz-adv-x="442" 
d="M199 -8q-42 0 -76.5 10t-45 17t-32.5 23l7 148h36q36 -91 63 -123.5t58 -32.5q40 0 59 20.5t19 53.5q0 58 -66 87q-64 29 -101.5 67t-37.5 102q0 89 66 138.5t154 49.5q80 0 151 -50l-20 -140h-36q-28 86 -48.5 117t-54.5 31q-12 0 -23 -3t-22 -17t-11 -38
q0 -26 21.5 -46.5t77.5 -48.5q46 -24 76 -66.5t30 -97.5q0 -69 -38 -116t-91 -66t-115 -19zM313 665l-98 -75h-44l133 180h46l84 -180h-45z" />
    <glyph glyph-name="Scommaaccent.small" unicode="&#xf69b;" horiz-adv-x="442" 
d="M199 -8q-42 0 -76.5 10t-45 17t-32.5 23l7 148h36q36 -91 63 -123.5t58 -32.5q40 0 59 20.5t19 53.5q0 58 -66 87q-64 29 -101.5 67t-37.5 102q0 89 66 138.5t154 49.5q80 0 151 -50l-20 -140h-36q-28 86 -48.5 117t-54.5 31q-12 0 -23 -3t-22 -17t-11 -38
q0 -26 21.5 -46.5t77.5 -48.5q46 -24 76 -66.5t30 -97.5q0 -69 -38 -116t-91 -66t-115 -19zM177 -166q-23 0 -35 16t-12 38q0 27 20.5 52t56.5 25q32 0 51.5 -25t19.5 -58q0 -119 -143 -192l-16 31q83 48 83 91q0 22 -25 22z" />
    <glyph glyph-name="Tcaron.small" unicode="&#xf69d;" horiz-adv-x="481" 
d="M226 502h-22q-16 0 -24 -11l-77 -97h-36l21 150h457l-21 -150h-36l-51 97q-5 11 -21 11h-22l-61 -438q-3 -17 12 -20l31 -7l-5 -37h-262l5 37l33 7q15 3 18 20zM261 770l76 -75l98 75h45l-134 -180h-46l-83 180h44z" />
    <glyph glyph-name="Tcommaaccent.small" unicode="&#xf69e;" horiz-adv-x="481" 
d="M226 502h-22q-16 0 -24 -11l-77 -97h-36l21 150h457l-21 -150h-36l-51 97q-5 11 -21 11h-22l-61 -438q-3 -17 12 -20l31 -7l-5 -37h-262l5 37l33 7q15 3 18 20zM198 -166q-23 0 -35 16t-12 38q0 27 20.5 52t56.5 25q32 0 51.5 -25t19.5 -58q0 -119 -143 -192l-16 31
q83 48 83 91q0 22 -25 22z" />
    <glyph glyph-name="Ubreve.small" unicode="&#xf69f;" horiz-adv-x="606" 
d="M496 204l34 242q4 25 -19 36l-52 25l4 37h206l-5 -37l-55 -25q-29 -13 -31 -36l-34 -241q-15 -103 -78 -158t-163 -55q-116 0 -170 56t-40 158l39 274q1 17 -14 20l-30 7l5 37h261l-5 -37l-32 -7q-16 -3 -17 -20l-39 -277q-11 -76 10 -112t82 -36t97 41.5t46 107.5z
M394 590q-38 0 -60.5 25.5t-25.5 61t0 73.5h31q1 -28 19 -49t48 -21q31 0 55 21.5t31 48.5h32q-9 -64 -41.5 -112t-88.5 -48z" />
    <glyph glyph-name="Uhungarumlaut.small" unicode="&#xf6a0;" horiz-adv-x="606" 
d="M496 204l34 242q4 25 -19 36l-52 25l4 37h206l-5 -37l-55 -25q-29 -13 -31 -36l-34 -241q-15 -103 -78 -158t-163 -55q-116 0 -170 56t-40 158l39 274q1 17 -14 20l-30 7l5 37h261l-5 -37l-32 -7q-16 -3 -17 -20l-39 -277q-11 -76 10 -112t82 -36t97 41.5t46 107.5z
M255 590l106 123q14 17 34 20.5t34.5 -6t15.5 -28.5q1 -36 -43 -60l-132 -70zM430 590l105 123q14 16 34 20t34.5 -5.5t15.5 -28.5q1 -36 -43 -60l-132 -70z" />
    <glyph glyph-name="Umacron.small" unicode="&#xf6a1;" horiz-adv-x="606" 
d="M496 204l34 242q4 25 -19 36l-52 25l4 37h206l-5 -37l-55 -25q-29 -13 -31 -36l-34 -241q-15 -103 -78 -158t-163 -55q-116 0 -170 56t-40 158l39 274q1 17 -14 20l-30 7l5 37h261l-5 -37l-32 -7q-16 -3 -17 -20l-39 -277q-11 -76 10 -112t82 -36t97 41.5t46 107.5z
M281 665h243l-5 -40h-243z" />
    <glyph glyph-name="Uring.small" unicode="&#xf6a3;" horiz-adv-x="606" 
d="M496 204l34 242q4 25 -19 36l-52 25l4 37h206l-5 -37l-55 -25q-29 -13 -31 -36l-34 -241q-15 -103 -78 -158t-163 -55q-116 0 -170 56t-40 158l39 274q1 17 -14 20l-30 7l5 37h261l-5 -37l-32 -7q-16 -3 -17 -20l-39 -277q-11 -76 10 -112t82 -36t97 41.5t46 107.5z
M319 654q0 43 27.5 72t68.5 29q33 0 52.5 -21.5t19.5 -54.5q0 -43 -27.5 -71t-68.5 -28q-33 0 -52.5 20.5t-19.5 53.5zM368 648q0 -46 26 -46q22 0 33.5 26t11.5 58q0 47 -27 47q-21 0 -32.5 -26t-11.5 -59z" />
    <glyph glyph-name="Utilde.small" unicode="&#xf6a4;" horiz-adv-x="606" 
d="M496 204l34 242q4 25 -19 36l-52 25l4 37h206l-5 -37l-55 -25q-29 -13 -31 -36l-34 -241q-15 -103 -78 -158t-163 -55q-116 0 -170 56t-40 158l39 274q1 17 -14 20l-30 7l5 37h261l-5 -37l-32 -7q-16 -3 -17 -20l-39 -277q-11 -76 10 -112t82 -36t97 41.5t46 107.5z
M249 588l-25 19q17 52 49 92.5t68 40.5q28 0 78 -25t76 -25q18 0 28.5 8t28.5 30l23 -18q-47 -126 -113 -126q-26 0 -73 25t-74 25q-8 0 -15.5 -2.5t-12 -4.5t-12 -9t-9 -9t-9.5 -11z" />
    <glyph glyph-name="Wacute.small" unicode="&#xf6a5;" horiz-adv-x="864" 
d="M368 161l84 168l-25 146q-3 19 -18 25l-17 7l6 37h266l-6 -37l-29 -7q-14 -4 -16.5 -15t1.5 -19l50 -305h2l122 287q13 27 -16 37l-56 22l6 37h211l-6 -37l-52 -22q-31 -13 -41 -39l-187 -450h-132l-50 258l-123 -258h-124l-94 477q-7 25 -18 27l-28 7l6 37h276l-6 -36
l-28 -8q-15 -5 -17 -15.5t2 -18.5l55 -305h2zM501 608l122 104q24 21 50.5 11.5t26.5 -37.5q0 -41 -51 -58l-138 -45z" />
    <glyph glyph-name="Wcircumflex.small" unicode="&#xf6a6;" horiz-adv-x="864" 
d="M368 161l84 168l-25 146q-3 19 -18 25l-17 7l6 37h266l-6 -37l-29 -7q-14 -4 -16.5 -15t1.5 -19l50 -305h2l122 287q13 27 -16 37l-56 22l6 37h211l-6 -37l-52 -22q-31 -13 -41 -39l-187 -450h-132l-50 258l-123 -258h-124l-94 477q-7 25 -18 27l-28 7l6 37h276l-6 -36
l-28 -8q-15 -5 -17 -15.5t2 -18.5l55 -305h2zM529 665l-98 -75h-44l133 180h46l84 -180h-45z" />
    <glyph glyph-name="Wdieresis.small" unicode="&#xf6a7;" horiz-adv-x="864" 
d="M368 161l84 168l-25 146q-3 19 -18 25l-17 7l6 37h266l-6 -37l-29 -7q-14 -4 -16.5 -15t1.5 -19l50 -305h2l122 287q13 27 -16 37l-56 22l6 37h211l-6 -37l-52 -22q-31 -13 -41 -39l-187 -450h-132l-50 258l-123 -258h-124l-94 477q-7 25 -18 27l-28 7l6 37h276l-6 -36
l-28 -8q-15 -5 -17 -15.5t2 -18.5l55 -305h2zM367 671q0 34 24.5 55.5t58.5 21.5q29 0 47 -16t18 -43q0 -35 -24.5 -56.5t-59.5 -21.5q-28 0 -46 16.5t-18 43.5zM547 671q0 34 24.5 55.5t58.5 21.5q29 0 47 -16t18 -43q0 -35 -24.5 -56.5t-59.5 -21.5q-28 0 -46 16.5
t-18 43.5z" />
    <glyph glyph-name="Wgrave.small" unicode="&#xf6a8;" horiz-adv-x="864" 
d="M368 161l84 168l-25 146q-3 19 -18 25l-17 7l6 37h266l-6 -37l-29 -7q-14 -4 -16.5 -15t1.5 -19l50 -305h2l122 287q13 27 -16 37l-56 22l6 37h211l-6 -37l-52 -22q-31 -13 -41 -39l-187 -450h-132l-50 258l-123 -258h-124l-94 477q-7 25 -18 27l-28 7l6 37h276l-6 -36
l-28 -8q-15 -5 -17 -15.5t2 -18.5l55 -305h2zM448 712l91 -104l-16 -25l-124 45q-42 16 -37 54q5 30 35.5 41t50.5 -11z" />
    <glyph glyph-name="Ycircumflex.small" unicode="&#xf6a9;" horiz-adv-x="574" 
d="M540 450l-140 -243l-20 -143q-3 -17 12 -20l31 -7l-5 -37h-262l5 37l33 7q15 3 18 20l20 139l-108 268q-11 24 -21 27l-25 9l6 37h266l-6 -37l-18 -5q-25 -9 -15 -35l76 -191h1l99 177q11 20 -12 32l-44 22l6 37h206l-6 -37l-54 -22q-31 -13 -43 -35zM390 665l-98 -75
h-44l133 180h46l84 -180h-45z" />
    <glyph glyph-name="Ygrave.small" unicode="&#xf6aa;" horiz-adv-x="574" 
d="M540 450l-140 -243l-20 -143q-3 -17 12 -20l31 -7l-5 -37h-262l5 37l33 7q15 3 18 20l20 139l-108 268q-11 24 -21 27l-25 9l6 37h266l-6 -37l-18 -5q-25 -9 -15 -35l76 -191h1l99 177q11 20 -12 32l-44 22l6 37h206l-6 -37l-54 -22q-31 -13 -43 -35zM304 712l91 -104
l-16 -25l-124 45q-42 16 -37 54q5 30 35.5 41t50.5 -11z" />
    <glyph glyph-name="Zacute.small" unicode="&#xf6ab;" horiz-adv-x="475" 
d="M17 39l310 461v2h-107q-16 0 -24 -11l-78 -97h-36l21 150h425l-5 -39l-309 -461v-2h119q14 0 25 11l90 97h35l-36 -150h-435zM288 608l122 104q24 21 50.5 11.5t26.5 -37.5q0 -41 -51 -58l-138 -45z" />
    <glyph glyph-name="Zdotaccent.small" unicode="&#xf6ac;" horiz-adv-x="475" 
d="M17 39l310 461v2h-107q-16 0 -24 -11l-78 -97h-36l21 150h425l-5 -39l-309 -461v-2h119q14 0 25 11l90 97h35l-36 -150h-435zM263 671q0 33 23 53.5t56 20.5q26 0 43 -15.5t17 -41.5q0 -32 -23.5 -52.5t-54.5 -20.5q-27 0 -44 15t-17 41z" />
    <glyph glyph-name="Idotaccent.small" unicode="&#xf6ad;" horiz-adv-x="313" 
d="M308 480l-59 -416q-3 -17 13 -20l30 -7l-5 -37h-261l5 37l32 7q15 3 18 20l59 416q1 17 -13 20l-30 7l5 37h261l-5 -37l-32 -7q-17 -3 -18 -20zM182 671q0 33 23 53.5t56 20.5q26 0 43 -15.5t17 -41.5q0 -32 -23.5 -52.5t-54.5 -20.5q-27 0 -44 15t-17 41z" />
    <glyph glyph-name="dieresisacute" unicode="&#xf6d7;" horiz-adv-x="604" 
d="M149 631q0 36 26 58.5t62 22.5q30 0 49 -17t19 -45q0 -37 -25.5 -59.5t-62.5 -22.5q-30 0 -49 17t-19 46zM479 630q0 37 25.5 59.5t62.5 22.5q29 0 48 -17t19 -45q0 -37 -25.5 -59.5t-61.5 -22.5q-30 0 -49 17t-19 45zM319 605l87 140q16 26 46.5 27.5t39.5 -25.5
q9 -36 -33 -67l-122 -93z" />
    <glyph glyph-name="rupiah" unicode="&#xf6dd;" horiz-adv-x="1159" 
d="M646 -127l17 126q-90 -9 -155 -9q-30 0 -49.5 6t-29.5 20t-14.5 24.5t-8.5 29.5l-38 194q-5 26 -14.5 34.5t-26.5 8.5h-25l-33 -234q-3 -22 15 -25l58 -8l-5 -40h-311l5 40l44 8q18 3 21 25l75 534q3 22 -14 25l-41 8l6 40h316q95 0 145.5 -42t50.5 -114q0 -85 -63 -137
t-144 -59v-2q122 -23 142 -101l32 -132q11 -46 35 -48l33 -4l53 373q3 20 -15 20h-33l5 40l210 36l6 -8q-10 -27 -18 -74l-2 -16h2q24 52 63 75t78 23q73 0 112.5 -53t39.5 -150q0 -136 -69.5 -226.5t-168.5 -90.5q-64 0 -109 41h-2l-22 -158q-3 -22 15 -25l49 -8l-5 -40
h-273l5 40l35 8q18 5 21 25zM858 294l-31 -221q22 -12 56 -12q125 0 125 255q0 111 -60 111q-9 0 -20.5 -5t-25.5 -18t-26 -41.5t-18 -68.5zM308 353h39q51 0 78.5 47t27.5 140q0 94 -66 94h-39z" />
    <glyph glyph-name="Scaronsmall" unicode="&#xf6fd;" horiz-adv-x="442" 
d="M235 810l76 -75l98 75h45l-134 -180h-46l-83 180h44zM199 -8q-42 0 -76.5 10t-45 17t-32.5 23l7 148h36q36 -91 63 -123.5t58 -32.5q40 0 59 20.5t19 53.5q0 58 -66 87q-64 29 -101.5 67t-37.5 102q0 89 66 138.5t154 49.5q80 0 151 -50l-20 -140h-36q-28 86 -48.5 117
t-54.5 31q-12 0 -23 -3t-22 -17t-11 -38q0 -26 21.5 -46.5t77.5 -48.5q46 -24 76 -66.5t30 -97.5q0 -69 -38 -116t-91 -66t-115 -19z" />
    <glyph glyph-name="Zcaronsmall" unicode="&#xf6ff;" horiz-adv-x="475" 
d="M253 810l76 -75l98 75h45l-134 -180h-46l-83 180h44zM17 39l310 461v2h-107q-16 0 -24 -11l-78 -97h-36l21 150h425l-5 -39l-309 -461v-2h119q14 0 25 11l90 97h35l-36 -150h-435z" />
    <glyph glyph-name="Agravesmall" unicode="&#xf7e0;" horiz-adv-x="570" 
d="M312 181h-126l-33 -87q-9 -22 18 -35l43 -22l-5 -37h-202l5 37l47 19q32 11 43 41l177 451h135l108 -476q6 -23 22 -28l23 -7l-5 -37h-275l5 37l28 7q22 5 15 31zM203 228h102l-32 172h-2zM277 712l91 -104l-16 -25l-124 45q-42 16 -37 54q5 30 35.5 41t50.5 -11z" />
    <glyph glyph-name="Aacutesmall" unicode="&#xf7e1;" horiz-adv-x="570" 
d="M312 181h-126l-33 -87q-9 -22 18 -35l43 -22l-5 -37h-202l5 37l47 19q32 11 43 41l177 451h135l108 -476q6 -23 22 -28l23 -7l-5 -37h-275l5 37l28 7q22 5 15 31zM203 228h102l-32 172h-2zM342 608l122 104q24 21 50.5 11.5t26.5 -37.5q0 -41 -51 -58l-138 -45z" />
    <glyph glyph-name="Acircumflexsmall" unicode="&#xf7e2;" horiz-adv-x="570" 
d="M312 181h-126l-33 -87q-9 -22 18 -35l43 -22l-5 -37h-202l5 37l47 19q32 11 43 41l177 451h135l108 -476q6 -23 22 -28l23 -7l-5 -37h-275l5 37l28 7q22 5 15 31zM203 228h102l-32 172h-2zM364 665l-98 -75h-44l133 180h46l84 -180h-45z" />
    <glyph glyph-name="Atildesmall" unicode="&#xf7e3;" horiz-adv-x="570" 
d="M312 181h-126l-33 -87q-9 -22 18 -35l43 -22l-5 -37h-202l5 37l47 19q32 11 43 41l177 451h135l108 -476q6 -23 22 -28l23 -7l-5 -37h-275l5 37l28 7q22 5 15 31zM203 228h102l-32 172h-2zM218 588l-25 19q17 52 49 92.5t68 40.5q28 0 78 -25t76 -25q18 0 28.5 8t28.5 30
l23 -18q-47 -126 -113 -126q-26 0 -73 25t-74 25q-8 0 -15.5 -2.5t-12 -4.5t-12 -9t-9 -9t-9.5 -11z" />
    <glyph glyph-name="Adieresissmall" unicode="&#xf7e4;" horiz-adv-x="570" 
d="M312 181h-126l-33 -87q-9 -22 18 -35l43 -22l-5 -37h-202l5 37l47 19q32 11 43 41l177 451h135l108 -476q6 -23 22 -28l23 -7l-5 -37h-275l5 37l28 7q22 5 15 31zM203 228h102l-32 172h-2zM203 671q0 34 24.5 55.5t58.5 21.5q29 0 47 -16t18 -43q0 -35 -24.5 -56.5
t-59.5 -21.5q-28 0 -46 16.5t-18 43.5zM383 671q0 34 24.5 55.5t58.5 21.5q29 0 47 -16t18 -43q0 -35 -24.5 -56.5t-59.5 -21.5q-28 0 -46 16.5t-18 43.5z" />
    <glyph glyph-name="Aringsmall" unicode="&#xf7e5;" horiz-adv-x="570" 
d="M312 181h-126l-33 -87q-9 -22 18 -35l43 -22l-5 -37h-202l5 37l47 19q32 11 43 41l177 451h135l108 -476q6 -23 22 -28l23 -7l-5 -37h-275l5 37l28 7q22 5 15 31zM203 228h102l-32 172h-2zM281 654q0 43 27.5 72t68.5 29q33 0 52.5 -21.5t19.5 -54.5q0 -43 -27.5 -71
t-68.5 -28q-33 0 -52.5 20.5t-19.5 53.5zM330 648q0 -46 26 -46q22 0 33.5 26t11.5 58q0 47 -27 47q-21 0 -32.5 -26t-11.5 -59z" />
    <glyph glyph-name="Egravesmall" unicode="&#xf7e8;" horiz-adv-x="487" 
d="M309 502l-29 -205h18q16 0 25 11l52 70h35l-29 -204h-35l-32 70q-6 11 -22 11h-17l-30 -213h99q15 0 25 11l90 97h37l-37 -150h-434l5 37l32 7q15 3 18 20l59 416q1 17 -13 20l-30 7l5 37h426l-21 -150h-36l-49 97q-5 11 -22 11h-90zM294 712l91 -104l-16 -25l-124 45
q-42 16 -37 54q5 30 35.5 41t50.5 -11z" />
    <glyph glyph-name="Eacutesmall" unicode="&#xf7e9;" horiz-adv-x="487" 
d="M309 502l-29 -205h18q16 0 25 11l52 70h35l-29 -204h-35l-32 70q-6 11 -22 11h-17l-30 -213h99q15 0 25 11l90 97h37l-37 -150h-434l5 37l32 7q15 3 18 20l59 416q1 17 -13 20l-30 7l5 37h426l-21 -150h-36l-49 97q-5 11 -22 11h-90zM302 608l122 104q24 21 50.5 11.5
t26.5 -37.5q0 -41 -51 -58l-138 -45z" />
    <glyph glyph-name="Ecircumflexsmall" unicode="&#xf7ea;" horiz-adv-x="487" 
d="M309 502l-29 -205h18q16 0 25 11l52 70h35l-29 -204h-35l-32 70q-6 11 -22 11h-17l-30 -213h99q15 0 25 11l90 97h37l-37 -150h-434l5 37l32 7q15 3 18 20l59 416q1 17 -13 20l-30 7l5 37h426l-21 -150h-36l-49 97q-5 11 -22 11h-90zM345 665l-98 -75h-44l133 180h46
l84 -180h-45z" />
    <glyph glyph-name="Edieresissmall" unicode="&#xf7eb;" horiz-adv-x="487" 
d="M309 502l-29 -205h18q16 0 25 11l52 70h35l-29 -204h-35l-32 70q-6 11 -22 11h-17l-30 -213h99q15 0 25 11l90 97h37l-37 -150h-434l5 37l32 7q15 3 18 20l59 416q1 17 -13 20l-30 7l5 37h426l-21 -150h-36l-49 97q-5 11 -22 11h-90zM183 671q0 34 24.5 55.5t58.5 21.5
q29 0 47 -16t18 -43q0 -35 -24.5 -56.5t-59.5 -21.5q-28 0 -46 16.5t-18 43.5zM363 671q0 34 24.5 55.5t58.5 21.5q29 0 47 -16t18 -43q0 -35 -24.5 -56.5t-59.5 -21.5q-28 0 -46 16.5t-18 43.5z" />
    <glyph glyph-name="Igravesmall" unicode="&#xf7ec;" horiz-adv-x="313" 
d="M308 480l-59 -416q-3 -17 13 -20l30 -7l-5 -37h-261l5 37l32 7q15 3 18 20l59 416q1 17 -13 20l-30 7l5 37h261l-5 -37l-32 -7q-17 -3 -18 -20zM177 712l91 -104l-16 -25l-124 45q-42 16 -37 54q5 30 35.5 41t50.5 -11z" />
    <glyph glyph-name="Iacutesmall" unicode="&#xf7ed;" horiz-adv-x="313" 
d="M308 480l-59 -416q-3 -17 13 -20l30 -7l-5 -37h-261l5 37l32 7q15 3 18 20l59 416q1 17 -13 20l-30 7l5 37h261l-5 -37l-32 -7q-17 -3 -18 -20zM209 608l122 104q24 21 50.5 11.5t26.5 -37.5q0 -41 -51 -58l-138 -45z" />
    <glyph glyph-name="Icircumflexsmall" unicode="&#xf7ee;" horiz-adv-x="313" 
d="M308 480l-59 -416q-3 -17 13 -20l30 -7l-5 -37h-261l5 37l32 7q15 3 18 20l59 416q1 17 -13 20l-30 7l5 37h261l-5 -37l-32 -7q-17 -3 -18 -20zM249 665l-98 -75h-44l133 180h46l84 -180h-45z" />
    <glyph glyph-name="Idieresissmall" unicode="&#xf7ef;" horiz-adv-x="313" 
d="M308 480l-59 -416q-3 -17 13 -20l30 -7l-5 -37h-261l5 37l32 7q15 3 18 20l59 416q1 17 -13 20l-30 7l5 37h261l-5 -37l-32 -7q-17 -3 -18 -20zM88 671q0 34 24.5 55.5t58.5 21.5q29 0 47 -16t18 -43q0 -35 -24.5 -56.5t-59.5 -21.5q-28 0 -46 16.5t-18 43.5zM268 671
q0 34 24.5 55.5t58.5 21.5q29 0 47 -16t18 -43q0 -35 -24.5 -56.5t-59.5 -21.5q-28 0 -46 16.5t-18 43.5z" />
    <glyph glyph-name="Ntildesmall" unicode="&#xf7f1;" horiz-adv-x="611" 
d="M469 -4l-260 453l-51 -357q-2 -23 20 -33l51 -22l-5 -37h-204l5 37l55 22q28 11 30 33l56 388q2 19 -13 20l-62 7l5 37h258l159 -253l22 158q3 21 -21 33l-52 25l5 37h207l-5 -37l-55 -25q-28 -13 -32 -33l-63 -453h-50zM252 588l-25 19q17 52 49 92.5t68 40.5
q28 0 78 -25t76 -25q18 0 28.5 8t28.5 30l23 -18q-47 -126 -113 -126q-26 0 -73 25t-74 25q-8 0 -15.5 -2.5t-12 -4.5t-12 -9t-9 -9t-9.5 -11z" />
    <glyph glyph-name="Ogravesmall" unicode="&#xf7f2;" horiz-adv-x="648" 
d="M75 234q0 74 28.5 136t75.5 101t104.5 60t118.5 21q105 0 176.5 -64t71.5 -178q0 -98 -49 -172.5t-122 -110t-156 -35.5q-104 0 -176 64.5t-72 177.5zM243 168q0 -66 19.5 -100t66.5 -34q76 0 114 79.5t38 262.5q0 65 -19 99.5t-66 34.5q-76 0 -114.5 -80t-38.5 -262z
M345 712l91 -104l-16 -25l-124 45q-42 16 -37 54q5 30 35.5 41t50.5 -11z" />
    <glyph glyph-name="Oacutesmall" unicode="&#xf7f3;" horiz-adv-x="648" 
d="M75 234q0 74 28.5 136t75.5 101t104.5 60t118.5 21q105 0 176.5 -64t71.5 -178q0 -98 -49 -172.5t-122 -110t-156 -35.5q-104 0 -176 64.5t-72 177.5zM243 168q0 -66 19.5 -100t66.5 -34q76 0 114 79.5t38 262.5q0 65 -19 99.5t-66 34.5q-76 0 -114.5 -80t-38.5 -262z
M378 608l122 104q24 21 50.5 11.5t26.5 -37.5q0 -41 -51 -58l-138 -45z" />
    <glyph glyph-name="Ocircumflexsmall" unicode="&#xf7f4;" horiz-adv-x="648" 
d="M75 234q0 74 28.5 136t75.5 101t104.5 60t118.5 21q105 0 176.5 -64t71.5 -178q0 -98 -49 -172.5t-122 -110t-156 -35.5q-104 0 -176 64.5t-72 177.5zM243 168q0 -66 19.5 -100t66.5 -34q76 0 114 79.5t38 262.5q0 65 -19 99.5t-66 34.5q-76 0 -114.5 -80t-38.5 -262z
M417 665l-98 -75h-44l133 180h46l84 -180h-45z" />
    <glyph glyph-name="Otildesmall" unicode="&#xf7f5;" horiz-adv-x="648" 
d="M75 234q0 74 28.5 136t75.5 101t104.5 60t118.5 21q105 0 176.5 -64t71.5 -178q0 -98 -49 -172.5t-122 -110t-156 -35.5q-104 0 -176 64.5t-72 177.5zM243 168q0 -66 19.5 -100t66.5 -34q76 0 114 79.5t38 262.5q0 65 -19 99.5t-66 34.5q-76 0 -114.5 -80t-38.5 -262z
M266 588l-25 19q17 52 49 92.5t68 40.5q28 0 78 -25t76 -25q18 0 28.5 8t28.5 30l23 -18q-47 -126 -113 -126q-26 0 -73 25t-74 25q-8 0 -15.5 -2.5t-12 -4.5t-12 -9t-9 -9t-9.5 -11z" />
    <glyph glyph-name="Odieresissmall" unicode="&#xf7f6;" horiz-adv-x="648" 
d="M75 234q0 74 28.5 136t75.5 101t104.5 60t118.5 21q105 0 176.5 -64t71.5 -178q0 -98 -49 -172.5t-122 -110t-156 -35.5q-104 0 -176 64.5t-72 177.5zM243 168q0 -66 19.5 -100t66.5 -34q76 0 114 79.5t38 262.5q0 65 -19 99.5t-66 34.5q-76 0 -114.5 -80t-38.5 -262z
M255 671q0 34 24.5 55.5t58.5 21.5q29 0 47 -16t18 -43q0 -35 -24.5 -56.5t-59.5 -21.5q-28 0 -46 16.5t-18 43.5zM435 671q0 34 24.5 55.5t58.5 21.5q29 0 47 -16t18 -43q0 -35 -24.5 -56.5t-59.5 -21.5q-28 0 -46 16.5t-18 43.5z" />
    <glyph glyph-name="Ugravesmall" unicode="&#xf7f9;" horiz-adv-x="606" 
d="M496 204l34 242q4 25 -19 36l-52 25l4 37h206l-5 -37l-55 -25q-29 -13 -31 -36l-34 -241q-15 -103 -78 -158t-163 -55q-116 0 -170 56t-40 158l39 274q1 17 -14 20l-30 7l5 37h261l-5 -37l-32 -7q-16 -3 -17 -20l-39 -277q-11 -76 10 -112t82 -36t97 41.5t46 107.5z
M337 712l91 -104l-16 -25l-124 45q-42 16 -37 54q5 30 35.5 41t50.5 -11z" />
    <glyph glyph-name="Uacutesmall" unicode="&#xf7fa;" horiz-adv-x="606" 
d="M496 204l34 242q4 25 -19 36l-52 25l4 37h206l-5 -37l-55 -25q-29 -13 -31 -36l-34 -241q-15 -103 -78 -158t-163 -55q-116 0 -170 56t-40 158l39 274q1 17 -14 20l-30 7l5 37h261l-5 -37l-32 -7q-16 -3 -17 -20l-39 -277q-11 -76 10 -112t82 -36t97 41.5t46 107.5z
M384 608l122 104q24 21 50.5 11.5t26.5 -37.5q0 -41 -51 -58l-138 -45z" />
    <glyph glyph-name="Ucircumflexsmall" unicode="&#xf7fb;" horiz-adv-x="606" 
d="M496 204l34 242q4 25 -19 36l-52 25l4 37h206l-5 -37l-55 -25q-29 -13 -31 -36l-34 -241q-15 -103 -78 -158t-163 -55q-116 0 -170 56t-40 158l39 274q1 17 -14 20l-30 7l5 37h261l-5 -37l-32 -7q-16 -3 -17 -20l-39 -277q-11 -76 10 -112t82 -36t97 41.5t46 107.5z
M403 665l-98 -75h-44l133 180h46l84 -180h-45z" />
    <glyph glyph-name="Udieresissmall" unicode="&#xf7fc;" horiz-adv-x="606" 
d="M496 204l34 242q4 25 -19 36l-52 25l4 37h206l-5 -37l-55 -25q-29 -13 -31 -36l-34 -241q-15 -103 -78 -158t-163 -55q-116 0 -170 56t-40 158l39 274q1 17 -14 20l-30 7l5 37h261l-5 -37l-32 -7q-16 -3 -17 -20l-39 -277q-11 -76 10 -112t82 -36t97 41.5t46 107.5z
M241 671q0 34 24.5 55.5t58.5 21.5q29 0 47 -16t18 -43q0 -35 -24.5 -56.5t-59.5 -21.5q-28 0 -46 16.5t-18 43.5zM421 671q0 34 24.5 55.5t58.5 21.5q29 0 47 -16t18 -43q0 -35 -24.5 -56.5t-59.5 -21.5q-28 0 -46 16.5t-18 43.5z" />
    <glyph glyph-name="Yacutesmall" unicode="&#xf7fd;" horiz-adv-x="574" 
d="M540 450l-140 -243l-20 -143q-3 -17 12 -20l31 -7l-5 -37h-262l5 37l33 7q15 3 18 20l20 139l-108 268q-11 24 -21 27l-25 9l6 37h266l-6 -37l-18 -5q-25 -9 -15 -35l76 -191h1l99 177q11 20 -12 32l-44 22l6 37h206l-6 -37l-54 -22q-31 -13 -43 -35zM373 608l122 104
q24 21 50.5 11.5t26.5 -37.5q0 -41 -51 -58l-138 -45z" />
    <glyph glyph-name="Ydieresissmall" unicode="&#xf7ff;" horiz-adv-x="574" 
d="M540 450l-140 -243l-20 -143q-3 -17 12 -20l31 -7l-5 -37h-262l5 37l33 7q15 3 18 20l20 139l-108 268q-11 24 -21 27l-25 9l6 37h266l-6 -37l-18 -5q-25 -9 -15 -35l76 -191h1l99 177q11 20 -12 32l-44 22l6 37h206l-6 -37l-54 -22q-31 -13 -43 -35zM223 671
q0 34 24.5 55.5t58.5 21.5q29 0 47 -16t18 -43q0 -35 -24.5 -56.5t-59.5 -21.5q-28 0 -46 16.5t-18 43.5zM403 671q0 34 24.5 55.5t58.5 21.5q29 0 47 -16t18 -43q0 -35 -24.5 -56.5t-59.5 -21.5q-28 0 -46 16.5t-18 43.5z" />
    <glyph glyph-name="cyrbreve" horiz-adv-x="396" 
d="M276 550q-38 0 -60.5 25.5t-25.5 61t0 73.5h31q1 -28 19 -49t48 -21q31 0 55 21.5t31 48.5h32q-9 -64 -41.5 -112t-88.5 -48z" />
    <glyph glyph-name="commaaccent" horiz-adv-x="274" 
d="M94 -166q-23 0 -35 16t-12 38q0 27 20.5 52t56.5 25q32 0 51.5 -25t19.5 -58q0 -119 -143 -192l-16 31q83 48 83 91q0 22 -25 22z" />
    <glyph glyph-name="undercommaaccent" horiz-adv-x="274" 
d="M94 -166q-23 0 -35 16t-12 38q0 27 20.5 52t56.5 25q32 0 51.5 -25t19.5 -58q0 -119 -143 -192l-16 31q83 48 83 91q0 22 -25 22z" />
    <glyph glyph-name="dieresisgrave" horiz-adv-x="604" 
d="M634 650q0 -37 -25.5 -59.5t-62.5 -22.5q-30 0 -48.5 17t-18.5 45q0 37 25.5 59.5t61.5 22.5q30 0 49 -17t19 -45zM304 650q0 -37 -25.5 -59.5t-61.5 -22.5q-30 0 -49 17t-19 45q0 37 25.5 59.5t62.5 22.5q29 0 48 -17t19 -45zM407 745l48 -140l-24 -18l-96 93
q-32 32 -13 67q15 26 45 26t40 -28z" />
    <glyph glyph-name="dblgrave" horiz-adv-x="507" 
d="M434 673l70 -123l-20 -21l-113 70q-36 25 -25 60q9 29 41 34.5t47 -20.5zM259 673l71 -123l-21 -21l-112 70q-37 24 -26 60q10 29 41.5 34.5t46.5 -20.5z" />
    <glyph glyph-name="cyrflex" horiz-adv-x="423" 
d="M299 625l-98 -75h-44l133 180h46l84 -180h-45z" />
    <glyph glyph-name="Acute" horiz-adv-x="342" 
d="M180 748l122 104q24 21 50.5 11.5t26.5 -37.5q0 -41 -51 -58l-138 -45z" />
    <glyph glyph-name="Breve" horiz-adv-x="396" 
d="M301 730q-38 0 -60.5 25.5t-25.5 61t0 73.5h31q1 -28 19 -49t48 -21q31 0 55 21.5t31 48.5h32q-9 -64 -41.5 -112t-88.5 -48z" />
    <glyph glyph-name="cyrBreve" horiz-adv-x="396" 
d="M301 730q-38 0 -60.5 25.5t-25.5 61t0 73.5h31q1 -28 19 -49t48 -21q31 0 55 21.5t31 48.5h32q-9 -64 -41.5 -112t-88.5 -48z" />
    <glyph glyph-name="Caron" horiz-adv-x="423" 
d="M252 910l76 -75l98 75h45l-134 -180h-46l-83 180h44z" />
    <glyph glyph-name="Cedilla" horiz-adv-x="336" 
d="M125 -56l8 56h29l-5 -42q36 -3 60 -20.5t24 -47.5q0 -90 -123 -90q-32 0 -64 12l10 24q22 -10 44 -10q27 0 43.5 17.5t16.5 47.5q0 43 -43 53z" />
    <glyph glyph-name="Circumflex" horiz-adv-x="423" 
d="M325 805l-98 -75h-44l133 180h46l84 -180h-45z" />
    <glyph glyph-name="commaaccent.cap" horiz-adv-x="274" 
d="M94 -166q-23 0 -35 16t-12 38q0 27 20.5 52t56.5 25q32 0 51.5 -25t19.5 -58q0 -119 -143 -192l-16 31q83 48 83 91q0 22 -25 22z" />
    <glyph glyph-name="Dieresis" horiz-adv-x="452" 
d="M177 811q0 34 24.5 55.5t58.5 21.5q29 0 47 -16t18 -43q0 -35 -24.5 -56.5t-59.5 -21.5q-28 0 -46 16.5t-18 43.5zM357 811q0 34 24.5 55.5t58.5 21.5q29 0 47 -16t18 -43q0 -35 -24.5 -56.5t-59.5 -21.5q-28 0 -46 16.5t-18 43.5z" />
    <glyph glyph-name="DieresisAcute" horiz-adv-x="604" 
d="M174 811q0 36 26 58.5t62 22.5q30 0 49 -17t19 -45q0 -37 -25.5 -59.5t-62.5 -22.5q-30 0 -49 17t-19 46zM504 810q0 37 25.5 59.5t62.5 22.5q29 0 48 -17t19 -45q0 -37 -25.5 -59.5t-61.5 -22.5q-30 0 -49 17t-19 45zM344 785l87 140q16 26 46.5 27.5t39.5 -25.5
q9 -36 -33 -67q-45 -33 -122 -93z" />
    <glyph glyph-name="DieresisGrave" horiz-adv-x="604" 
d="M659 830q0 -37 -25.5 -59.5t-62.5 -22.5q-30 0 -48.5 17t-18.5 45q0 37 25.5 59.5t61.5 22.5q30 0 49 -17t19 -45zM329 830q0 -37 -25.5 -59.5t-61.5 -22.5q-30 0 -49 17t-19 45q0 37 25.5 59.5t62.5 22.5q29 0 48 -17t19 -45zM432 925l48 -140l-24 -18l-96 93
q-32 32 -13 67q15 26 45 26t40 -28z" />
    <glyph glyph-name="Dotaccent" horiz-adv-x="292" 
d="M191 811q0 33 23 53.5t56 20.5q26 0 43 -15.5t17 -41.5q0 -32 -23.5 -52.5t-54.5 -20.5q-27 0 -44 15t-17 41z" />
    <glyph glyph-name="Hungarumlaut" horiz-adv-x="508" 
d="M180 730l106 123q14 17 34 20.5t34.5 -6t15.5 -28.5q1 -36 -43 -60l-132 -70zM355 730l105 123q14 16 34 20t34.5 -5.5t15.5 -28.5q1 -36 -43 -60l-132 -70z" />
    <glyph glyph-name="Grave" horiz-adv-x="342" 
d="M278 852l92 -104l-16 -25l-125 45q-43 16 -36 54q5 30 35 41t50 -11z" />
    <glyph glyph-name="dblGrave" horiz-adv-x="507" 
d="M459 853l71 -123l-21 -21l-112 70q-37 24 -26 60q10 29 41.5 34.5t46.5 -20.5zM285 853l70 -123l-21 -21l-111 70q-38 23 -26 60q10 29 41.5 34.5t46.5 -20.5z" />
    <glyph glyph-name="cyrFlex" horiz-adv-x="423" 
d="M325 805l-98 -75h-44l133 180h46l84 -180h-45z" />
    <glyph glyph-name="Macron" horiz-adv-x="423" 
d="M203 805h243l-5 -40h-243z" />
    <glyph glyph-name="Ogonek" horiz-adv-x="324" 
d="M216 -126l9 -26q-39 -48 -89 -48q-58 0 -72 47q-14 49 29 100q29 33 74 53h27q-56 -59 -43 -104q9 -32 43 -28q11 1 22 6z" />
    <glyph glyph-name="Ring" horiz-adv-x="337" 
d="M197 794q0 43 27.5 72t68.5 29q33 0 52.5 -21.5t19.5 -54.5q0 -43 -27.5 -71t-68.5 -28q-33 0 -52.5 20.5t-19.5 53.5zM246 788q0 -46 26 -46q22 0 33.5 26t11.5 58q0 47 -27 47q-21 0 -32.5 -26t-11.5 -59z" />
    <glyph glyph-name="Tilde" horiz-adv-x="497" 
d="M210 728l-25 19q17 52 49 92.5t68 40.5q28 0 78 -25t76 -25q18 0 28.5 8t28.5 30l23 -18q-47 -126 -113 -126q-26 0 -73 25t-74 25q-8 0 -15.5 -2.5t-12 -4.5t-12 -9t-9 -9t-9.5 -11z" />
    <glyph glyph-name="Acutesmall" horiz-adv-x="342" 
d="M161 608l122 104q24 21 50.5 11.5t26.5 -37.5q0 -41 -51 -58l-138 -45z" />
    <glyph glyph-name="Brevesmall" horiz-adv-x="396" 
d="M281 590q-38 0 -60.5 25.5t-25.5 61t0 73.5h31q1 -28 19 -49t48 -21q31 0 55 21.5t31 48.5h32q-9 -64 -41.5 -112t-88.5 -48z" />
    <glyph glyph-name="Caronsmall" horiz-adv-x="423" 
d="M232 770l76 -75l98 75h45l-134 -180h-46l-83 180h44z" />
    <glyph glyph-name="Cedillasmall" horiz-adv-x="336" 
d="M125 -56l8 56h29l-5 -42q36 -3 60 -20.5t24 -47.5q0 -90 -123 -90q-32 0 -64 12l10 24q22 -10 44 -10q27 0 43.5 17.5t16.5 47.5q0 43 -43 53z" />
    <glyph glyph-name="Circumflexsmall" horiz-adv-x="423" 
d="M305 665l-98 -75h-44l133 180h46l84 -180h-45z" />
    <glyph glyph-name="commaaccent.small" horiz-adv-x="274" 
d="M94 -166q-23 0 -35 16t-12 38q0 27 20.5 52t56.5 25q32 0 51.5 -25t19.5 -58q0 -119 -143 -192l-16 31q83 48 83 91q0 22 -25 22z" />
    <glyph glyph-name="Dieresissmall" horiz-adv-x="452" 
d="M158 671q0 34 24.5 55.5t58.5 21.5q29 0 47 -16t18 -43q0 -35 -24.5 -56.5t-59.5 -21.5q-28 0 -46 16.5t-18 43.5zM338 671q0 34 24.5 55.5t58.5 21.5q29 0 47 -16t18 -43q0 -35 -24.5 -56.5t-59.5 -21.5q-28 0 -46 16.5t-18 43.5z" />
    <glyph glyph-name="DieresisAcute.small" horiz-adv-x="604" 
d="M155 671q0 36 26 58.5t62 22.5q30 0 49 -17t19 -45q0 -37 -25.5 -59.5t-62.5 -22.5q-30 0 -49 17t-19 46zM485 670q0 37 25.5 59.5t62.5 22.5q29 0 48 -17t19 -45q0 -37 -25.5 -59.5t-61.5 -22.5q-30 0 -49 17t-19 45zM325 645l87 140q16 26 46.5 27.5t39.5 -25.5
q9 -36 -33 -67l-122 -93z" />
    <glyph glyph-name="DieresisGrave.small" horiz-adv-x="604" 
d="M640 690q0 -37 -25.5 -59.5t-62.5 -22.5q-30 0 -48.5 17t-18.5 45q0 37 25.5 59.5t61.5 22.5q30 0 49 -17t19 -45zM310 690q0 -37 -25.5 -59.5t-61.5 -22.5q-30 0 -49 17t-19 45q0 37 25.5 59.5t62.5 22.5q29 0 48 -17t19 -45zM413 785l48 -140l-24 -18l-96 93
q-32 32 -13 67q15 26 45 26t40 -28z" />
    <glyph glyph-name="Dotaccentsmall" horiz-adv-x="292" 
d="M172 671q0 33 23 53.5t56 20.5q26 0 43 -15.5t17 -41.5q0 -32 -23.5 -52.5t-54.5 -20.5q-27 0 -44 15t-17 41z" />
    <glyph glyph-name="Hungarumlautsmall" horiz-adv-x="508" 
d="M160 590l106 123q14 17 34 20.5t34.5 -6t15.5 -28.5q1 -36 -43 -60l-132 -70zM335 590l105 123q14 16 34 20t34.5 -5.5t15.5 -28.5q1 -36 -43 -60l-132 -70z" />
    <glyph glyph-name="Gravesmall" horiz-adv-x="342" 
d="M259 712l91 -104l-16 -25l-124 45q-42 16 -37 54q5 30 35.5 41t50.5 -11z" />
    <glyph glyph-name="dblGrave.small" horiz-adv-x="507" 
d="M439 713l71 -123l-21 -21l-112 70q-37 24 -26 60q10 29 41.5 34.5t46.5 -20.5zM265 713l70 -123l-21 -21l-111 70q-38 23 -26 60q10 29 41.5 34.5t46.5 -20.5z" />
    <glyph glyph-name="Macronsmall" horiz-adv-x="423" 
d="M183 665h243l-5 -40h-243z" />
    <glyph glyph-name="Ogoneksmall" horiz-adv-x="324" 
d="M216 -126l9 -26q-39 -48 -89 -48q-58 0 -72 47q-14 49 29 100q29 33 74 53h27q-56 -59 -43 -104q9 -32 43 -28q11 1 22 6z" />
    <glyph glyph-name="Ringsmall" horiz-adv-x="337" 
d="M178 654q0 43 27.5 72t68.5 29q33 0 52.5 -21.5t19.5 -54.5q0 -43 -27.5 -71t-68.5 -28q-33 0 -52.5 20.5t-19.5 53.5zM227 648q0 -46 26 -46q22 0 33.5 26t11.5 58q0 47 -27 47q-21 0 -32.5 -26t-11.5 -59z" />
    <glyph glyph-name="Tildesmall" horiz-adv-x="497" 
d="M191 588l-25 19q17 52 49 92.5t68 40.5q28 0 78 -25t76 -25q18 0 28.5 8t28.5 30l23 -18q-47 -126 -113 -126q-26 0 -73 25t-74 25q-8 0 -15.5 -2.5t-12 -4.5t-12 -9t-9 -9t-9.5 -11z" />
    <glyph glyph-name="middot" horiz-adv-x="292" 
d="M116 271q0 33 23 53.5t56 20.5q26 0 43 -15.5t17 -41.5q0 -32 -23.5 -52.5t-54.5 -20.5q-27 0 -44 15t-17 41z" />
    <glyph glyph-name="Asmall" horiz-adv-x="570" 
d="M312 181h-126l-33 -87q-9 -22 18 -35l43 -22l-5 -37h-202l5 37l47 19q32 11 43 41l177 451h135l108 -476q6 -23 22 -28l23 -7l-5 -37h-275l5 37l28 7q22 5 15 31zM203 228h102l-32 172h-2z" />
    <glyph glyph-name="Aogonek.small" horiz-adv-x="570" 
d="M312 181h-126l-33 -87q-9 -22 18 -35l43 -22l-5 -37h-202l5 37l47 19q32 11 43 41l177 451h135l108 -476q6 -23 22 -28l23 -7l-5 -37h-123q-30 -31 -33 -56.5t13.5 -36t39.5 -3.5l10 -24q-37 -40 -79 -40q-54 0 -65 42t30 82q24 24 60 36h-128l5 37l28 7q22 5 15 31z
M203 228h102l-32 172h-2z" />
    <glyph glyph-name="AEsmall" horiz-adv-x="755" 
d="M543 255l-30 -213h99q14 0 25 11l90 97h36l-36 -150h-434l5 37l32 7q15 3 18 20l17 120h-153l-55 -90q-11 -18 19 -35l38 -22l-5 -37h-202l5 37l50 22q27 11 43 38l282 447h408l-21 -150h-36l-49 97q-5 11 -22 11h-90l-29 -205h18q16 0 25 11l52 70h35l-29 -204h-35
l-32 70q-6 11 -22 11h-17zM242 231h129l37 262h-1z" />
    <glyph glyph-name="Bsmall" horiz-adv-x="519" 
d="M309 502l-27 -194h11q33 0 49.5 30.5t16.5 102.5q0 61 -39 61h-11zM287 266h-11l-31 -224h24q37 0 55 39.5t18 103.5q0 81 -55 81zM317 0h-292l5 37l32 7q15 3 18 20l59 416q1 17 -13 20l-30 7l5 37h267q78 0 120 -32t42 -86t-45.5 -93t-129.5 -47v-2q84 -3 122.5 -40
t38.5 -85q0 -70 -53 -114.5t-146 -44.5z" />
    <glyph glyph-name="Csmall" horiz-adv-x="524" 
d="M496 190l40 -12q-32 -97 -91 -141.5t-132 -44.5q-115 0 -177 65.5t-62 172.5q0 138 89.5 229.5t229.5 91.5q52 0 100.5 -15.5t72.5 -33.5l-20 -140h-35q-32 85 -58.5 116.5t-58.5 31.5q-69 0 -108 -79.5t-39 -238.5q0 -150 92 -150q46 0 89.5 36t67.5 112z" />
    </font>
</defs>
</svg>
